ISO-10303-21;
HEADER;
FILE_DESCRIPTION(('FreeCAD Model'),'2;1');
FILE_NAME('Open CASCADE Shape Model','2026-09-05T12:44:18',('FreeCAD'),(
    'FreeCAD'),'Open CASCADE STEP processor 7.8','FreeCAD','Unknown');
FILE_SCHEMA(('AUTOMOTIVE_DESIGN { 1 0 10303 214 1 1 1 1 }'));
ENDSEC;
DATA;
#1 = APPLICATION_PROTOCOL_DEFINITION('international standard',
  'automotive_design',2000,#2);
#2 = APPLICATION_CONTEXT(
  'core data for automotive mechanical design processes');
#3 = SHAPE_DEFINITION_REPRESENTATION(#4,#10);
#4 = PRODUCT_DEFINITION_SHAPE('','',#5);
#5 = PRODUCT_DEFINITION('design','',#6,#9);
#6 = PRODUCT_DEFINITION_FORMATION('','',#7);
#7 = PRODUCT('Open CASCADE STEP translator 7.8 2',
  'Open CASCADE STEP translator 7.8 2','',(#8));
#8 = PRODUCT_CONTEXT('',#2,'mechanical');
#9 = PRODUCT_DEFINITION_CONTEXT('part definition',#2,'design');
#10 = ADVANCED_BREP_SHAPE_REPRESENTATION('',(#11,#15),#1146);
#11 = AXIS2_PLACEMENT_3D('',#12,#13,#14);
#12 = CARTESIAN_POINT('',(0.,0.,0.));
#13 = DIRECTION('',(0.,0.,1.));
#14 = DIRECTION('',(1.,0.,-0.));
#15 = MANIFOLD_SOLID_BREP('',#16);
#16 = CLOSED_SHELL('',(#17,#73,#252,#277,#408,#432,#496,#513,#530,#547,
    #564,#581,#668,#685,#702,#719,#731,#756,#781,#803,#820,#837,#854,
    #879,#904,#938,#962,#989,#1006,#1040,#1064,#1088,#1108,#1120,#1132)
  );
#17 = ADVANCED_FACE('',(#18),#68,.F.);
#18 = FACE_BOUND('',#19,.F.);
#19 = EDGE_LOOP('',(#20,#30,#38,#46,#54,#62));
#20 = ORIENTED_EDGE('',*,*,#21,.F.);
#21 = EDGE_CURVE('',#22,#24,#26,.T.);
#22 = VERTEX_POINT('',#23);
#23 = CARTESIAN_POINT('',(38.681019110868,-11.29448152886,0.));
#24 = VERTEX_POINT('',#25);
#25 = CARTESIAN_POINT('',(109.37889285047,-16.95031142803,0.));
#26 = LINE('',#27,#28);
#27 = CARTESIAN_POINT('',(35.,-11.,0.));
#28 = VECTOR('',#29,1.);
#29 = DIRECTION('',(0.996815278536,-7.974522228289E-02,0.));
#30 = ORIENTED_EDGE('',*,*,#31,.T.);
#31 = EDGE_CURVE('',#22,#32,#34,.T.);
#32 = VERTEX_POINT('',#33);
#33 = CARTESIAN_POINT('',(38.681019110868,-11.29448152886,5.));
#34 = LINE('',#35,#36);
#35 = CARTESIAN_POINT('',(38.681019110868,-11.29448152886,0.));
#36 = VECTOR('',#37,1.);
#37 = DIRECTION('',(0.,0.,1.));
#38 = ORIENTED_EDGE('',*,*,#39,.T.);
#39 = EDGE_CURVE('',#32,#40,#42,.T.);
#40 = VERTEX_POINT('',#41);
#41 = CARTESIAN_POINT('',(61.,-13.08,5.));
#42 = LINE('',#43,#44);
#43 = CARTESIAN_POINT('',(34.364069952305,-10.94912559618,5.));
#44 = VECTOR('',#45,1.);
#45 = DIRECTION('',(0.996815278536,-7.974522228289E-02,0.));
#46 = ORIENTED_EDGE('',*,*,#47,.F.);
#47 = EDGE_CURVE('',#48,#40,#50,.T.);
#48 = VERTEX_POINT('',#49);
#49 = CARTESIAN_POINT('',(61.,-13.08,8.));
#50 = LINE('',#51,#52);
#51 = CARTESIAN_POINT('',(61.,-13.08,2.5));
#52 = VECTOR('',#53,1.);
#53 = DIRECTION('',(0.,0.,-1.));
#54 = ORIENTED_EDGE('',*,*,#55,.T.);
#55 = EDGE_CURVE('',#48,#56,#58,.T.);
#56 = VERTEX_POINT('',#57);
#57 = CARTESIAN_POINT('',(109.37889285047,-16.95031142803,8.));
#58 = LINE('',#59,#60);
#59 = CARTESIAN_POINT('',(35.,-11.,8.));
#60 = VECTOR('',#61,1.);
#61 = DIRECTION('',(0.996815278536,-7.974522228289E-02,0.));
#62 = ORIENTED_EDGE('',*,*,#63,.F.);
#63 = EDGE_CURVE('',#24,#56,#64,.T.);
#64 = LINE('',#65,#66);
#65 = CARTESIAN_POINT('',(109.37889285047,-16.95031142803,0.));
#66 = VECTOR('',#67,1.);
#67 = DIRECTION('',(0.,0.,1.));
#68 = PLANE('',#69);
#69 = AXIS2_PLACEMENT_3D('',#70,#71,#72);
#70 = CARTESIAN_POINT('',(35.,-11.,0.));
#71 = DIRECTION('',(7.974522228289E-02,0.996815278536,0.));
#72 = DIRECTION('',(0.996815278536,-7.974522228289E-02,0.));
#73 = ADVANCED_FACE('',(#74,#169,#180,#191,#236),#247,.F.);
#74 = FACE_BOUND('',#75,.F.);
#75 = EDGE_LOOP('',(#76,#77,#86,#94,#103,#111,#120,#128,#137,#145,#154,
    #162));
#76 = ORIENTED_EDGE('',*,*,#21,.T.);
#77 = ORIENTED_EDGE('',*,*,#78,.T.);
#78 = EDGE_CURVE('',#24,#79,#81,.T.);
#79 = VERTEX_POINT('',#80);
#80 = CARTESIAN_POINT('',(110.60679220202,-16.85841515286,0.));
#81 = CIRCLE('',#82,4.);
#82 = AXIS2_PLACEMENT_3D('',#83,#84,#85);
#83 = CARTESIAN_POINT('',(109.6978737396,-12.96305031389,0.));
#84 = DIRECTION('',(-0.,0.,1.));
#85 = DIRECTION('',(0.,-1.,0.));
#86 = ORIENTED_EDGE('',*,*,#87,.T.);
#87 = EDGE_CURVE('',#79,#88,#90,.T.);
#88 = VERTEX_POINT('',#89);
#89 = CARTESIAN_POINT('',(136.90891846242,-10.72125235876,0.));
#90 = LINE('',#91,#92);
#91 = CARTESIAN_POINT('',(110.,-17.,0.));
#92 = VECTOR('',#93,1.);
#93 = DIRECTION('',(0.973841209742,0.227229615606,0.));
#94 = ORIENTED_EDGE('',*,*,#95,.T.);
#95 = EDGE_CURVE('',#88,#96,#98,.T.);
#96 = VERTEX_POINT('',#97);
#97 = CARTESIAN_POINT('',(140.,-6.8258875198,0.));
#98 = CIRCLE('',#99,4.);
#99 = AXIS2_PLACEMENT_3D('',#100,#101,#102);
#100 = CARTESIAN_POINT('',(136.,-6.8258875198,0.));
#101 = DIRECTION('',(-0.,0.,1.));
#102 = DIRECTION('',(0.,-1.,0.));
#103 = ORIENTED_EDGE('',*,*,#104,.T.);
#104 = EDGE_CURVE('',#96,#105,#107,.T.);
#105 = VERTEX_POINT('',#106);
#106 = CARTESIAN_POINT('',(140.,6.8258875198,0.));
#107 = LINE('',#108,#109);
#108 = CARTESIAN_POINT('',(140.,-10.,0.));
#109 = VECTOR('',#110,1.);
#110 = DIRECTION('',(0.,1.,0.));
#111 = ORIENTED_EDGE('',*,*,#112,.T.);
#112 = EDGE_CURVE('',#105,#113,#115,.T.);
#113 = VERTEX_POINT('',#114);
#114 = CARTESIAN_POINT('',(136.90891846242,10.721252358767,0.));
#115 = CIRCLE('',#116,4.);
#116 = AXIS2_PLACEMENT_3D('',#117,#118,#119);
#117 = CARTESIAN_POINT('',(136.,6.8258875198,0.));
#118 = DIRECTION('',(-0.,0.,1.));
#119 = DIRECTION('',(0.,-1.,0.));
#120 = ORIENTED_EDGE('',*,*,#121,.T.);
#121 = EDGE_CURVE('',#113,#122,#124,.T.);
#122 = VERTEX_POINT('',#123);
#123 = CARTESIAN_POINT('',(110.60679220202,16.85841515286,0.));
#124 = LINE('',#125,#126);
#125 = CARTESIAN_POINT('',(140.,10.,0.));
#126 = VECTOR('',#127,1.);
#127 = DIRECTION('',(-0.973841209742,0.227229615606,0.));
#128 = ORIENTED_EDGE('',*,*,#129,.T.);
#129 = EDGE_CURVE('',#122,#130,#132,.T.);
#130 = VERTEX_POINT('',#131);
#131 = CARTESIAN_POINT('',(109.37889285047,16.950311428038,0.));
#132 = CIRCLE('',#133,4.);
#133 = AXIS2_PLACEMENT_3D('',#134,#135,#136);
#134 = CARTESIAN_POINT('',(109.6978737396,12.963050313893,0.));
#135 = DIRECTION('',(-0.,0.,1.));
#136 = DIRECTION('',(0.,-1.,0.));
#137 = ORIENTED_EDGE('',*,*,#138,.T.);
#138 = EDGE_CURVE('',#130,#139,#141,.T.);
#139 = VERTEX_POINT('',#140);
#140 = CARTESIAN_POINT('',(38.681019110868,11.294481528869,0.));
#141 = LINE('',#142,#143);
#142 = CARTESIAN_POINT('',(110.,17.,0.));
#143 = VECTOR('',#144,1.);
#144 = DIRECTION('',(-0.996815278536,-7.974522228289E-02,0.));
#145 = ORIENTED_EDGE('',*,*,#146,.T.);
#146 = EDGE_CURVE('',#139,#147,#149,.T.);
#147 = VERTEX_POINT('',#148);
#148 = CARTESIAN_POINT('',(35.,7.307220414725,0.));
#149 = CIRCLE('',#150,4.);
#150 = AXIS2_PLACEMENT_3D('',#151,#152,#153);
#151 = CARTESIAN_POINT('',(39.,7.307220414725,0.));
#152 = DIRECTION('',(-0.,0.,1.));
#153 = DIRECTION('',(0.,-1.,0.));
#154 = ORIENTED_EDGE('',*,*,#155,.T.);
#155 = EDGE_CURVE('',#147,#156,#158,.T.);
#156 = VERTEX_POINT('',#157);
#157 = CARTESIAN_POINT('',(35.,-7.307220414725,0.));
#158 = LINE('',#159,#160);
#159 = CARTESIAN_POINT('',(35.,11.,0.));
#160 = VECTOR('',#161,1.);
#161 = DIRECTION('',(0.,-1.,0.));
#162 = ORIENTED_EDGE('',*,*,#163,.F.);
#163 = EDGE_CURVE('',#22,#156,#164,.T.);
#164 = CIRCLE('',#165,4.);
#165 = AXIS2_PLACEMENT_3D('',#166,#167,#168);
#166 = CARTESIAN_POINT('',(39.,-7.307220414725,0.));
#167 = DIRECTION('',(-0.,-0.,-1.));
#168 = DIRECTION('',(0.,-1.,0.));
#169 = FACE_BOUND('',#170,.F.);
#170 = EDGE_LOOP('',(#171));
#171 = ORIENTED_EDGE('',*,*,#172,.F.);
#172 = EDGE_CURVE('',#173,#173,#175,.T.);
#173 = VERTEX_POINT('',#174);
#174 = CARTESIAN_POINT('',(43.75,-4.286263797016E-16,0.));
#175 = CIRCLE('',#176,1.75);
#176 = AXIS2_PLACEMENT_3D('',#177,#178,#179);
#177 = CARTESIAN_POINT('',(42.,0.,0.));
#178 = DIRECTION('',(0.,0.,1.));
#179 = DIRECTION('',(1.,0.,0.));
#180 = FACE_BOUND('',#181,.F.);
#181 = EDGE_LOOP('',(#182));
#182 = ORIENTED_EDGE('',*,*,#183,.F.);
#183 = EDGE_CURVE('',#184,#184,#186,.T.);
#184 = VERTEX_POINT('',#185);
#185 = CARTESIAN_POINT('',(54.75,-4.286263797016E-16,0.));
#186 = CIRCLE('',#187,1.75);
#187 = AXIS2_PLACEMENT_3D('',#188,#189,#190);
#188 = CARTESIAN_POINT('',(53.,0.,0.));
#189 = DIRECTION('',(0.,0.,1.));
#190 = DIRECTION('',(1.,0.,0.));
#191 = FACE_BOUND('',#192,.F.);
#192 = EDGE_LOOP('',(#193,#204,#212,#221,#230));
#193 = ORIENTED_EDGE('',*,*,#194,.F.);
#194 = EDGE_CURVE('',#195,#197,#199,.T.);
#195 = VERTEX_POINT('',#196);
#196 = CARTESIAN_POINT('',(79.5,4.5,0.));
#197 = VERTEX_POINT('',#198);
#198 = CARTESIAN_POINT('',(79.5,-4.5,0.));
#199 = CIRCLE('',#200,4.5);
#200 = AXIS2_PLACEMENT_3D('',#201,#202,#203);
#201 = CARTESIAN_POINT('',(79.5,0.,0.));
#202 = DIRECTION('',(0.,0.,1.));
#203 = DIRECTION('',(1.,0.,0.));
#204 = ORIENTED_EDGE('',*,*,#205,.F.);
#205 = EDGE_CURVE('',#206,#195,#208,.T.);
#206 = VERTEX_POINT('',#207);
#207 = CARTESIAN_POINT('',(108.5,4.5,0.));
#208 = LINE('',#209,#210);
#209 = CARTESIAN_POINT('',(83.39816588828,4.5,0.));
#210 = VECTOR('',#211,1.);
#211 = DIRECTION('',(-1.,0.,0.));
#212 = ORIENTED_EDGE('',*,*,#213,.F.);
#213 = EDGE_CURVE('',#214,#206,#216,.T.);
#214 = VERTEX_POINT('',#215);
#215 = CARTESIAN_POINT('',(113.,-1.102182119233E-15,0.));
#216 = CIRCLE('',#217,4.5);
#217 = AXIS2_PLACEMENT_3D('',#218,#219,#220);
#218 = CARTESIAN_POINT('',(108.5,0.,0.));
#219 = DIRECTION('',(0.,0.,1.));
#220 = DIRECTION('',(1.,0.,0.));
#221 = ORIENTED_EDGE('',*,*,#222,.F.);
#222 = EDGE_CURVE('',#223,#214,#225,.T.);
#223 = VERTEX_POINT('',#224);
#224 = CARTESIAN_POINT('',(108.5,-4.5,0.));
#225 = CIRCLE('',#226,4.5);
#226 = AXIS2_PLACEMENT_3D('',#227,#228,#229);
#227 = CARTESIAN_POINT('',(108.5,0.,0.));
#228 = DIRECTION('',(0.,0.,1.));
#229 = DIRECTION('',(1.,0.,0.));
#230 = ORIENTED_EDGE('',*,*,#231,.T.);
#231 = EDGE_CURVE('',#223,#197,#232,.T.);
#232 = LINE('',#233,#234);
#233 = CARTESIAN_POINT('',(83.39816588828,-4.5,0.));
#234 = VECTOR('',#235,1.);
#235 = DIRECTION('',(-1.,0.,0.));
#236 = FACE_BOUND('',#237,.F.);
#237 = EDGE_LOOP('',(#238));
#238 = ORIENTED_EDGE('',*,*,#239,.F.);
#239 = EDGE_CURVE('',#240,#240,#242,.T.);
#240 = VERTEX_POINT('',#241);
#241 = CARTESIAN_POINT('',(129.75,-4.286263797016E-16,0.));
#242 = CIRCLE('',#243,1.75);
#243 = AXIS2_PLACEMENT_3D('',#244,#245,#246);
#244 = CARTESIAN_POINT('',(128.,0.,0.));
#245 = DIRECTION('',(0.,0.,1.));
#246 = DIRECTION('',(1.,0.,0.));
#247 = PLANE('',#248);
#248 = AXIS2_PLACEMENT_3D('',#249,#250,#251);
#249 = CARTESIAN_POINT('',(87.29633177656,0.,0.));
#250 = DIRECTION('',(0.,0.,1.));
#251 = DIRECTION('',(1.,0.,0.));
#252 = ADVANCED_FACE('',(#253),#272,.T.);
#253 = FACE_BOUND('',#254,.T.);
#254 = EDGE_LOOP('',(#255,#256,#264,#271));
#255 = ORIENTED_EDGE('',*,*,#78,.T.);
#256 = ORIENTED_EDGE('',*,*,#257,.T.);
#257 = EDGE_CURVE('',#79,#258,#260,.T.);
#258 = VERTEX_POINT('',#259);
#259 = CARTESIAN_POINT('',(110.60679220202,-16.85841515286,8.));
#260 = LINE('',#261,#262);
#261 = CARTESIAN_POINT('',(110.60679220202,-16.85841515286,0.));
#262 = VECTOR('',#263,1.);
#263 = DIRECTION('',(0.,0.,1.));
#264 = ORIENTED_EDGE('',*,*,#265,.F.);
#265 = EDGE_CURVE('',#56,#258,#266,.T.);
#266 = CIRCLE('',#267,4.);
#267 = AXIS2_PLACEMENT_3D('',#268,#269,#270);
#268 = CARTESIAN_POINT('',(109.6978737396,-12.96305031389,8.));
#269 = DIRECTION('',(-0.,0.,1.));
#270 = DIRECTION('',(0.,-1.,0.));
#271 = ORIENTED_EDGE('',*,*,#63,.F.);
#272 = CYLINDRICAL_SURFACE('',#273,4.);
#273 = AXIS2_PLACEMENT_3D('',#274,#275,#276);
#274 = CARTESIAN_POINT('',(109.6978737396,-12.96305031389,0.));
#275 = DIRECTION('',(0.,0.,1.));
#276 = DIRECTION('',(-7.974522228289E-02,-0.996815278536,0.));
#277 = ADVANCED_FACE('',(#278,#347,#392),#403,.T.);
#278 = FACE_BOUND('',#279,.T.);
#279 = EDGE_LOOP('',(#280,#288,#289,#290,#298,#307,#315,#324,#332,#341)
  );
#280 = ORIENTED_EDGE('',*,*,#281,.F.);
#281 = EDGE_CURVE('',#48,#282,#284,.T.);
#282 = VERTEX_POINT('',#283);
#283 = CARTESIAN_POINT('',(61.,13.08,8.));
#284 = LINE('',#285,#286);
#285 = CARTESIAN_POINT('',(61.,-10.,8.));
#286 = VECTOR('',#287,1.);
#287 = DIRECTION('',(0.,1.,0.));
#288 = ORIENTED_EDGE('',*,*,#55,.T.);
#289 = ORIENTED_EDGE('',*,*,#265,.T.);
#290 = ORIENTED_EDGE('',*,*,#291,.T.);
#291 = EDGE_CURVE('',#258,#292,#294,.T.);
#292 = VERTEX_POINT('',#293);
#293 = CARTESIAN_POINT('',(136.90891846242,-10.72125235876,8.));
#294 = LINE('',#295,#296);
#295 = CARTESIAN_POINT('',(110.,-17.,8.));
#296 = VECTOR('',#297,1.);
#297 = DIRECTION('',(0.973841209742,0.227229615606,0.));
#298 = ORIENTED_EDGE('',*,*,#299,.T.);
#299 = EDGE_CURVE('',#292,#300,#302,.T.);
#300 = VERTEX_POINT('',#301);
#301 = CARTESIAN_POINT('',(140.,-6.8258875198,8.));
#302 = CIRCLE('',#303,4.);
#303 = AXIS2_PLACEMENT_3D('',#304,#305,#306);
#304 = CARTESIAN_POINT('',(136.,-6.8258875198,8.));
#305 = DIRECTION('',(-0.,0.,1.));
#306 = DIRECTION('',(0.,-1.,0.));
#307 = ORIENTED_EDGE('',*,*,#308,.T.);
#308 = EDGE_CURVE('',#300,#309,#311,.T.);
#309 = VERTEX_POINT('',#310);
#310 = CARTESIAN_POINT('',(140.,6.8258875198,8.));
#311 = LINE('',#312,#313);
#312 = CARTESIAN_POINT('',(140.,-10.,8.));
#313 = VECTOR('',#314,1.);
#314 = DIRECTION('',(0.,1.,0.));
#315 = ORIENTED_EDGE('',*,*,#316,.T.);
#316 = EDGE_CURVE('',#309,#317,#319,.T.);
#317 = VERTEX_POINT('',#318);
#318 = CARTESIAN_POINT('',(136.90891846242,10.721252358767,8.));
#319 = CIRCLE('',#320,4.);
#320 = AXIS2_PLACEMENT_3D('',#321,#322,#323);
#321 = CARTESIAN_POINT('',(136.,6.8258875198,8.));
#322 = DIRECTION('',(-0.,0.,1.));
#323 = DIRECTION('',(0.,-1.,0.));
#324 = ORIENTED_EDGE('',*,*,#325,.T.);
#325 = EDGE_CURVE('',#317,#326,#328,.T.);
#326 = VERTEX_POINT('',#327);
#327 = CARTESIAN_POINT('',(110.60679220202,16.85841515286,8.));
#328 = LINE('',#329,#330);
#329 = CARTESIAN_POINT('',(140.,10.,8.));
#330 = VECTOR('',#331,1.);
#331 = DIRECTION('',(-0.973841209742,0.227229615606,0.));
#332 = ORIENTED_EDGE('',*,*,#333,.T.);
#333 = EDGE_CURVE('',#326,#334,#336,.T.);
#334 = VERTEX_POINT('',#335);
#335 = CARTESIAN_POINT('',(109.37889285047,16.950311428038,8.));
#336 = CIRCLE('',#337,4.);
#337 = AXIS2_PLACEMENT_3D('',#338,#339,#340);
#338 = CARTESIAN_POINT('',(109.6978737396,12.963050313893,8.));
#339 = DIRECTION('',(-0.,0.,1.));
#340 = DIRECTION('',(0.,-1.,0.));
#341 = ORIENTED_EDGE('',*,*,#342,.T.);
#342 = EDGE_CURVE('',#334,#282,#343,.T.);
#343 = LINE('',#344,#345);
#344 = CARTESIAN_POINT('',(110.,17.,8.));
#345 = VECTOR('',#346,1.);
#346 = DIRECTION('',(-0.996815278536,-7.974522228289E-02,0.));
#347 = FACE_BOUND('',#348,.T.);
#348 = EDGE_LOOP('',(#349,#360,#368,#377,#386));
#349 = ORIENTED_EDGE('',*,*,#350,.F.);
#350 = EDGE_CURVE('',#351,#353,#355,.T.);
#351 = VERTEX_POINT('',#352);
#352 = CARTESIAN_POINT('',(79.5,4.5,8.));
#353 = VERTEX_POINT('',#354);
#354 = CARTESIAN_POINT('',(79.5,-4.5,8.));
#355 = CIRCLE('',#356,4.5);
#356 = AXIS2_PLACEMENT_3D('',#357,#358,#359);
#357 = CARTESIAN_POINT('',(79.5,0.,8.));
#358 = DIRECTION('',(0.,0.,1.));
#359 = DIRECTION('',(1.,0.,0.));
#360 = ORIENTED_EDGE('',*,*,#361,.F.);
#361 = EDGE_CURVE('',#362,#351,#364,.T.);
#362 = VERTEX_POINT('',#363);
#363 = CARTESIAN_POINT('',(108.5,4.5,8.));
#364 = LINE('',#365,#366);
#365 = CARTESIAN_POINT('',(83.39816588828,4.5,8.));
#366 = VECTOR('',#367,1.);
#367 = DIRECTION('',(-1.,0.,0.));
#368 = ORIENTED_EDGE('',*,*,#369,.F.);
#369 = EDGE_CURVE('',#370,#362,#372,.T.);
#370 = VERTEX_POINT('',#371);
#371 = CARTESIAN_POINT('',(113.,-1.102182119233E-15,8.));
#372 = CIRCLE('',#373,4.5);
#373 = AXIS2_PLACEMENT_3D('',#374,#375,#376);
#374 = CARTESIAN_POINT('',(108.5,0.,8.));
#375 = DIRECTION('',(0.,0.,1.));
#376 = DIRECTION('',(1.,0.,0.));
#377 = ORIENTED_EDGE('',*,*,#378,.F.);
#378 = EDGE_CURVE('',#379,#370,#381,.T.);
#379 = VERTEX_POINT('',#380);
#380 = CARTESIAN_POINT('',(108.5,-4.5,8.));
#381 = CIRCLE('',#382,4.5);
#382 = AXIS2_PLACEMENT_3D('',#383,#384,#385);
#383 = CARTESIAN_POINT('',(108.5,0.,8.));
#384 = DIRECTION('',(0.,0.,1.));
#385 = DIRECTION('',(1.,0.,0.));
#386 = ORIENTED_EDGE('',*,*,#387,.T.);
#387 = EDGE_CURVE('',#379,#353,#388,.T.);
#388 = LINE('',#389,#390);
#389 = CARTESIAN_POINT('',(83.39816588828,-4.5,8.));
#390 = VECTOR('',#391,1.);
#391 = DIRECTION('',(-1.,0.,0.));
#392 = FACE_BOUND('',#393,.T.);
#393 = EDGE_LOOP('',(#394));
#394 = ORIENTED_EDGE('',*,*,#395,.F.);
#395 = EDGE_CURVE('',#396,#396,#398,.T.);
#396 = VERTEX_POINT('',#397);
#397 = CARTESIAN_POINT('',(129.75,-4.286263797016E-16,8.));
#398 = CIRCLE('',#399,1.75);
#399 = AXIS2_PLACEMENT_3D('',#400,#401,#402);
#400 = CARTESIAN_POINT('',(128.,0.,8.));
#401 = DIRECTION('',(0.,0.,1.));
#402 = DIRECTION('',(1.,0.,0.));
#403 = PLANE('',#404);
#404 = AXIS2_PLACEMENT_3D('',#405,#406,#407);
#405 = CARTESIAN_POINT('',(87.29633177656,0.,8.));
#406 = DIRECTION('',(0.,0.,1.));
#407 = DIRECTION('',(1.,0.,0.));
#408 = ADVANCED_FACE('',(#409),#427,.F.);
#409 = FACE_BOUND('',#410,.F.);
#410 = EDGE_LOOP('',(#411,#412,#420,#426));
#411 = ORIENTED_EDGE('',*,*,#47,.T.);
#412 = ORIENTED_EDGE('',*,*,#413,.T.);
#413 = EDGE_CURVE('',#40,#414,#416,.T.);
#414 = VERTEX_POINT('',#415);
#415 = CARTESIAN_POINT('',(61.,13.08,5.));
#416 = LINE('',#417,#418);
#417 = CARTESIAN_POINT('',(61.,-20.,5.));
#418 = VECTOR('',#419,1.);
#419 = DIRECTION('',(0.,1.,0.));
#420 = ORIENTED_EDGE('',*,*,#421,.T.);
#421 = EDGE_CURVE('',#414,#282,#422,.T.);
#422 = LINE('',#423,#424);
#423 = CARTESIAN_POINT('',(61.,13.08,2.5));
#424 = VECTOR('',#425,1.);
#425 = DIRECTION('',(0.,0.,1.));
#426 = ORIENTED_EDGE('',*,*,#281,.F.);
#427 = PLANE('',#428);
#428 = AXIS2_PLACEMENT_3D('',#429,#430,#431);
#429 = CARTESIAN_POINT('',(61.,-20.,5.));
#430 = DIRECTION('',(1.,0.,0.));
#431 = DIRECTION('',(0.,0.,1.));
#432 = ADVANCED_FACE('',(#433,#469,#480),#491,.T.);
#433 = FACE_BOUND('',#434,.T.);
#434 = EDGE_LOOP('',(#435,#436,#444,#453,#461,#468));
#435 = ORIENTED_EDGE('',*,*,#413,.T.);
#436 = ORIENTED_EDGE('',*,*,#437,.T.);
#437 = EDGE_CURVE('',#414,#438,#440,.T.);
#438 = VERTEX_POINT('',#439);
#439 = CARTESIAN_POINT('',(38.681019110868,11.294481528869,5.));
#440 = LINE('',#441,#442);
#441 = CARTESIAN_POINT('',(70.274244833068,13.821939586645,5.));
#442 = VECTOR('',#443,1.);
#443 = DIRECTION('',(-0.996815278536,-7.974522228289E-02,0.));
#444 = ORIENTED_EDGE('',*,*,#445,.T.);
#445 = EDGE_CURVE('',#438,#446,#448,.T.);
#446 = VERTEX_POINT('',#447);
#447 = CARTESIAN_POINT('',(35.,7.307220414725,5.));
#448 = CIRCLE('',#449,4.);
#449 = AXIS2_PLACEMENT_3D('',#450,#451,#452);
#450 = CARTESIAN_POINT('',(39.,7.307220414725,5.));
#451 = DIRECTION('',(0.,0.,1.));
#452 = DIRECTION('',(-7.974522228289E-02,0.996815278536,0.));
#453 = ORIENTED_EDGE('',*,*,#454,.T.);
#454 = EDGE_CURVE('',#446,#455,#457,.T.);
#455 = VERTEX_POINT('',#456);
#456 = CARTESIAN_POINT('',(35.,-7.307220414725,5.));
#457 = LINE('',#458,#459);
#458 = CARTESIAN_POINT('',(35.,-4.5,5.));
#459 = VECTOR('',#460,1.);
#460 = DIRECTION('',(0.,-1.,0.));
#461 = ORIENTED_EDGE('',*,*,#462,.T.);
#462 = EDGE_CURVE('',#455,#32,#463,.T.);
#463 = CIRCLE('',#464,4.);
#464 = AXIS2_PLACEMENT_3D('',#465,#466,#467);
#465 = CARTESIAN_POINT('',(39.,-7.307220414725,5.));
#466 = DIRECTION('',(0.,0.,1.));
#467 = DIRECTION('',(-7.974522228289E-02,-0.996815278536,0.));
#468 = ORIENTED_EDGE('',*,*,#39,.T.);
#469 = FACE_BOUND('',#470,.T.);
#470 = EDGE_LOOP('',(#471));
#471 = ORIENTED_EDGE('',*,*,#472,.F.);
#472 = EDGE_CURVE('',#473,#473,#475,.T.);
#473 = VERTEX_POINT('',#474);
#474 = CARTESIAN_POINT('',(43.75,-4.286263797016E-16,5.));
#475 = CIRCLE('',#476,1.75);
#476 = AXIS2_PLACEMENT_3D('',#477,#478,#479);
#477 = CARTESIAN_POINT('',(42.,0.,5.));
#478 = DIRECTION('',(0.,0.,1.));
#479 = DIRECTION('',(1.,0.,0.));
#480 = FACE_BOUND('',#481,.T.);
#481 = EDGE_LOOP('',(#482));
#482 = ORIENTED_EDGE('',*,*,#483,.F.);
#483 = EDGE_CURVE('',#484,#484,#486,.T.);
#484 = VERTEX_POINT('',#485);
#485 = CARTESIAN_POINT('',(54.75,-4.286263797016E-16,5.));
#486 = CIRCLE('',#487,1.75);
#487 = AXIS2_PLACEMENT_3D('',#488,#489,#490);
#488 = CARTESIAN_POINT('',(53.,0.,5.));
#489 = DIRECTION('',(0.,0.,1.));
#490 = DIRECTION('',(1.,0.,0.));
#491 = PLANE('',#492);
#492 = AXIS2_PLACEMENT_3D('',#493,#494,#495);
#493 = CARTESIAN_POINT('',(33.,-20.,5.));
#494 = DIRECTION('',(0.,0.,1.));
#495 = DIRECTION('',(1.,0.,0.));
#496 = ADVANCED_FACE('',(#497),#508,.T.);
#497 = FACE_BOUND('',#498,.F.);
#498 = EDGE_LOOP('',(#499,#500,#501,#507));
#499 = ORIENTED_EDGE('',*,*,#31,.F.);
#500 = ORIENTED_EDGE('',*,*,#163,.T.);
#501 = ORIENTED_EDGE('',*,*,#502,.T.);
#502 = EDGE_CURVE('',#156,#455,#503,.T.);
#503 = LINE('',#504,#505);
#504 = CARTESIAN_POINT('',(35.,-7.307220414725,0.));
#505 = VECTOR('',#506,1.);
#506 = DIRECTION('',(0.,0.,1.));
#507 = ORIENTED_EDGE('',*,*,#462,.T.);
#508 = CYLINDRICAL_SURFACE('',#509,4.);
#509 = AXIS2_PLACEMENT_3D('',#510,#511,#512);
#510 = CARTESIAN_POINT('',(39.,-7.307220414725,0.));
#511 = DIRECTION('',(0.,0.,1.));
#512 = DIRECTION('',(-7.974522228289E-02,-0.996815278536,0.));
#513 = ADVANCED_FACE('',(#514),#525,.F.);
#514 = FACE_BOUND('',#515,.F.);
#515 = EDGE_LOOP('',(#516,#517,#523,#524));
#516 = ORIENTED_EDGE('',*,*,#155,.F.);
#517 = ORIENTED_EDGE('',*,*,#518,.T.);
#518 = EDGE_CURVE('',#147,#446,#519,.T.);
#519 = LINE('',#520,#521);
#520 = CARTESIAN_POINT('',(35.,7.307220414725,0.));
#521 = VECTOR('',#522,1.);
#522 = DIRECTION('',(0.,0.,1.));
#523 = ORIENTED_EDGE('',*,*,#454,.T.);
#524 = ORIENTED_EDGE('',*,*,#502,.F.);
#525 = PLANE('',#526);
#526 = AXIS2_PLACEMENT_3D('',#527,#528,#529);
#527 = CARTESIAN_POINT('',(35.,11.,0.));
#528 = DIRECTION('',(1.,0.,0.));
#529 = DIRECTION('',(0.,-1.,0.));
#530 = ADVANCED_FACE('',(#531),#542,.F.);
#531 = FACE_BOUND('',#532,.F.);
#532 = EDGE_LOOP('',(#533,#534,#535,#536));
#533 = ORIENTED_EDGE('',*,*,#87,.F.);
#534 = ORIENTED_EDGE('',*,*,#257,.T.);
#535 = ORIENTED_EDGE('',*,*,#291,.T.);
#536 = ORIENTED_EDGE('',*,*,#537,.F.);
#537 = EDGE_CURVE('',#88,#292,#538,.T.);
#538 = LINE('',#539,#540);
#539 = CARTESIAN_POINT('',(136.90891846242,-10.72125235876,0.));
#540 = VECTOR('',#541,1.);
#541 = DIRECTION('',(0.,0.,1.));
#542 = PLANE('',#543);
#543 = AXIS2_PLACEMENT_3D('',#544,#545,#546);
#544 = CARTESIAN_POINT('',(110.,-17.,0.));
#545 = DIRECTION('',(-0.227229615606,0.973841209742,0.));
#546 = DIRECTION('',(0.973841209742,0.227229615606,0.));
#547 = ADVANCED_FACE('',(#548),#559,.T.);
#548 = FACE_BOUND('',#549,.T.);
#549 = EDGE_LOOP('',(#550,#556,#557,#558));
#550 = ORIENTED_EDGE('',*,*,#551,.F.);
#551 = EDGE_CURVE('',#139,#438,#552,.T.);
#552 = LINE('',#553,#554);
#553 = CARTESIAN_POINT('',(38.681019110868,11.294481528869,0.));
#554 = VECTOR('',#555,1.);
#555 = DIRECTION('',(0.,0.,1.));
#556 = ORIENTED_EDGE('',*,*,#146,.T.);
#557 = ORIENTED_EDGE('',*,*,#518,.T.);
#558 = ORIENTED_EDGE('',*,*,#445,.F.);
#559 = CYLINDRICAL_SURFACE('',#560,4.);
#560 = AXIS2_PLACEMENT_3D('',#561,#562,#563);
#561 = CARTESIAN_POINT('',(39.,7.307220414725,0.));
#562 = DIRECTION('',(0.,0.,1.));
#563 = DIRECTION('',(-7.974522228289E-02,0.996815278536,0.));
#564 = ADVANCED_FACE('',(#565),#576,.T.);
#565 = FACE_BOUND('',#566,.T.);
#566 = EDGE_LOOP('',(#567,#568,#574,#575));
#567 = ORIENTED_EDGE('',*,*,#95,.T.);
#568 = ORIENTED_EDGE('',*,*,#569,.T.);
#569 = EDGE_CURVE('',#96,#300,#570,.T.);
#570 = LINE('',#571,#572);
#571 = CARTESIAN_POINT('',(140.,-6.8258875198,0.));
#572 = VECTOR('',#573,1.);
#573 = DIRECTION('',(0.,0.,1.));
#574 = ORIENTED_EDGE('',*,*,#299,.F.);
#575 = ORIENTED_EDGE('',*,*,#537,.F.);
#576 = CYLINDRICAL_SURFACE('',#577,4.);
#577 = AXIS2_PLACEMENT_3D('',#578,#579,#580);
#578 = CARTESIAN_POINT('',(136.,-6.8258875198,0.));
#579 = DIRECTION('',(0.,0.,1.));
#580 = DIRECTION('',(0.227229615606,-0.973841209742,0.));
#581 = ADVANCED_FACE('',(#582,#595,#629),#663,.F.);
#582 = FACE_BOUND('',#583,.F.);
#583 = EDGE_LOOP('',(#584,#585,#591,#592,#593,#594));
#584 = ORIENTED_EDGE('',*,*,#138,.F.);
#585 = ORIENTED_EDGE('',*,*,#586,.T.);
#586 = EDGE_CURVE('',#130,#334,#587,.T.);
#587 = LINE('',#588,#589);
#588 = CARTESIAN_POINT('',(109.37889285047,16.950311428038,0.));
#589 = VECTOR('',#590,1.);
#590 = DIRECTION('',(0.,0.,1.));
#591 = ORIENTED_EDGE('',*,*,#342,.T.);
#592 = ORIENTED_EDGE('',*,*,#421,.F.);
#593 = ORIENTED_EDGE('',*,*,#437,.T.);
#594 = ORIENTED_EDGE('',*,*,#551,.F.);
#595 = FACE_BOUND('',#596,.F.);
#596 = EDGE_LOOP('',(#597,#607,#615,#623));
#597 = ORIENTED_EDGE('',*,*,#598,.F.);
#598 = EDGE_CURVE('',#599,#601,#603,.T.);
#599 = VERTEX_POINT('',#600);
#600 = CARTESIAN_POINT('',(55.95,12.676,3.9));
#601 = VERTEX_POINT('',#602);
#602 = CARTESIAN_POINT('',(50.05,12.204,3.9));
#603 = LINE('',#604,#605);
#604 = CARTESIAN_POINT('',(82.332074721781,14.786565977742,3.9));
#605 = VECTOR('',#606,1.);
#606 = DIRECTION('',(-0.996815278536,-7.974522228289E-02,0.));
#607 = ORIENTED_EDGE('',*,*,#608,.T.);
#608 = EDGE_CURVE('',#599,#609,#611,.T.);
#609 = VERTEX_POINT('',#610);
#610 = CARTESIAN_POINT('',(55.95,12.676,1.1));
#611 = LINE('',#612,#613);
#612 = CARTESIAN_POINT('',(55.95,12.676,0.55));
#613 = VECTOR('',#614,1.);
#614 = DIRECTION('',(-0.,-0.,-1.));
#615 = ORIENTED_EDGE('',*,*,#616,.T.);
#616 = EDGE_CURVE('',#609,#617,#619,.T.);
#617 = VERTEX_POINT('',#618);
#618 = CARTESIAN_POINT('',(50.05,12.204,1.1));
#619 = LINE('',#620,#621);
#620 = CARTESIAN_POINT('',(82.332074721781,14.786565977742,1.1));
#621 = VECTOR('',#622,1.);
#622 = DIRECTION('',(-0.996815278536,-7.974522228289E-02,0.));
#623 = ORIENTED_EDGE('',*,*,#624,.F.);
#624 = EDGE_CURVE('',#601,#617,#625,.T.);
#625 = LINE('',#626,#627);
#626 = CARTESIAN_POINT('',(50.05,12.204,0.55));
#627 = VECTOR('',#628,1.);
#628 = DIRECTION('',(-0.,-0.,-1.));
#629 = FACE_BOUND('',#630,.F.);
#630 = EDGE_LOOP('',(#631,#641,#649,#657));
#631 = ORIENTED_EDGE('',*,*,#632,.F.);
#632 = EDGE_CURVE('',#633,#635,#637,.T.);
#633 = VERTEX_POINT('',#634);
#634 = CARTESIAN_POINT('',(44.95,11.796,3.9));
#635 = VERTEX_POINT('',#636);
#636 = CARTESIAN_POINT('',(39.05,11.324,3.9));
#637 = LINE('',#638,#639);
#638 = CARTESIAN_POINT('',(76.867050874404,14.349364069952,3.9));
#639 = VECTOR('',#640,1.);
#640 = DIRECTION('',(-0.996815278536,-7.974522228289E-02,0.));
#641 = ORIENTED_EDGE('',*,*,#642,.T.);
#642 = EDGE_CURVE('',#633,#643,#645,.T.);
#643 = VERTEX_POINT('',#644);
#644 = CARTESIAN_POINT('',(44.95,11.796,1.1));
#645 = LINE('',#646,#647);
#646 = CARTESIAN_POINT('',(44.95,11.796,0.55));
#647 = VECTOR('',#648,1.);
#648 = DIRECTION('',(-0.,-0.,-1.));
#649 = ORIENTED_EDGE('',*,*,#650,.T.);
#650 = EDGE_CURVE('',#643,#651,#653,.T.);
#651 = VERTEX_POINT('',#652);
#652 = CARTESIAN_POINT('',(39.05,11.324,1.1));
#653 = LINE('',#654,#655);
#654 = CARTESIAN_POINT('',(76.867050874404,14.349364069952,1.1));
#655 = VECTOR('',#656,1.);
#656 = DIRECTION('',(-0.996815278536,-7.974522228289E-02,0.));
#657 = ORIENTED_EDGE('',*,*,#658,.F.);
#658 = EDGE_CURVE('',#635,#651,#659,.T.);
#659 = LINE('',#660,#661);
#660 = CARTESIAN_POINT('',(39.05,11.324,0.55));
#661 = VECTOR('',#662,1.);
#662 = DIRECTION('',(-0.,-0.,-1.));
#663 = PLANE('',#664);
#664 = AXIS2_PLACEMENT_3D('',#665,#666,#667);
#665 = CARTESIAN_POINT('',(110.,17.,0.));
#666 = DIRECTION('',(7.974522228289E-02,-0.996815278536,0.));
#667 = DIRECTION('',(-0.996815278536,-7.974522228289E-02,0.));
#668 = ADVANCED_FACE('',(#669),#680,.F.);
#669 = FACE_BOUND('',#670,.F.);
#670 = EDGE_LOOP('',(#671,#672,#673,#674));
#671 = ORIENTED_EDGE('',*,*,#104,.F.);
#672 = ORIENTED_EDGE('',*,*,#569,.T.);
#673 = ORIENTED_EDGE('',*,*,#308,.T.);
#674 = ORIENTED_EDGE('',*,*,#675,.F.);
#675 = EDGE_CURVE('',#105,#309,#676,.T.);
#676 = LINE('',#677,#678);
#677 = CARTESIAN_POINT('',(140.,6.8258875198,0.));
#678 = VECTOR('',#679,1.);
#679 = DIRECTION('',(0.,0.,1.));
#680 = PLANE('',#681);
#681 = AXIS2_PLACEMENT_3D('',#682,#683,#684);
#682 = CARTESIAN_POINT('',(140.,-10.,0.));
#683 = DIRECTION('',(-1.,0.,0.));
#684 = DIRECTION('',(0.,1.,0.));
#685 = ADVANCED_FACE('',(#686),#697,.T.);
#686 = FACE_BOUND('',#687,.T.);
#687 = EDGE_LOOP('',(#688,#689,#690,#691));
#688 = ORIENTED_EDGE('',*,*,#129,.T.);
#689 = ORIENTED_EDGE('',*,*,#586,.T.);
#690 = ORIENTED_EDGE('',*,*,#333,.F.);
#691 = ORIENTED_EDGE('',*,*,#692,.F.);
#692 = EDGE_CURVE('',#122,#326,#693,.T.);
#693 = LINE('',#694,#695);
#694 = CARTESIAN_POINT('',(110.60679220202,16.85841515286,0.));
#695 = VECTOR('',#696,1.);
#696 = DIRECTION('',(0.,0.,1.));
#697 = CYLINDRICAL_SURFACE('',#698,4.);
#698 = AXIS2_PLACEMENT_3D('',#699,#700,#701);
#699 = CARTESIAN_POINT('',(109.6978737396,12.963050313893,0.));
#700 = DIRECTION('',(0.,0.,1.));
#701 = DIRECTION('',(0.227229615606,0.973841209742,0.));
#702 = ADVANCED_FACE('',(#703),#714,.T.);
#703 = FACE_BOUND('',#704,.T.);
#704 = EDGE_LOOP('',(#705,#706,#712,#713));
#705 = ORIENTED_EDGE('',*,*,#112,.T.);
#706 = ORIENTED_EDGE('',*,*,#707,.T.);
#707 = EDGE_CURVE('',#113,#317,#708,.T.);
#708 = LINE('',#709,#710);
#709 = CARTESIAN_POINT('',(136.90891846242,10.721252358767,0.));
#710 = VECTOR('',#711,1.);
#711 = DIRECTION('',(0.,0.,1.));
#712 = ORIENTED_EDGE('',*,*,#316,.F.);
#713 = ORIENTED_EDGE('',*,*,#675,.F.);
#714 = CYLINDRICAL_SURFACE('',#715,4.);
#715 = AXIS2_PLACEMENT_3D('',#716,#717,#718);
#716 = CARTESIAN_POINT('',(136.,6.8258875198,0.));
#717 = DIRECTION('',(0.,0.,1.));
#718 = DIRECTION('',(1.,0.,0.));
#719 = ADVANCED_FACE('',(#720),#726,.F.);
#720 = FACE_BOUND('',#721,.F.);
#721 = EDGE_LOOP('',(#722,#723,#724,#725));
#722 = ORIENTED_EDGE('',*,*,#121,.F.);
#723 = ORIENTED_EDGE('',*,*,#707,.T.);
#724 = ORIENTED_EDGE('',*,*,#325,.T.);
#725 = ORIENTED_EDGE('',*,*,#692,.F.);
#726 = PLANE('',#727);
#727 = AXIS2_PLACEMENT_3D('',#728,#729,#730);
#728 = CARTESIAN_POINT('',(140.,10.,0.));
#729 = DIRECTION('',(-0.227229615606,-0.973841209742,0.));
#730 = DIRECTION('',(-0.973841209742,0.227229615606,0.));
#731 = ADVANCED_FACE('',(#732),#751,.F.);
#732 = FACE_BOUND('',#733,.F.);
#733 = EDGE_LOOP('',(#734,#743,#749,#750));
#734 = ORIENTED_EDGE('',*,*,#735,.F.);
#735 = EDGE_CURVE('',#736,#736,#738,.T.);
#736 = VERTEX_POINT('',#737);
#737 = CARTESIAN_POINT('',(43.75,-4.286263797016E-16,1.1));
#738 = CIRCLE('',#739,1.75);
#739 = AXIS2_PLACEMENT_3D('',#740,#741,#742);
#740 = CARTESIAN_POINT('',(42.,0.,1.1));
#741 = DIRECTION('',(0.,0.,1.));
#742 = DIRECTION('',(1.,0.,0.));
#743 = ORIENTED_EDGE('',*,*,#744,.F.);
#744 = EDGE_CURVE('',#173,#736,#745,.T.);
#745 = LINE('',#746,#747);
#746 = CARTESIAN_POINT('',(43.75,-4.286263797016E-16,-1.));
#747 = VECTOR('',#748,1.);
#748 = DIRECTION('',(0.,0.,1.));
#749 = ORIENTED_EDGE('',*,*,#172,.T.);
#750 = ORIENTED_EDGE('',*,*,#744,.T.);
#751 = CYLINDRICAL_SURFACE('',#752,1.75);
#752 = AXIS2_PLACEMENT_3D('',#753,#754,#755);
#753 = CARTESIAN_POINT('',(42.,0.,-1.));
#754 = DIRECTION('',(0.,0.,1.));
#755 = DIRECTION('',(1.,0.,0.));
#756 = ADVANCED_FACE('',(#757),#776,.F.);
#757 = FACE_BOUND('',#758,.F.);
#758 = EDGE_LOOP('',(#759,#768,#774,#775));
#759 = ORIENTED_EDGE('',*,*,#760,.F.);
#760 = EDGE_CURVE('',#761,#761,#763,.T.);
#761 = VERTEX_POINT('',#762);
#762 = CARTESIAN_POINT('',(54.75,-4.286263797016E-16,1.1));
#763 = CIRCLE('',#764,1.75);
#764 = AXIS2_PLACEMENT_3D('',#765,#766,#767);
#765 = CARTESIAN_POINT('',(53.,0.,1.1));
#766 = DIRECTION('',(0.,0.,1.));
#767 = DIRECTION('',(1.,0.,0.));
#768 = ORIENTED_EDGE('',*,*,#769,.F.);
#769 = EDGE_CURVE('',#184,#761,#770,.T.);
#770 = LINE('',#771,#772);
#771 = CARTESIAN_POINT('',(54.75,-4.286263797016E-16,-1.));
#772 = VECTOR('',#773,1.);
#773 = DIRECTION('',(0.,0.,1.));
#774 = ORIENTED_EDGE('',*,*,#183,.T.);
#775 = ORIENTED_EDGE('',*,*,#769,.T.);
#776 = CYLINDRICAL_SURFACE('',#777,1.75);
#777 = AXIS2_PLACEMENT_3D('',#778,#779,#780);
#778 = CARTESIAN_POINT('',(53.,0.,-1.));
#779 = DIRECTION('',(0.,0.,1.));
#780 = DIRECTION('',(1.,0.,0.));
#781 = ADVANCED_FACE('',(#782),#798,.F.);
#782 = FACE_BOUND('',#783,.F.);
#783 = EDGE_LOOP('',(#784,#785,#791,#792));
#784 = ORIENTED_EDGE('',*,*,#350,.F.);
#785 = ORIENTED_EDGE('',*,*,#786,.F.);
#786 = EDGE_CURVE('',#195,#351,#787,.T.);
#787 = LINE('',#788,#789);
#788 = CARTESIAN_POINT('',(79.5,4.5,-1.));
#789 = VECTOR('',#790,1.);
#790 = DIRECTION('',(0.,0.,1.));
#791 = ORIENTED_EDGE('',*,*,#194,.T.);
#792 = ORIENTED_EDGE('',*,*,#793,.T.);
#793 = EDGE_CURVE('',#197,#353,#794,.T.);
#794 = LINE('',#795,#796);
#795 = CARTESIAN_POINT('',(79.5,-4.5,-1.));
#796 = VECTOR('',#797,1.);
#797 = DIRECTION('',(0.,0.,1.));
#798 = CYLINDRICAL_SURFACE('',#799,4.5);
#799 = AXIS2_PLACEMENT_3D('',#800,#801,#802);
#800 = CARTESIAN_POINT('',(79.5,0.,-1.));
#801 = DIRECTION('',(0.,0.,1.));
#802 = DIRECTION('',(1.,0.,0.));
#803 = ADVANCED_FACE('',(#804),#815,.F.);
#804 = FACE_BOUND('',#805,.F.);
#805 = EDGE_LOOP('',(#806,#807,#808,#809));
#806 = ORIENTED_EDGE('',*,*,#205,.T.);
#807 = ORIENTED_EDGE('',*,*,#786,.T.);
#808 = ORIENTED_EDGE('',*,*,#361,.F.);
#809 = ORIENTED_EDGE('',*,*,#810,.F.);
#810 = EDGE_CURVE('',#206,#362,#811,.T.);
#811 = LINE('',#812,#813);
#812 = CARTESIAN_POINT('',(108.5,4.5,-1.));
#813 = VECTOR('',#814,1.);
#814 = DIRECTION('',(0.,0.,1.));
#815 = PLANE('',#816);
#816 = AXIS2_PLACEMENT_3D('',#817,#818,#819);
#817 = CARTESIAN_POINT('',(79.5,4.5,-1.));
#818 = DIRECTION('',(0.,1.,0.));
#819 = DIRECTION('',(0.,0.,1.));
#820 = ADVANCED_FACE('',(#821),#832,.T.);
#821 = FACE_BOUND('',#822,.T.);
#822 = EDGE_LOOP('',(#823,#824,#825,#826));
#823 = ORIENTED_EDGE('',*,*,#231,.T.);
#824 = ORIENTED_EDGE('',*,*,#793,.T.);
#825 = ORIENTED_EDGE('',*,*,#387,.F.);
#826 = ORIENTED_EDGE('',*,*,#827,.F.);
#827 = EDGE_CURVE('',#223,#379,#828,.T.);
#828 = LINE('',#829,#830);
#829 = CARTESIAN_POINT('',(108.5,-4.5,-1.));
#830 = VECTOR('',#831,1.);
#831 = DIRECTION('',(0.,0.,1.));
#832 = PLANE('',#833);
#833 = AXIS2_PLACEMENT_3D('',#834,#835,#836);
#834 = CARTESIAN_POINT('',(79.5,-4.5,-1.));
#835 = DIRECTION('',(0.,1.,0.));
#836 = DIRECTION('',(0.,0.,1.));
#837 = ADVANCED_FACE('',(#838),#849,.F.);
#838 = FACE_BOUND('',#839,.F.);
#839 = EDGE_LOOP('',(#840,#841,#847,#848));
#840 = ORIENTED_EDGE('',*,*,#395,.F.);
#841 = ORIENTED_EDGE('',*,*,#842,.F.);
#842 = EDGE_CURVE('',#240,#396,#843,.T.);
#843 = LINE('',#844,#845);
#844 = CARTESIAN_POINT('',(129.75,-4.286263797016E-16,-1.));
#845 = VECTOR('',#846,1.);
#846 = DIRECTION('',(0.,0.,1.));
#847 = ORIENTED_EDGE('',*,*,#239,.T.);
#848 = ORIENTED_EDGE('',*,*,#842,.T.);
#849 = CYLINDRICAL_SURFACE('',#850,1.75);
#850 = AXIS2_PLACEMENT_3D('',#851,#852,#853);
#851 = CARTESIAN_POINT('',(128.,0.,-1.));
#852 = DIRECTION('',(0.,0.,1.));
#853 = DIRECTION('',(1.,0.,0.));
#854 = ADVANCED_FACE('',(#855),#874,.F.);
#855 = FACE_BOUND('',#856,.F.);
#856 = EDGE_LOOP('',(#857,#865,#866,#867));
#857 = ORIENTED_EDGE('',*,*,#858,.T.);
#858 = EDGE_CURVE('',#859,#473,#861,.T.);
#859 = VERTEX_POINT('',#860);
#860 = CARTESIAN_POINT('',(43.75,-4.286263797016E-16,3.9));
#861 = LINE('',#862,#863);
#862 = CARTESIAN_POINT('',(43.75,-4.286263797016E-16,-1.));
#863 = VECTOR('',#864,1.);
#864 = DIRECTION('',(0.,0.,1.));
#865 = ORIENTED_EDGE('',*,*,#472,.F.);
#866 = ORIENTED_EDGE('',*,*,#858,.F.);
#867 = ORIENTED_EDGE('',*,*,#868,.T.);
#868 = EDGE_CURVE('',#859,#859,#869,.T.);
#869 = CIRCLE('',#870,1.75);
#870 = AXIS2_PLACEMENT_3D('',#871,#872,#873);
#871 = CARTESIAN_POINT('',(42.,0.,3.9));
#872 = DIRECTION('',(0.,0.,1.));
#873 = DIRECTION('',(1.,0.,0.));
#874 = CYLINDRICAL_SURFACE('',#875,1.75);
#875 = AXIS2_PLACEMENT_3D('',#876,#877,#878);
#876 = CARTESIAN_POINT('',(42.,0.,-1.));
#877 = DIRECTION('',(0.,0.,1.));
#878 = DIRECTION('',(1.,0.,0.));
#879 = ADVANCED_FACE('',(#880),#899,.F.);
#880 = FACE_BOUND('',#881,.F.);
#881 = EDGE_LOOP('',(#882,#890,#891,#892));
#882 = ORIENTED_EDGE('',*,*,#883,.T.);
#883 = EDGE_CURVE('',#884,#484,#886,.T.);
#884 = VERTEX_POINT('',#885);
#885 = CARTESIAN_POINT('',(54.75,-4.286263797016E-16,3.9));
#886 = LINE('',#887,#888);
#887 = CARTESIAN_POINT('',(54.75,-4.286263797016E-16,-1.));
#888 = VECTOR('',#889,1.);
#889 = DIRECTION('',(0.,0.,1.));
#890 = ORIENTED_EDGE('',*,*,#483,.F.);
#891 = ORIENTED_EDGE('',*,*,#883,.F.);
#892 = ORIENTED_EDGE('',*,*,#893,.T.);
#893 = EDGE_CURVE('',#884,#884,#894,.T.);
#894 = CIRCLE('',#895,1.75);
#895 = AXIS2_PLACEMENT_3D('',#896,#897,#898);
#896 = CARTESIAN_POINT('',(53.,0.,3.9));
#897 = DIRECTION('',(0.,0.,1.));
#898 = DIRECTION('',(1.,0.,0.));
#899 = CYLINDRICAL_SURFACE('',#900,1.75);
#900 = AXIS2_PLACEMENT_3D('',#901,#902,#903);
#901 = CARTESIAN_POINT('',(53.,0.,-1.));
#902 = DIRECTION('',(0.,0.,1.));
#903 = DIRECTION('',(1.,0.,0.));
#904 = ADVANCED_FACE('',(#905,#930),#933,.F.);
#905 = FACE_BOUND('',#906,.F.);
#906 = EDGE_LOOP('',(#907,#915,#923,#929));
#907 = ORIENTED_EDGE('',*,*,#908,.F.);
#908 = EDGE_CURVE('',#909,#601,#911,.T.);
#909 = VERTEX_POINT('',#910);
#910 = CARTESIAN_POINT('',(50.05,-3.5,3.9));
#911 = LINE('',#912,#913);
#912 = CARTESIAN_POINT('',(50.05,-3.5,3.9));
#913 = VECTOR('',#914,1.);
#914 = DIRECTION('',(2.22044604925E-16,1.,0.));
#915 = ORIENTED_EDGE('',*,*,#916,.F.);
#916 = EDGE_CURVE('',#917,#909,#919,.T.);
#917 = VERTEX_POINT('',#918);
#918 = CARTESIAN_POINT('',(55.95,-3.5,3.9));
#919 = LINE('',#920,#921);
#920 = CARTESIAN_POINT('',(55.95,-3.5,3.9));
#921 = VECTOR('',#922,1.);
#922 = DIRECTION('',(-1.,2.22044604925E-16,0.));
#923 = ORIENTED_EDGE('',*,*,#924,.T.);
#924 = EDGE_CURVE('',#917,#599,#925,.T.);
#925 = LINE('',#926,#927);
#926 = CARTESIAN_POINT('',(55.95,-3.5,3.9));
#927 = VECTOR('',#928,1.);
#928 = DIRECTION('',(2.22044604925E-16,1.,0.));
#929 = ORIENTED_EDGE('',*,*,#598,.T.);
#930 = FACE_BOUND('',#931,.F.);
#931 = EDGE_LOOP('',(#932));
#932 = ORIENTED_EDGE('',*,*,#893,.F.);
#933 = PLANE('',#934);
#934 = AXIS2_PLACEMENT_3D('',#935,#936,#937);
#935 = CARTESIAN_POINT('',(55.95,-3.5,3.9));
#936 = DIRECTION('',(0.,0.,1.));
#937 = DIRECTION('',(2.22044604925E-16,1.,0.));
#938 = ADVANCED_FACE('',(#939),#957,.F.);
#939 = FACE_BOUND('',#940,.F.);
#940 = EDGE_LOOP('',(#941,#949,#955,#956));
#941 = ORIENTED_EDGE('',*,*,#942,.F.);
#942 = EDGE_CURVE('',#943,#617,#945,.T.);
#943 = VERTEX_POINT('',#944);
#944 = CARTESIAN_POINT('',(50.05,-3.5,1.1));
#945 = LINE('',#946,#947);
#946 = CARTESIAN_POINT('',(50.05,-3.5,1.1));
#947 = VECTOR('',#948,1.);
#948 = DIRECTION('',(2.22044604925E-16,1.,0.));
#949 = ORIENTED_EDGE('',*,*,#950,.T.);
#950 = EDGE_CURVE('',#943,#909,#951,.T.);
#951 = LINE('',#952,#953);
#952 = CARTESIAN_POINT('',(50.05,-3.5,1.1));
#953 = VECTOR('',#954,1.);
#954 = DIRECTION('',(0.,0.,1.));
#955 = ORIENTED_EDGE('',*,*,#908,.T.);
#956 = ORIENTED_EDGE('',*,*,#624,.T.);
#957 = PLANE('',#958);
#958 = AXIS2_PLACEMENT_3D('',#959,#960,#961);
#959 = CARTESIAN_POINT('',(50.05,-3.5,1.1));
#960 = DIRECTION('',(-1.,2.22044604925E-16,0.));
#961 = DIRECTION('',(0.,0.,1.));
#962 = ADVANCED_FACE('',(#963,#981),#984,.T.);
#963 = FACE_BOUND('',#964,.T.);
#964 = EDGE_LOOP('',(#965,#966,#974,#980));
#965 = ORIENTED_EDGE('',*,*,#942,.F.);
#966 = ORIENTED_EDGE('',*,*,#967,.F.);
#967 = EDGE_CURVE('',#968,#943,#970,.T.);
#968 = VERTEX_POINT('',#969);
#969 = CARTESIAN_POINT('',(55.95,-3.5,1.1));
#970 = LINE('',#971,#972);
#971 = CARTESIAN_POINT('',(55.95,-3.5,1.1));
#972 = VECTOR('',#973,1.);
#973 = DIRECTION('',(-1.,2.22044604925E-16,0.));
#974 = ORIENTED_EDGE('',*,*,#975,.T.);
#975 = EDGE_CURVE('',#968,#609,#976,.T.);
#976 = LINE('',#977,#978);
#977 = CARTESIAN_POINT('',(55.95,-3.5,1.1));
#978 = VECTOR('',#979,1.);
#979 = DIRECTION('',(2.22044604925E-16,1.,0.));
#980 = ORIENTED_EDGE('',*,*,#616,.T.);
#981 = FACE_BOUND('',#982,.T.);
#982 = EDGE_LOOP('',(#983));
#983 = ORIENTED_EDGE('',*,*,#760,.F.);
#984 = PLANE('',#985);
#985 = AXIS2_PLACEMENT_3D('',#986,#987,#988);
#986 = CARTESIAN_POINT('',(55.95,-3.5,1.1));
#987 = DIRECTION('',(0.,0.,1.));
#988 = DIRECTION('',(2.22044604925E-16,1.,0.));
#989 = ADVANCED_FACE('',(#990),#1001,.T.);
#990 = FACE_BOUND('',#991,.T.);
#991 = EDGE_LOOP('',(#992,#993,#999,#1000));
#992 = ORIENTED_EDGE('',*,*,#975,.F.);
#993 = ORIENTED_EDGE('',*,*,#994,.T.);
#994 = EDGE_CURVE('',#968,#917,#995,.T.);
#995 = LINE('',#996,#997);
#996 = CARTESIAN_POINT('',(55.95,-3.5,1.1));
#997 = VECTOR('',#998,1.);
#998 = DIRECTION('',(0.,0.,1.));
#999 = ORIENTED_EDGE('',*,*,#924,.T.);
#1000 = ORIENTED_EDGE('',*,*,#608,.T.);
#1001 = PLANE('',#1002);
#1002 = AXIS2_PLACEMENT_3D('',#1003,#1004,#1005);
#1003 = CARTESIAN_POINT('',(55.95,-3.5,1.1));
#1004 = DIRECTION('',(-1.,2.22044604925E-16,0.));
#1005 = DIRECTION('',(0.,0.,1.));
#1006 = ADVANCED_FACE('',(#1007,#1032),#1035,.F.);
#1007 = FACE_BOUND('',#1008,.F.);
#1008 = EDGE_LOOP('',(#1009,#1017,#1025,#1031));
#1009 = ORIENTED_EDGE('',*,*,#1010,.F.);
#1010 = EDGE_CURVE('',#1011,#635,#1013,.T.);
#1011 = VERTEX_POINT('',#1012);
#1012 = CARTESIAN_POINT('',(39.05,-3.5,3.9));
#1013 = LINE('',#1014,#1015);
#1014 = CARTESIAN_POINT('',(39.05,-3.5,3.9));
#1015 = VECTOR('',#1016,1.);
#1016 = DIRECTION('',(2.22044604925E-16,1.,0.));
#1017 = ORIENTED_EDGE('',*,*,#1018,.F.);
#1018 = EDGE_CURVE('',#1019,#1011,#1021,.T.);
#1019 = VERTEX_POINT('',#1020);
#1020 = CARTESIAN_POINT('',(44.95,-3.5,3.9));
#1021 = LINE('',#1022,#1023);
#1022 = CARTESIAN_POINT('',(44.95,-3.5,3.9));
#1023 = VECTOR('',#1024,1.);
#1024 = DIRECTION('',(-1.,2.22044604925E-16,0.));
#1025 = ORIENTED_EDGE('',*,*,#1026,.T.);
#1026 = EDGE_CURVE('',#1019,#633,#1027,.T.);
#1027 = LINE('',#1028,#1029);
#1028 = CARTESIAN_POINT('',(44.95,-3.5,3.9));
#1029 = VECTOR('',#1030,1.);
#1030 = DIRECTION('',(2.22044604925E-16,1.,0.));
#1031 = ORIENTED_EDGE('',*,*,#632,.T.);
#1032 = FACE_BOUND('',#1033,.F.);
#1033 = EDGE_LOOP('',(#1034));
#1034 = ORIENTED_EDGE('',*,*,#868,.F.);
#1035 = PLANE('',#1036);
#1036 = AXIS2_PLACEMENT_3D('',#1037,#1038,#1039);
#1037 = CARTESIAN_POINT('',(44.95,-3.5,3.9));
#1038 = DIRECTION('',(0.,0.,1.));
#1039 = DIRECTION('',(2.22044604925E-16,1.,0.));
#1040 = ADVANCED_FACE('',(#1041),#1059,.T.);
#1041 = FACE_BOUND('',#1042,.T.);
#1042 = EDGE_LOOP('',(#1043,#1051,#1057,#1058));
#1043 = ORIENTED_EDGE('',*,*,#1044,.F.);
#1044 = EDGE_CURVE('',#1045,#643,#1047,.T.);
#1045 = VERTEX_POINT('',#1046);
#1046 = CARTESIAN_POINT('',(44.95,-3.5,1.1));
#1047 = LINE('',#1048,#1049);
#1048 = CARTESIAN_POINT('',(44.95,-3.5,1.1));
#1049 = VECTOR('',#1050,1.);
#1050 = DIRECTION('',(2.22044604925E-16,1.,0.));
#1051 = ORIENTED_EDGE('',*,*,#1052,.T.);
#1052 = EDGE_CURVE('',#1045,#1019,#1053,.T.);
#1053 = LINE('',#1054,#1055);
#1054 = CARTESIAN_POINT('',(44.95,-3.5,1.1));
#1055 = VECTOR('',#1056,1.);
#1056 = DIRECTION('',(0.,0.,1.));
#1057 = ORIENTED_EDGE('',*,*,#1026,.T.);
#1058 = ORIENTED_EDGE('',*,*,#642,.T.);
#1059 = PLANE('',#1060);
#1060 = AXIS2_PLACEMENT_3D('',#1061,#1062,#1063);
#1061 = CARTESIAN_POINT('',(44.95,-3.5,1.1));
#1062 = DIRECTION('',(-1.,2.22044604925E-16,0.));
#1063 = DIRECTION('',(0.,0.,1.));
#1064 = ADVANCED_FACE('',(#1065),#1083,.F.);
#1065 = FACE_BOUND('',#1066,.F.);
#1066 = EDGE_LOOP('',(#1067,#1075,#1081,#1082));
#1067 = ORIENTED_EDGE('',*,*,#1068,.F.);
#1068 = EDGE_CURVE('',#1069,#651,#1071,.T.);
#1069 = VERTEX_POINT('',#1070);
#1070 = CARTESIAN_POINT('',(39.05,-3.5,1.1));
#1071 = LINE('',#1072,#1073);
#1072 = CARTESIAN_POINT('',(39.05,-3.5,1.1));
#1073 = VECTOR('',#1074,1.);
#1074 = DIRECTION('',(2.22044604925E-16,1.,0.));
#1075 = ORIENTED_EDGE('',*,*,#1076,.T.);
#1076 = EDGE_CURVE('',#1069,#1011,#1077,.T.);
#1077 = LINE('',#1078,#1079);
#1078 = CARTESIAN_POINT('',(39.05,-3.5,1.1));
#1079 = VECTOR('',#1080,1.);
#1080 = DIRECTION('',(0.,0.,1.));
#1081 = ORIENTED_EDGE('',*,*,#1010,.T.);
#1082 = ORIENTED_EDGE('',*,*,#658,.T.);
#1083 = PLANE('',#1084);
#1084 = AXIS2_PLACEMENT_3D('',#1085,#1086,#1087);
#1085 = CARTESIAN_POINT('',(39.05,-3.5,1.1));
#1086 = DIRECTION('',(-1.,2.22044604925E-16,0.));
#1087 = DIRECTION('',(0.,0.,1.));
#1088 = ADVANCED_FACE('',(#1089,#1100),#1103,.T.);
#1089 = FACE_BOUND('',#1090,.T.);
#1090 = EDGE_LOOP('',(#1091,#1092,#1098,#1099));
#1091 = ORIENTED_EDGE('',*,*,#1068,.F.);
#1092 = ORIENTED_EDGE('',*,*,#1093,.F.);
#1093 = EDGE_CURVE('',#1045,#1069,#1094,.T.);
#1094 = LINE('',#1095,#1096);
#1095 = CARTESIAN_POINT('',(44.95,-3.5,1.1));
#1096 = VECTOR('',#1097,1.);
#1097 = DIRECTION('',(-1.,2.22044604925E-16,0.));
#1098 = ORIENTED_EDGE('',*,*,#1044,.T.);
#1099 = ORIENTED_EDGE('',*,*,#650,.T.);
#1100 = FACE_BOUND('',#1101,.T.);
#1101 = EDGE_LOOP('',(#1102));
#1102 = ORIENTED_EDGE('',*,*,#735,.F.);
#1103 = PLANE('',#1104);
#1104 = AXIS2_PLACEMENT_3D('',#1105,#1106,#1107);
#1105 = CARTESIAN_POINT('',(44.95,-3.5,1.1));
#1106 = DIRECTION('',(0.,0.,1.));
#1107 = DIRECTION('',(2.22044604925E-16,1.,0.));
#1108 = ADVANCED_FACE('',(#1109),#1115,.T.);
#1109 = FACE_BOUND('',#1110,.T.);
#1110 = EDGE_LOOP('',(#1111,#1112,#1113,#1114));
#1111 = ORIENTED_EDGE('',*,*,#994,.F.);
#1112 = ORIENTED_EDGE('',*,*,#967,.T.);
#1113 = ORIENTED_EDGE('',*,*,#950,.T.);
#1114 = ORIENTED_EDGE('',*,*,#916,.F.);
#1115 = PLANE('',#1116);
#1116 = AXIS2_PLACEMENT_3D('',#1117,#1118,#1119);
#1117 = CARTESIAN_POINT('',(55.95,-3.5,1.1));
#1118 = DIRECTION('',(2.22044604925E-16,1.,0.));
#1119 = DIRECTION('',(0.,0.,1.));
#1120 = ADVANCED_FACE('',(#1121),#1127,.T.);
#1121 = FACE_BOUND('',#1122,.T.);
#1122 = EDGE_LOOP('',(#1123,#1124,#1125,#1126));
#1123 = ORIENTED_EDGE('',*,*,#1052,.F.);
#1124 = ORIENTED_EDGE('',*,*,#1093,.T.);
#1125 = ORIENTED_EDGE('',*,*,#1076,.T.);
#1126 = ORIENTED_EDGE('',*,*,#1018,.F.);
#1127 = PLANE('',#1128);
#1128 = AXIS2_PLACEMENT_3D('',#1129,#1130,#1131);
#1129 = CARTESIAN_POINT('',(44.95,-3.5,1.1));
#1130 = DIRECTION('',(2.22044604925E-16,1.,0.));
#1131 = DIRECTION('',(0.,0.,1.));
#1132 = ADVANCED_FACE('',(#1133),#1141,.F.);
#1133 = FACE_BOUND('',#1134,.F.);
#1134 = EDGE_LOOP('',(#1135,#1136,#1137,#1138,#1139,#1140));
#1135 = ORIENTED_EDGE('',*,*,#827,.F.);
#1136 = ORIENTED_EDGE('',*,*,#222,.T.);
#1137 = ORIENTED_EDGE('',*,*,#213,.T.);
#1138 = ORIENTED_EDGE('',*,*,#810,.T.);
#1139 = ORIENTED_EDGE('',*,*,#369,.F.);
#1140 = ORIENTED_EDGE('',*,*,#378,.F.);
#1141 = CYLINDRICAL_SURFACE('',#1142,4.5);
#1142 = AXIS2_PLACEMENT_3D('',#1143,#1144,#1145);
#1143 = CARTESIAN_POINT('',(108.5,0.,-1.));
#1144 = DIRECTION('',(0.,0.,1.));
#1145 = DIRECTION('',(1.,0.,0.));
#1146 = ( GEOMETRIC_REPRESENTATION_CONTEXT(3) 
GLOBAL_UNCERTAINTY_ASSIGNED_CONTEXT((#1150)) 
GLOBAL_UNIT_ASSIGNED_CONTEXT((#1147,#1148,#1149)) REPRESENTATION_CONTEXT
('Context #1','3D Context with UNIT and UNCERTAINTY') );
#1147 = ( LENGTH_UNIT() NAMED_UNIT(*) SI_UNIT(.MILLI.,.METRE.) );
#1148 = ( NAMED_UNIT(*) PLANE_ANGLE_UNIT() SI_UNIT($,.RADIAN.) );
#1149 = ( NAMED_UNIT(*) SI_UNIT($,.STERADIAN.) SOLID_ANGLE_UNIT() );
#1150 = UNCERTAINTY_MEASURE_WITH_UNIT(LENGTH_MEASURE(1.E-07),#1147,
  'distance_accuracy_value','confusion accuracy');
#1151 = PRODUCT_RELATED_PRODUCT_CATEGORY('part',$,(#7));
ENDSEC;
END-ISO-10303-21;
