ISO-10303-21;
HEADER;
FILE_DESCRIPTION(('FreeCAD Model'),'2;1');
FILE_NAME('Open CASCADE Shape Model','2026-09-05T12:44:19',('FreeCAD'),(
    'FreeCAD'),'Open CASCADE STEP processor 7.8','FreeCAD','Unknown');
FILE_SCHEMA(('AUTOMOTIVE_DESIGN { 1 0 10303 214 1 1 1 1 }'));
ENDSEC;
DATA;
#1 = APPLICATION_PROTOCOL_DEFINITION('international standard',
  'automotive_design',2000,#2);
#2 = APPLICATION_CONTEXT(
  'core data for automotive mechanical design processes');
#3 = SHAPE_DEFINITION_REPRESENTATION(#4,#10);
#4 = PRODUCT_DEFINITION_SHAPE('','',#5);
#5 = PRODUCT_DEFINITION('design','',#6,#9);
#6 = PRODUCT_DEFINITION_FORMATION('','',#7);
#7 = PRODUCT('Open CASCADE STEP translator 7.8 6',
  'Open CASCADE STEP translator 7.8 6','',(#8));
#8 = PRODUCT_CONTEXT('',#2,'mechanical');
#9 = PRODUCT_DEFINITION_CONTEXT('part definition',#2,'design');
#10 = ADVANCED_BREP_SHAPE_REPRESENTATION('',(#11,#15),#1485);
#11 = AXIS2_PLACEMENT_3D('',#12,#13,#14);
#12 = CARTESIAN_POINT('',(0.,0.,0.));
#13 = DIRECTION('',(0.,0.,1.));
#14 = DIRECTION('',(1.,0.,-0.));
#15 = MANIFOLD_SOLID_BREP('',#16);
#16 = CLOSED_SHELL('',(#17,#57,#194,#219,#244,#501,#540,#557,#574,#591,
    #625,#647,#664,#681,#698,#715,#732,#749,#761,#803,#827,#851,#879,
    #921,#945,#969,#997,#1039,#1063,#1087,#1115,#1157,#1181,#1216,#1233,
    #1250,#1267,#1284,#1301,#1313,#1338,#1350,#1375,#1387,#1412,#1424,
    #1449,#1458,#1467,#1476));
#17 = ADVANCED_FACE('',(#18),#52,.F.);
#18 = FACE_BOUND('',#19,.F.);
#19 = EDGE_LOOP('',(#20,#30,#38,#46));
#20 = ORIENTED_EDGE('',*,*,#21,.F.);
#21 = EDGE_CURVE('',#22,#24,#26,.T.);
#22 = VERTEX_POINT('',#23);
#23 = CARTESIAN_POINT('',(-134.8837496233,26.,11.));
#24 = VERTEX_POINT('',#25);
#25 = CARTESIAN_POINT('',(-134.8837496233,26.,55.));
#26 = LINE('',#27,#28);
#27 = CARTESIAN_POINT('',(-134.8837496233,26.,8.));
#28 = VECTOR('',#29,1.);
#29 = DIRECTION('',(0.,0.,1.));
#30 = ORIENTED_EDGE('',*,*,#31,.T.);
#31 = EDGE_CURVE('',#22,#32,#34,.T.);
#32 = VERTEX_POINT('',#33);
#33 = CARTESIAN_POINT('',(-134.8837496233,34.,11.));
#34 = LINE('',#35,#36);
#35 = CARTESIAN_POINT('',(-134.8837496233,26.,11.));
#36 = VECTOR('',#37,1.);
#37 = DIRECTION('',(-0.,1.,0.));
#38 = ORIENTED_EDGE('',*,*,#39,.T.);
#39 = EDGE_CURVE('',#32,#40,#42,.T.);
#40 = VERTEX_POINT('',#41);
#41 = CARTESIAN_POINT('',(-134.8837496233,34.,55.));
#42 = LINE('',#43,#44);
#43 = CARTESIAN_POINT('',(-134.8837496233,34.,8.));
#44 = VECTOR('',#45,1.);
#45 = DIRECTION('',(0.,0.,1.));
#46 = ORIENTED_EDGE('',*,*,#47,.F.);
#47 = EDGE_CURVE('',#24,#40,#48,.T.);
#48 = LINE('',#49,#50);
#49 = CARTESIAN_POINT('',(-134.8837496233,26.,55.));
#50 = VECTOR('',#51,1.);
#51 = DIRECTION('',(-0.,1.,0.));
#52 = PLANE('',#53);
#53 = AXIS2_PLACEMENT_3D('',#54,#55,#56);
#54 = CARTESIAN_POINT('',(-134.8837496233,26.,8.));
#55 = DIRECTION('',(1.,0.,-0.));
#56 = DIRECTION('',(0.,0.,1.));
#57 = ADVANCED_FACE('',(#58,#119),#189,.F.);
#58 = FACE_BOUND('',#59,.F.);
#59 = EDGE_LOOP('',(#60,#70,#77,#78,#87,#95,#104,#112));
#60 = ORIENTED_EDGE('',*,*,#61,.F.);
#61 = EDGE_CURVE('',#62,#64,#66,.T.);
#62 = VERTEX_POINT('',#63);
#63 = CARTESIAN_POINT('',(-131.8837496233,26.,8.));
#64 = VERTEX_POINT('',#65);
#65 = CARTESIAN_POINT('',(-67.88374962336,26.,8.));
#66 = LINE('',#67,#68);
#67 = CARTESIAN_POINT('',(-134.8837496233,26.,8.));
#68 = VECTOR('',#69,1.);
#69 = DIRECTION('',(1.,0.,-0.));
#70 = ORIENTED_EDGE('',*,*,#71,.F.);
#71 = EDGE_CURVE('',#22,#62,#72,.T.);
#72 = CIRCLE('',#73,3.);
#73 = AXIS2_PLACEMENT_3D('',#74,#75,#76);
#74 = CARTESIAN_POINT('',(-131.8837496233,26.,11.));
#75 = DIRECTION('',(0.,-1.,0.));
#76 = DIRECTION('',(0.,0.,1.));
#77 = ORIENTED_EDGE('',*,*,#21,.T.);
#78 = ORIENTED_EDGE('',*,*,#79,.T.);
#79 = EDGE_CURVE('',#24,#80,#82,.T.);
#80 = VERTEX_POINT('',#81);
#81 = CARTESIAN_POINT('',(-131.8837496233,26.,58.));
#82 = CIRCLE('',#83,3.);
#83 = AXIS2_PLACEMENT_3D('',#84,#85,#86);
#84 = CARTESIAN_POINT('',(-131.8837496233,26.,55.));
#85 = DIRECTION('',(-0.,1.,0.));
#86 = DIRECTION('',(0.,0.,1.));
#87 = ORIENTED_EDGE('',*,*,#88,.T.);
#88 = EDGE_CURVE('',#80,#89,#91,.T.);
#89 = VERTEX_POINT('',#90);
#90 = CARTESIAN_POINT('',(-67.88374962336,26.,58.));
#91 = LINE('',#92,#93);
#92 = CARTESIAN_POINT('',(-134.8837496233,26.,58.));
#93 = VECTOR('',#94,1.);
#94 = DIRECTION('',(1.,0.,-0.));
#95 = ORIENTED_EDGE('',*,*,#96,.F.);
#96 = EDGE_CURVE('',#97,#89,#99,.T.);
#97 = VERTEX_POINT('',#98);
#98 = CARTESIAN_POINT('',(-64.88374962336,26.,55.));
#99 = CIRCLE('',#100,3.);
#100 = AXIS2_PLACEMENT_3D('',#101,#102,#103);
#101 = CARTESIAN_POINT('',(-67.88374962336,26.,55.));
#102 = DIRECTION('',(0.,-1.,0.));
#103 = DIRECTION('',(0.,0.,1.));
#104 = ORIENTED_EDGE('',*,*,#105,.F.);
#105 = EDGE_CURVE('',#106,#97,#108,.T.);
#106 = VERTEX_POINT('',#107);
#107 = CARTESIAN_POINT('',(-64.88374962336,26.,11.));
#108 = LINE('',#109,#110);
#109 = CARTESIAN_POINT('',(-64.88374962336,26.,8.));
#110 = VECTOR('',#111,1.);
#111 = DIRECTION('',(0.,0.,1.));
#112 = ORIENTED_EDGE('',*,*,#113,.T.);
#113 = EDGE_CURVE('',#106,#64,#114,.T.);
#114 = CIRCLE('',#115,3.);
#115 = AXIS2_PLACEMENT_3D('',#116,#117,#118);
#116 = CARTESIAN_POINT('',(-67.88374962336,26.,11.));
#117 = DIRECTION('',(-0.,1.,0.));
#118 = DIRECTION('',(0.,0.,1.));
#119 = FACE_BOUND('',#120,.F.);
#120 = EDGE_LOOP('',(#121,#132,#140,#149,#157,#166,#174,#183));
#121 = ORIENTED_EDGE('',*,*,#122,.F.);
#122 = EDGE_CURVE('',#123,#125,#127,.T.);
#123 = VERTEX_POINT('',#124);
#124 = CARTESIAN_POINT('',(-116.8837496233,26.,39.5));
#125 = VERTEX_POINT('',#126);
#126 = CARTESIAN_POINT('',(-111.8837496233,26.,44.5));
#127 = CIRCLE('',#128,5.);
#128 = AXIS2_PLACEMENT_3D('',#129,#130,#131);
#129 = CARTESIAN_POINT('',(-111.8837496233,26.,39.5));
#130 = DIRECTION('',(-0.,1.,0.));
#131 = DIRECTION('',(-1.,-0.,0.));
#132 = ORIENTED_EDGE('',*,*,#133,.T.);
#133 = EDGE_CURVE('',#123,#134,#136,.T.);
#134 = VERTEX_POINT('',#135);
#135 = CARTESIAN_POINT('',(-116.8837496233,26.,26.5));
#136 = LINE('',#137,#138);
#137 = CARTESIAN_POINT('',(-116.8837496233,26.,14.75));
#138 = VECTOR('',#139,1.);
#139 = DIRECTION('',(-0.,0.,-1.));
#140 = ORIENTED_EDGE('',*,*,#141,.F.);
#141 = EDGE_CURVE('',#142,#134,#144,.T.);
#142 = VERTEX_POINT('',#143);
#143 = CARTESIAN_POINT('',(-111.8837496233,26.,21.5));
#144 = CIRCLE('',#145,5.);
#145 = AXIS2_PLACEMENT_3D('',#146,#147,#148);
#146 = CARTESIAN_POINT('',(-111.8837496233,26.,26.5));
#147 = DIRECTION('',(-0.,1.,0.));
#148 = DIRECTION('',(-1.,-0.,0.));
#149 = ORIENTED_EDGE('',*,*,#150,.T.);
#150 = EDGE_CURVE('',#142,#151,#153,.T.);
#151 = VERTEX_POINT('',#152);
#152 = CARTESIAN_POINT('',(-87.88374962336,26.,21.5));
#153 = LINE('',#154,#155);
#154 = CARTESIAN_POINT('',(-125.8837496233,26.,21.5));
#155 = VECTOR('',#156,1.);
#156 = DIRECTION('',(1.,0.,-0.));
#157 = ORIENTED_EDGE('',*,*,#158,.F.);
#158 = EDGE_CURVE('',#159,#151,#161,.T.);
#159 = VERTEX_POINT('',#160);
#160 = CARTESIAN_POINT('',(-82.88374962336,26.,26.5));
#161 = CIRCLE('',#162,5.);
#162 = AXIS2_PLACEMENT_3D('',#163,#164,#165);
#163 = CARTESIAN_POINT('',(-87.88374962336,26.,26.5));
#164 = DIRECTION('',(0.,1.,0.));
#165 = DIRECTION('',(1.,0.,-0.));
#166 = ORIENTED_EDGE('',*,*,#167,.F.);
#167 = EDGE_CURVE('',#168,#159,#170,.T.);
#168 = VERTEX_POINT('',#169);
#169 = CARTESIAN_POINT('',(-82.88374962336,26.,39.5));
#170 = LINE('',#171,#172);
#171 = CARTESIAN_POINT('',(-82.88374962336,26.,14.75));
#172 = VECTOR('',#173,1.);
#173 = DIRECTION('',(-0.,0.,-1.));
#174 = ORIENTED_EDGE('',*,*,#175,.F.);
#175 = EDGE_CURVE('',#176,#168,#178,.T.);
#176 = VERTEX_POINT('',#177);
#177 = CARTESIAN_POINT('',(-87.88374962336,26.,44.5));
#178 = CIRCLE('',#179,5.);
#179 = AXIS2_PLACEMENT_3D('',#180,#181,#182);
#180 = CARTESIAN_POINT('',(-87.88374962336,26.,39.5));
#181 = DIRECTION('',(0.,1.,0.));
#182 = DIRECTION('',(1.,0.,-0.));
#183 = ORIENTED_EDGE('',*,*,#184,.F.);
#184 = EDGE_CURVE('',#125,#176,#185,.T.);
#185 = LINE('',#186,#187);
#186 = CARTESIAN_POINT('',(-125.8837496233,26.,44.5));
#187 = VECTOR('',#188,1.);
#188 = DIRECTION('',(1.,0.,-0.));
#189 = PLANE('',#190);
#190 = AXIS2_PLACEMENT_3D('',#191,#192,#193);
#191 = CARTESIAN_POINT('',(-134.8837496233,26.,8.));
#192 = DIRECTION('',(-0.,1.,0.));
#193 = DIRECTION('',(0.,0.,1.));
#194 = ADVANCED_FACE('',(#195),#214,.T.);
#195 = FACE_BOUND('',#196,.F.);
#196 = EDGE_LOOP('',(#197,#198,#206,#213));
#197 = ORIENTED_EDGE('',*,*,#71,.T.);
#198 = ORIENTED_EDGE('',*,*,#199,.T.);
#199 = EDGE_CURVE('',#62,#200,#202,.T.);
#200 = VERTEX_POINT('',#201);
#201 = CARTESIAN_POINT('',(-131.8837496233,34.,8.));
#202 = LINE('',#203,#204);
#203 = CARTESIAN_POINT('',(-131.8837496233,26.,8.));
#204 = VECTOR('',#205,1.);
#205 = DIRECTION('',(-0.,1.,0.));
#206 = ORIENTED_EDGE('',*,*,#207,.F.);
#207 = EDGE_CURVE('',#32,#200,#208,.T.);
#208 = CIRCLE('',#209,3.);
#209 = AXIS2_PLACEMENT_3D('',#210,#211,#212);
#210 = CARTESIAN_POINT('',(-131.8837496233,34.,11.));
#211 = DIRECTION('',(0.,-1.,0.));
#212 = DIRECTION('',(0.,0.,1.));
#213 = ORIENTED_EDGE('',*,*,#31,.F.);
#214 = CYLINDRICAL_SURFACE('',#215,3.);
#215 = AXIS2_PLACEMENT_3D('',#216,#217,#218);
#216 = CARTESIAN_POINT('',(-131.8837496233,26.,11.));
#217 = DIRECTION('',(-0.,1.,0.));
#218 = DIRECTION('',(-1.,-0.,0.));
#219 = ADVANCED_FACE('',(#220),#239,.T.);
#220 = FACE_BOUND('',#221,.T.);
#221 = EDGE_LOOP('',(#222,#223,#231,#238));
#222 = ORIENTED_EDGE('',*,*,#79,.T.);
#223 = ORIENTED_EDGE('',*,*,#224,.T.);
#224 = EDGE_CURVE('',#80,#225,#227,.T.);
#225 = VERTEX_POINT('',#226);
#226 = CARTESIAN_POINT('',(-131.8837496233,34.,58.));
#227 = LINE('',#228,#229);
#228 = CARTESIAN_POINT('',(-131.8837496233,26.,58.));
#229 = VECTOR('',#230,1.);
#230 = DIRECTION('',(-0.,1.,0.));
#231 = ORIENTED_EDGE('',*,*,#232,.F.);
#232 = EDGE_CURVE('',#40,#225,#233,.T.);
#233 = CIRCLE('',#234,3.);
#234 = AXIS2_PLACEMENT_3D('',#235,#236,#237);
#235 = CARTESIAN_POINT('',(-131.8837496233,34.,55.));
#236 = DIRECTION('',(-0.,1.,0.));
#237 = DIRECTION('',(0.,0.,1.));
#238 = ORIENTED_EDGE('',*,*,#47,.F.);
#239 = CYLINDRICAL_SURFACE('',#240,3.);
#240 = AXIS2_PLACEMENT_3D('',#241,#242,#243);
#241 = CARTESIAN_POINT('',(-131.8837496233,26.,55.));
#242 = DIRECTION('',(-0.,1.,0.));
#243 = DIRECTION('',(-1.,-0.,0.));
#244 = ADVANCED_FACE('',(#245,#290,#324,#394,#428,#462),#496,.T.);
#245 = FACE_BOUND('',#246,.T.);
#246 = EDGE_LOOP('',(#247,#255,#256,#257,#258,#266,#275,#283));
#247 = ORIENTED_EDGE('',*,*,#248,.F.);
#248 = EDGE_CURVE('',#200,#249,#251,.T.);
#249 = VERTEX_POINT('',#250);
#250 = CARTESIAN_POINT('',(-67.88374962336,34.,8.));
#251 = LINE('',#252,#253);
#252 = CARTESIAN_POINT('',(-134.8837496233,34.,8.));
#253 = VECTOR('',#254,1.);
#254 = DIRECTION('',(1.,0.,-0.));
#255 = ORIENTED_EDGE('',*,*,#207,.F.);
#256 = ORIENTED_EDGE('',*,*,#39,.T.);
#257 = ORIENTED_EDGE('',*,*,#232,.T.);
#258 = ORIENTED_EDGE('',*,*,#259,.T.);
#259 = EDGE_CURVE('',#225,#260,#262,.T.);
#260 = VERTEX_POINT('',#261);
#261 = CARTESIAN_POINT('',(-67.88374962336,34.,58.));
#262 = LINE('',#263,#264);
#263 = CARTESIAN_POINT('',(-134.8837496233,34.,58.));
#264 = VECTOR('',#265,1.);
#265 = DIRECTION('',(1.,0.,-0.));
#266 = ORIENTED_EDGE('',*,*,#267,.F.);
#267 = EDGE_CURVE('',#268,#260,#270,.T.);
#268 = VERTEX_POINT('',#269);
#269 = CARTESIAN_POINT('',(-64.88374962336,34.,55.));
#270 = CIRCLE('',#271,3.);
#271 = AXIS2_PLACEMENT_3D('',#272,#273,#274);
#272 = CARTESIAN_POINT('',(-67.88374962336,34.,55.));
#273 = DIRECTION('',(0.,-1.,0.));
#274 = DIRECTION('',(0.,0.,1.));
#275 = ORIENTED_EDGE('',*,*,#276,.F.);
#276 = EDGE_CURVE('',#277,#268,#279,.T.);
#277 = VERTEX_POINT('',#278);
#278 = CARTESIAN_POINT('',(-64.88374962336,34.,11.));
#279 = LINE('',#280,#281);
#280 = CARTESIAN_POINT('',(-64.88374962336,34.,8.));
#281 = VECTOR('',#282,1.);
#282 = DIRECTION('',(0.,0.,1.));
#283 = ORIENTED_EDGE('',*,*,#284,.T.);
#284 = EDGE_CURVE('',#277,#249,#285,.T.);
#285 = CIRCLE('',#286,3.);
#286 = AXIS2_PLACEMENT_3D('',#287,#288,#289);
#287 = CARTESIAN_POINT('',(-67.88374962336,34.,11.));
#288 = DIRECTION('',(-0.,1.,0.));
#289 = DIRECTION('',(0.,0.,1.));
#290 = FACE_BOUND('',#291,.T.);
#291 = EDGE_LOOP('',(#292,#302,#310,#318));
#292 = ORIENTED_EDGE('',*,*,#293,.T.);
#293 = EDGE_CURVE('',#294,#296,#298,.T.);
#294 = VERTEX_POINT('',#295);
#295 = CARTESIAN_POINT('',(-130.8337496233,34.,13.6));
#296 = VERTEX_POINT('',#297);
#297 = CARTESIAN_POINT('',(-124.9337496233,34.,13.6));
#298 = LINE('',#299,#300);
#299 = CARTESIAN_POINT('',(-129.9087496233,34.,13.6));
#300 = VECTOR('',#301,1.);
#301 = DIRECTION('',(1.,0.,-0.));
#302 = ORIENTED_EDGE('',*,*,#303,.T.);
#303 = EDGE_CURVE('',#296,#304,#306,.T.);
#304 = VERTEX_POINT('',#305);
#305 = CARTESIAN_POINT('',(-124.9337496233,34.,16.4));
#306 = LINE('',#307,#308);
#307 = CARTESIAN_POINT('',(-124.9337496233,34.,10.8));
#308 = VECTOR('',#309,1.);
#309 = DIRECTION('',(0.,0.,1.));
#310 = ORIENTED_EDGE('',*,*,#311,.F.);
#311 = EDGE_CURVE('',#312,#304,#314,.T.);
#312 = VERTEX_POINT('',#313);
#313 = CARTESIAN_POINT('',(-130.8337496233,34.,16.4));
#314 = LINE('',#315,#316);
#315 = CARTESIAN_POINT('',(-129.9087496233,34.,16.4));
#316 = VECTOR('',#317,1.);
#317 = DIRECTION('',(1.,0.,-0.));
#318 = ORIENTED_EDGE('',*,*,#319,.F.);
#319 = EDGE_CURVE('',#294,#312,#320,.T.);
#320 = LINE('',#321,#322);
#321 = CARTESIAN_POINT('',(-130.8337496233,34.,10.8));
#322 = VECTOR('',#323,1.);
#323 = DIRECTION('',(0.,0.,1.));
#324 = FACE_BOUND('',#325,.T.);
#325 = EDGE_LOOP('',(#326,#337,#345,#354,#362,#371,#379,#388));
#326 = ORIENTED_EDGE('',*,*,#327,.F.);
#327 = EDGE_CURVE('',#328,#330,#332,.T.);
#328 = VERTEX_POINT('',#329);
#329 = CARTESIAN_POINT('',(-116.8837496233,34.,39.5));
#330 = VERTEX_POINT('',#331);
#331 = CARTESIAN_POINT('',(-111.8837496233,34.,44.5));
#332 = CIRCLE('',#333,5.);
#333 = AXIS2_PLACEMENT_3D('',#334,#335,#336);
#334 = CARTESIAN_POINT('',(-111.8837496233,34.,39.5));
#335 = DIRECTION('',(-0.,1.,0.));
#336 = DIRECTION('',(-1.,-0.,0.));
#337 = ORIENTED_EDGE('',*,*,#338,.T.);
#338 = EDGE_CURVE('',#328,#339,#341,.T.);
#339 = VERTEX_POINT('',#340);
#340 = CARTESIAN_POINT('',(-116.8837496233,34.,26.5));
#341 = LINE('',#342,#343);
#342 = CARTESIAN_POINT('',(-116.8837496233,34.,14.75));
#343 = VECTOR('',#344,1.);
#344 = DIRECTION('',(-0.,0.,-1.));
#345 = ORIENTED_EDGE('',*,*,#346,.F.);
#346 = EDGE_CURVE('',#347,#339,#349,.T.);
#347 = VERTEX_POINT('',#348);
#348 = CARTESIAN_POINT('',(-111.8837496233,34.,21.5));
#349 = CIRCLE('',#350,5.);
#350 = AXIS2_PLACEMENT_3D('',#351,#352,#353);
#351 = CARTESIAN_POINT('',(-111.8837496233,34.,26.5));
#352 = DIRECTION('',(-0.,1.,0.));
#353 = DIRECTION('',(-1.,-0.,0.));
#354 = ORIENTED_EDGE('',*,*,#355,.T.);
#355 = EDGE_CURVE('',#347,#356,#358,.T.);
#356 = VERTEX_POINT('',#357);
#357 = CARTESIAN_POINT('',(-87.88374962336,34.,21.5));
#358 = LINE('',#359,#360);
#359 = CARTESIAN_POINT('',(-125.8837496233,34.,21.5));
#360 = VECTOR('',#361,1.);
#361 = DIRECTION('',(1.,0.,-0.));
#362 = ORIENTED_EDGE('',*,*,#363,.F.);
#363 = EDGE_CURVE('',#364,#356,#366,.T.);
#364 = VERTEX_POINT('',#365);
#365 = CARTESIAN_POINT('',(-82.88374962336,34.,26.5));
#366 = CIRCLE('',#367,5.);
#367 = AXIS2_PLACEMENT_3D('',#368,#369,#370);
#368 = CARTESIAN_POINT('',(-87.88374962336,34.,26.5));
#369 = DIRECTION('',(0.,1.,0.));
#370 = DIRECTION('',(1.,0.,-0.));
#371 = ORIENTED_EDGE('',*,*,#372,.F.);
#372 = EDGE_CURVE('',#373,#364,#375,.T.);
#373 = VERTEX_POINT('',#374);
#374 = CARTESIAN_POINT('',(-82.88374962336,34.,39.5));
#375 = LINE('',#376,#377);
#376 = CARTESIAN_POINT('',(-82.88374962336,34.,14.75));
#377 = VECTOR('',#378,1.);
#378 = DIRECTION('',(-0.,0.,-1.));
#379 = ORIENTED_EDGE('',*,*,#380,.F.);
#380 = EDGE_CURVE('',#381,#373,#383,.T.);
#381 = VERTEX_POINT('',#382);
#382 = CARTESIAN_POINT('',(-87.88374962336,34.,44.5));
#383 = CIRCLE('',#384,5.);
#384 = AXIS2_PLACEMENT_3D('',#385,#386,#387);
#385 = CARTESIAN_POINT('',(-87.88374962336,34.,39.5));
#386 = DIRECTION('',(0.,1.,0.));
#387 = DIRECTION('',(1.,0.,-0.));
#388 = ORIENTED_EDGE('',*,*,#389,.F.);
#389 = EDGE_CURVE('',#330,#381,#390,.T.);
#390 = LINE('',#391,#392);
#391 = CARTESIAN_POINT('',(-125.8837496233,34.,44.5));
#392 = VECTOR('',#393,1.);
#393 = DIRECTION('',(1.,0.,-0.));
#394 = FACE_BOUND('',#395,.T.);
#395 = EDGE_LOOP('',(#396,#406,#414,#422));
#396 = ORIENTED_EDGE('',*,*,#397,.T.);
#397 = EDGE_CURVE('',#398,#400,#402,.T.);
#398 = VERTEX_POINT('',#399);
#399 = CARTESIAN_POINT('',(-130.8337496233,34.,50.6));
#400 = VERTEX_POINT('',#401);
#401 = CARTESIAN_POINT('',(-124.9337496233,34.,50.6));
#402 = LINE('',#403,#404);
#403 = CARTESIAN_POINT('',(-129.9087496233,34.,50.6));
#404 = VECTOR('',#405,1.);
#405 = DIRECTION('',(1.,0.,-0.));
#406 = ORIENTED_EDGE('',*,*,#407,.T.);
#407 = EDGE_CURVE('',#400,#408,#410,.T.);
#408 = VERTEX_POINT('',#409);
#409 = CARTESIAN_POINT('',(-124.9337496233,34.,53.4));
#410 = LINE('',#411,#412);
#411 = CARTESIAN_POINT('',(-124.9337496233,34.,29.3));
#412 = VECTOR('',#413,1.);
#413 = DIRECTION('',(0.,0.,1.));
#414 = ORIENTED_EDGE('',*,*,#415,.F.);
#415 = EDGE_CURVE('',#416,#408,#418,.T.);
#416 = VERTEX_POINT('',#417);
#417 = CARTESIAN_POINT('',(-130.8337496233,34.,53.4));
#418 = LINE('',#419,#420);
#419 = CARTESIAN_POINT('',(-129.9087496233,34.,53.4));
#420 = VECTOR('',#421,1.);
#421 = DIRECTION('',(1.,0.,-0.));
#422 = ORIENTED_EDGE('',*,*,#423,.F.);
#423 = EDGE_CURVE('',#398,#416,#424,.T.);
#424 = LINE('',#425,#426);
#425 = CARTESIAN_POINT('',(-130.8337496233,34.,29.3));
#426 = VECTOR('',#427,1.);
#427 = DIRECTION('',(0.,0.,1.));
#428 = FACE_BOUND('',#429,.T.);
#429 = EDGE_LOOP('',(#430,#440,#448,#456));
#430 = ORIENTED_EDGE('',*,*,#431,.T.);
#431 = EDGE_CURVE('',#432,#434,#436,.T.);
#432 = VERTEX_POINT('',#433);
#433 = CARTESIAN_POINT('',(-74.83374962336,34.,13.6));
#434 = VERTEX_POINT('',#435);
#435 = CARTESIAN_POINT('',(-68.93374962336,34.,13.6));
#436 = LINE('',#437,#438);
#437 = CARTESIAN_POINT('',(-101.9087496233,34.,13.6));
#438 = VECTOR('',#439,1.);
#439 = DIRECTION('',(1.,0.,-0.));
#440 = ORIENTED_EDGE('',*,*,#441,.T.);
#441 = EDGE_CURVE('',#434,#442,#444,.T.);
#442 = VERTEX_POINT('',#443);
#443 = CARTESIAN_POINT('',(-68.93374962336,34.,16.4));
#444 = LINE('',#445,#446);
#445 = CARTESIAN_POINT('',(-68.93374962336,34.,10.8));
#446 = VECTOR('',#447,1.);
#447 = DIRECTION('',(0.,0.,1.));
#448 = ORIENTED_EDGE('',*,*,#449,.F.);
#449 = EDGE_CURVE('',#450,#442,#452,.T.);
#450 = VERTEX_POINT('',#451);
#451 = CARTESIAN_POINT('',(-74.83374962336,34.,16.4));
#452 = LINE('',#453,#454);
#453 = CARTESIAN_POINT('',(-101.9087496233,34.,16.4));
#454 = VECTOR('',#455,1.);
#455 = DIRECTION('',(1.,0.,-0.));
#456 = ORIENTED_EDGE('',*,*,#457,.F.);
#457 = EDGE_CURVE('',#432,#450,#458,.T.);
#458 = LINE('',#459,#460);
#459 = CARTESIAN_POINT('',(-74.83374962336,34.,10.8));
#460 = VECTOR('',#461,1.);
#461 = DIRECTION('',(0.,0.,1.));
#462 = FACE_BOUND('',#463,.T.);
#463 = EDGE_LOOP('',(#464,#474,#482,#490));
#464 = ORIENTED_EDGE('',*,*,#465,.T.);
#465 = EDGE_CURVE('',#466,#468,#470,.T.);
#466 = VERTEX_POINT('',#467);
#467 = CARTESIAN_POINT('',(-74.83374962336,34.,50.6));
#468 = VERTEX_POINT('',#469);
#469 = CARTESIAN_POINT('',(-68.93374962336,34.,50.6));
#470 = LINE('',#471,#472);
#471 = CARTESIAN_POINT('',(-101.9087496233,34.,50.6));
#472 = VECTOR('',#473,1.);
#473 = DIRECTION('',(1.,0.,-0.));
#474 = ORIENTED_EDGE('',*,*,#475,.T.);
#475 = EDGE_CURVE('',#468,#476,#478,.T.);
#476 = VERTEX_POINT('',#477);
#477 = CARTESIAN_POINT('',(-68.93374962336,34.,53.4));
#478 = LINE('',#479,#480);
#479 = CARTESIAN_POINT('',(-68.93374962336,34.,29.3));
#480 = VECTOR('',#481,1.);
#481 = DIRECTION('',(0.,0.,1.));
#482 = ORIENTED_EDGE('',*,*,#483,.F.);
#483 = EDGE_CURVE('',#484,#476,#486,.T.);
#484 = VERTEX_POINT('',#485);
#485 = CARTESIAN_POINT('',(-74.83374962336,34.,53.4));
#486 = LINE('',#487,#488);
#487 = CARTESIAN_POINT('',(-101.9087496233,34.,53.4));
#488 = VECTOR('',#489,1.);
#489 = DIRECTION('',(1.,0.,-0.));
#490 = ORIENTED_EDGE('',*,*,#491,.F.);
#491 = EDGE_CURVE('',#466,#484,#492,.T.);
#492 = LINE('',#493,#494);
#493 = CARTESIAN_POINT('',(-74.83374962336,34.,29.3));
#494 = VECTOR('',#495,1.);
#495 = DIRECTION('',(0.,0.,1.));
#496 = PLANE('',#497);
#497 = AXIS2_PLACEMENT_3D('',#498,#499,#500);
#498 = CARTESIAN_POINT('',(-134.8837496233,34.,8.));
#499 = DIRECTION('',(-0.,1.,0.));
#500 = DIRECTION('',(0.,0.,1.));
#501 = ADVANCED_FACE('',(#502,#513,#524),#535,.F.);
#502 = FACE_BOUND('',#503,.F.);
#503 = EDGE_LOOP('',(#504,#505,#506,#507));
#504 = ORIENTED_EDGE('',*,*,#248,.F.);
#505 = ORIENTED_EDGE('',*,*,#199,.F.);
#506 = ORIENTED_EDGE('',*,*,#61,.T.);
#507 = ORIENTED_EDGE('',*,*,#508,.T.);
#508 = EDGE_CURVE('',#64,#249,#509,.T.);
#509 = LINE('',#510,#511);
#510 = CARTESIAN_POINT('',(-67.88374962336,26.,8.));
#511 = VECTOR('',#512,1.);
#512 = DIRECTION('',(-0.,1.,0.));
#513 = FACE_BOUND('',#514,.F.);
#514 = EDGE_LOOP('',(#515));
#515 = ORIENTED_EDGE('',*,*,#516,.F.);
#516 = EDGE_CURVE('',#517,#517,#519,.T.);
#517 = VERTEX_POINT('',#518);
#518 = CARTESIAN_POINT('',(-126.1337496233,30.,8.));
#519 = CIRCLE('',#520,1.75);
#520 = AXIS2_PLACEMENT_3D('',#521,#522,#523);
#521 = CARTESIAN_POINT('',(-127.8837496233,30.,8.));
#522 = DIRECTION('',(0.,0.,1.));
#523 = DIRECTION('',(1.,0.,-0.));
#524 = FACE_BOUND('',#525,.F.);
#525 = EDGE_LOOP('',(#526));
#526 = ORIENTED_EDGE('',*,*,#527,.F.);
#527 = EDGE_CURVE('',#528,#528,#530,.T.);
#528 = VERTEX_POINT('',#529);
#529 = CARTESIAN_POINT('',(-70.13374962336,30.,8.));
#530 = CIRCLE('',#531,1.75);
#531 = AXIS2_PLACEMENT_3D('',#532,#533,#534);
#532 = CARTESIAN_POINT('',(-71.88374962336,30.,8.));
#533 = DIRECTION('',(0.,0.,1.));
#534 = DIRECTION('',(1.,0.,-0.));
#535 = PLANE('',#536);
#536 = AXIS2_PLACEMENT_3D('',#537,#538,#539);
#537 = CARTESIAN_POINT('',(-134.8837496233,26.,8.));
#538 = DIRECTION('',(0.,0.,1.));
#539 = DIRECTION('',(1.,0.,-0.));
#540 = ADVANCED_FACE('',(#541),#552,.T.);
#541 = FACE_BOUND('',#542,.T.);
#542 = EDGE_LOOP('',(#543,#544,#545,#546));
#543 = ORIENTED_EDGE('',*,*,#113,.T.);
#544 = ORIENTED_EDGE('',*,*,#508,.T.);
#545 = ORIENTED_EDGE('',*,*,#284,.F.);
#546 = ORIENTED_EDGE('',*,*,#547,.F.);
#547 = EDGE_CURVE('',#106,#277,#548,.T.);
#548 = LINE('',#549,#550);
#549 = CARTESIAN_POINT('',(-64.88374962336,26.,11.));
#550 = VECTOR('',#551,1.);
#551 = DIRECTION('',(-0.,1.,0.));
#552 = CYLINDRICAL_SURFACE('',#553,3.);
#553 = AXIS2_PLACEMENT_3D('',#554,#555,#556);
#554 = CARTESIAN_POINT('',(-67.88374962336,26.,11.));
#555 = DIRECTION('',(-0.,1.,0.));
#556 = DIRECTION('',(1.,0.,-0.));
#557 = ADVANCED_FACE('',(#558),#569,.T.);
#558 = FACE_BOUND('',#559,.T.);
#559 = EDGE_LOOP('',(#560,#561,#562,#563));
#560 = ORIENTED_EDGE('',*,*,#105,.F.);
#561 = ORIENTED_EDGE('',*,*,#547,.T.);
#562 = ORIENTED_EDGE('',*,*,#276,.T.);
#563 = ORIENTED_EDGE('',*,*,#564,.F.);
#564 = EDGE_CURVE('',#97,#268,#565,.T.);
#565 = LINE('',#566,#567);
#566 = CARTESIAN_POINT('',(-64.88374962336,26.,55.));
#567 = VECTOR('',#568,1.);
#568 = DIRECTION('',(-0.,1.,0.));
#569 = PLANE('',#570);
#570 = AXIS2_PLACEMENT_3D('',#571,#572,#573);
#571 = CARTESIAN_POINT('',(-64.88374962336,26.,8.));
#572 = DIRECTION('',(1.,0.,-0.));
#573 = DIRECTION('',(0.,0.,1.));
#574 = ADVANCED_FACE('',(#575),#586,.T.);
#575 = FACE_BOUND('',#576,.F.);
#576 = EDGE_LOOP('',(#577,#578,#584,#585));
#577 = ORIENTED_EDGE('',*,*,#96,.T.);
#578 = ORIENTED_EDGE('',*,*,#579,.T.);
#579 = EDGE_CURVE('',#89,#260,#580,.T.);
#580 = LINE('',#581,#582);
#581 = CARTESIAN_POINT('',(-67.88374962336,26.,58.));
#582 = VECTOR('',#583,1.);
#583 = DIRECTION('',(-0.,1.,0.));
#584 = ORIENTED_EDGE('',*,*,#267,.F.);
#585 = ORIENTED_EDGE('',*,*,#564,.F.);
#586 = CYLINDRICAL_SURFACE('',#587,3.);
#587 = AXIS2_PLACEMENT_3D('',#588,#589,#590);
#588 = CARTESIAN_POINT('',(-67.88374962336,26.,55.));
#589 = DIRECTION('',(-0.,1.,0.));
#590 = DIRECTION('',(1.,0.,-0.));
#591 = ADVANCED_FACE('',(#592,#598,#609),#620,.T.);
#592 = FACE_BOUND('',#593,.T.);
#593 = EDGE_LOOP('',(#594,#595,#596,#597));
#594 = ORIENTED_EDGE('',*,*,#259,.F.);
#595 = ORIENTED_EDGE('',*,*,#224,.F.);
#596 = ORIENTED_EDGE('',*,*,#88,.T.);
#597 = ORIENTED_EDGE('',*,*,#579,.T.);
#598 = FACE_BOUND('',#599,.T.);
#599 = EDGE_LOOP('',(#600));
#600 = ORIENTED_EDGE('',*,*,#601,.F.);
#601 = EDGE_CURVE('',#602,#602,#604,.T.);
#602 = VERTEX_POINT('',#603);
#603 = CARTESIAN_POINT('',(-126.1337496233,30.,58.));
#604 = CIRCLE('',#605,1.75);
#605 = AXIS2_PLACEMENT_3D('',#606,#607,#608);
#606 = CARTESIAN_POINT('',(-127.8837496233,30.,58.));
#607 = DIRECTION('',(0.,0.,1.));
#608 = DIRECTION('',(1.,0.,-0.));
#609 = FACE_BOUND('',#610,.T.);
#610 = EDGE_LOOP('',(#611));
#611 = ORIENTED_EDGE('',*,*,#612,.F.);
#612 = EDGE_CURVE('',#613,#613,#615,.T.);
#613 = VERTEX_POINT('',#614);
#614 = CARTESIAN_POINT('',(-70.13374962336,30.,58.));
#615 = CIRCLE('',#616,1.75);
#616 = AXIS2_PLACEMENT_3D('',#617,#618,#619);
#617 = CARTESIAN_POINT('',(-71.88374962336,30.,58.));
#618 = DIRECTION('',(0.,0.,1.));
#619 = DIRECTION('',(1.,0.,-0.));
#620 = PLANE('',#621);
#621 = AXIS2_PLACEMENT_3D('',#622,#623,#624);
#622 = CARTESIAN_POINT('',(-134.8837496233,26.,58.));
#623 = DIRECTION('',(0.,0.,1.));
#624 = DIRECTION('',(1.,0.,-0.));
#625 = ADVANCED_FACE('',(#626),#642,.F.);
#626 = FACE_BOUND('',#627,.F.);
#627 = EDGE_LOOP('',(#628,#634,#635,#641));
#628 = ORIENTED_EDGE('',*,*,#629,.F.);
#629 = EDGE_CURVE('',#123,#328,#630,.T.);
#630 = LINE('',#631,#632);
#631 = CARTESIAN_POINT('',(-116.8837496233,24.,39.5));
#632 = VECTOR('',#633,1.);
#633 = DIRECTION('',(-0.,1.,0.));
#634 = ORIENTED_EDGE('',*,*,#122,.T.);
#635 = ORIENTED_EDGE('',*,*,#636,.T.);
#636 = EDGE_CURVE('',#125,#330,#637,.T.);
#637 = LINE('',#638,#639);
#638 = CARTESIAN_POINT('',(-111.8837496233,24.,44.5));
#639 = VECTOR('',#640,1.);
#640 = DIRECTION('',(-0.,1.,0.));
#641 = ORIENTED_EDGE('',*,*,#327,.F.);
#642 = CYLINDRICAL_SURFACE('',#643,5.);
#643 = AXIS2_PLACEMENT_3D('',#644,#645,#646);
#644 = CARTESIAN_POINT('',(-111.8837496233,24.,39.5));
#645 = DIRECTION('',(-0.,1.,0.));
#646 = DIRECTION('',(-1.,-0.,0.));
#647 = ADVANCED_FACE('',(#648),#659,.F.);
#648 = FACE_BOUND('',#649,.F.);
#649 = EDGE_LOOP('',(#650,#651,#652,#653));
#650 = ORIENTED_EDGE('',*,*,#389,.F.);
#651 = ORIENTED_EDGE('',*,*,#636,.F.);
#652 = ORIENTED_EDGE('',*,*,#184,.T.);
#653 = ORIENTED_EDGE('',*,*,#654,.T.);
#654 = EDGE_CURVE('',#176,#381,#655,.T.);
#655 = LINE('',#656,#657);
#656 = CARTESIAN_POINT('',(-87.88374962336,24.,44.5));
#657 = VECTOR('',#658,1.);
#658 = DIRECTION('',(-0.,1.,0.));
#659 = PLANE('',#660);
#660 = AXIS2_PLACEMENT_3D('',#661,#662,#663);
#661 = CARTESIAN_POINT('',(-116.8837496233,24.,44.5));
#662 = DIRECTION('',(0.,0.,1.));
#663 = DIRECTION('',(1.,0.,-0.));
#664 = ADVANCED_FACE('',(#665),#676,.F.);
#665 = FACE_BOUND('',#666,.T.);
#666 = EDGE_LOOP('',(#667,#673,#674,#675));
#667 = ORIENTED_EDGE('',*,*,#668,.F.);
#668 = EDGE_CURVE('',#168,#373,#669,.T.);
#669 = LINE('',#670,#671);
#670 = CARTESIAN_POINT('',(-82.88374962336,24.,39.5));
#671 = VECTOR('',#672,1.);
#672 = DIRECTION('',(-0.,1.,0.));
#673 = ORIENTED_EDGE('',*,*,#175,.F.);
#674 = ORIENTED_EDGE('',*,*,#654,.T.);
#675 = ORIENTED_EDGE('',*,*,#380,.T.);
#676 = CYLINDRICAL_SURFACE('',#677,5.);
#677 = AXIS2_PLACEMENT_3D('',#678,#679,#680);
#678 = CARTESIAN_POINT('',(-87.88374962336,24.,39.5));
#679 = DIRECTION('',(-0.,1.,0.));
#680 = DIRECTION('',(1.,0.,-0.));
#681 = ADVANCED_FACE('',(#682),#693,.F.);
#682 = FACE_BOUND('',#683,.F.);
#683 = EDGE_LOOP('',(#684,#685,#691,#692));
#684 = ORIENTED_EDGE('',*,*,#167,.T.);
#685 = ORIENTED_EDGE('',*,*,#686,.T.);
#686 = EDGE_CURVE('',#159,#364,#687,.T.);
#687 = LINE('',#688,#689);
#688 = CARTESIAN_POINT('',(-82.88374962336,24.,26.5));
#689 = VECTOR('',#690,1.);
#690 = DIRECTION('',(-0.,1.,0.));
#691 = ORIENTED_EDGE('',*,*,#372,.F.);
#692 = ORIENTED_EDGE('',*,*,#668,.F.);
#693 = PLANE('',#694);
#694 = AXIS2_PLACEMENT_3D('',#695,#696,#697);
#695 = CARTESIAN_POINT('',(-82.88374962336,24.,21.5));
#696 = DIRECTION('',(1.,0.,-0.));
#697 = DIRECTION('',(0.,0.,1.));
#698 = ADVANCED_FACE('',(#699),#710,.F.);
#699 = FACE_BOUND('',#700,.F.);
#700 = EDGE_LOOP('',(#701,#702,#703,#709));
#701 = ORIENTED_EDGE('',*,*,#686,.F.);
#702 = ORIENTED_EDGE('',*,*,#158,.T.);
#703 = ORIENTED_EDGE('',*,*,#704,.T.);
#704 = EDGE_CURVE('',#151,#356,#705,.T.);
#705 = LINE('',#706,#707);
#706 = CARTESIAN_POINT('',(-87.88374962336,24.,21.5));
#707 = VECTOR('',#708,1.);
#708 = DIRECTION('',(-0.,1.,0.));
#709 = ORIENTED_EDGE('',*,*,#363,.F.);
#710 = CYLINDRICAL_SURFACE('',#711,5.);
#711 = AXIS2_PLACEMENT_3D('',#712,#713,#714);
#712 = CARTESIAN_POINT('',(-87.88374962336,24.,26.5));
#713 = DIRECTION('',(-0.,1.,0.));
#714 = DIRECTION('',(1.,0.,-0.));
#715 = ADVANCED_FACE('',(#716),#727,.T.);
#716 = FACE_BOUND('',#717,.T.);
#717 = EDGE_LOOP('',(#718,#719,#725,#726));
#718 = ORIENTED_EDGE('',*,*,#355,.F.);
#719 = ORIENTED_EDGE('',*,*,#720,.F.);
#720 = EDGE_CURVE('',#142,#347,#721,.T.);
#721 = LINE('',#722,#723);
#722 = CARTESIAN_POINT('',(-111.8837496233,24.,21.5));
#723 = VECTOR('',#724,1.);
#724 = DIRECTION('',(-0.,1.,0.));
#725 = ORIENTED_EDGE('',*,*,#150,.T.);
#726 = ORIENTED_EDGE('',*,*,#704,.T.);
#727 = PLANE('',#728);
#728 = AXIS2_PLACEMENT_3D('',#729,#730,#731);
#729 = CARTESIAN_POINT('',(-116.8837496233,24.,21.5));
#730 = DIRECTION('',(0.,0.,1.));
#731 = DIRECTION('',(1.,0.,-0.));
#732 = ADVANCED_FACE('',(#733),#744,.F.);
#733 = FACE_BOUND('',#734,.T.);
#734 = EDGE_LOOP('',(#735,#741,#742,#743));
#735 = ORIENTED_EDGE('',*,*,#736,.F.);
#736 = EDGE_CURVE('',#134,#339,#737,.T.);
#737 = LINE('',#738,#739);
#738 = CARTESIAN_POINT('',(-116.8837496233,24.,26.5));
#739 = VECTOR('',#740,1.);
#740 = DIRECTION('',(-0.,1.,0.));
#741 = ORIENTED_EDGE('',*,*,#141,.F.);
#742 = ORIENTED_EDGE('',*,*,#720,.T.);
#743 = ORIENTED_EDGE('',*,*,#346,.T.);
#744 = CYLINDRICAL_SURFACE('',#745,5.);
#745 = AXIS2_PLACEMENT_3D('',#746,#747,#748);
#746 = CARTESIAN_POINT('',(-111.8837496233,24.,26.5));
#747 = DIRECTION('',(-0.,1.,0.));
#748 = DIRECTION('',(-1.,-0.,0.));
#749 = ADVANCED_FACE('',(#750),#756,.T.);
#750 = FACE_BOUND('',#751,.T.);
#751 = EDGE_LOOP('',(#752,#753,#754,#755));
#752 = ORIENTED_EDGE('',*,*,#133,.T.);
#753 = ORIENTED_EDGE('',*,*,#736,.T.);
#754 = ORIENTED_EDGE('',*,*,#338,.F.);
#755 = ORIENTED_EDGE('',*,*,#629,.F.);
#756 = PLANE('',#757);
#757 = AXIS2_PLACEMENT_3D('',#758,#759,#760);
#758 = CARTESIAN_POINT('',(-116.8837496233,24.,21.5));
#759 = DIRECTION('',(1.,0.,-0.));
#760 = DIRECTION('',(0.,0.,1.));
#761 = ADVANCED_FACE('',(#762,#787),#798,.T.);
#762 = FACE_BOUND('',#763,.T.);
#763 = EDGE_LOOP('',(#764,#772,#780,#786));
#764 = ORIENTED_EDGE('',*,*,#765,.F.);
#765 = EDGE_CURVE('',#766,#294,#768,.T.);
#766 = VERTEX_POINT('',#767);
#767 = CARTESIAN_POINT('',(-130.8337496233,26.5,13.6));
#768 = LINE('',#769,#770);
#769 = CARTESIAN_POINT('',(-130.8337496233,26.5,13.6));
#770 = VECTOR('',#771,1.);
#771 = DIRECTION('',(2.22044604925E-16,1.,0.));
#772 = ORIENTED_EDGE('',*,*,#773,.F.);
#773 = EDGE_CURVE('',#774,#766,#776,.T.);
#774 = VERTEX_POINT('',#775);
#775 = CARTESIAN_POINT('',(-124.9337496233,26.5,13.6));
#776 = LINE('',#777,#778);
#777 = CARTESIAN_POINT('',(-124.9337496233,26.5,13.6));
#778 = VECTOR('',#779,1.);
#779 = DIRECTION('',(-1.,2.22044604925E-16,0.));
#780 = ORIENTED_EDGE('',*,*,#781,.T.);
#781 = EDGE_CURVE('',#774,#296,#782,.T.);
#782 = LINE('',#783,#784);
#783 = CARTESIAN_POINT('',(-124.9337496233,26.5,13.6));
#784 = VECTOR('',#785,1.);
#785 = DIRECTION('',(2.22044604925E-16,1.,0.));
#786 = ORIENTED_EDGE('',*,*,#293,.F.);
#787 = FACE_BOUND('',#788,.T.);
#788 = EDGE_LOOP('',(#789));
#789 = ORIENTED_EDGE('',*,*,#790,.F.);
#790 = EDGE_CURVE('',#791,#791,#793,.T.);
#791 = VERTEX_POINT('',#792);
#792 = CARTESIAN_POINT('',(-126.1337496233,30.,13.6));
#793 = CIRCLE('',#794,1.75);
#794 = AXIS2_PLACEMENT_3D('',#795,#796,#797);
#795 = CARTESIAN_POINT('',(-127.8837496233,30.,13.6));
#796 = DIRECTION('',(0.,0.,1.));
#797 = DIRECTION('',(1.,0.,-0.));
#798 = PLANE('',#799);
#799 = AXIS2_PLACEMENT_3D('',#800,#801,#802);
#800 = CARTESIAN_POINT('',(-124.9337496233,26.5,13.6));
#801 = DIRECTION('',(0.,0.,1.));
#802 = DIRECTION('',(2.22044604925E-16,1.,0.));
#803 = ADVANCED_FACE('',(#804),#822,.F.);
#804 = FACE_BOUND('',#805,.F.);
#805 = EDGE_LOOP('',(#806,#807,#815,#821));
#806 = ORIENTED_EDGE('',*,*,#765,.F.);
#807 = ORIENTED_EDGE('',*,*,#808,.T.);
#808 = EDGE_CURVE('',#766,#809,#811,.T.);
#809 = VERTEX_POINT('',#810);
#810 = CARTESIAN_POINT('',(-130.8337496233,26.5,16.4));
#811 = LINE('',#812,#813);
#812 = CARTESIAN_POINT('',(-130.8337496233,26.5,13.6));
#813 = VECTOR('',#814,1.);
#814 = DIRECTION('',(0.,0.,1.));
#815 = ORIENTED_EDGE('',*,*,#816,.T.);
#816 = EDGE_CURVE('',#809,#312,#817,.T.);
#817 = LINE('',#818,#819);
#818 = CARTESIAN_POINT('',(-130.8337496233,26.5,16.4));
#819 = VECTOR('',#820,1.);
#820 = DIRECTION('',(2.22044604925E-16,1.,0.));
#821 = ORIENTED_EDGE('',*,*,#319,.F.);
#822 = PLANE('',#823);
#823 = AXIS2_PLACEMENT_3D('',#824,#825,#826);
#824 = CARTESIAN_POINT('',(-130.8337496233,26.5,13.6));
#825 = DIRECTION('',(-1.,2.22044604925E-16,0.));
#826 = DIRECTION('',(0.,0.,1.));
#827 = ADVANCED_FACE('',(#828),#846,.T.);
#828 = FACE_BOUND('',#829,.T.);
#829 = EDGE_LOOP('',(#830,#831,#839,#845));
#830 = ORIENTED_EDGE('',*,*,#781,.F.);
#831 = ORIENTED_EDGE('',*,*,#832,.T.);
#832 = EDGE_CURVE('',#774,#833,#835,.T.);
#833 = VERTEX_POINT('',#834);
#834 = CARTESIAN_POINT('',(-124.9337496233,26.5,16.4));
#835 = LINE('',#836,#837);
#836 = CARTESIAN_POINT('',(-124.9337496233,26.5,13.6));
#837 = VECTOR('',#838,1.);
#838 = DIRECTION('',(0.,0.,1.));
#839 = ORIENTED_EDGE('',*,*,#840,.T.);
#840 = EDGE_CURVE('',#833,#304,#841,.T.);
#841 = LINE('',#842,#843);
#842 = CARTESIAN_POINT('',(-124.9337496233,26.5,16.4));
#843 = VECTOR('',#844,1.);
#844 = DIRECTION('',(2.22044604925E-16,1.,0.));
#845 = ORIENTED_EDGE('',*,*,#303,.F.);
#846 = PLANE('',#847);
#847 = AXIS2_PLACEMENT_3D('',#848,#849,#850);
#848 = CARTESIAN_POINT('',(-124.9337496233,26.5,13.6));
#849 = DIRECTION('',(-1.,2.22044604925E-16,0.));
#850 = DIRECTION('',(0.,0.,1.));
#851 = ADVANCED_FACE('',(#852,#863),#874,.F.);
#852 = FACE_BOUND('',#853,.F.);
#853 = EDGE_LOOP('',(#854,#855,#861,#862));
#854 = ORIENTED_EDGE('',*,*,#816,.F.);
#855 = ORIENTED_EDGE('',*,*,#856,.F.);
#856 = EDGE_CURVE('',#833,#809,#857,.T.);
#857 = LINE('',#858,#859);
#858 = CARTESIAN_POINT('',(-124.9337496233,26.5,16.4));
#859 = VECTOR('',#860,1.);
#860 = DIRECTION('',(-1.,2.22044604925E-16,0.));
#861 = ORIENTED_EDGE('',*,*,#840,.T.);
#862 = ORIENTED_EDGE('',*,*,#311,.F.);
#863 = FACE_BOUND('',#864,.F.);
#864 = EDGE_LOOP('',(#865));
#865 = ORIENTED_EDGE('',*,*,#866,.F.);
#866 = EDGE_CURVE('',#867,#867,#869,.T.);
#867 = VERTEX_POINT('',#868);
#868 = CARTESIAN_POINT('',(-126.1337496233,30.,16.4));
#869 = CIRCLE('',#870,1.75);
#870 = AXIS2_PLACEMENT_3D('',#871,#872,#873);
#871 = CARTESIAN_POINT('',(-127.8837496233,30.,16.4));
#872 = DIRECTION('',(0.,0.,1.));
#873 = DIRECTION('',(1.,0.,-0.));
#874 = PLANE('',#875);
#875 = AXIS2_PLACEMENT_3D('',#876,#877,#878);
#876 = CARTESIAN_POINT('',(-124.9337496233,26.5,16.4));
#877 = DIRECTION('',(0.,0.,1.));
#878 = DIRECTION('',(2.22044604925E-16,1.,0.));
#879 = ADVANCED_FACE('',(#880,#905),#916,.T.);
#880 = FACE_BOUND('',#881,.T.);
#881 = EDGE_LOOP('',(#882,#890,#898,#904));
#882 = ORIENTED_EDGE('',*,*,#883,.F.);
#883 = EDGE_CURVE('',#884,#398,#886,.T.);
#884 = VERTEX_POINT('',#885);
#885 = CARTESIAN_POINT('',(-130.8337496233,26.5,50.6));
#886 = LINE('',#887,#888);
#887 = CARTESIAN_POINT('',(-130.8337496233,26.5,50.6));
#888 = VECTOR('',#889,1.);
#889 = DIRECTION('',(2.22044604925E-16,1.,0.));
#890 = ORIENTED_EDGE('',*,*,#891,.F.);
#891 = EDGE_CURVE('',#892,#884,#894,.T.);
#892 = VERTEX_POINT('',#893);
#893 = CARTESIAN_POINT('',(-124.9337496233,26.5,50.6));
#894 = LINE('',#895,#896);
#895 = CARTESIAN_POINT('',(-124.9337496233,26.5,50.6));
#896 = VECTOR('',#897,1.);
#897 = DIRECTION('',(-1.,2.22044604925E-16,0.));
#898 = ORIENTED_EDGE('',*,*,#899,.T.);
#899 = EDGE_CURVE('',#892,#400,#900,.T.);
#900 = LINE('',#901,#902);
#901 = CARTESIAN_POINT('',(-124.9337496233,26.5,50.6));
#902 = VECTOR('',#903,1.);
#903 = DIRECTION('',(2.22044604925E-16,1.,0.));
#904 = ORIENTED_EDGE('',*,*,#397,.F.);
#905 = FACE_BOUND('',#906,.T.);
#906 = EDGE_LOOP('',(#907));
#907 = ORIENTED_EDGE('',*,*,#908,.F.);
#908 = EDGE_CURVE('',#909,#909,#911,.T.);
#909 = VERTEX_POINT('',#910);
#910 = CARTESIAN_POINT('',(-126.1337496233,30.,50.6));
#911 = CIRCLE('',#912,1.75);
#912 = AXIS2_PLACEMENT_3D('',#913,#914,#915);
#913 = CARTESIAN_POINT('',(-127.8837496233,30.,50.6));
#914 = DIRECTION('',(0.,0.,1.));
#915 = DIRECTION('',(1.,0.,-0.));
#916 = PLANE('',#917);
#917 = AXIS2_PLACEMENT_3D('',#918,#919,#920);
#918 = CARTESIAN_POINT('',(-124.9337496233,26.5,50.6));
#919 = DIRECTION('',(0.,0.,1.));
#920 = DIRECTION('',(2.22044604925E-16,1.,0.));
#921 = ADVANCED_FACE('',(#922),#940,.F.);
#922 = FACE_BOUND('',#923,.F.);
#923 = EDGE_LOOP('',(#924,#925,#933,#939));
#924 = ORIENTED_EDGE('',*,*,#883,.F.);
#925 = ORIENTED_EDGE('',*,*,#926,.T.);
#926 = EDGE_CURVE('',#884,#927,#929,.T.);
#927 = VERTEX_POINT('',#928);
#928 = CARTESIAN_POINT('',(-130.8337496233,26.5,53.4));
#929 = LINE('',#930,#931);
#930 = CARTESIAN_POINT('',(-130.8337496233,26.5,50.6));
#931 = VECTOR('',#932,1.);
#932 = DIRECTION('',(0.,0.,1.));
#933 = ORIENTED_EDGE('',*,*,#934,.T.);
#934 = EDGE_CURVE('',#927,#416,#935,.T.);
#935 = LINE('',#936,#937);
#936 = CARTESIAN_POINT('',(-130.8337496233,26.5,53.4));
#937 = VECTOR('',#938,1.);
#938 = DIRECTION('',(2.22044604925E-16,1.,0.));
#939 = ORIENTED_EDGE('',*,*,#423,.F.);
#940 = PLANE('',#941);
#941 = AXIS2_PLACEMENT_3D('',#942,#943,#944);
#942 = CARTESIAN_POINT('',(-130.8337496233,26.5,50.6));
#943 = DIRECTION('',(-1.,2.22044604925E-16,0.));
#944 = DIRECTION('',(0.,0.,1.));
#945 = ADVANCED_FACE('',(#946),#964,.T.);
#946 = FACE_BOUND('',#947,.T.);
#947 = EDGE_LOOP('',(#948,#949,#957,#963));
#948 = ORIENTED_EDGE('',*,*,#899,.F.);
#949 = ORIENTED_EDGE('',*,*,#950,.T.);
#950 = EDGE_CURVE('',#892,#951,#953,.T.);
#951 = VERTEX_POINT('',#952);
#952 = CARTESIAN_POINT('',(-124.9337496233,26.5,53.4));
#953 = LINE('',#954,#955);
#954 = CARTESIAN_POINT('',(-124.9337496233,26.5,50.6));
#955 = VECTOR('',#956,1.);
#956 = DIRECTION('',(0.,0.,1.));
#957 = ORIENTED_EDGE('',*,*,#958,.T.);
#958 = EDGE_CURVE('',#951,#408,#959,.T.);
#959 = LINE('',#960,#961);
#960 = CARTESIAN_POINT('',(-124.9337496233,26.5,53.4));
#961 = VECTOR('',#962,1.);
#962 = DIRECTION('',(2.22044604925E-16,1.,0.));
#963 = ORIENTED_EDGE('',*,*,#407,.F.);
#964 = PLANE('',#965);
#965 = AXIS2_PLACEMENT_3D('',#966,#967,#968);
#966 = CARTESIAN_POINT('',(-124.9337496233,26.5,50.6));
#967 = DIRECTION('',(-1.,2.22044604925E-16,0.));
#968 = DIRECTION('',(0.,0.,1.));
#969 = ADVANCED_FACE('',(#970,#981),#992,.F.);
#970 = FACE_BOUND('',#971,.F.);
#971 = EDGE_LOOP('',(#972,#973,#979,#980));
#972 = ORIENTED_EDGE('',*,*,#934,.F.);
#973 = ORIENTED_EDGE('',*,*,#974,.F.);
#974 = EDGE_CURVE('',#951,#927,#975,.T.);
#975 = LINE('',#976,#977);
#976 = CARTESIAN_POINT('',(-124.9337496233,26.5,53.4));
#977 = VECTOR('',#978,1.);
#978 = DIRECTION('',(-1.,2.22044604925E-16,0.));
#979 = ORIENTED_EDGE('',*,*,#958,.T.);
#980 = ORIENTED_EDGE('',*,*,#415,.F.);
#981 = FACE_BOUND('',#982,.F.);
#982 = EDGE_LOOP('',(#983));
#983 = ORIENTED_EDGE('',*,*,#984,.F.);
#984 = EDGE_CURVE('',#985,#985,#987,.T.);
#985 = VERTEX_POINT('',#986);
#986 = CARTESIAN_POINT('',(-126.1337496233,30.,53.4));
#987 = CIRCLE('',#988,1.75);
#988 = AXIS2_PLACEMENT_3D('',#989,#990,#991);
#989 = CARTESIAN_POINT('',(-127.8837496233,30.,53.4));
#990 = DIRECTION('',(0.,0.,1.));
#991 = DIRECTION('',(1.,0.,-0.));
#992 = PLANE('',#993);
#993 = AXIS2_PLACEMENT_3D('',#994,#995,#996);
#994 = CARTESIAN_POINT('',(-124.9337496233,26.5,53.4));
#995 = DIRECTION('',(0.,0.,1.));
#996 = DIRECTION('',(2.22044604925E-16,1.,0.));
#997 = ADVANCED_FACE('',(#998,#1023),#1034,.T.);
#998 = FACE_BOUND('',#999,.T.);
#999 = EDGE_LOOP('',(#1000,#1008,#1016,#1022));
#1000 = ORIENTED_EDGE('',*,*,#1001,.F.);
#1001 = EDGE_CURVE('',#1002,#432,#1004,.T.);
#1002 = VERTEX_POINT('',#1003);
#1003 = CARTESIAN_POINT('',(-74.83374962336,26.5,13.6));
#1004 = LINE('',#1005,#1006);
#1005 = CARTESIAN_POINT('',(-74.83374962336,26.5,13.6));
#1006 = VECTOR('',#1007,1.);
#1007 = DIRECTION('',(2.22044604925E-16,1.,0.));
#1008 = ORIENTED_EDGE('',*,*,#1009,.F.);
#1009 = EDGE_CURVE('',#1010,#1002,#1012,.T.);
#1010 = VERTEX_POINT('',#1011);
#1011 = CARTESIAN_POINT('',(-68.93374962336,26.5,13.6));
#1012 = LINE('',#1013,#1014);
#1013 = CARTESIAN_POINT('',(-68.93374962336,26.5,13.6));
#1014 = VECTOR('',#1015,1.);
#1015 = DIRECTION('',(-1.,2.22044604925E-16,0.));
#1016 = ORIENTED_EDGE('',*,*,#1017,.T.);
#1017 = EDGE_CURVE('',#1010,#434,#1018,.T.);
#1018 = LINE('',#1019,#1020);
#1019 = CARTESIAN_POINT('',(-68.93374962336,26.5,13.6));
#1020 = VECTOR('',#1021,1.);
#1021 = DIRECTION('',(2.22044604925E-16,1.,0.));
#1022 = ORIENTED_EDGE('',*,*,#431,.F.);
#1023 = FACE_BOUND('',#1024,.T.);
#1024 = EDGE_LOOP('',(#1025));
#1025 = ORIENTED_EDGE('',*,*,#1026,.F.);
#1026 = EDGE_CURVE('',#1027,#1027,#1029,.T.);
#1027 = VERTEX_POINT('',#1028);
#1028 = CARTESIAN_POINT('',(-70.13374962336,30.,13.6));
#1029 = CIRCLE('',#1030,1.75);
#1030 = AXIS2_PLACEMENT_3D('',#1031,#1032,#1033);
#1031 = CARTESIAN_POINT('',(-71.88374962336,30.,13.6));
#1032 = DIRECTION('',(0.,0.,1.));
#1033 = DIRECTION('',(1.,0.,-0.));
#1034 = PLANE('',#1035);
#1035 = AXIS2_PLACEMENT_3D('',#1036,#1037,#1038);
#1036 = CARTESIAN_POINT('',(-68.93374962336,26.5,13.6));
#1037 = DIRECTION('',(0.,0.,1.));
#1038 = DIRECTION('',(2.22044604925E-16,1.,0.));
#1039 = ADVANCED_FACE('',(#1040),#1058,.F.);
#1040 = FACE_BOUND('',#1041,.F.);
#1041 = EDGE_LOOP('',(#1042,#1043,#1051,#1057));
#1042 = ORIENTED_EDGE('',*,*,#1001,.F.);
#1043 = ORIENTED_EDGE('',*,*,#1044,.T.);
#1044 = EDGE_CURVE('',#1002,#1045,#1047,.T.);
#1045 = VERTEX_POINT('',#1046);
#1046 = CARTESIAN_POINT('',(-74.83374962336,26.5,16.4));
#1047 = LINE('',#1048,#1049);
#1048 = CARTESIAN_POINT('',(-74.83374962336,26.5,13.6));
#1049 = VECTOR('',#1050,1.);
#1050 = DIRECTION('',(0.,0.,1.));
#1051 = ORIENTED_EDGE('',*,*,#1052,.T.);
#1052 = EDGE_CURVE('',#1045,#450,#1053,.T.);
#1053 = LINE('',#1054,#1055);
#1054 = CARTESIAN_POINT('',(-74.83374962336,26.5,16.4));
#1055 = VECTOR('',#1056,1.);
#1056 = DIRECTION('',(2.22044604925E-16,1.,0.));
#1057 = ORIENTED_EDGE('',*,*,#457,.F.);
#1058 = PLANE('',#1059);
#1059 = AXIS2_PLACEMENT_3D('',#1060,#1061,#1062);
#1060 = CARTESIAN_POINT('',(-74.83374962336,26.5,13.6));
#1061 = DIRECTION('',(-1.,2.22044604925E-16,0.));
#1062 = DIRECTION('',(0.,0.,1.));
#1063 = ADVANCED_FACE('',(#1064),#1082,.T.);
#1064 = FACE_BOUND('',#1065,.T.);
#1065 = EDGE_LOOP('',(#1066,#1067,#1075,#1081));
#1066 = ORIENTED_EDGE('',*,*,#1017,.F.);
#1067 = ORIENTED_EDGE('',*,*,#1068,.T.);
#1068 = EDGE_CURVE('',#1010,#1069,#1071,.T.);
#1069 = VERTEX_POINT('',#1070);
#1070 = CARTESIAN_POINT('',(-68.93374962336,26.5,16.4));
#1071 = LINE('',#1072,#1073);
#1072 = CARTESIAN_POINT('',(-68.93374962336,26.5,13.6));
#1073 = VECTOR('',#1074,1.);
#1074 = DIRECTION('',(0.,0.,1.));
#1075 = ORIENTED_EDGE('',*,*,#1076,.T.);
#1076 = EDGE_CURVE('',#1069,#442,#1077,.T.);
#1077 = LINE('',#1078,#1079);
#1078 = CARTESIAN_POINT('',(-68.93374962336,26.5,16.4));
#1079 = VECTOR('',#1080,1.);
#1080 = DIRECTION('',(2.22044604925E-16,1.,0.));
#1081 = ORIENTED_EDGE('',*,*,#441,.F.);
#1082 = PLANE('',#1083);
#1083 = AXIS2_PLACEMENT_3D('',#1084,#1085,#1086);
#1084 = CARTESIAN_POINT('',(-68.93374962336,26.5,13.6));
#1085 = DIRECTION('',(-1.,2.22044604925E-16,0.));
#1086 = DIRECTION('',(0.,0.,1.));
#1087 = ADVANCED_FACE('',(#1088,#1099),#1110,.F.);
#1088 = FACE_BOUND('',#1089,.F.);
#1089 = EDGE_LOOP('',(#1090,#1091,#1097,#1098));
#1090 = ORIENTED_EDGE('',*,*,#1052,.F.);
#1091 = ORIENTED_EDGE('',*,*,#1092,.F.);
#1092 = EDGE_CURVE('',#1069,#1045,#1093,.T.);
#1093 = LINE('',#1094,#1095);
#1094 = CARTESIAN_POINT('',(-68.93374962336,26.5,16.4));
#1095 = VECTOR('',#1096,1.);
#1096 = DIRECTION('',(-1.,2.22044604925E-16,0.));
#1097 = ORIENTED_EDGE('',*,*,#1076,.T.);
#1098 = ORIENTED_EDGE('',*,*,#449,.F.);
#1099 = FACE_BOUND('',#1100,.F.);
#1100 = EDGE_LOOP('',(#1101));
#1101 = ORIENTED_EDGE('',*,*,#1102,.F.);
#1102 = EDGE_CURVE('',#1103,#1103,#1105,.T.);
#1103 = VERTEX_POINT('',#1104);
#1104 = CARTESIAN_POINT('',(-70.13374962336,30.,16.4));
#1105 = CIRCLE('',#1106,1.75);
#1106 = AXIS2_PLACEMENT_3D('',#1107,#1108,#1109);
#1107 = CARTESIAN_POINT('',(-71.88374962336,30.,16.4));
#1108 = DIRECTION('',(0.,0.,1.));
#1109 = DIRECTION('',(1.,0.,-0.));
#1110 = PLANE('',#1111);
#1111 = AXIS2_PLACEMENT_3D('',#1112,#1113,#1114);
#1112 = CARTESIAN_POINT('',(-68.93374962336,26.5,16.4));
#1113 = DIRECTION('',(0.,0.,1.));
#1114 = DIRECTION('',(2.22044604925E-16,1.,0.));
#1115 = ADVANCED_FACE('',(#1116,#1141),#1152,.T.);
#1116 = FACE_BOUND('',#1117,.T.);
#1117 = EDGE_LOOP('',(#1118,#1126,#1134,#1140));
#1118 = ORIENTED_EDGE('',*,*,#1119,.F.);
#1119 = EDGE_CURVE('',#1120,#466,#1122,.T.);
#1120 = VERTEX_POINT('',#1121);
#1121 = CARTESIAN_POINT('',(-74.83374962336,26.5,50.6));
#1122 = LINE('',#1123,#1124);
#1123 = CARTESIAN_POINT('',(-74.83374962336,26.5,50.6));
#1124 = VECTOR('',#1125,1.);
#1125 = DIRECTION('',(2.22044604925E-16,1.,0.));
#1126 = ORIENTED_EDGE('',*,*,#1127,.F.);
#1127 = EDGE_CURVE('',#1128,#1120,#1130,.T.);
#1128 = VERTEX_POINT('',#1129);
#1129 = CARTESIAN_POINT('',(-68.93374962336,26.5,50.6));
#1130 = LINE('',#1131,#1132);
#1131 = CARTESIAN_POINT('',(-68.93374962336,26.5,50.6));
#1132 = VECTOR('',#1133,1.);
#1133 = DIRECTION('',(-1.,2.22044604925E-16,0.));
#1134 = ORIENTED_EDGE('',*,*,#1135,.T.);
#1135 = EDGE_CURVE('',#1128,#468,#1136,.T.);
#1136 = LINE('',#1137,#1138);
#1137 = CARTESIAN_POINT('',(-68.93374962336,26.5,50.6));
#1138 = VECTOR('',#1139,1.);
#1139 = DIRECTION('',(2.22044604925E-16,1.,0.));
#1140 = ORIENTED_EDGE('',*,*,#465,.F.);
#1141 = FACE_BOUND('',#1142,.T.);
#1142 = EDGE_LOOP('',(#1143));
#1143 = ORIENTED_EDGE('',*,*,#1144,.F.);
#1144 = EDGE_CURVE('',#1145,#1145,#1147,.T.);
#1145 = VERTEX_POINT('',#1146);
#1146 = CARTESIAN_POINT('',(-70.13374962336,30.,50.6));
#1147 = CIRCLE('',#1148,1.75);
#1148 = AXIS2_PLACEMENT_3D('',#1149,#1150,#1151);
#1149 = CARTESIAN_POINT('',(-71.88374962336,30.,50.6));
#1150 = DIRECTION('',(0.,0.,1.));
#1151 = DIRECTION('',(1.,0.,-0.));
#1152 = PLANE('',#1153);
#1153 = AXIS2_PLACEMENT_3D('',#1154,#1155,#1156);
#1154 = CARTESIAN_POINT('',(-68.93374962336,26.5,50.6));
#1155 = DIRECTION('',(0.,0.,1.));
#1156 = DIRECTION('',(2.22044604925E-16,1.,0.));
#1157 = ADVANCED_FACE('',(#1158),#1176,.F.);
#1158 = FACE_BOUND('',#1159,.F.);
#1159 = EDGE_LOOP('',(#1160,#1161,#1169,#1175));
#1160 = ORIENTED_EDGE('',*,*,#1119,.F.);
#1161 = ORIENTED_EDGE('',*,*,#1162,.T.);
#1162 = EDGE_CURVE('',#1120,#1163,#1165,.T.);
#1163 = VERTEX_POINT('',#1164);
#1164 = CARTESIAN_POINT('',(-74.83374962336,26.5,53.4));
#1165 = LINE('',#1166,#1167);
#1166 = CARTESIAN_POINT('',(-74.83374962336,26.5,50.6));
#1167 = VECTOR('',#1168,1.);
#1168 = DIRECTION('',(0.,0.,1.));
#1169 = ORIENTED_EDGE('',*,*,#1170,.T.);
#1170 = EDGE_CURVE('',#1163,#484,#1171,.T.);
#1171 = LINE('',#1172,#1173);
#1172 = CARTESIAN_POINT('',(-74.83374962336,26.5,53.4));
#1173 = VECTOR('',#1174,1.);
#1174 = DIRECTION('',(2.22044604925E-16,1.,0.));
#1175 = ORIENTED_EDGE('',*,*,#491,.F.);
#1176 = PLANE('',#1177);
#1177 = AXIS2_PLACEMENT_3D('',#1178,#1179,#1180);
#1178 = CARTESIAN_POINT('',(-74.83374962336,26.5,50.6));
#1179 = DIRECTION('',(-1.,2.22044604925E-16,0.));
#1180 = DIRECTION('',(0.,0.,1.));
#1181 = ADVANCED_FACE('',(#1182,#1200),#1211,.F.);
#1182 = FACE_BOUND('',#1183,.F.);
#1183 = EDGE_LOOP('',(#1184,#1185,#1193,#1199));
#1184 = ORIENTED_EDGE('',*,*,#1170,.F.);
#1185 = ORIENTED_EDGE('',*,*,#1186,.F.);
#1186 = EDGE_CURVE('',#1187,#1163,#1189,.T.);
#1187 = VERTEX_POINT('',#1188);
#1188 = CARTESIAN_POINT('',(-68.93374962336,26.5,53.4));
#1189 = LINE('',#1190,#1191);
#1190 = CARTESIAN_POINT('',(-68.93374962336,26.5,53.4));
#1191 = VECTOR('',#1192,1.);
#1192 = DIRECTION('',(-1.,2.22044604925E-16,0.));
#1193 = ORIENTED_EDGE('',*,*,#1194,.T.);
#1194 = EDGE_CURVE('',#1187,#476,#1195,.T.);
#1195 = LINE('',#1196,#1197);
#1196 = CARTESIAN_POINT('',(-68.93374962336,26.5,53.4));
#1197 = VECTOR('',#1198,1.);
#1198 = DIRECTION('',(2.22044604925E-16,1.,0.));
#1199 = ORIENTED_EDGE('',*,*,#483,.F.);
#1200 = FACE_BOUND('',#1201,.F.);
#1201 = EDGE_LOOP('',(#1202));
#1202 = ORIENTED_EDGE('',*,*,#1203,.F.);
#1203 = EDGE_CURVE('',#1204,#1204,#1206,.T.);
#1204 = VERTEX_POINT('',#1205);
#1205 = CARTESIAN_POINT('',(-70.13374962336,30.,53.4));
#1206 = CIRCLE('',#1207,1.75);
#1207 = AXIS2_PLACEMENT_3D('',#1208,#1209,#1210);
#1208 = CARTESIAN_POINT('',(-71.88374962336,30.,53.4));
#1209 = DIRECTION('',(0.,0.,1.));
#1210 = DIRECTION('',(1.,0.,-0.));
#1211 = PLANE('',#1212);
#1212 = AXIS2_PLACEMENT_3D('',#1213,#1214,#1215);
#1213 = CARTESIAN_POINT('',(-68.93374962336,26.5,53.4));
#1214 = DIRECTION('',(0.,0.,1.));
#1215 = DIRECTION('',(2.22044604925E-16,1.,0.));
#1216 = ADVANCED_FACE('',(#1217),#1228,.T.);
#1217 = FACE_BOUND('',#1218,.T.);
#1218 = EDGE_LOOP('',(#1219,#1220,#1226,#1227));
#1219 = ORIENTED_EDGE('',*,*,#1135,.F.);
#1220 = ORIENTED_EDGE('',*,*,#1221,.T.);
#1221 = EDGE_CURVE('',#1128,#1187,#1222,.T.);
#1222 = LINE('',#1223,#1224);
#1223 = CARTESIAN_POINT('',(-68.93374962336,26.5,50.6));
#1224 = VECTOR('',#1225,1.);
#1225 = DIRECTION('',(0.,0.,1.));
#1226 = ORIENTED_EDGE('',*,*,#1194,.T.);
#1227 = ORIENTED_EDGE('',*,*,#475,.F.);
#1228 = PLANE('',#1229);
#1229 = AXIS2_PLACEMENT_3D('',#1230,#1231,#1232);
#1230 = CARTESIAN_POINT('',(-68.93374962336,26.5,50.6));
#1231 = DIRECTION('',(-1.,2.22044604925E-16,0.));
#1232 = DIRECTION('',(0.,0.,1.));
#1233 = ADVANCED_FACE('',(#1234),#1245,.F.);
#1234 = FACE_BOUND('',#1235,.F.);
#1235 = EDGE_LOOP('',(#1236,#1237,#1243,#1244));
#1236 = ORIENTED_EDGE('',*,*,#516,.T.);
#1237 = ORIENTED_EDGE('',*,*,#1238,.T.);
#1238 = EDGE_CURVE('',#517,#791,#1239,.T.);
#1239 = LINE('',#1240,#1241);
#1240 = CARTESIAN_POINT('',(-126.1337496233,30.,7.));
#1241 = VECTOR('',#1242,1.);
#1242 = DIRECTION('',(0.,0.,1.));
#1243 = ORIENTED_EDGE('',*,*,#790,.F.);
#1244 = ORIENTED_EDGE('',*,*,#1238,.F.);
#1245 = CYLINDRICAL_SURFACE('',#1246,1.75);
#1246 = AXIS2_PLACEMENT_3D('',#1247,#1248,#1249);
#1247 = CARTESIAN_POINT('',(-127.8837496233,30.,7.));
#1248 = DIRECTION('',(0.,0.,1.));
#1249 = DIRECTION('',(1.,0.,-0.));
#1250 = ADVANCED_FACE('',(#1251),#1262,.F.);
#1251 = FACE_BOUND('',#1252,.F.);
#1252 = EDGE_LOOP('',(#1253,#1254,#1260,#1261));
#1253 = ORIENTED_EDGE('',*,*,#527,.T.);
#1254 = ORIENTED_EDGE('',*,*,#1255,.T.);
#1255 = EDGE_CURVE('',#528,#1027,#1256,.T.);
#1256 = LINE('',#1257,#1258);
#1257 = CARTESIAN_POINT('',(-70.13374962336,30.,7.));
#1258 = VECTOR('',#1259,1.);
#1259 = DIRECTION('',(0.,0.,1.));
#1260 = ORIENTED_EDGE('',*,*,#1026,.F.);
#1261 = ORIENTED_EDGE('',*,*,#1255,.F.);
#1262 = CYLINDRICAL_SURFACE('',#1263,1.75);
#1263 = AXIS2_PLACEMENT_3D('',#1264,#1265,#1266);
#1264 = CARTESIAN_POINT('',(-71.88374962336,30.,7.));
#1265 = DIRECTION('',(0.,0.,1.));
#1266 = DIRECTION('',(1.,0.,-0.));
#1267 = ADVANCED_FACE('',(#1268),#1279,.F.);
#1268 = FACE_BOUND('',#1269,.F.);
#1269 = EDGE_LOOP('',(#1270,#1276,#1277,#1278));
#1270 = ORIENTED_EDGE('',*,*,#1271,.T.);
#1271 = EDGE_CURVE('',#985,#602,#1272,.T.);
#1272 = LINE('',#1273,#1274);
#1273 = CARTESIAN_POINT('',(-126.1337496233,30.,46.));
#1274 = VECTOR('',#1275,1.);
#1275 = DIRECTION('',(0.,0.,1.));
#1276 = ORIENTED_EDGE('',*,*,#601,.F.);
#1277 = ORIENTED_EDGE('',*,*,#1271,.F.);
#1278 = ORIENTED_EDGE('',*,*,#984,.T.);
#1279 = CYLINDRICAL_SURFACE('',#1280,1.75);
#1280 = AXIS2_PLACEMENT_3D('',#1281,#1282,#1283);
#1281 = CARTESIAN_POINT('',(-127.8837496233,30.,46.));
#1282 = DIRECTION('',(0.,0.,1.));
#1283 = DIRECTION('',(1.,0.,-0.));
#1284 = ADVANCED_FACE('',(#1285),#1296,.F.);
#1285 = FACE_BOUND('',#1286,.F.);
#1286 = EDGE_LOOP('',(#1287,#1293,#1294,#1295));
#1287 = ORIENTED_EDGE('',*,*,#1288,.T.);
#1288 = EDGE_CURVE('',#1204,#613,#1289,.T.);
#1289 = LINE('',#1290,#1291);
#1290 = CARTESIAN_POINT('',(-70.13374962336,30.,46.));
#1291 = VECTOR('',#1292,1.);
#1292 = DIRECTION('',(0.,0.,1.));
#1293 = ORIENTED_EDGE('',*,*,#612,.F.);
#1294 = ORIENTED_EDGE('',*,*,#1288,.F.);
#1295 = ORIENTED_EDGE('',*,*,#1203,.T.);
#1296 = CYLINDRICAL_SURFACE('',#1297,1.75);
#1297 = AXIS2_PLACEMENT_3D('',#1298,#1299,#1300);
#1298 = CARTESIAN_POINT('',(-71.88374962336,30.,46.));
#1299 = DIRECTION('',(0.,0.,1.));
#1300 = DIRECTION('',(1.,0.,-0.));
#1301 = ADVANCED_FACE('',(#1302),#1308,.T.);
#1302 = FACE_BOUND('',#1303,.T.);
#1303 = EDGE_LOOP('',(#1304,#1305,#1306,#1307));
#1304 = ORIENTED_EDGE('',*,*,#832,.F.);
#1305 = ORIENTED_EDGE('',*,*,#773,.T.);
#1306 = ORIENTED_EDGE('',*,*,#808,.T.);
#1307 = ORIENTED_EDGE('',*,*,#856,.F.);
#1308 = PLANE('',#1309);
#1309 = AXIS2_PLACEMENT_3D('',#1310,#1311,#1312);
#1310 = CARTESIAN_POINT('',(-124.9337496233,26.5,13.6));
#1311 = DIRECTION('',(2.22044604925E-16,1.,0.));
#1312 = DIRECTION('',(0.,0.,1.));
#1313 = ADVANCED_FACE('',(#1314),#1333,.F.);
#1314 = FACE_BOUND('',#1315,.F.);
#1315 = EDGE_LOOP('',(#1316,#1317,#1325,#1332));
#1316 = ORIENTED_EDGE('',*,*,#866,.T.);
#1317 = ORIENTED_EDGE('',*,*,#1318,.T.);
#1318 = EDGE_CURVE('',#867,#1319,#1321,.T.);
#1319 = VERTEX_POINT('',#1320);
#1320 = CARTESIAN_POINT('',(-126.1337496233,30.,22.));
#1321 = LINE('',#1322,#1323);
#1322 = CARTESIAN_POINT('',(-126.1337496233,30.,7.));
#1323 = VECTOR('',#1324,1.);
#1324 = DIRECTION('',(0.,0.,1.));
#1325 = ORIENTED_EDGE('',*,*,#1326,.F.);
#1326 = EDGE_CURVE('',#1319,#1319,#1327,.T.);
#1327 = CIRCLE('',#1328,1.75);
#1328 = AXIS2_PLACEMENT_3D('',#1329,#1330,#1331);
#1329 = CARTESIAN_POINT('',(-127.8837496233,30.,22.));
#1330 = DIRECTION('',(0.,0.,1.));
#1331 = DIRECTION('',(1.,0.,-0.));
#1332 = ORIENTED_EDGE('',*,*,#1318,.F.);
#1333 = CYLINDRICAL_SURFACE('',#1334,1.75);
#1334 = AXIS2_PLACEMENT_3D('',#1335,#1336,#1337);
#1335 = CARTESIAN_POINT('',(-127.8837496233,30.,7.));
#1336 = DIRECTION('',(0.,0.,1.));
#1337 = DIRECTION('',(1.,0.,-0.));
#1338 = ADVANCED_FACE('',(#1339),#1345,.T.);
#1339 = FACE_BOUND('',#1340,.T.);
#1340 = EDGE_LOOP('',(#1341,#1342,#1343,#1344));
#1341 = ORIENTED_EDGE('',*,*,#950,.F.);
#1342 = ORIENTED_EDGE('',*,*,#891,.T.);
#1343 = ORIENTED_EDGE('',*,*,#926,.T.);
#1344 = ORIENTED_EDGE('',*,*,#974,.F.);
#1345 = PLANE('',#1346);
#1346 = AXIS2_PLACEMENT_3D('',#1347,#1348,#1349);
#1347 = CARTESIAN_POINT('',(-124.9337496233,26.5,50.6));
#1348 = DIRECTION('',(2.22044604925E-16,1.,0.));
#1349 = DIRECTION('',(0.,0.,1.));
#1350 = ADVANCED_FACE('',(#1351),#1370,.F.);
#1351 = FACE_BOUND('',#1352,.F.);
#1352 = EDGE_LOOP('',(#1353,#1354,#1362,#1369));
#1353 = ORIENTED_EDGE('',*,*,#908,.F.);
#1354 = ORIENTED_EDGE('',*,*,#1355,.F.);
#1355 = EDGE_CURVE('',#1356,#909,#1358,.T.);
#1356 = VERTEX_POINT('',#1357);
#1357 = CARTESIAN_POINT('',(-126.1337496233,30.,46.));
#1358 = LINE('',#1359,#1360);
#1359 = CARTESIAN_POINT('',(-126.1337496233,30.,46.));
#1360 = VECTOR('',#1361,1.);
#1361 = DIRECTION('',(0.,0.,1.));
#1362 = ORIENTED_EDGE('',*,*,#1363,.T.);
#1363 = EDGE_CURVE('',#1356,#1356,#1364,.T.);
#1364 = CIRCLE('',#1365,1.75);
#1365 = AXIS2_PLACEMENT_3D('',#1366,#1367,#1368);
#1366 = CARTESIAN_POINT('',(-127.8837496233,30.,46.));
#1367 = DIRECTION('',(0.,0.,1.));
#1368 = DIRECTION('',(1.,0.,-0.));
#1369 = ORIENTED_EDGE('',*,*,#1355,.T.);
#1370 = CYLINDRICAL_SURFACE('',#1371,1.75);
#1371 = AXIS2_PLACEMENT_3D('',#1372,#1373,#1374);
#1372 = CARTESIAN_POINT('',(-127.8837496233,30.,46.));
#1373 = DIRECTION('',(0.,0.,1.));
#1374 = DIRECTION('',(1.,0.,-0.));
#1375 = ADVANCED_FACE('',(#1376),#1382,.T.);
#1376 = FACE_BOUND('',#1377,.T.);
#1377 = EDGE_LOOP('',(#1378,#1379,#1380,#1381));
#1378 = ORIENTED_EDGE('',*,*,#1068,.F.);
#1379 = ORIENTED_EDGE('',*,*,#1009,.T.);
#1380 = ORIENTED_EDGE('',*,*,#1044,.T.);
#1381 = ORIENTED_EDGE('',*,*,#1092,.F.);
#1382 = PLANE('',#1383);
#1383 = AXIS2_PLACEMENT_3D('',#1384,#1385,#1386);
#1384 = CARTESIAN_POINT('',(-68.93374962336,26.5,13.6));
#1385 = DIRECTION('',(2.22044604925E-16,1.,0.));
#1386 = DIRECTION('',(0.,0.,1.));
#1387 = ADVANCED_FACE('',(#1388),#1407,.F.);
#1388 = FACE_BOUND('',#1389,.F.);
#1389 = EDGE_LOOP('',(#1390,#1391,#1399,#1406));
#1390 = ORIENTED_EDGE('',*,*,#1102,.T.);
#1391 = ORIENTED_EDGE('',*,*,#1392,.T.);
#1392 = EDGE_CURVE('',#1103,#1393,#1395,.T.);
#1393 = VERTEX_POINT('',#1394);
#1394 = CARTESIAN_POINT('',(-70.13374962336,30.,22.));
#1395 = LINE('',#1396,#1397);
#1396 = CARTESIAN_POINT('',(-70.13374962336,30.,7.));
#1397 = VECTOR('',#1398,1.);
#1398 = DIRECTION('',(0.,0.,1.));
#1399 = ORIENTED_EDGE('',*,*,#1400,.F.);
#1400 = EDGE_CURVE('',#1393,#1393,#1401,.T.);
#1401 = CIRCLE('',#1402,1.75);
#1402 = AXIS2_PLACEMENT_3D('',#1403,#1404,#1405);
#1403 = CARTESIAN_POINT('',(-71.88374962336,30.,22.));
#1404 = DIRECTION('',(0.,0.,1.));
#1405 = DIRECTION('',(1.,0.,-0.));
#1406 = ORIENTED_EDGE('',*,*,#1392,.F.);
#1407 = CYLINDRICAL_SURFACE('',#1408,1.75);
#1408 = AXIS2_PLACEMENT_3D('',#1409,#1410,#1411);
#1409 = CARTESIAN_POINT('',(-71.88374962336,30.,7.));
#1410 = DIRECTION('',(0.,0.,1.));
#1411 = DIRECTION('',(1.,0.,-0.));
#1412 = ADVANCED_FACE('',(#1413),#1419,.T.);
#1413 = FACE_BOUND('',#1414,.T.);
#1414 = EDGE_LOOP('',(#1415,#1416,#1417,#1418));
#1415 = ORIENTED_EDGE('',*,*,#1221,.F.);
#1416 = ORIENTED_EDGE('',*,*,#1127,.T.);
#1417 = ORIENTED_EDGE('',*,*,#1162,.T.);
#1418 = ORIENTED_EDGE('',*,*,#1186,.F.);
#1419 = PLANE('',#1420);
#1420 = AXIS2_PLACEMENT_3D('',#1421,#1422,#1423);
#1421 = CARTESIAN_POINT('',(-68.93374962336,26.5,50.6));
#1422 = DIRECTION('',(2.22044604925E-16,1.,0.));
#1423 = DIRECTION('',(0.,0.,1.));
#1424 = ADVANCED_FACE('',(#1425),#1444,.F.);
#1425 = FACE_BOUND('',#1426,.F.);
#1426 = EDGE_LOOP('',(#1427,#1428,#1436,#1443));
#1427 = ORIENTED_EDGE('',*,*,#1144,.F.);
#1428 = ORIENTED_EDGE('',*,*,#1429,.F.);
#1429 = EDGE_CURVE('',#1430,#1145,#1432,.T.);
#1430 = VERTEX_POINT('',#1431);
#1431 = CARTESIAN_POINT('',(-70.13374962336,30.,46.));
#1432 = LINE('',#1433,#1434);
#1433 = CARTESIAN_POINT('',(-70.13374962336,30.,46.));
#1434 = VECTOR('',#1435,1.);
#1435 = DIRECTION('',(0.,0.,1.));
#1436 = ORIENTED_EDGE('',*,*,#1437,.T.);
#1437 = EDGE_CURVE('',#1430,#1430,#1438,.T.);
#1438 = CIRCLE('',#1439,1.75);
#1439 = AXIS2_PLACEMENT_3D('',#1440,#1441,#1442);
#1440 = CARTESIAN_POINT('',(-71.88374962336,30.,46.));
#1441 = DIRECTION('',(0.,0.,1.));
#1442 = DIRECTION('',(1.,0.,-0.));
#1443 = ORIENTED_EDGE('',*,*,#1429,.T.);
#1444 = CYLINDRICAL_SURFACE('',#1445,1.75);
#1445 = AXIS2_PLACEMENT_3D('',#1446,#1447,#1448);
#1446 = CARTESIAN_POINT('',(-71.88374962336,30.,46.));
#1447 = DIRECTION('',(0.,0.,1.));
#1448 = DIRECTION('',(1.,0.,-0.));
#1449 = ADVANCED_FACE('',(#1450),#1453,.F.);
#1450 = FACE_BOUND('',#1451,.F.);
#1451 = EDGE_LOOP('',(#1452));
#1452 = ORIENTED_EDGE('',*,*,#1326,.T.);
#1453 = PLANE('',#1454);
#1454 = AXIS2_PLACEMENT_3D('',#1455,#1456,#1457);
#1455 = CARTESIAN_POINT('',(-127.8837496233,30.,22.));
#1456 = DIRECTION('',(0.,0.,1.));
#1457 = DIRECTION('',(1.,0.,-0.));
#1458 = ADVANCED_FACE('',(#1459),#1462,.T.);
#1459 = FACE_BOUND('',#1460,.F.);
#1460 = EDGE_LOOP('',(#1461));
#1461 = ORIENTED_EDGE('',*,*,#1363,.F.);
#1462 = PLANE('',#1463);
#1463 = AXIS2_PLACEMENT_3D('',#1464,#1465,#1466);
#1464 = CARTESIAN_POINT('',(-127.8837496233,30.,46.));
#1465 = DIRECTION('',(0.,0.,1.));
#1466 = DIRECTION('',(1.,0.,-0.));
#1467 = ADVANCED_FACE('',(#1468),#1471,.F.);
#1468 = FACE_BOUND('',#1469,.F.);
#1469 = EDGE_LOOP('',(#1470));
#1470 = ORIENTED_EDGE('',*,*,#1400,.T.);
#1471 = PLANE('',#1472);
#1472 = AXIS2_PLACEMENT_3D('',#1473,#1474,#1475);
#1473 = CARTESIAN_POINT('',(-71.88374962336,30.,22.));
#1474 = DIRECTION('',(0.,0.,1.));
#1475 = DIRECTION('',(1.,0.,-0.));
#1476 = ADVANCED_FACE('',(#1477),#1480,.T.);
#1477 = FACE_BOUND('',#1478,.F.);
#1478 = EDGE_LOOP('',(#1479));
#1479 = ORIENTED_EDGE('',*,*,#1437,.F.);
#1480 = PLANE('',#1481);
#1481 = AXIS2_PLACEMENT_3D('',#1482,#1483,#1484);
#1482 = CARTESIAN_POINT('',(-71.88374962336,30.,46.));
#1483 = DIRECTION('',(0.,0.,1.));
#1484 = DIRECTION('',(1.,0.,-0.));
#1485 = ( GEOMETRIC_REPRESENTATION_CONTEXT(3) 
GLOBAL_UNCERTAINTY_ASSIGNED_CONTEXT((#1489)) 
GLOBAL_UNIT_ASSIGNED_CONTEXT((#1486,#1487,#1488)) REPRESENTATION_CONTEXT
('Context #1','3D Context with UNIT and UNCERTAINTY') );
#1486 = ( LENGTH_UNIT() NAMED_UNIT(*) SI_UNIT(.MILLI.,.METRE.) );
#1487 = ( NAMED_UNIT(*) PLANE_ANGLE_UNIT() SI_UNIT($,.RADIAN.) );
#1488 = ( NAMED_UNIT(*) SI_UNIT($,.STERADIAN.) SOLID_ANGLE_UNIT() );
#1489 = UNCERTAINTY_MEASURE_WITH_UNIT(LENGTH_MEASURE(1.E-07),#1486,
  'distance_accuracy_value','confusion accuracy');
#1490 = PRODUCT_RELATED_PRODUCT_CATEGORY('part',$,(#7));
ENDSEC;
END-ISO-10303-21;
