ISO-10303-21;
HEADER;
FILE_DESCRIPTION(('FreeCAD Model'),'2;1');
FILE_NAME('Open CASCADE Shape Model','2026-09-05T12:44:19',('FreeCAD'),(
    'FreeCAD'),'Open CASCADE STEP processor 7.8','FreeCAD','Unknown');
FILE_SCHEMA(('AUTOMOTIVE_DESIGN { 1 0 10303 214 1 1 1 1 }'));
ENDSEC;
DATA;
#1 = APPLICATION_PROTOCOL_DEFINITION('international standard',
  'automotive_design',2000,#2);
#2 = APPLICATION_CONTEXT(
  'core data for automotive mechanical design processes');
#3 = SHAPE_DEFINITION_REPRESENTATION(#4,#10);
#4 = PRODUCT_DEFINITION_SHAPE('','',#5);
#5 = PRODUCT_DEFINITION('design','',#6,#9);
#6 = PRODUCT_DEFINITION_FORMATION('','',#7);
#7 = PRODUCT('Open CASCADE STEP translator 7.8 5',
  'Open CASCADE STEP translator 7.8 5','',(#8));
#8 = PRODUCT_CONTEXT('',#2,'mechanical');
#9 = PRODUCT_DEFINITION_CONTEXT('part definition',#2,'design');
#10 = ADVANCED_BREP_SHAPE_REPRESENTATION('',(#11,#15),#1485);
#11 = AXIS2_PLACEMENT_3D('',#12,#13,#14);
#12 = CARTESIAN_POINT('',(0.,0.,0.));
#13 = DIRECTION('',(0.,0.,1.));
#14 = DIRECTION('',(1.,0.,-0.));
#15 = MANIFOLD_SOLID_BREP('',#16);
#16 = CLOSED_SHELL('',(#17,#57,#330,#355,#380,#501,#540,#557,#574,#591,
    #625,#667,#691,#715,#743,#765,#782,#799,#816,#833,#850,#867,#879,
    #921,#945,#969,#997,#1039,#1063,#1087,#1115,#1157,#1181,#1216,#1233,
    #1250,#1267,#1284,#1301,#1313,#1338,#1350,#1375,#1387,#1412,#1424,
    #1449,#1458,#1467,#1476));
#17 = ADVANCED_FACE('',(#18),#52,.F.);
#18 = FACE_BOUND('',#19,.F.);
#19 = EDGE_LOOP('',(#20,#30,#38,#46));
#20 = ORIENTED_EDGE('',*,*,#21,.F.);
#21 = EDGE_CURVE('',#22,#24,#26,.T.);
#22 = VERTEX_POINT('',#23);
#23 = CARTESIAN_POINT('',(-134.8837496233,-34.,11.));
#24 = VERTEX_POINT('',#25);
#25 = CARTESIAN_POINT('',(-134.8837496233,-34.,55.));
#26 = LINE('',#27,#28);
#27 = CARTESIAN_POINT('',(-134.8837496233,-34.,8.));
#28 = VECTOR('',#29,1.);
#29 = DIRECTION('',(0.,0.,1.));
#30 = ORIENTED_EDGE('',*,*,#31,.T.);
#31 = EDGE_CURVE('',#22,#32,#34,.T.);
#32 = VERTEX_POINT('',#33);
#33 = CARTESIAN_POINT('',(-134.8837496233,-26.,11.));
#34 = LINE('',#35,#36);
#35 = CARTESIAN_POINT('',(-134.8837496233,-34.,11.));
#36 = VECTOR('',#37,1.);
#37 = DIRECTION('',(-0.,1.,0.));
#38 = ORIENTED_EDGE('',*,*,#39,.T.);
#39 = EDGE_CURVE('',#32,#40,#42,.T.);
#40 = VERTEX_POINT('',#41);
#41 = CARTESIAN_POINT('',(-134.8837496233,-26.,55.));
#42 = LINE('',#43,#44);
#43 = CARTESIAN_POINT('',(-134.8837496233,-26.,8.));
#44 = VECTOR('',#45,1.);
#45 = DIRECTION('',(0.,0.,1.));
#46 = ORIENTED_EDGE('',*,*,#47,.F.);
#47 = EDGE_CURVE('',#24,#40,#48,.T.);
#48 = LINE('',#49,#50);
#49 = CARTESIAN_POINT('',(-134.8837496233,-34.,55.));
#50 = VECTOR('',#51,1.);
#51 = DIRECTION('',(-0.,1.,0.));
#52 = PLANE('',#53);
#53 = AXIS2_PLACEMENT_3D('',#54,#55,#56);
#54 = CARTESIAN_POINT('',(-134.8837496233,-34.,8.));
#55 = DIRECTION('',(1.,0.,-0.));
#56 = DIRECTION('',(0.,0.,1.));
#57 = ADVANCED_FACE('',(#58,#119,#153,#223,#257,#291),#325,.F.);
#58 = FACE_BOUND('',#59,.F.);
#59 = EDGE_LOOP('',(#60,#70,#77,#78,#87,#95,#104,#112));
#60 = ORIENTED_EDGE('',*,*,#61,.F.);
#61 = EDGE_CURVE('',#62,#64,#66,.T.);
#62 = VERTEX_POINT('',#63);
#63 = CARTESIAN_POINT('',(-131.8837496233,-34.,8.));
#64 = VERTEX_POINT('',#65);
#65 = CARTESIAN_POINT('',(-67.88374962336,-34.,8.));
#66 = LINE('',#67,#68);
#67 = CARTESIAN_POINT('',(-134.8837496233,-34.,8.));
#68 = VECTOR('',#69,1.);
#69 = DIRECTION('',(1.,0.,-0.));
#70 = ORIENTED_EDGE('',*,*,#71,.F.);
#71 = EDGE_CURVE('',#22,#62,#72,.T.);
#72 = CIRCLE('',#73,3.);
#73 = AXIS2_PLACEMENT_3D('',#74,#75,#76);
#74 = CARTESIAN_POINT('',(-131.8837496233,-34.,11.));
#75 = DIRECTION('',(0.,-1.,0.));
#76 = DIRECTION('',(0.,0.,1.));
#77 = ORIENTED_EDGE('',*,*,#21,.T.);
#78 = ORIENTED_EDGE('',*,*,#79,.T.);
#79 = EDGE_CURVE('',#24,#80,#82,.T.);
#80 = VERTEX_POINT('',#81);
#81 = CARTESIAN_POINT('',(-131.8837496233,-34.,58.));
#82 = CIRCLE('',#83,3.);
#83 = AXIS2_PLACEMENT_3D('',#84,#85,#86);
#84 = CARTESIAN_POINT('',(-131.8837496233,-34.,55.));
#85 = DIRECTION('',(-0.,1.,0.));
#86 = DIRECTION('',(0.,0.,1.));
#87 = ORIENTED_EDGE('',*,*,#88,.T.);
#88 = EDGE_CURVE('',#80,#89,#91,.T.);
#89 = VERTEX_POINT('',#90);
#90 = CARTESIAN_POINT('',(-67.88374962336,-34.,58.));
#91 = LINE('',#92,#93);
#92 = CARTESIAN_POINT('',(-134.8837496233,-34.,58.));
#93 = VECTOR('',#94,1.);
#94 = DIRECTION('',(1.,0.,-0.));
#95 = ORIENTED_EDGE('',*,*,#96,.F.);
#96 = EDGE_CURVE('',#97,#89,#99,.T.);
#97 = VERTEX_POINT('',#98);
#98 = CARTESIAN_POINT('',(-64.88374962336,-34.,55.));
#99 = CIRCLE('',#100,3.);
#100 = AXIS2_PLACEMENT_3D('',#101,#102,#103);
#101 = CARTESIAN_POINT('',(-67.88374962336,-34.,55.));
#102 = DIRECTION('',(0.,-1.,0.));
#103 = DIRECTION('',(0.,0.,1.));
#104 = ORIENTED_EDGE('',*,*,#105,.F.);
#105 = EDGE_CURVE('',#106,#97,#108,.T.);
#106 = VERTEX_POINT('',#107);
#107 = CARTESIAN_POINT('',(-64.88374962336,-34.,11.));
#108 = LINE('',#109,#110);
#109 = CARTESIAN_POINT('',(-64.88374962336,-34.,8.));
#110 = VECTOR('',#111,1.);
#111 = DIRECTION('',(0.,0.,1.));
#112 = ORIENTED_EDGE('',*,*,#113,.T.);
#113 = EDGE_CURVE('',#106,#64,#114,.T.);
#114 = CIRCLE('',#115,3.);
#115 = AXIS2_PLACEMENT_3D('',#116,#117,#118);
#116 = CARTESIAN_POINT('',(-67.88374962336,-34.,11.));
#117 = DIRECTION('',(-0.,1.,0.));
#118 = DIRECTION('',(0.,0.,1.));
#119 = FACE_BOUND('',#120,.F.);
#120 = EDGE_LOOP('',(#121,#131,#139,#147));
#121 = ORIENTED_EDGE('',*,*,#122,.F.);
#122 = EDGE_CURVE('',#123,#125,#127,.T.);
#123 = VERTEX_POINT('',#124);
#124 = CARTESIAN_POINT('',(-130.8337496233,-34.,16.4));
#125 = VERTEX_POINT('',#126);
#126 = CARTESIAN_POINT('',(-124.9337496233,-34.,16.4));
#127 = LINE('',#128,#129);
#128 = CARTESIAN_POINT('',(-132.8587496233,-34.,16.4));
#129 = VECTOR('',#130,1.);
#130 = DIRECTION('',(1.,0.,-0.));
#131 = ORIENTED_EDGE('',*,*,#132,.T.);
#132 = EDGE_CURVE('',#123,#133,#135,.T.);
#133 = VERTEX_POINT('',#134);
#134 = CARTESIAN_POINT('',(-130.8337496233,-34.,13.6));
#135 = LINE('',#136,#137);
#136 = CARTESIAN_POINT('',(-130.8337496233,-34.,10.8));
#137 = VECTOR('',#138,1.);
#138 = DIRECTION('',(0.,0.,-1.));
#139 = ORIENTED_EDGE('',*,*,#140,.T.);
#140 = EDGE_CURVE('',#133,#141,#143,.T.);
#141 = VERTEX_POINT('',#142);
#142 = CARTESIAN_POINT('',(-124.9337496233,-34.,13.6));
#143 = LINE('',#144,#145);
#144 = CARTESIAN_POINT('',(-132.8587496233,-34.,13.6));
#145 = VECTOR('',#146,1.);
#146 = DIRECTION('',(1.,0.,-0.));
#147 = ORIENTED_EDGE('',*,*,#148,.F.);
#148 = EDGE_CURVE('',#125,#141,#149,.T.);
#149 = LINE('',#150,#151);
#150 = CARTESIAN_POINT('',(-124.9337496233,-34.,10.8));
#151 = VECTOR('',#152,1.);
#152 = DIRECTION('',(0.,0.,-1.));
#153 = FACE_BOUND('',#154,.F.);
#154 = EDGE_LOOP('',(#155,#166,#174,#183,#191,#200,#208,#217));
#155 = ORIENTED_EDGE('',*,*,#156,.F.);
#156 = EDGE_CURVE('',#157,#159,#161,.T.);
#157 = VERTEX_POINT('',#158);
#158 = CARTESIAN_POINT('',(-116.8837496233,-34.,39.5));
#159 = VERTEX_POINT('',#160);
#160 = CARTESIAN_POINT('',(-111.8837496233,-34.,44.5));
#161 = CIRCLE('',#162,5.);
#162 = AXIS2_PLACEMENT_3D('',#163,#164,#165);
#163 = CARTESIAN_POINT('',(-111.8837496233,-34.,39.5));
#164 = DIRECTION('',(-0.,1.,0.));
#165 = DIRECTION('',(-1.,-0.,0.));
#166 = ORIENTED_EDGE('',*,*,#167,.T.);
#167 = EDGE_CURVE('',#157,#168,#170,.T.);
#168 = VERTEX_POINT('',#169);
#169 = CARTESIAN_POINT('',(-116.8837496233,-34.,26.5));
#170 = LINE('',#171,#172);
#171 = CARTESIAN_POINT('',(-116.8837496233,-34.,14.75));
#172 = VECTOR('',#173,1.);
#173 = DIRECTION('',(-0.,0.,-1.));
#174 = ORIENTED_EDGE('',*,*,#175,.F.);
#175 = EDGE_CURVE('',#176,#168,#178,.T.);
#176 = VERTEX_POINT('',#177);
#177 = CARTESIAN_POINT('',(-111.8837496233,-34.,21.5));
#178 = CIRCLE('',#179,5.);
#179 = AXIS2_PLACEMENT_3D('',#180,#181,#182);
#180 = CARTESIAN_POINT('',(-111.8837496233,-34.,26.5));
#181 = DIRECTION('',(-0.,1.,0.));
#182 = DIRECTION('',(-1.,-0.,0.));
#183 = ORIENTED_EDGE('',*,*,#184,.T.);
#184 = EDGE_CURVE('',#176,#185,#187,.T.);
#185 = VERTEX_POINT('',#186);
#186 = CARTESIAN_POINT('',(-87.88374962336,-34.,21.5));
#187 = LINE('',#188,#189);
#188 = CARTESIAN_POINT('',(-125.8837496233,-34.,21.5));
#189 = VECTOR('',#190,1.);
#190 = DIRECTION('',(1.,0.,-0.));
#191 = ORIENTED_EDGE('',*,*,#192,.F.);
#192 = EDGE_CURVE('',#193,#185,#195,.T.);
#193 = VERTEX_POINT('',#194);
#194 = CARTESIAN_POINT('',(-82.88374962336,-34.,26.5));
#195 = CIRCLE('',#196,5.);
#196 = AXIS2_PLACEMENT_3D('',#197,#198,#199);
#197 = CARTESIAN_POINT('',(-87.88374962336,-34.,26.5));
#198 = DIRECTION('',(0.,1.,0.));
#199 = DIRECTION('',(1.,0.,-0.));
#200 = ORIENTED_EDGE('',*,*,#201,.F.);
#201 = EDGE_CURVE('',#202,#193,#204,.T.);
#202 = VERTEX_POINT('',#203);
#203 = CARTESIAN_POINT('',(-82.88374962336,-34.,39.5));
#204 = LINE('',#205,#206);
#205 = CARTESIAN_POINT('',(-82.88374962336,-34.,14.75));
#206 = VECTOR('',#207,1.);
#207 = DIRECTION('',(-0.,0.,-1.));
#208 = ORIENTED_EDGE('',*,*,#209,.F.);
#209 = EDGE_CURVE('',#210,#202,#212,.T.);
#210 = VERTEX_POINT('',#211);
#211 = CARTESIAN_POINT('',(-87.88374962336,-34.,44.5));
#212 = CIRCLE('',#213,5.);
#213 = AXIS2_PLACEMENT_3D('',#214,#215,#216);
#214 = CARTESIAN_POINT('',(-87.88374962336,-34.,39.5));
#215 = DIRECTION('',(0.,1.,0.));
#216 = DIRECTION('',(1.,0.,-0.));
#217 = ORIENTED_EDGE('',*,*,#218,.F.);
#218 = EDGE_CURVE('',#159,#210,#219,.T.);
#219 = LINE('',#220,#221);
#220 = CARTESIAN_POINT('',(-125.8837496233,-34.,44.5));
#221 = VECTOR('',#222,1.);
#222 = DIRECTION('',(1.,0.,-0.));
#223 = FACE_BOUND('',#224,.F.);
#224 = EDGE_LOOP('',(#225,#235,#243,#251));
#225 = ORIENTED_EDGE('',*,*,#226,.F.);
#226 = EDGE_CURVE('',#227,#229,#231,.T.);
#227 = VERTEX_POINT('',#228);
#228 = CARTESIAN_POINT('',(-130.8337496233,-34.,53.4));
#229 = VERTEX_POINT('',#230);
#230 = CARTESIAN_POINT('',(-124.9337496233,-34.,53.4));
#231 = LINE('',#232,#233);
#232 = CARTESIAN_POINT('',(-132.8587496233,-34.,53.4));
#233 = VECTOR('',#234,1.);
#234 = DIRECTION('',(1.,0.,-0.));
#235 = ORIENTED_EDGE('',*,*,#236,.T.);
#236 = EDGE_CURVE('',#227,#237,#239,.T.);
#237 = VERTEX_POINT('',#238);
#238 = CARTESIAN_POINT('',(-130.8337496233,-34.,50.6));
#239 = LINE('',#240,#241);
#240 = CARTESIAN_POINT('',(-130.8337496233,-34.,29.3));
#241 = VECTOR('',#242,1.);
#242 = DIRECTION('',(0.,0.,-1.));
#243 = ORIENTED_EDGE('',*,*,#244,.T.);
#244 = EDGE_CURVE('',#237,#245,#247,.T.);
#245 = VERTEX_POINT('',#246);
#246 = CARTESIAN_POINT('',(-124.9337496233,-34.,50.6));
#247 = LINE('',#248,#249);
#248 = CARTESIAN_POINT('',(-132.8587496233,-34.,50.6));
#249 = VECTOR('',#250,1.);
#250 = DIRECTION('',(1.,0.,-0.));
#251 = ORIENTED_EDGE('',*,*,#252,.F.);
#252 = EDGE_CURVE('',#229,#245,#253,.T.);
#253 = LINE('',#254,#255);
#254 = CARTESIAN_POINT('',(-124.9337496233,-34.,29.3));
#255 = VECTOR('',#256,1.);
#256 = DIRECTION('',(0.,0.,-1.));
#257 = FACE_BOUND('',#258,.F.);
#258 = EDGE_LOOP('',(#259,#269,#277,#285));
#259 = ORIENTED_EDGE('',*,*,#260,.F.);
#260 = EDGE_CURVE('',#261,#263,#265,.T.);
#261 = VERTEX_POINT('',#262);
#262 = CARTESIAN_POINT('',(-74.83374962336,-34.,16.4));
#263 = VERTEX_POINT('',#264);
#264 = CARTESIAN_POINT('',(-68.93374962336,-34.,16.4));
#265 = LINE('',#266,#267);
#266 = CARTESIAN_POINT('',(-104.8587496233,-34.,16.4));
#267 = VECTOR('',#268,1.);
#268 = DIRECTION('',(1.,0.,-0.));
#269 = ORIENTED_EDGE('',*,*,#270,.T.);
#270 = EDGE_CURVE('',#261,#271,#273,.T.);
#271 = VERTEX_POINT('',#272);
#272 = CARTESIAN_POINT('',(-74.83374962336,-34.,13.6));
#273 = LINE('',#274,#275);
#274 = CARTESIAN_POINT('',(-74.83374962336,-34.,10.8));
#275 = VECTOR('',#276,1.);
#276 = DIRECTION('',(0.,0.,-1.));
#277 = ORIENTED_EDGE('',*,*,#278,.T.);
#278 = EDGE_CURVE('',#271,#279,#281,.T.);
#279 = VERTEX_POINT('',#280);
#280 = CARTESIAN_POINT('',(-68.93374962336,-34.,13.6));
#281 = LINE('',#282,#283);
#282 = CARTESIAN_POINT('',(-104.8587496233,-34.,13.6));
#283 = VECTOR('',#284,1.);
#284 = DIRECTION('',(1.,0.,-0.));
#285 = ORIENTED_EDGE('',*,*,#286,.F.);
#286 = EDGE_CURVE('',#263,#279,#287,.T.);
#287 = LINE('',#288,#289);
#288 = CARTESIAN_POINT('',(-68.93374962336,-34.,10.8));
#289 = VECTOR('',#290,1.);
#290 = DIRECTION('',(0.,0.,-1.));
#291 = FACE_BOUND('',#292,.F.);
#292 = EDGE_LOOP('',(#293,#303,#311,#319));
#293 = ORIENTED_EDGE('',*,*,#294,.F.);
#294 = EDGE_CURVE('',#295,#297,#299,.T.);
#295 = VERTEX_POINT('',#296);
#296 = CARTESIAN_POINT('',(-74.83374962336,-34.,53.4));
#297 = VERTEX_POINT('',#298);
#298 = CARTESIAN_POINT('',(-68.93374962336,-34.,53.4));
#299 = LINE('',#300,#301);
#300 = CARTESIAN_POINT('',(-104.8587496233,-34.,53.4));
#301 = VECTOR('',#302,1.);
#302 = DIRECTION('',(1.,0.,-0.));
#303 = ORIENTED_EDGE('',*,*,#304,.T.);
#304 = EDGE_CURVE('',#295,#305,#307,.T.);
#305 = VERTEX_POINT('',#306);
#306 = CARTESIAN_POINT('',(-74.83374962336,-34.,50.6));
#307 = LINE('',#308,#309);
#308 = CARTESIAN_POINT('',(-74.83374962336,-34.,29.3));
#309 = VECTOR('',#310,1.);
#310 = DIRECTION('',(0.,0.,-1.));
#311 = ORIENTED_EDGE('',*,*,#312,.T.);
#312 = EDGE_CURVE('',#305,#313,#315,.T.);
#313 = VERTEX_POINT('',#314);
#314 = CARTESIAN_POINT('',(-68.93374962336,-34.,50.6));
#315 = LINE('',#316,#317);
#316 = CARTESIAN_POINT('',(-104.8587496233,-34.,50.6));
#317 = VECTOR('',#318,1.);
#318 = DIRECTION('',(1.,0.,-0.));
#319 = ORIENTED_EDGE('',*,*,#320,.F.);
#320 = EDGE_CURVE('',#297,#313,#321,.T.);
#321 = LINE('',#322,#323);
#322 = CARTESIAN_POINT('',(-68.93374962336,-34.,29.3));
#323 = VECTOR('',#324,1.);
#324 = DIRECTION('',(0.,0.,-1.));
#325 = PLANE('',#326);
#326 = AXIS2_PLACEMENT_3D('',#327,#328,#329);
#327 = CARTESIAN_POINT('',(-134.8837496233,-34.,8.));
#328 = DIRECTION('',(-0.,1.,0.));
#329 = DIRECTION('',(0.,0.,1.));
#330 = ADVANCED_FACE('',(#331),#350,.T.);
#331 = FACE_BOUND('',#332,.F.);
#332 = EDGE_LOOP('',(#333,#334,#342,#349));
#333 = ORIENTED_EDGE('',*,*,#71,.T.);
#334 = ORIENTED_EDGE('',*,*,#335,.T.);
#335 = EDGE_CURVE('',#62,#336,#338,.T.);
#336 = VERTEX_POINT('',#337);
#337 = CARTESIAN_POINT('',(-131.8837496233,-26.,8.));
#338 = LINE('',#339,#340);
#339 = CARTESIAN_POINT('',(-131.8837496233,-34.,8.));
#340 = VECTOR('',#341,1.);
#341 = DIRECTION('',(-0.,1.,0.));
#342 = ORIENTED_EDGE('',*,*,#343,.F.);
#343 = EDGE_CURVE('',#32,#336,#344,.T.);
#344 = CIRCLE('',#345,3.);
#345 = AXIS2_PLACEMENT_3D('',#346,#347,#348);
#346 = CARTESIAN_POINT('',(-131.8837496233,-26.,11.));
#347 = DIRECTION('',(0.,-1.,0.));
#348 = DIRECTION('',(0.,0.,1.));
#349 = ORIENTED_EDGE('',*,*,#31,.F.);
#350 = CYLINDRICAL_SURFACE('',#351,3.);
#351 = AXIS2_PLACEMENT_3D('',#352,#353,#354);
#352 = CARTESIAN_POINT('',(-131.8837496233,-34.,11.));
#353 = DIRECTION('',(-0.,1.,0.));
#354 = DIRECTION('',(-1.,-0.,0.));
#355 = ADVANCED_FACE('',(#356),#375,.T.);
#356 = FACE_BOUND('',#357,.T.);
#357 = EDGE_LOOP('',(#358,#359,#367,#374));
#358 = ORIENTED_EDGE('',*,*,#79,.T.);
#359 = ORIENTED_EDGE('',*,*,#360,.T.);
#360 = EDGE_CURVE('',#80,#361,#363,.T.);
#361 = VERTEX_POINT('',#362);
#362 = CARTESIAN_POINT('',(-131.8837496233,-26.,58.));
#363 = LINE('',#364,#365);
#364 = CARTESIAN_POINT('',(-131.8837496233,-34.,58.));
#365 = VECTOR('',#366,1.);
#366 = DIRECTION('',(-0.,1.,0.));
#367 = ORIENTED_EDGE('',*,*,#368,.F.);
#368 = EDGE_CURVE('',#40,#361,#369,.T.);
#369 = CIRCLE('',#370,3.);
#370 = AXIS2_PLACEMENT_3D('',#371,#372,#373);
#371 = CARTESIAN_POINT('',(-131.8837496233,-26.,55.));
#372 = DIRECTION('',(-0.,1.,0.));
#373 = DIRECTION('',(0.,0.,1.));
#374 = ORIENTED_EDGE('',*,*,#47,.F.);
#375 = CYLINDRICAL_SURFACE('',#376,3.);
#376 = AXIS2_PLACEMENT_3D('',#377,#378,#379);
#377 = CARTESIAN_POINT('',(-131.8837496233,-34.,55.));
#378 = DIRECTION('',(-0.,1.,0.));
#379 = DIRECTION('',(-1.,-0.,0.));
#380 = ADVANCED_FACE('',(#381,#426),#496,.T.);
#381 = FACE_BOUND('',#382,.T.);
#382 = EDGE_LOOP('',(#383,#391,#392,#393,#394,#402,#411,#419));
#383 = ORIENTED_EDGE('',*,*,#384,.F.);
#384 = EDGE_CURVE('',#336,#385,#387,.T.);
#385 = VERTEX_POINT('',#386);
#386 = CARTESIAN_POINT('',(-67.88374962336,-26.,8.));
#387 = LINE('',#388,#389);
#388 = CARTESIAN_POINT('',(-134.8837496233,-26.,8.));
#389 = VECTOR('',#390,1.);
#390 = DIRECTION('',(1.,0.,-0.));
#391 = ORIENTED_EDGE('',*,*,#343,.F.);
#392 = ORIENTED_EDGE('',*,*,#39,.T.);
#393 = ORIENTED_EDGE('',*,*,#368,.T.);
#394 = ORIENTED_EDGE('',*,*,#395,.T.);
#395 = EDGE_CURVE('',#361,#396,#398,.T.);
#396 = VERTEX_POINT('',#397);
#397 = CARTESIAN_POINT('',(-67.88374962336,-26.,58.));
#398 = LINE('',#399,#400);
#399 = CARTESIAN_POINT('',(-134.8837496233,-26.,58.));
#400 = VECTOR('',#401,1.);
#401 = DIRECTION('',(1.,0.,-0.));
#402 = ORIENTED_EDGE('',*,*,#403,.F.);
#403 = EDGE_CURVE('',#404,#396,#406,.T.);
#404 = VERTEX_POINT('',#405);
#405 = CARTESIAN_POINT('',(-64.88374962336,-26.,55.));
#406 = CIRCLE('',#407,3.);
#407 = AXIS2_PLACEMENT_3D('',#408,#409,#410);
#408 = CARTESIAN_POINT('',(-67.88374962336,-26.,55.));
#409 = DIRECTION('',(0.,-1.,0.));
#410 = DIRECTION('',(0.,0.,1.));
#411 = ORIENTED_EDGE('',*,*,#412,.F.);
#412 = EDGE_CURVE('',#413,#404,#415,.T.);
#413 = VERTEX_POINT('',#414);
#414 = CARTESIAN_POINT('',(-64.88374962336,-26.,11.));
#415 = LINE('',#416,#417);
#416 = CARTESIAN_POINT('',(-64.88374962336,-26.,8.));
#417 = VECTOR('',#418,1.);
#418 = DIRECTION('',(0.,0.,1.));
#419 = ORIENTED_EDGE('',*,*,#420,.T.);
#420 = EDGE_CURVE('',#413,#385,#421,.T.);
#421 = CIRCLE('',#422,3.);
#422 = AXIS2_PLACEMENT_3D('',#423,#424,#425);
#423 = CARTESIAN_POINT('',(-67.88374962336,-26.,11.));
#424 = DIRECTION('',(-0.,1.,0.));
#425 = DIRECTION('',(0.,0.,1.));
#426 = FACE_BOUND('',#427,.T.);
#427 = EDGE_LOOP('',(#428,#439,#447,#456,#464,#473,#481,#490));
#428 = ORIENTED_EDGE('',*,*,#429,.F.);
#429 = EDGE_CURVE('',#430,#432,#434,.T.);
#430 = VERTEX_POINT('',#431);
#431 = CARTESIAN_POINT('',(-116.8837496233,-26.,39.5));
#432 = VERTEX_POINT('',#433);
#433 = CARTESIAN_POINT('',(-111.8837496233,-26.,44.5));
#434 = CIRCLE('',#435,5.);
#435 = AXIS2_PLACEMENT_3D('',#436,#437,#438);
#436 = CARTESIAN_POINT('',(-111.8837496233,-26.,39.5));
#437 = DIRECTION('',(-0.,1.,0.));
#438 = DIRECTION('',(-1.,-0.,0.));
#439 = ORIENTED_EDGE('',*,*,#440,.T.);
#440 = EDGE_CURVE('',#430,#441,#443,.T.);
#441 = VERTEX_POINT('',#442);
#442 = CARTESIAN_POINT('',(-116.8837496233,-26.,26.5));
#443 = LINE('',#444,#445);
#444 = CARTESIAN_POINT('',(-116.8837496233,-26.,14.75));
#445 = VECTOR('',#446,1.);
#446 = DIRECTION('',(-0.,0.,-1.));
#447 = ORIENTED_EDGE('',*,*,#448,.F.);
#448 = EDGE_CURVE('',#449,#441,#451,.T.);
#449 = VERTEX_POINT('',#450);
#450 = CARTESIAN_POINT('',(-111.8837496233,-26.,21.5));
#451 = CIRCLE('',#452,5.);
#452 = AXIS2_PLACEMENT_3D('',#453,#454,#455);
#453 = CARTESIAN_POINT('',(-111.8837496233,-26.,26.5));
#454 = DIRECTION('',(-0.,1.,0.));
#455 = DIRECTION('',(-1.,-0.,0.));
#456 = ORIENTED_EDGE('',*,*,#457,.T.);
#457 = EDGE_CURVE('',#449,#458,#460,.T.);
#458 = VERTEX_POINT('',#459);
#459 = CARTESIAN_POINT('',(-87.88374962336,-26.,21.5));
#460 = LINE('',#461,#462);
#461 = CARTESIAN_POINT('',(-125.8837496233,-26.,21.5));
#462 = VECTOR('',#463,1.);
#463 = DIRECTION('',(1.,0.,-0.));
#464 = ORIENTED_EDGE('',*,*,#465,.F.);
#465 = EDGE_CURVE('',#466,#458,#468,.T.);
#466 = VERTEX_POINT('',#467);
#467 = CARTESIAN_POINT('',(-82.88374962336,-26.,26.5));
#468 = CIRCLE('',#469,5.);
#469 = AXIS2_PLACEMENT_3D('',#470,#471,#472);
#470 = CARTESIAN_POINT('',(-87.88374962336,-26.,26.5));
#471 = DIRECTION('',(0.,1.,0.));
#472 = DIRECTION('',(1.,0.,-0.));
#473 = ORIENTED_EDGE('',*,*,#474,.F.);
#474 = EDGE_CURVE('',#475,#466,#477,.T.);
#475 = VERTEX_POINT('',#476);
#476 = CARTESIAN_POINT('',(-82.88374962336,-26.,39.5));
#477 = LINE('',#478,#479);
#478 = CARTESIAN_POINT('',(-82.88374962336,-26.,14.75));
#479 = VECTOR('',#480,1.);
#480 = DIRECTION('',(-0.,0.,-1.));
#481 = ORIENTED_EDGE('',*,*,#482,.F.);
#482 = EDGE_CURVE('',#483,#475,#485,.T.);
#483 = VERTEX_POINT('',#484);
#484 = CARTESIAN_POINT('',(-87.88374962336,-26.,44.5));
#485 = CIRCLE('',#486,5.);
#486 = AXIS2_PLACEMENT_3D('',#487,#488,#489);
#487 = CARTESIAN_POINT('',(-87.88374962336,-26.,39.5));
#488 = DIRECTION('',(0.,1.,0.));
#489 = DIRECTION('',(1.,0.,-0.));
#490 = ORIENTED_EDGE('',*,*,#491,.F.);
#491 = EDGE_CURVE('',#432,#483,#492,.T.);
#492 = LINE('',#493,#494);
#493 = CARTESIAN_POINT('',(-125.8837496233,-26.,44.5));
#494 = VECTOR('',#495,1.);
#495 = DIRECTION('',(1.,0.,-0.));
#496 = PLANE('',#497);
#497 = AXIS2_PLACEMENT_3D('',#498,#499,#500);
#498 = CARTESIAN_POINT('',(-134.8837496233,-26.,8.));
#499 = DIRECTION('',(-0.,1.,0.));
#500 = DIRECTION('',(0.,0.,1.));
#501 = ADVANCED_FACE('',(#502,#513,#524),#535,.F.);
#502 = FACE_BOUND('',#503,.F.);
#503 = EDGE_LOOP('',(#504,#505,#506,#507));
#504 = ORIENTED_EDGE('',*,*,#384,.F.);
#505 = ORIENTED_EDGE('',*,*,#335,.F.);
#506 = ORIENTED_EDGE('',*,*,#61,.T.);
#507 = ORIENTED_EDGE('',*,*,#508,.T.);
#508 = EDGE_CURVE('',#64,#385,#509,.T.);
#509 = LINE('',#510,#511);
#510 = CARTESIAN_POINT('',(-67.88374962336,-34.,8.));
#511 = VECTOR('',#512,1.);
#512 = DIRECTION('',(-0.,1.,0.));
#513 = FACE_BOUND('',#514,.F.);
#514 = EDGE_LOOP('',(#515));
#515 = ORIENTED_EDGE('',*,*,#516,.F.);
#516 = EDGE_CURVE('',#517,#517,#519,.T.);
#517 = VERTEX_POINT('',#518);
#518 = CARTESIAN_POINT('',(-126.1337496233,-30.,8.));
#519 = CIRCLE('',#520,1.75);
#520 = AXIS2_PLACEMENT_3D('',#521,#522,#523);
#521 = CARTESIAN_POINT('',(-127.8837496233,-30.,8.));
#522 = DIRECTION('',(0.,0.,1.));
#523 = DIRECTION('',(1.,0.,-0.));
#524 = FACE_BOUND('',#525,.F.);
#525 = EDGE_LOOP('',(#526));
#526 = ORIENTED_EDGE('',*,*,#527,.F.);
#527 = EDGE_CURVE('',#528,#528,#530,.T.);
#528 = VERTEX_POINT('',#529);
#529 = CARTESIAN_POINT('',(-70.13374962336,-30.,8.));
#530 = CIRCLE('',#531,1.75);
#531 = AXIS2_PLACEMENT_3D('',#532,#533,#534);
#532 = CARTESIAN_POINT('',(-71.88374962336,-30.,8.));
#533 = DIRECTION('',(0.,0.,1.));
#534 = DIRECTION('',(1.,0.,-0.));
#535 = PLANE('',#536);
#536 = AXIS2_PLACEMENT_3D('',#537,#538,#539);
#537 = CARTESIAN_POINT('',(-134.8837496233,-34.,8.));
#538 = DIRECTION('',(0.,0.,1.));
#539 = DIRECTION('',(1.,0.,-0.));
#540 = ADVANCED_FACE('',(#541),#552,.T.);
#541 = FACE_BOUND('',#542,.T.);
#542 = EDGE_LOOP('',(#543,#544,#545,#546));
#543 = ORIENTED_EDGE('',*,*,#113,.T.);
#544 = ORIENTED_EDGE('',*,*,#508,.T.);
#545 = ORIENTED_EDGE('',*,*,#420,.F.);
#546 = ORIENTED_EDGE('',*,*,#547,.F.);
#547 = EDGE_CURVE('',#106,#413,#548,.T.);
#548 = LINE('',#549,#550);
#549 = CARTESIAN_POINT('',(-64.88374962336,-34.,11.));
#550 = VECTOR('',#551,1.);
#551 = DIRECTION('',(-0.,1.,0.));
#552 = CYLINDRICAL_SURFACE('',#553,3.);
#553 = AXIS2_PLACEMENT_3D('',#554,#555,#556);
#554 = CARTESIAN_POINT('',(-67.88374962336,-34.,11.));
#555 = DIRECTION('',(-0.,1.,0.));
#556 = DIRECTION('',(1.,0.,-0.));
#557 = ADVANCED_FACE('',(#558),#569,.T.);
#558 = FACE_BOUND('',#559,.T.);
#559 = EDGE_LOOP('',(#560,#561,#562,#563));
#560 = ORIENTED_EDGE('',*,*,#105,.F.);
#561 = ORIENTED_EDGE('',*,*,#547,.T.);
#562 = ORIENTED_EDGE('',*,*,#412,.T.);
#563 = ORIENTED_EDGE('',*,*,#564,.F.);
#564 = EDGE_CURVE('',#97,#404,#565,.T.);
#565 = LINE('',#566,#567);
#566 = CARTESIAN_POINT('',(-64.88374962336,-34.,55.));
#567 = VECTOR('',#568,1.);
#568 = DIRECTION('',(-0.,1.,0.));
#569 = PLANE('',#570);
#570 = AXIS2_PLACEMENT_3D('',#571,#572,#573);
#571 = CARTESIAN_POINT('',(-64.88374962336,-34.,8.));
#572 = DIRECTION('',(1.,0.,-0.));
#573 = DIRECTION('',(0.,0.,1.));
#574 = ADVANCED_FACE('',(#575),#586,.T.);
#575 = FACE_BOUND('',#576,.F.);
#576 = EDGE_LOOP('',(#577,#578,#584,#585));
#577 = ORIENTED_EDGE('',*,*,#96,.T.);
#578 = ORIENTED_EDGE('',*,*,#579,.T.);
#579 = EDGE_CURVE('',#89,#396,#580,.T.);
#580 = LINE('',#581,#582);
#581 = CARTESIAN_POINT('',(-67.88374962336,-34.,58.));
#582 = VECTOR('',#583,1.);
#583 = DIRECTION('',(-0.,1.,0.));
#584 = ORIENTED_EDGE('',*,*,#403,.F.);
#585 = ORIENTED_EDGE('',*,*,#564,.F.);
#586 = CYLINDRICAL_SURFACE('',#587,3.);
#587 = AXIS2_PLACEMENT_3D('',#588,#589,#590);
#588 = CARTESIAN_POINT('',(-67.88374962336,-34.,55.));
#589 = DIRECTION('',(-0.,1.,0.));
#590 = DIRECTION('',(1.,0.,-0.));
#591 = ADVANCED_FACE('',(#592,#598,#609),#620,.T.);
#592 = FACE_BOUND('',#593,.T.);
#593 = EDGE_LOOP('',(#594,#595,#596,#597));
#594 = ORIENTED_EDGE('',*,*,#395,.F.);
#595 = ORIENTED_EDGE('',*,*,#360,.F.);
#596 = ORIENTED_EDGE('',*,*,#88,.T.);
#597 = ORIENTED_EDGE('',*,*,#579,.T.);
#598 = FACE_BOUND('',#599,.T.);
#599 = EDGE_LOOP('',(#600));
#600 = ORIENTED_EDGE('',*,*,#601,.F.);
#601 = EDGE_CURVE('',#602,#602,#604,.T.);
#602 = VERTEX_POINT('',#603);
#603 = CARTESIAN_POINT('',(-126.1337496233,-30.,58.));
#604 = CIRCLE('',#605,1.75);
#605 = AXIS2_PLACEMENT_3D('',#606,#607,#608);
#606 = CARTESIAN_POINT('',(-127.8837496233,-30.,58.));
#607 = DIRECTION('',(0.,0.,1.));
#608 = DIRECTION('',(1.,0.,-0.));
#609 = FACE_BOUND('',#610,.T.);
#610 = EDGE_LOOP('',(#611));
#611 = ORIENTED_EDGE('',*,*,#612,.F.);
#612 = EDGE_CURVE('',#613,#613,#615,.T.);
#613 = VERTEX_POINT('',#614);
#614 = CARTESIAN_POINT('',(-70.13374962336,-30.,58.));
#615 = CIRCLE('',#616,1.75);
#616 = AXIS2_PLACEMENT_3D('',#617,#618,#619);
#617 = CARTESIAN_POINT('',(-71.88374962336,-30.,58.));
#618 = DIRECTION('',(0.,0.,1.));
#619 = DIRECTION('',(1.,0.,-0.));
#620 = PLANE('',#621);
#621 = AXIS2_PLACEMENT_3D('',#622,#623,#624);
#622 = CARTESIAN_POINT('',(-134.8837496233,-34.,58.));
#623 = DIRECTION('',(0.,0.,1.));
#624 = DIRECTION('',(1.,0.,-0.));
#625 = ADVANCED_FACE('',(#626,#651),#662,.F.);
#626 = FACE_BOUND('',#627,.F.);
#627 = EDGE_LOOP('',(#628,#636,#644,#650));
#628 = ORIENTED_EDGE('',*,*,#629,.F.);
#629 = EDGE_CURVE('',#630,#125,#632,.T.);
#630 = VERTEX_POINT('',#631);
#631 = CARTESIAN_POINT('',(-124.9337496233,-26.5,16.4));
#632 = LINE('',#633,#634);
#633 = CARTESIAN_POINT('',(-124.9337496233,-26.5,16.4));
#634 = VECTOR('',#635,1.);
#635 = DIRECTION('',(2.22044604925E-16,-1.,0.));
#636 = ORIENTED_EDGE('',*,*,#637,.F.);
#637 = EDGE_CURVE('',#638,#630,#640,.T.);
#638 = VERTEX_POINT('',#639);
#639 = CARTESIAN_POINT('',(-130.8337496233,-26.5,16.4));
#640 = LINE('',#641,#642);
#641 = CARTESIAN_POINT('',(-130.8337496233,-26.5,16.4));
#642 = VECTOR('',#643,1.);
#643 = DIRECTION('',(1.,2.22044604925E-16,0.));
#644 = ORIENTED_EDGE('',*,*,#645,.T.);
#645 = EDGE_CURVE('',#638,#123,#646,.T.);
#646 = LINE('',#647,#648);
#647 = CARTESIAN_POINT('',(-130.8337496233,-26.5,16.4));
#648 = VECTOR('',#649,1.);
#649 = DIRECTION('',(2.22044604925E-16,-1.,0.));
#650 = ORIENTED_EDGE('',*,*,#122,.T.);
#651 = FACE_BOUND('',#652,.F.);
#652 = EDGE_LOOP('',(#653));
#653 = ORIENTED_EDGE('',*,*,#654,.F.);
#654 = EDGE_CURVE('',#655,#655,#657,.T.);
#655 = VERTEX_POINT('',#656);
#656 = CARTESIAN_POINT('',(-126.1337496233,-30.,16.4));
#657 = CIRCLE('',#658,1.75);
#658 = AXIS2_PLACEMENT_3D('',#659,#660,#661);
#659 = CARTESIAN_POINT('',(-127.8837496233,-30.,16.4));
#660 = DIRECTION('',(0.,0.,1.));
#661 = DIRECTION('',(1.,0.,-0.));
#662 = PLANE('',#663);
#663 = AXIS2_PLACEMENT_3D('',#664,#665,#666);
#664 = CARTESIAN_POINT('',(-130.8337496233,-26.5,16.4));
#665 = DIRECTION('',(0.,0.,1.));
#666 = DIRECTION('',(2.22044604925E-16,-1.,0.));
#667 = ADVANCED_FACE('',(#668),#686,.T.);
#668 = FACE_BOUND('',#669,.T.);
#669 = EDGE_LOOP('',(#670,#678,#684,#685));
#670 = ORIENTED_EDGE('',*,*,#671,.F.);
#671 = EDGE_CURVE('',#672,#133,#674,.T.);
#672 = VERTEX_POINT('',#673);
#673 = CARTESIAN_POINT('',(-130.8337496233,-26.5,13.6));
#674 = LINE('',#675,#676);
#675 = CARTESIAN_POINT('',(-130.8337496233,-26.5,13.6));
#676 = VECTOR('',#677,1.);
#677 = DIRECTION('',(2.22044604925E-16,-1.,0.));
#678 = ORIENTED_EDGE('',*,*,#679,.T.);
#679 = EDGE_CURVE('',#672,#638,#680,.T.);
#680 = LINE('',#681,#682);
#681 = CARTESIAN_POINT('',(-130.8337496233,-26.5,13.6));
#682 = VECTOR('',#683,1.);
#683 = DIRECTION('',(0.,0.,1.));
#684 = ORIENTED_EDGE('',*,*,#645,.T.);
#685 = ORIENTED_EDGE('',*,*,#132,.T.);
#686 = PLANE('',#687);
#687 = AXIS2_PLACEMENT_3D('',#688,#689,#690);
#688 = CARTESIAN_POINT('',(-130.8337496233,-26.5,13.6));
#689 = DIRECTION('',(1.,2.22044604925E-16,0.));
#690 = DIRECTION('',(0.,0.,1.));
#691 = ADVANCED_FACE('',(#692),#710,.F.);
#692 = FACE_BOUND('',#693,.F.);
#693 = EDGE_LOOP('',(#694,#702,#708,#709));
#694 = ORIENTED_EDGE('',*,*,#695,.F.);
#695 = EDGE_CURVE('',#696,#141,#698,.T.);
#696 = VERTEX_POINT('',#697);
#697 = CARTESIAN_POINT('',(-124.9337496233,-26.5,13.6));
#698 = LINE('',#699,#700);
#699 = CARTESIAN_POINT('',(-124.9337496233,-26.5,13.6));
#700 = VECTOR('',#701,1.);
#701 = DIRECTION('',(2.22044604925E-16,-1.,0.));
#702 = ORIENTED_EDGE('',*,*,#703,.T.);
#703 = EDGE_CURVE('',#696,#630,#704,.T.);
#704 = LINE('',#705,#706);
#705 = CARTESIAN_POINT('',(-124.9337496233,-26.5,13.6));
#706 = VECTOR('',#707,1.);
#707 = DIRECTION('',(0.,0.,1.));
#708 = ORIENTED_EDGE('',*,*,#629,.T.);
#709 = ORIENTED_EDGE('',*,*,#148,.T.);
#710 = PLANE('',#711);
#711 = AXIS2_PLACEMENT_3D('',#712,#713,#714);
#712 = CARTESIAN_POINT('',(-124.9337496233,-26.5,13.6));
#713 = DIRECTION('',(1.,2.22044604925E-16,0.));
#714 = DIRECTION('',(0.,0.,1.));
#715 = ADVANCED_FACE('',(#716,#727),#738,.T.);
#716 = FACE_BOUND('',#717,.T.);
#717 = EDGE_LOOP('',(#718,#719,#725,#726));
#718 = ORIENTED_EDGE('',*,*,#695,.F.);
#719 = ORIENTED_EDGE('',*,*,#720,.F.);
#720 = EDGE_CURVE('',#672,#696,#721,.T.);
#721 = LINE('',#722,#723);
#722 = CARTESIAN_POINT('',(-130.8337496233,-26.5,13.6));
#723 = VECTOR('',#724,1.);
#724 = DIRECTION('',(1.,2.22044604925E-16,0.));
#725 = ORIENTED_EDGE('',*,*,#671,.T.);
#726 = ORIENTED_EDGE('',*,*,#140,.T.);
#727 = FACE_BOUND('',#728,.T.);
#728 = EDGE_LOOP('',(#729));
#729 = ORIENTED_EDGE('',*,*,#730,.F.);
#730 = EDGE_CURVE('',#731,#731,#733,.T.);
#731 = VERTEX_POINT('',#732);
#732 = CARTESIAN_POINT('',(-126.1337496233,-30.,13.6));
#733 = CIRCLE('',#734,1.75);
#734 = AXIS2_PLACEMENT_3D('',#735,#736,#737);
#735 = CARTESIAN_POINT('',(-127.8837496233,-30.,13.6));
#736 = DIRECTION('',(0.,0.,1.));
#737 = DIRECTION('',(1.,0.,-0.));
#738 = PLANE('',#739);
#739 = AXIS2_PLACEMENT_3D('',#740,#741,#742);
#740 = CARTESIAN_POINT('',(-130.8337496233,-26.5,13.6));
#741 = DIRECTION('',(0.,0.,1.));
#742 = DIRECTION('',(2.22044604925E-16,-1.,0.));
#743 = ADVANCED_FACE('',(#744),#760,.F.);
#744 = FACE_BOUND('',#745,.F.);
#745 = EDGE_LOOP('',(#746,#752,#753,#759));
#746 = ORIENTED_EDGE('',*,*,#747,.F.);
#747 = EDGE_CURVE('',#157,#430,#748,.T.);
#748 = LINE('',#749,#750);
#749 = CARTESIAN_POINT('',(-116.8837496233,-36.,39.5));
#750 = VECTOR('',#751,1.);
#751 = DIRECTION('',(-0.,1.,0.));
#752 = ORIENTED_EDGE('',*,*,#156,.T.);
#753 = ORIENTED_EDGE('',*,*,#754,.T.);
#754 = EDGE_CURVE('',#159,#432,#755,.T.);
#755 = LINE('',#756,#757);
#756 = CARTESIAN_POINT('',(-111.8837496233,-36.,44.5));
#757 = VECTOR('',#758,1.);
#758 = DIRECTION('',(-0.,1.,0.));
#759 = ORIENTED_EDGE('',*,*,#429,.F.);
#760 = CYLINDRICAL_SURFACE('',#761,5.);
#761 = AXIS2_PLACEMENT_3D('',#762,#763,#764);
#762 = CARTESIAN_POINT('',(-111.8837496233,-36.,39.5));
#763 = DIRECTION('',(-0.,1.,0.));
#764 = DIRECTION('',(-1.,-0.,0.));
#765 = ADVANCED_FACE('',(#766),#777,.T.);
#766 = FACE_BOUND('',#767,.T.);
#767 = EDGE_LOOP('',(#768,#769,#775,#776));
#768 = ORIENTED_EDGE('',*,*,#167,.T.);
#769 = ORIENTED_EDGE('',*,*,#770,.T.);
#770 = EDGE_CURVE('',#168,#441,#771,.T.);
#771 = LINE('',#772,#773);
#772 = CARTESIAN_POINT('',(-116.8837496233,-36.,26.5));
#773 = VECTOR('',#774,1.);
#774 = DIRECTION('',(-0.,1.,0.));
#775 = ORIENTED_EDGE('',*,*,#440,.F.);
#776 = ORIENTED_EDGE('',*,*,#747,.F.);
#777 = PLANE('',#778);
#778 = AXIS2_PLACEMENT_3D('',#779,#780,#781);
#779 = CARTESIAN_POINT('',(-116.8837496233,-36.,21.5));
#780 = DIRECTION('',(1.,0.,-0.));
#781 = DIRECTION('',(0.,0.,1.));
#782 = ADVANCED_FACE('',(#783),#794,.F.);
#783 = FACE_BOUND('',#784,.F.);
#784 = EDGE_LOOP('',(#785,#786,#787,#788));
#785 = ORIENTED_EDGE('',*,*,#491,.F.);
#786 = ORIENTED_EDGE('',*,*,#754,.F.);
#787 = ORIENTED_EDGE('',*,*,#218,.T.);
#788 = ORIENTED_EDGE('',*,*,#789,.T.);
#789 = EDGE_CURVE('',#210,#483,#790,.T.);
#790 = LINE('',#791,#792);
#791 = CARTESIAN_POINT('',(-87.88374962336,-36.,44.5));
#792 = VECTOR('',#793,1.);
#793 = DIRECTION('',(-0.,1.,0.));
#794 = PLANE('',#795);
#795 = AXIS2_PLACEMENT_3D('',#796,#797,#798);
#796 = CARTESIAN_POINT('',(-116.8837496233,-36.,44.5));
#797 = DIRECTION('',(0.,0.,1.));
#798 = DIRECTION('',(1.,0.,-0.));
#799 = ADVANCED_FACE('',(#800),#811,.F.);
#800 = FACE_BOUND('',#801,.T.);
#801 = EDGE_LOOP('',(#802,#803,#804,#810));
#802 = ORIENTED_EDGE('',*,*,#770,.F.);
#803 = ORIENTED_EDGE('',*,*,#175,.F.);
#804 = ORIENTED_EDGE('',*,*,#805,.T.);
#805 = EDGE_CURVE('',#176,#449,#806,.T.);
#806 = LINE('',#807,#808);
#807 = CARTESIAN_POINT('',(-111.8837496233,-36.,21.5));
#808 = VECTOR('',#809,1.);
#809 = DIRECTION('',(-0.,1.,0.));
#810 = ORIENTED_EDGE('',*,*,#448,.T.);
#811 = CYLINDRICAL_SURFACE('',#812,5.);
#812 = AXIS2_PLACEMENT_3D('',#813,#814,#815);
#813 = CARTESIAN_POINT('',(-111.8837496233,-36.,26.5));
#814 = DIRECTION('',(-0.,1.,0.));
#815 = DIRECTION('',(-1.,-0.,0.));
#816 = ADVANCED_FACE('',(#817),#828,.F.);
#817 = FACE_BOUND('',#818,.T.);
#818 = EDGE_LOOP('',(#819,#825,#826,#827));
#819 = ORIENTED_EDGE('',*,*,#820,.F.);
#820 = EDGE_CURVE('',#202,#475,#821,.T.);
#821 = LINE('',#822,#823);
#822 = CARTESIAN_POINT('',(-82.88374962336,-36.,39.5));
#823 = VECTOR('',#824,1.);
#824 = DIRECTION('',(-0.,1.,0.));
#825 = ORIENTED_EDGE('',*,*,#209,.F.);
#826 = ORIENTED_EDGE('',*,*,#789,.T.);
#827 = ORIENTED_EDGE('',*,*,#482,.T.);
#828 = CYLINDRICAL_SURFACE('',#829,5.);
#829 = AXIS2_PLACEMENT_3D('',#830,#831,#832);
#830 = CARTESIAN_POINT('',(-87.88374962336,-36.,39.5));
#831 = DIRECTION('',(-0.,1.,0.));
#832 = DIRECTION('',(1.,0.,-0.));
#833 = ADVANCED_FACE('',(#834),#845,.T.);
#834 = FACE_BOUND('',#835,.T.);
#835 = EDGE_LOOP('',(#836,#837,#838,#839));
#836 = ORIENTED_EDGE('',*,*,#457,.F.);
#837 = ORIENTED_EDGE('',*,*,#805,.F.);
#838 = ORIENTED_EDGE('',*,*,#184,.T.);
#839 = ORIENTED_EDGE('',*,*,#840,.T.);
#840 = EDGE_CURVE('',#185,#458,#841,.T.);
#841 = LINE('',#842,#843);
#842 = CARTESIAN_POINT('',(-87.88374962336,-36.,21.5));
#843 = VECTOR('',#844,1.);
#844 = DIRECTION('',(-0.,1.,0.));
#845 = PLANE('',#846);
#846 = AXIS2_PLACEMENT_3D('',#847,#848,#849);
#847 = CARTESIAN_POINT('',(-116.8837496233,-36.,21.5));
#848 = DIRECTION('',(0.,0.,1.));
#849 = DIRECTION('',(1.,0.,-0.));
#850 = ADVANCED_FACE('',(#851),#862,.F.);
#851 = FACE_BOUND('',#852,.F.);
#852 = EDGE_LOOP('',(#853,#854,#860,#861));
#853 = ORIENTED_EDGE('',*,*,#201,.T.);
#854 = ORIENTED_EDGE('',*,*,#855,.T.);
#855 = EDGE_CURVE('',#193,#466,#856,.T.);
#856 = LINE('',#857,#858);
#857 = CARTESIAN_POINT('',(-82.88374962336,-36.,26.5));
#858 = VECTOR('',#859,1.);
#859 = DIRECTION('',(-0.,1.,0.));
#860 = ORIENTED_EDGE('',*,*,#474,.F.);
#861 = ORIENTED_EDGE('',*,*,#820,.F.);
#862 = PLANE('',#863);
#863 = AXIS2_PLACEMENT_3D('',#864,#865,#866);
#864 = CARTESIAN_POINT('',(-82.88374962336,-36.,21.5));
#865 = DIRECTION('',(1.,0.,-0.));
#866 = DIRECTION('',(0.,0.,1.));
#867 = ADVANCED_FACE('',(#868),#874,.F.);
#868 = FACE_BOUND('',#869,.F.);
#869 = EDGE_LOOP('',(#870,#871,#872,#873));
#870 = ORIENTED_EDGE('',*,*,#855,.F.);
#871 = ORIENTED_EDGE('',*,*,#192,.T.);
#872 = ORIENTED_EDGE('',*,*,#840,.T.);
#873 = ORIENTED_EDGE('',*,*,#465,.F.);
#874 = CYLINDRICAL_SURFACE('',#875,5.);
#875 = AXIS2_PLACEMENT_3D('',#876,#877,#878);
#876 = CARTESIAN_POINT('',(-87.88374962336,-36.,26.5));
#877 = DIRECTION('',(-0.,1.,0.));
#878 = DIRECTION('',(1.,0.,-0.));
#879 = ADVANCED_FACE('',(#880,#905),#916,.F.);
#880 = FACE_BOUND('',#881,.F.);
#881 = EDGE_LOOP('',(#882,#890,#898,#904));
#882 = ORIENTED_EDGE('',*,*,#883,.F.);
#883 = EDGE_CURVE('',#884,#229,#886,.T.);
#884 = VERTEX_POINT('',#885);
#885 = CARTESIAN_POINT('',(-124.9337496233,-26.5,53.4));
#886 = LINE('',#887,#888);
#887 = CARTESIAN_POINT('',(-124.9337496233,-26.5,53.4));
#888 = VECTOR('',#889,1.);
#889 = DIRECTION('',(2.22044604925E-16,-1.,0.));
#890 = ORIENTED_EDGE('',*,*,#891,.F.);
#891 = EDGE_CURVE('',#892,#884,#894,.T.);
#892 = VERTEX_POINT('',#893);
#893 = CARTESIAN_POINT('',(-130.8337496233,-26.5,53.4));
#894 = LINE('',#895,#896);
#895 = CARTESIAN_POINT('',(-130.8337496233,-26.5,53.4));
#896 = VECTOR('',#897,1.);
#897 = DIRECTION('',(1.,2.22044604925E-16,0.));
#898 = ORIENTED_EDGE('',*,*,#899,.T.);
#899 = EDGE_CURVE('',#892,#227,#900,.T.);
#900 = LINE('',#901,#902);
#901 = CARTESIAN_POINT('',(-130.8337496233,-26.5,53.4));
#902 = VECTOR('',#903,1.);
#903 = DIRECTION('',(2.22044604925E-16,-1.,0.));
#904 = ORIENTED_EDGE('',*,*,#226,.T.);
#905 = FACE_BOUND('',#906,.F.);
#906 = EDGE_LOOP('',(#907));
#907 = ORIENTED_EDGE('',*,*,#908,.F.);
#908 = EDGE_CURVE('',#909,#909,#911,.T.);
#909 = VERTEX_POINT('',#910);
#910 = CARTESIAN_POINT('',(-126.1337496233,-30.,53.4));
#911 = CIRCLE('',#912,1.75);
#912 = AXIS2_PLACEMENT_3D('',#913,#914,#915);
#913 = CARTESIAN_POINT('',(-127.8837496233,-30.,53.4));
#914 = DIRECTION('',(0.,0.,1.));
#915 = DIRECTION('',(1.,0.,-0.));
#916 = PLANE('',#917);
#917 = AXIS2_PLACEMENT_3D('',#918,#919,#920);
#918 = CARTESIAN_POINT('',(-130.8337496233,-26.5,53.4));
#919 = DIRECTION('',(0.,0.,1.));
#920 = DIRECTION('',(2.22044604925E-16,-1.,0.));
#921 = ADVANCED_FACE('',(#922),#940,.T.);
#922 = FACE_BOUND('',#923,.T.);
#923 = EDGE_LOOP('',(#924,#932,#938,#939));
#924 = ORIENTED_EDGE('',*,*,#925,.F.);
#925 = EDGE_CURVE('',#926,#237,#928,.T.);
#926 = VERTEX_POINT('',#927);
#927 = CARTESIAN_POINT('',(-130.8337496233,-26.5,50.6));
#928 = LINE('',#929,#930);
#929 = CARTESIAN_POINT('',(-130.8337496233,-26.5,50.6));
#930 = VECTOR('',#931,1.);
#931 = DIRECTION('',(2.22044604925E-16,-1.,0.));
#932 = ORIENTED_EDGE('',*,*,#933,.T.);
#933 = EDGE_CURVE('',#926,#892,#934,.T.);
#934 = LINE('',#935,#936);
#935 = CARTESIAN_POINT('',(-130.8337496233,-26.5,50.6));
#936 = VECTOR('',#937,1.);
#937 = DIRECTION('',(0.,0.,1.));
#938 = ORIENTED_EDGE('',*,*,#899,.T.);
#939 = ORIENTED_EDGE('',*,*,#236,.T.);
#940 = PLANE('',#941);
#941 = AXIS2_PLACEMENT_3D('',#942,#943,#944);
#942 = CARTESIAN_POINT('',(-130.8337496233,-26.5,50.6));
#943 = DIRECTION('',(1.,2.22044604925E-16,0.));
#944 = DIRECTION('',(0.,0.,1.));
#945 = ADVANCED_FACE('',(#946),#964,.F.);
#946 = FACE_BOUND('',#947,.F.);
#947 = EDGE_LOOP('',(#948,#956,#962,#963));
#948 = ORIENTED_EDGE('',*,*,#949,.F.);
#949 = EDGE_CURVE('',#950,#245,#952,.T.);
#950 = VERTEX_POINT('',#951);
#951 = CARTESIAN_POINT('',(-124.9337496233,-26.5,50.6));
#952 = LINE('',#953,#954);
#953 = CARTESIAN_POINT('',(-124.9337496233,-26.5,50.6));
#954 = VECTOR('',#955,1.);
#955 = DIRECTION('',(2.22044604925E-16,-1.,0.));
#956 = ORIENTED_EDGE('',*,*,#957,.T.);
#957 = EDGE_CURVE('',#950,#884,#958,.T.);
#958 = LINE('',#959,#960);
#959 = CARTESIAN_POINT('',(-124.9337496233,-26.5,50.6));
#960 = VECTOR('',#961,1.);
#961 = DIRECTION('',(0.,0.,1.));
#962 = ORIENTED_EDGE('',*,*,#883,.T.);
#963 = ORIENTED_EDGE('',*,*,#252,.T.);
#964 = PLANE('',#965);
#965 = AXIS2_PLACEMENT_3D('',#966,#967,#968);
#966 = CARTESIAN_POINT('',(-124.9337496233,-26.5,50.6));
#967 = DIRECTION('',(1.,2.22044604925E-16,0.));
#968 = DIRECTION('',(0.,0.,1.));
#969 = ADVANCED_FACE('',(#970,#981),#992,.T.);
#970 = FACE_BOUND('',#971,.T.);
#971 = EDGE_LOOP('',(#972,#973,#979,#980));
#972 = ORIENTED_EDGE('',*,*,#949,.F.);
#973 = ORIENTED_EDGE('',*,*,#974,.F.);
#974 = EDGE_CURVE('',#926,#950,#975,.T.);
#975 = LINE('',#976,#977);
#976 = CARTESIAN_POINT('',(-130.8337496233,-26.5,50.6));
#977 = VECTOR('',#978,1.);
#978 = DIRECTION('',(1.,2.22044604925E-16,0.));
#979 = ORIENTED_EDGE('',*,*,#925,.T.);
#980 = ORIENTED_EDGE('',*,*,#244,.T.);
#981 = FACE_BOUND('',#982,.T.);
#982 = EDGE_LOOP('',(#983));
#983 = ORIENTED_EDGE('',*,*,#984,.F.);
#984 = EDGE_CURVE('',#985,#985,#987,.T.);
#985 = VERTEX_POINT('',#986);
#986 = CARTESIAN_POINT('',(-126.1337496233,-30.,50.6));
#987 = CIRCLE('',#988,1.75);
#988 = AXIS2_PLACEMENT_3D('',#989,#990,#991);
#989 = CARTESIAN_POINT('',(-127.8837496233,-30.,50.6));
#990 = DIRECTION('',(0.,0.,1.));
#991 = DIRECTION('',(1.,0.,-0.));
#992 = PLANE('',#993);
#993 = AXIS2_PLACEMENT_3D('',#994,#995,#996);
#994 = CARTESIAN_POINT('',(-130.8337496233,-26.5,50.6));
#995 = DIRECTION('',(0.,0.,1.));
#996 = DIRECTION('',(2.22044604925E-16,-1.,0.));
#997 = ADVANCED_FACE('',(#998,#1023),#1034,.F.);
#998 = FACE_BOUND('',#999,.F.);
#999 = EDGE_LOOP('',(#1000,#1008,#1016,#1022));
#1000 = ORIENTED_EDGE('',*,*,#1001,.F.);
#1001 = EDGE_CURVE('',#1002,#263,#1004,.T.);
#1002 = VERTEX_POINT('',#1003);
#1003 = CARTESIAN_POINT('',(-68.93374962336,-26.5,16.4));
#1004 = LINE('',#1005,#1006);
#1005 = CARTESIAN_POINT('',(-68.93374962336,-26.5,16.4));
#1006 = VECTOR('',#1007,1.);
#1007 = DIRECTION('',(2.22044604925E-16,-1.,0.));
#1008 = ORIENTED_EDGE('',*,*,#1009,.F.);
#1009 = EDGE_CURVE('',#1010,#1002,#1012,.T.);
#1010 = VERTEX_POINT('',#1011);
#1011 = CARTESIAN_POINT('',(-74.83374962336,-26.5,16.4));
#1012 = LINE('',#1013,#1014);
#1013 = CARTESIAN_POINT('',(-74.83374962336,-26.5,16.4));
#1014 = VECTOR('',#1015,1.);
#1015 = DIRECTION('',(1.,2.22044604925E-16,0.));
#1016 = ORIENTED_EDGE('',*,*,#1017,.T.);
#1017 = EDGE_CURVE('',#1010,#261,#1018,.T.);
#1018 = LINE('',#1019,#1020);
#1019 = CARTESIAN_POINT('',(-74.83374962336,-26.5,16.4));
#1020 = VECTOR('',#1021,1.);
#1021 = DIRECTION('',(2.22044604925E-16,-1.,0.));
#1022 = ORIENTED_EDGE('',*,*,#260,.T.);
#1023 = FACE_BOUND('',#1024,.F.);
#1024 = EDGE_LOOP('',(#1025));
#1025 = ORIENTED_EDGE('',*,*,#1026,.F.);
#1026 = EDGE_CURVE('',#1027,#1027,#1029,.T.);
#1027 = VERTEX_POINT('',#1028);
#1028 = CARTESIAN_POINT('',(-70.13374962336,-30.,16.4));
#1029 = CIRCLE('',#1030,1.75);
#1030 = AXIS2_PLACEMENT_3D('',#1031,#1032,#1033);
#1031 = CARTESIAN_POINT('',(-71.88374962336,-30.,16.4));
#1032 = DIRECTION('',(0.,0.,1.));
#1033 = DIRECTION('',(1.,0.,-0.));
#1034 = PLANE('',#1035);
#1035 = AXIS2_PLACEMENT_3D('',#1036,#1037,#1038);
#1036 = CARTESIAN_POINT('',(-74.83374962336,-26.5,16.4));
#1037 = DIRECTION('',(0.,0.,1.));
#1038 = DIRECTION('',(2.22044604925E-16,-1.,0.));
#1039 = ADVANCED_FACE('',(#1040),#1058,.T.);
#1040 = FACE_BOUND('',#1041,.T.);
#1041 = EDGE_LOOP('',(#1042,#1050,#1056,#1057));
#1042 = ORIENTED_EDGE('',*,*,#1043,.F.);
#1043 = EDGE_CURVE('',#1044,#271,#1046,.T.);
#1044 = VERTEX_POINT('',#1045);
#1045 = CARTESIAN_POINT('',(-74.83374962336,-26.5,13.6));
#1046 = LINE('',#1047,#1048);
#1047 = CARTESIAN_POINT('',(-74.83374962336,-26.5,13.6));
#1048 = VECTOR('',#1049,1.);
#1049 = DIRECTION('',(2.22044604925E-16,-1.,0.));
#1050 = ORIENTED_EDGE('',*,*,#1051,.T.);
#1051 = EDGE_CURVE('',#1044,#1010,#1052,.T.);
#1052 = LINE('',#1053,#1054);
#1053 = CARTESIAN_POINT('',(-74.83374962336,-26.5,13.6));
#1054 = VECTOR('',#1055,1.);
#1055 = DIRECTION('',(0.,0.,1.));
#1056 = ORIENTED_EDGE('',*,*,#1017,.T.);
#1057 = ORIENTED_EDGE('',*,*,#270,.T.);
#1058 = PLANE('',#1059);
#1059 = AXIS2_PLACEMENT_3D('',#1060,#1061,#1062);
#1060 = CARTESIAN_POINT('',(-74.83374962336,-26.5,13.6));
#1061 = DIRECTION('',(1.,2.22044604925E-16,0.));
#1062 = DIRECTION('',(0.,0.,1.));
#1063 = ADVANCED_FACE('',(#1064),#1082,.F.);
#1064 = FACE_BOUND('',#1065,.F.);
#1065 = EDGE_LOOP('',(#1066,#1074,#1080,#1081));
#1066 = ORIENTED_EDGE('',*,*,#1067,.F.);
#1067 = EDGE_CURVE('',#1068,#279,#1070,.T.);
#1068 = VERTEX_POINT('',#1069);
#1069 = CARTESIAN_POINT('',(-68.93374962336,-26.5,13.6));
#1070 = LINE('',#1071,#1072);
#1071 = CARTESIAN_POINT('',(-68.93374962336,-26.5,13.6));
#1072 = VECTOR('',#1073,1.);
#1073 = DIRECTION('',(2.22044604925E-16,-1.,0.));
#1074 = ORIENTED_EDGE('',*,*,#1075,.T.);
#1075 = EDGE_CURVE('',#1068,#1002,#1076,.T.);
#1076 = LINE('',#1077,#1078);
#1077 = CARTESIAN_POINT('',(-68.93374962336,-26.5,13.6));
#1078 = VECTOR('',#1079,1.);
#1079 = DIRECTION('',(0.,0.,1.));
#1080 = ORIENTED_EDGE('',*,*,#1001,.T.);
#1081 = ORIENTED_EDGE('',*,*,#286,.T.);
#1082 = PLANE('',#1083);
#1083 = AXIS2_PLACEMENT_3D('',#1084,#1085,#1086);
#1084 = CARTESIAN_POINT('',(-68.93374962336,-26.5,13.6));
#1085 = DIRECTION('',(1.,2.22044604925E-16,0.));
#1086 = DIRECTION('',(0.,0.,1.));
#1087 = ADVANCED_FACE('',(#1088,#1099),#1110,.T.);
#1088 = FACE_BOUND('',#1089,.T.);
#1089 = EDGE_LOOP('',(#1090,#1091,#1097,#1098));
#1090 = ORIENTED_EDGE('',*,*,#1067,.F.);
#1091 = ORIENTED_EDGE('',*,*,#1092,.F.);
#1092 = EDGE_CURVE('',#1044,#1068,#1093,.T.);
#1093 = LINE('',#1094,#1095);
#1094 = CARTESIAN_POINT('',(-74.83374962336,-26.5,13.6));
#1095 = VECTOR('',#1096,1.);
#1096 = DIRECTION('',(1.,2.22044604925E-16,0.));
#1097 = ORIENTED_EDGE('',*,*,#1043,.T.);
#1098 = ORIENTED_EDGE('',*,*,#278,.T.);
#1099 = FACE_BOUND('',#1100,.T.);
#1100 = EDGE_LOOP('',(#1101));
#1101 = ORIENTED_EDGE('',*,*,#1102,.F.);
#1102 = EDGE_CURVE('',#1103,#1103,#1105,.T.);
#1103 = VERTEX_POINT('',#1104);
#1104 = CARTESIAN_POINT('',(-70.13374962336,-30.,13.6));
#1105 = CIRCLE('',#1106,1.75);
#1106 = AXIS2_PLACEMENT_3D('',#1107,#1108,#1109);
#1107 = CARTESIAN_POINT('',(-71.88374962336,-30.,13.6));
#1108 = DIRECTION('',(0.,0.,1.));
#1109 = DIRECTION('',(1.,0.,-0.));
#1110 = PLANE('',#1111);
#1111 = AXIS2_PLACEMENT_3D('',#1112,#1113,#1114);
#1112 = CARTESIAN_POINT('',(-74.83374962336,-26.5,13.6));
#1113 = DIRECTION('',(0.,0.,1.));
#1114 = DIRECTION('',(2.22044604925E-16,-1.,0.));
#1115 = ADVANCED_FACE('',(#1116,#1141),#1152,.F.);
#1116 = FACE_BOUND('',#1117,.F.);
#1117 = EDGE_LOOP('',(#1118,#1126,#1134,#1140));
#1118 = ORIENTED_EDGE('',*,*,#1119,.F.);
#1119 = EDGE_CURVE('',#1120,#297,#1122,.T.);
#1120 = VERTEX_POINT('',#1121);
#1121 = CARTESIAN_POINT('',(-68.93374962336,-26.5,53.4));
#1122 = LINE('',#1123,#1124);
#1123 = CARTESIAN_POINT('',(-68.93374962336,-26.5,53.4));
#1124 = VECTOR('',#1125,1.);
#1125 = DIRECTION('',(2.22044604925E-16,-1.,0.));
#1126 = ORIENTED_EDGE('',*,*,#1127,.F.);
#1127 = EDGE_CURVE('',#1128,#1120,#1130,.T.);
#1128 = VERTEX_POINT('',#1129);
#1129 = CARTESIAN_POINT('',(-74.83374962336,-26.5,53.4));
#1130 = LINE('',#1131,#1132);
#1131 = CARTESIAN_POINT('',(-74.83374962336,-26.5,53.4));
#1132 = VECTOR('',#1133,1.);
#1133 = DIRECTION('',(1.,2.22044604925E-16,0.));
#1134 = ORIENTED_EDGE('',*,*,#1135,.T.);
#1135 = EDGE_CURVE('',#1128,#295,#1136,.T.);
#1136 = LINE('',#1137,#1138);
#1137 = CARTESIAN_POINT('',(-74.83374962336,-26.5,53.4));
#1138 = VECTOR('',#1139,1.);
#1139 = DIRECTION('',(2.22044604925E-16,-1.,0.));
#1140 = ORIENTED_EDGE('',*,*,#294,.T.);
#1141 = FACE_BOUND('',#1142,.F.);
#1142 = EDGE_LOOP('',(#1143));
#1143 = ORIENTED_EDGE('',*,*,#1144,.F.);
#1144 = EDGE_CURVE('',#1145,#1145,#1147,.T.);
#1145 = VERTEX_POINT('',#1146);
#1146 = CARTESIAN_POINT('',(-70.13374962336,-30.,53.4));
#1147 = CIRCLE('',#1148,1.75);
#1148 = AXIS2_PLACEMENT_3D('',#1149,#1150,#1151);
#1149 = CARTESIAN_POINT('',(-71.88374962336,-30.,53.4));
#1150 = DIRECTION('',(0.,0.,1.));
#1151 = DIRECTION('',(1.,0.,-0.));
#1152 = PLANE('',#1153);
#1153 = AXIS2_PLACEMENT_3D('',#1154,#1155,#1156);
#1154 = CARTESIAN_POINT('',(-74.83374962336,-26.5,53.4));
#1155 = DIRECTION('',(0.,0.,1.));
#1156 = DIRECTION('',(2.22044604925E-16,-1.,0.));
#1157 = ADVANCED_FACE('',(#1158),#1176,.F.);
#1158 = FACE_BOUND('',#1159,.F.);
#1159 = EDGE_LOOP('',(#1160,#1168,#1174,#1175));
#1160 = ORIENTED_EDGE('',*,*,#1161,.F.);
#1161 = EDGE_CURVE('',#1162,#313,#1164,.T.);
#1162 = VERTEX_POINT('',#1163);
#1163 = CARTESIAN_POINT('',(-68.93374962336,-26.5,50.6));
#1164 = LINE('',#1165,#1166);
#1165 = CARTESIAN_POINT('',(-68.93374962336,-26.5,50.6));
#1166 = VECTOR('',#1167,1.);
#1167 = DIRECTION('',(2.22044604925E-16,-1.,0.));
#1168 = ORIENTED_EDGE('',*,*,#1169,.T.);
#1169 = EDGE_CURVE('',#1162,#1120,#1170,.T.);
#1170 = LINE('',#1171,#1172);
#1171 = CARTESIAN_POINT('',(-68.93374962336,-26.5,50.6));
#1172 = VECTOR('',#1173,1.);
#1173 = DIRECTION('',(0.,0.,1.));
#1174 = ORIENTED_EDGE('',*,*,#1119,.T.);
#1175 = ORIENTED_EDGE('',*,*,#320,.T.);
#1176 = PLANE('',#1177);
#1177 = AXIS2_PLACEMENT_3D('',#1178,#1179,#1180);
#1178 = CARTESIAN_POINT('',(-68.93374962336,-26.5,50.6));
#1179 = DIRECTION('',(1.,2.22044604925E-16,0.));
#1180 = DIRECTION('',(0.,0.,1.));
#1181 = ADVANCED_FACE('',(#1182,#1200),#1211,.T.);
#1182 = FACE_BOUND('',#1183,.T.);
#1183 = EDGE_LOOP('',(#1184,#1185,#1193,#1199));
#1184 = ORIENTED_EDGE('',*,*,#1161,.F.);
#1185 = ORIENTED_EDGE('',*,*,#1186,.F.);
#1186 = EDGE_CURVE('',#1187,#1162,#1189,.T.);
#1187 = VERTEX_POINT('',#1188);
#1188 = CARTESIAN_POINT('',(-74.83374962336,-26.5,50.6));
#1189 = LINE('',#1190,#1191);
#1190 = CARTESIAN_POINT('',(-74.83374962336,-26.5,50.6));
#1191 = VECTOR('',#1192,1.);
#1192 = DIRECTION('',(1.,2.22044604925E-16,0.));
#1193 = ORIENTED_EDGE('',*,*,#1194,.T.);
#1194 = EDGE_CURVE('',#1187,#305,#1195,.T.);
#1195 = LINE('',#1196,#1197);
#1196 = CARTESIAN_POINT('',(-74.83374962336,-26.5,50.6));
#1197 = VECTOR('',#1198,1.);
#1198 = DIRECTION('',(2.22044604925E-16,-1.,0.));
#1199 = ORIENTED_EDGE('',*,*,#312,.T.);
#1200 = FACE_BOUND('',#1201,.T.);
#1201 = EDGE_LOOP('',(#1202));
#1202 = ORIENTED_EDGE('',*,*,#1203,.F.);
#1203 = EDGE_CURVE('',#1204,#1204,#1206,.T.);
#1204 = VERTEX_POINT('',#1205);
#1205 = CARTESIAN_POINT('',(-70.13374962336,-30.,50.6));
#1206 = CIRCLE('',#1207,1.75);
#1207 = AXIS2_PLACEMENT_3D('',#1208,#1209,#1210);
#1208 = CARTESIAN_POINT('',(-71.88374962336,-30.,50.6));
#1209 = DIRECTION('',(0.,0.,1.));
#1210 = DIRECTION('',(1.,0.,-0.));
#1211 = PLANE('',#1212);
#1212 = AXIS2_PLACEMENT_3D('',#1213,#1214,#1215);
#1213 = CARTESIAN_POINT('',(-74.83374962336,-26.5,50.6));
#1214 = DIRECTION('',(0.,0.,1.));
#1215 = DIRECTION('',(2.22044604925E-16,-1.,0.));
#1216 = ADVANCED_FACE('',(#1217),#1228,.T.);
#1217 = FACE_BOUND('',#1218,.T.);
#1218 = EDGE_LOOP('',(#1219,#1220,#1226,#1227));
#1219 = ORIENTED_EDGE('',*,*,#1194,.F.);
#1220 = ORIENTED_EDGE('',*,*,#1221,.T.);
#1221 = EDGE_CURVE('',#1187,#1128,#1222,.T.);
#1222 = LINE('',#1223,#1224);
#1223 = CARTESIAN_POINT('',(-74.83374962336,-26.5,50.6));
#1224 = VECTOR('',#1225,1.);
#1225 = DIRECTION('',(0.,0.,1.));
#1226 = ORIENTED_EDGE('',*,*,#1135,.T.);
#1227 = ORIENTED_EDGE('',*,*,#304,.T.);
#1228 = PLANE('',#1229);
#1229 = AXIS2_PLACEMENT_3D('',#1230,#1231,#1232);
#1230 = CARTESIAN_POINT('',(-74.83374962336,-26.5,50.6));
#1231 = DIRECTION('',(1.,2.22044604925E-16,0.));
#1232 = DIRECTION('',(0.,0.,1.));
#1233 = ADVANCED_FACE('',(#1234),#1245,.F.);
#1234 = FACE_BOUND('',#1235,.F.);
#1235 = EDGE_LOOP('',(#1236,#1237,#1243,#1244));
#1236 = ORIENTED_EDGE('',*,*,#516,.T.);
#1237 = ORIENTED_EDGE('',*,*,#1238,.T.);
#1238 = EDGE_CURVE('',#517,#731,#1239,.T.);
#1239 = LINE('',#1240,#1241);
#1240 = CARTESIAN_POINT('',(-126.1337496233,-30.,7.));
#1241 = VECTOR('',#1242,1.);
#1242 = DIRECTION('',(0.,0.,1.));
#1243 = ORIENTED_EDGE('',*,*,#730,.F.);
#1244 = ORIENTED_EDGE('',*,*,#1238,.F.);
#1245 = CYLINDRICAL_SURFACE('',#1246,1.75);
#1246 = AXIS2_PLACEMENT_3D('',#1247,#1248,#1249);
#1247 = CARTESIAN_POINT('',(-127.8837496233,-30.,7.));
#1248 = DIRECTION('',(0.,0.,1.));
#1249 = DIRECTION('',(1.,0.,-0.));
#1250 = ADVANCED_FACE('',(#1251),#1262,.F.);
#1251 = FACE_BOUND('',#1252,.F.);
#1252 = EDGE_LOOP('',(#1253,#1254,#1260,#1261));
#1253 = ORIENTED_EDGE('',*,*,#527,.T.);
#1254 = ORIENTED_EDGE('',*,*,#1255,.T.);
#1255 = EDGE_CURVE('',#528,#1103,#1256,.T.);
#1256 = LINE('',#1257,#1258);
#1257 = CARTESIAN_POINT('',(-70.13374962336,-30.,7.));
#1258 = VECTOR('',#1259,1.);
#1259 = DIRECTION('',(0.,0.,1.));
#1260 = ORIENTED_EDGE('',*,*,#1102,.F.);
#1261 = ORIENTED_EDGE('',*,*,#1255,.F.);
#1262 = CYLINDRICAL_SURFACE('',#1263,1.75);
#1263 = AXIS2_PLACEMENT_3D('',#1264,#1265,#1266);
#1264 = CARTESIAN_POINT('',(-71.88374962336,-30.,7.));
#1265 = DIRECTION('',(0.,0.,1.));
#1266 = DIRECTION('',(1.,0.,-0.));
#1267 = ADVANCED_FACE('',(#1268),#1279,.F.);
#1268 = FACE_BOUND('',#1269,.F.);
#1269 = EDGE_LOOP('',(#1270,#1276,#1277,#1278));
#1270 = ORIENTED_EDGE('',*,*,#1271,.T.);
#1271 = EDGE_CURVE('',#909,#602,#1272,.T.);
#1272 = LINE('',#1273,#1274);
#1273 = CARTESIAN_POINT('',(-126.1337496233,-30.,46.));
#1274 = VECTOR('',#1275,1.);
#1275 = DIRECTION('',(0.,0.,1.));
#1276 = ORIENTED_EDGE('',*,*,#601,.F.);
#1277 = ORIENTED_EDGE('',*,*,#1271,.F.);
#1278 = ORIENTED_EDGE('',*,*,#908,.T.);
#1279 = CYLINDRICAL_SURFACE('',#1280,1.75);
#1280 = AXIS2_PLACEMENT_3D('',#1281,#1282,#1283);
#1281 = CARTESIAN_POINT('',(-127.8837496233,-30.,46.));
#1282 = DIRECTION('',(0.,0.,1.));
#1283 = DIRECTION('',(1.,0.,-0.));
#1284 = ADVANCED_FACE('',(#1285),#1296,.F.);
#1285 = FACE_BOUND('',#1286,.F.);
#1286 = EDGE_LOOP('',(#1287,#1293,#1294,#1295));
#1287 = ORIENTED_EDGE('',*,*,#1288,.T.);
#1288 = EDGE_CURVE('',#1145,#613,#1289,.T.);
#1289 = LINE('',#1290,#1291);
#1290 = CARTESIAN_POINT('',(-70.13374962336,-30.,46.));
#1291 = VECTOR('',#1292,1.);
#1292 = DIRECTION('',(0.,0.,1.));
#1293 = ORIENTED_EDGE('',*,*,#612,.F.);
#1294 = ORIENTED_EDGE('',*,*,#1288,.F.);
#1295 = ORIENTED_EDGE('',*,*,#1144,.T.);
#1296 = CYLINDRICAL_SURFACE('',#1297,1.75);
#1297 = AXIS2_PLACEMENT_3D('',#1298,#1299,#1300);
#1298 = CARTESIAN_POINT('',(-71.88374962336,-30.,46.));
#1299 = DIRECTION('',(0.,0.,1.));
#1300 = DIRECTION('',(1.,0.,-0.));
#1301 = ADVANCED_FACE('',(#1302),#1308,.T.);
#1302 = FACE_BOUND('',#1303,.T.);
#1303 = EDGE_LOOP('',(#1304,#1305,#1306,#1307));
#1304 = ORIENTED_EDGE('',*,*,#679,.F.);
#1305 = ORIENTED_EDGE('',*,*,#720,.T.);
#1306 = ORIENTED_EDGE('',*,*,#703,.T.);
#1307 = ORIENTED_EDGE('',*,*,#637,.F.);
#1308 = PLANE('',#1309);
#1309 = AXIS2_PLACEMENT_3D('',#1310,#1311,#1312);
#1310 = CARTESIAN_POINT('',(-130.8337496233,-26.5,13.6));
#1311 = DIRECTION('',(2.22044604925E-16,-1.,0.));
#1312 = DIRECTION('',(0.,0.,1.));
#1313 = ADVANCED_FACE('',(#1314),#1333,.F.);
#1314 = FACE_BOUND('',#1315,.F.);
#1315 = EDGE_LOOP('',(#1316,#1317,#1325,#1332));
#1316 = ORIENTED_EDGE('',*,*,#654,.T.);
#1317 = ORIENTED_EDGE('',*,*,#1318,.T.);
#1318 = EDGE_CURVE('',#655,#1319,#1321,.T.);
#1319 = VERTEX_POINT('',#1320);
#1320 = CARTESIAN_POINT('',(-126.1337496233,-30.,22.));
#1321 = LINE('',#1322,#1323);
#1322 = CARTESIAN_POINT('',(-126.1337496233,-30.,7.));
#1323 = VECTOR('',#1324,1.);
#1324 = DIRECTION('',(0.,0.,1.));
#1325 = ORIENTED_EDGE('',*,*,#1326,.F.);
#1326 = EDGE_CURVE('',#1319,#1319,#1327,.T.);
#1327 = CIRCLE('',#1328,1.75);
#1328 = AXIS2_PLACEMENT_3D('',#1329,#1330,#1331);
#1329 = CARTESIAN_POINT('',(-127.8837496233,-30.,22.));
#1330 = DIRECTION('',(0.,0.,1.));
#1331 = DIRECTION('',(1.,0.,-0.));
#1332 = ORIENTED_EDGE('',*,*,#1318,.F.);
#1333 = CYLINDRICAL_SURFACE('',#1334,1.75);
#1334 = AXIS2_PLACEMENT_3D('',#1335,#1336,#1337);
#1335 = CARTESIAN_POINT('',(-127.8837496233,-30.,7.));
#1336 = DIRECTION('',(0.,0.,1.));
#1337 = DIRECTION('',(1.,0.,-0.));
#1338 = ADVANCED_FACE('',(#1339),#1345,.T.);
#1339 = FACE_BOUND('',#1340,.T.);
#1340 = EDGE_LOOP('',(#1341,#1342,#1343,#1344));
#1341 = ORIENTED_EDGE('',*,*,#933,.F.);
#1342 = ORIENTED_EDGE('',*,*,#974,.T.);
#1343 = ORIENTED_EDGE('',*,*,#957,.T.);
#1344 = ORIENTED_EDGE('',*,*,#891,.F.);
#1345 = PLANE('',#1346);
#1346 = AXIS2_PLACEMENT_3D('',#1347,#1348,#1349);
#1347 = CARTESIAN_POINT('',(-130.8337496233,-26.5,50.6));
#1348 = DIRECTION('',(2.22044604925E-16,-1.,0.));
#1349 = DIRECTION('',(0.,0.,1.));
#1350 = ADVANCED_FACE('',(#1351),#1370,.F.);
#1351 = FACE_BOUND('',#1352,.F.);
#1352 = EDGE_LOOP('',(#1353,#1354,#1362,#1369));
#1353 = ORIENTED_EDGE('',*,*,#984,.F.);
#1354 = ORIENTED_EDGE('',*,*,#1355,.F.);
#1355 = EDGE_CURVE('',#1356,#985,#1358,.T.);
#1356 = VERTEX_POINT('',#1357);
#1357 = CARTESIAN_POINT('',(-126.1337496233,-30.,46.));
#1358 = LINE('',#1359,#1360);
#1359 = CARTESIAN_POINT('',(-126.1337496233,-30.,46.));
#1360 = VECTOR('',#1361,1.);
#1361 = DIRECTION('',(0.,0.,1.));
#1362 = ORIENTED_EDGE('',*,*,#1363,.T.);
#1363 = EDGE_CURVE('',#1356,#1356,#1364,.T.);
#1364 = CIRCLE('',#1365,1.75);
#1365 = AXIS2_PLACEMENT_3D('',#1366,#1367,#1368);
#1366 = CARTESIAN_POINT('',(-127.8837496233,-30.,46.));
#1367 = DIRECTION('',(0.,0.,1.));
#1368 = DIRECTION('',(1.,0.,-0.));
#1369 = ORIENTED_EDGE('',*,*,#1355,.T.);
#1370 = CYLINDRICAL_SURFACE('',#1371,1.75);
#1371 = AXIS2_PLACEMENT_3D('',#1372,#1373,#1374);
#1372 = CARTESIAN_POINT('',(-127.8837496233,-30.,46.));
#1373 = DIRECTION('',(0.,0.,1.));
#1374 = DIRECTION('',(1.,0.,-0.));
#1375 = ADVANCED_FACE('',(#1376),#1382,.T.);
#1376 = FACE_BOUND('',#1377,.T.);
#1377 = EDGE_LOOP('',(#1378,#1379,#1380,#1381));
#1378 = ORIENTED_EDGE('',*,*,#1051,.F.);
#1379 = ORIENTED_EDGE('',*,*,#1092,.T.);
#1380 = ORIENTED_EDGE('',*,*,#1075,.T.);
#1381 = ORIENTED_EDGE('',*,*,#1009,.F.);
#1382 = PLANE('',#1383);
#1383 = AXIS2_PLACEMENT_3D('',#1384,#1385,#1386);
#1384 = CARTESIAN_POINT('',(-74.83374962336,-26.5,13.6));
#1385 = DIRECTION('',(2.22044604925E-16,-1.,0.));
#1386 = DIRECTION('',(0.,0.,1.));
#1387 = ADVANCED_FACE('',(#1388),#1407,.F.);
#1388 = FACE_BOUND('',#1389,.F.);
#1389 = EDGE_LOOP('',(#1390,#1391,#1399,#1406));
#1390 = ORIENTED_EDGE('',*,*,#1026,.T.);
#1391 = ORIENTED_EDGE('',*,*,#1392,.T.);
#1392 = EDGE_CURVE('',#1027,#1393,#1395,.T.);
#1393 = VERTEX_POINT('',#1394);
#1394 = CARTESIAN_POINT('',(-70.13374962336,-30.,22.));
#1395 = LINE('',#1396,#1397);
#1396 = CARTESIAN_POINT('',(-70.13374962336,-30.,7.));
#1397 = VECTOR('',#1398,1.);
#1398 = DIRECTION('',(0.,0.,1.));
#1399 = ORIENTED_EDGE('',*,*,#1400,.F.);
#1400 = EDGE_CURVE('',#1393,#1393,#1401,.T.);
#1401 = CIRCLE('',#1402,1.75);
#1402 = AXIS2_PLACEMENT_3D('',#1403,#1404,#1405);
#1403 = CARTESIAN_POINT('',(-71.88374962336,-30.,22.));
#1404 = DIRECTION('',(0.,0.,1.));
#1405 = DIRECTION('',(1.,0.,-0.));
#1406 = ORIENTED_EDGE('',*,*,#1392,.F.);
#1407 = CYLINDRICAL_SURFACE('',#1408,1.75);
#1408 = AXIS2_PLACEMENT_3D('',#1409,#1410,#1411);
#1409 = CARTESIAN_POINT('',(-71.88374962336,-30.,7.));
#1410 = DIRECTION('',(0.,0.,1.));
#1411 = DIRECTION('',(1.,0.,-0.));
#1412 = ADVANCED_FACE('',(#1413),#1419,.T.);
#1413 = FACE_BOUND('',#1414,.T.);
#1414 = EDGE_LOOP('',(#1415,#1416,#1417,#1418));
#1415 = ORIENTED_EDGE('',*,*,#1221,.F.);
#1416 = ORIENTED_EDGE('',*,*,#1186,.T.);
#1417 = ORIENTED_EDGE('',*,*,#1169,.T.);
#1418 = ORIENTED_EDGE('',*,*,#1127,.F.);
#1419 = PLANE('',#1420);
#1420 = AXIS2_PLACEMENT_3D('',#1421,#1422,#1423);
#1421 = CARTESIAN_POINT('',(-74.83374962336,-26.5,50.6));
#1422 = DIRECTION('',(2.22044604925E-16,-1.,0.));
#1423 = DIRECTION('',(0.,0.,1.));
#1424 = ADVANCED_FACE('',(#1425),#1444,.F.);
#1425 = FACE_BOUND('',#1426,.F.);
#1426 = EDGE_LOOP('',(#1427,#1428,#1436,#1443));
#1427 = ORIENTED_EDGE('',*,*,#1203,.F.);
#1428 = ORIENTED_EDGE('',*,*,#1429,.F.);
#1429 = EDGE_CURVE('',#1430,#1204,#1432,.T.);
#1430 = VERTEX_POINT('',#1431);
#1431 = CARTESIAN_POINT('',(-70.13374962336,-30.,46.));
#1432 = LINE('',#1433,#1434);
#1433 = CARTESIAN_POINT('',(-70.13374962336,-30.,46.));
#1434 = VECTOR('',#1435,1.);
#1435 = DIRECTION('',(0.,0.,1.));
#1436 = ORIENTED_EDGE('',*,*,#1437,.T.);
#1437 = EDGE_CURVE('',#1430,#1430,#1438,.T.);
#1438 = CIRCLE('',#1439,1.75);
#1439 = AXIS2_PLACEMENT_3D('',#1440,#1441,#1442);
#1440 = CARTESIAN_POINT('',(-71.88374962336,-30.,46.));
#1441 = DIRECTION('',(0.,0.,1.));
#1442 = DIRECTION('',(1.,0.,-0.));
#1443 = ORIENTED_EDGE('',*,*,#1429,.T.);
#1444 = CYLINDRICAL_SURFACE('',#1445,1.75);
#1445 = AXIS2_PLACEMENT_3D('',#1446,#1447,#1448);
#1446 = CARTESIAN_POINT('',(-71.88374962336,-30.,46.));
#1447 = DIRECTION('',(0.,0.,1.));
#1448 = DIRECTION('',(1.,0.,-0.));
#1449 = ADVANCED_FACE('',(#1450),#1453,.F.);
#1450 = FACE_BOUND('',#1451,.F.);
#1451 = EDGE_LOOP('',(#1452));
#1452 = ORIENTED_EDGE('',*,*,#1326,.T.);
#1453 = PLANE('',#1454);
#1454 = AXIS2_PLACEMENT_3D('',#1455,#1456,#1457);
#1455 = CARTESIAN_POINT('',(-127.8837496233,-30.,22.));
#1456 = DIRECTION('',(0.,0.,1.));
#1457 = DIRECTION('',(1.,0.,-0.));
#1458 = ADVANCED_FACE('',(#1459),#1462,.T.);
#1459 = FACE_BOUND('',#1460,.F.);
#1460 = EDGE_LOOP('',(#1461));
#1461 = ORIENTED_EDGE('',*,*,#1363,.F.);
#1462 = PLANE('',#1463);
#1463 = AXIS2_PLACEMENT_3D('',#1464,#1465,#1466);
#1464 = CARTESIAN_POINT('',(-127.8837496233,-30.,46.));
#1465 = DIRECTION('',(0.,0.,1.));
#1466 = DIRECTION('',(1.,0.,-0.));
#1467 = ADVANCED_FACE('',(#1468),#1471,.F.);
#1468 = FACE_BOUND('',#1469,.F.);
#1469 = EDGE_LOOP('',(#1470));
#1470 = ORIENTED_EDGE('',*,*,#1400,.T.);
#1471 = PLANE('',#1472);
#1472 = AXIS2_PLACEMENT_3D('',#1473,#1474,#1475);
#1473 = CARTESIAN_POINT('',(-71.88374962336,-30.,22.));
#1474 = DIRECTION('',(0.,0.,1.));
#1475 = DIRECTION('',(1.,0.,-0.));
#1476 = ADVANCED_FACE('',(#1477),#1480,.T.);
#1477 = FACE_BOUND('',#1478,.F.);
#1478 = EDGE_LOOP('',(#1479));
#1479 = ORIENTED_EDGE('',*,*,#1437,.F.);
#1480 = PLANE('',#1481);
#1481 = AXIS2_PLACEMENT_3D('',#1482,#1483,#1484);
#1482 = CARTESIAN_POINT('',(-71.88374962336,-30.,46.));
#1483 = DIRECTION('',(0.,0.,1.));
#1484 = DIRECTION('',(1.,0.,-0.));
#1485 = ( GEOMETRIC_REPRESENTATION_CONTEXT(3) 
GLOBAL_UNCERTAINTY_ASSIGNED_CONTEXT((#1489)) 
GLOBAL_UNIT_ASSIGNED_CONTEXT((#1486,#1487,#1488)) REPRESENTATION_CONTEXT
('Context #1','3D Context with UNIT and UNCERTAINTY') );
#1486 = ( LENGTH_UNIT() NAMED_UNIT(*) SI_UNIT(.MILLI.,.METRE.) );
#1487 = ( NAMED_UNIT(*) PLANE_ANGLE_UNIT() SI_UNIT($,.RADIAN.) );
#1488 = ( NAMED_UNIT(*) SI_UNIT($,.STERADIAN.) SOLID_ANGLE_UNIT() );
#1489 = UNCERTAINTY_MEASURE_WITH_UNIT(LENGTH_MEASURE(1.E-07),#1486,
  'distance_accuracy_value','confusion accuracy');
#1490 = PRODUCT_RELATED_PRODUCT_CATEGORY('part',$,(#7));
ENDSEC;
END-ISO-10303-21;
