ISO-10303-21;
HEADER;
FILE_DESCRIPTION(('FreeCAD Model'),'2;1');
FILE_NAME('Open CASCADE Shape Model','2026-09-05T12:44:21',('FreeCAD'),(
    'FreeCAD'),'Open CASCADE STEP processor 7.8','FreeCAD','Unknown');
FILE_SCHEMA(('AUTOMOTIVE_DESIGN { 1 0 10303 214 1 1 1 1 }'));
ENDSEC;
DATA;
#1 = APPLICATION_PROTOCOL_DEFINITION('international standard',
  'automotive_design',2000,#2);
#2 = APPLICATION_CONTEXT(
  'core data for automotive mechanical design processes');
#3 = SHAPE_DEFINITION_REPRESENTATION(#4,#10);
#4 = PRODUCT_DEFINITION_SHAPE('','',#5);
#5 = PRODUCT_DEFINITION('design','',#6,#9);
#6 = PRODUCT_DEFINITION_FORMATION('','',#7);
#7 = PRODUCT('Open CASCADE STEP translator 7.8 12',
  'Open CASCADE STEP translator 7.8 12','',(#8));
#8 = PRODUCT_CONTEXT('',#2,'mechanical');
#9 = PRODUCT_DEFINITION_CONTEXT('part definition',#2,'design');
#10 = ADVANCED_BREP_SHAPE_REPRESENTATION('',(#11,#15),#2392);
#11 = AXIS2_PLACEMENT_3D('',#12,#13,#14);
#12 = CARTESIAN_POINT('',(0.,0.,0.));
#13 = DIRECTION('',(0.,0.,1.));
#14 = DIRECTION('',(1.,0.,-0.));
#15 = MANIFOLD_SOLID_BREP('',#16);
#16 = CLOSED_SHELL('',(#17,#57,#124,#149,#174,#474,#536,#553,#570,#587,
    #660,#685,#709,#734,#889,#914,#938,#997,#1022,#1069,#1086,#1128,
    #1152,#1176,#1204,#1246,#1270,#1294,#1322,#1364,#1388,#1412,#1440,
    #1465,#1490,#1515,#1540,#1571,#1595,#1619,#1636,#1653,#1676,#1693,
    #1710,#1745,#1769,#1805,#1858,#1875,#1917,#1941,#1968,#1985,#2036,
    #2060,#2096,#2113,#2125,#2150,#2175,#2187,#2212,#2224,#2244,#2262,
    #2274,#2291,#2308,#2325,#2342,#2354,#2371,#2383));
#17 = ADVANCED_FACE('',(#18),#52,.F.);
#18 = FACE_BOUND('',#19,.F.);
#19 = EDGE_LOOP('',(#20,#30,#38,#46));
#20 = ORIENTED_EDGE('',*,*,#21,.F.);
#21 = EDGE_CURVE('',#22,#24,#26,.T.);
#22 = VERTEX_POINT('',#23);
#23 = CARTESIAN_POINT('',(-76.,62.,103.));
#24 = VERTEX_POINT('',#25);
#25 = CARTESIAN_POINT('',(-76.,62.,111.));
#26 = LINE('',#27,#28);
#27 = CARTESIAN_POINT('',(-76.,62.,100.));
#28 = VECTOR('',#29,1.);
#29 = DIRECTION('',(0.,0.,1.));
#30 = ORIENTED_EDGE('',*,*,#31,.T.);
#31 = EDGE_CURVE('',#22,#32,#34,.T.);
#32 = VERTEX_POINT('',#33);
#33 = CARTESIAN_POINT('',(-76.,80.,103.));
#34 = LINE('',#35,#36);
#35 = CARTESIAN_POINT('',(-76.,62.,103.));
#36 = VECTOR('',#37,1.);
#37 = DIRECTION('',(-0.,1.,0.));
#38 = ORIENTED_EDGE('',*,*,#39,.T.);
#39 = EDGE_CURVE('',#32,#40,#42,.T.);
#40 = VERTEX_POINT('',#41);
#41 = CARTESIAN_POINT('',(-76.,80.,111.));
#42 = LINE('',#43,#44);
#43 = CARTESIAN_POINT('',(-76.,80.,100.));
#44 = VECTOR('',#45,1.);
#45 = DIRECTION('',(0.,0.,1.));
#46 = ORIENTED_EDGE('',*,*,#47,.F.);
#47 = EDGE_CURVE('',#24,#40,#48,.T.);
#48 = LINE('',#49,#50);
#49 = CARTESIAN_POINT('',(-76.,62.,111.));
#50 = VECTOR('',#51,1.);
#51 = DIRECTION('',(-0.,1.,0.));
#52 = PLANE('',#53);
#53 = AXIS2_PLACEMENT_3D('',#54,#55,#56);
#54 = CARTESIAN_POINT('',(-76.,62.,100.));
#55 = DIRECTION('',(1.,0.,-0.));
#56 = DIRECTION('',(0.,0.,1.));
#57 = ADVANCED_FACE('',(#58),#119,.F.);
#58 = FACE_BOUND('',#59,.F.);
#59 = EDGE_LOOP('',(#60,#70,#77,#78,#87,#95,#104,#112));
#60 = ORIENTED_EDGE('',*,*,#61,.F.);
#61 = EDGE_CURVE('',#62,#64,#66,.T.);
#62 = VERTEX_POINT('',#63);
#63 = CARTESIAN_POINT('',(-73.,62.,100.));
#64 = VERTEX_POINT('',#65);
#65 = CARTESIAN_POINT('',(49.,62.,100.));
#66 = LINE('',#67,#68);
#67 = CARTESIAN_POINT('',(-76.,62.,100.));
#68 = VECTOR('',#69,1.);
#69 = DIRECTION('',(1.,0.,-0.));
#70 = ORIENTED_EDGE('',*,*,#71,.F.);
#71 = EDGE_CURVE('',#22,#62,#72,.T.);
#72 = CIRCLE('',#73,3.);
#73 = AXIS2_PLACEMENT_3D('',#74,#75,#76);
#74 = CARTESIAN_POINT('',(-73.,62.,103.));
#75 = DIRECTION('',(0.,-1.,0.));
#76 = DIRECTION('',(0.,0.,1.));
#77 = ORIENTED_EDGE('',*,*,#21,.T.);
#78 = ORIENTED_EDGE('',*,*,#79,.T.);
#79 = EDGE_CURVE('',#24,#80,#82,.T.);
#80 = VERTEX_POINT('',#81);
#81 = CARTESIAN_POINT('',(-73.,62.,114.));
#82 = CIRCLE('',#83,3.);
#83 = AXIS2_PLACEMENT_3D('',#84,#85,#86);
#84 = CARTESIAN_POINT('',(-73.,62.,111.));
#85 = DIRECTION('',(-0.,1.,0.));
#86 = DIRECTION('',(0.,0.,1.));
#87 = ORIENTED_EDGE('',*,*,#88,.T.);
#88 = EDGE_CURVE('',#80,#89,#91,.T.);
#89 = VERTEX_POINT('',#90);
#90 = CARTESIAN_POINT('',(49.,62.,114.));
#91 = LINE('',#92,#93);
#92 = CARTESIAN_POINT('',(-76.,62.,114.));
#93 = VECTOR('',#94,1.);
#94 = DIRECTION('',(1.,0.,-0.));
#95 = ORIENTED_EDGE('',*,*,#96,.T.);
#96 = EDGE_CURVE('',#89,#97,#99,.T.);
#97 = VERTEX_POINT('',#98);
#98 = CARTESIAN_POINT('',(52.,62.,111.));
#99 = CIRCLE('',#100,3.);
#100 = AXIS2_PLACEMENT_3D('',#101,#102,#103);
#101 = CARTESIAN_POINT('',(49.,62.,111.));
#102 = DIRECTION('',(-0.,1.,0.));
#103 = DIRECTION('',(0.,0.,1.));
#104 = ORIENTED_EDGE('',*,*,#105,.F.);
#105 = EDGE_CURVE('',#106,#97,#108,.T.);
#106 = VERTEX_POINT('',#107);
#107 = CARTESIAN_POINT('',(52.,62.,103.));
#108 = LINE('',#109,#110);
#109 = CARTESIAN_POINT('',(52.,62.,100.));
#110 = VECTOR('',#111,1.);
#111 = DIRECTION('',(0.,0.,1.));
#112 = ORIENTED_EDGE('',*,*,#113,.F.);
#113 = EDGE_CURVE('',#64,#106,#114,.T.);
#114 = CIRCLE('',#115,3.);
#115 = AXIS2_PLACEMENT_3D('',#116,#117,#118);
#116 = CARTESIAN_POINT('',(49.,62.,103.));
#117 = DIRECTION('',(0.,-1.,0.));
#118 = DIRECTION('',(0.,0.,1.));
#119 = PLANE('',#120);
#120 = AXIS2_PLACEMENT_3D('',#121,#122,#123);
#121 = CARTESIAN_POINT('',(-76.,62.,100.));
#122 = DIRECTION('',(-0.,1.,0.));
#123 = DIRECTION('',(0.,0.,1.));
#124 = ADVANCED_FACE('',(#125),#144,.T.);
#125 = FACE_BOUND('',#126,.F.);
#126 = EDGE_LOOP('',(#127,#128,#136,#143));
#127 = ORIENTED_EDGE('',*,*,#71,.T.);
#128 = ORIENTED_EDGE('',*,*,#129,.T.);
#129 = EDGE_CURVE('',#62,#130,#132,.T.);
#130 = VERTEX_POINT('',#131);
#131 = CARTESIAN_POINT('',(-73.,80.,100.));
#132 = LINE('',#133,#134);
#133 = CARTESIAN_POINT('',(-73.,62.,100.));
#134 = VECTOR('',#135,1.);
#135 = DIRECTION('',(-0.,1.,0.));
#136 = ORIENTED_EDGE('',*,*,#137,.F.);
#137 = EDGE_CURVE('',#32,#130,#138,.T.);
#138 = CIRCLE('',#139,3.);
#139 = AXIS2_PLACEMENT_3D('',#140,#141,#142);
#140 = CARTESIAN_POINT('',(-73.,80.,103.));
#141 = DIRECTION('',(0.,-1.,0.));
#142 = DIRECTION('',(0.,0.,1.));
#143 = ORIENTED_EDGE('',*,*,#31,.F.);
#144 = CYLINDRICAL_SURFACE('',#145,3.);
#145 = AXIS2_PLACEMENT_3D('',#146,#147,#148);
#146 = CARTESIAN_POINT('',(-73.,62.,103.));
#147 = DIRECTION('',(-0.,1.,0.));
#148 = DIRECTION('',(-1.,-0.,0.));
#149 = ADVANCED_FACE('',(#150),#169,.T.);
#150 = FACE_BOUND('',#151,.T.);
#151 = EDGE_LOOP('',(#152,#153,#161,#168));
#152 = ORIENTED_EDGE('',*,*,#79,.T.);
#153 = ORIENTED_EDGE('',*,*,#154,.T.);
#154 = EDGE_CURVE('',#80,#155,#157,.T.);
#155 = VERTEX_POINT('',#156);
#156 = CARTESIAN_POINT('',(-73.,80.,114.));
#157 = LINE('',#158,#159);
#158 = CARTESIAN_POINT('',(-73.,62.,114.));
#159 = VECTOR('',#160,1.);
#160 = DIRECTION('',(-0.,1.,0.));
#161 = ORIENTED_EDGE('',*,*,#162,.F.);
#162 = EDGE_CURVE('',#40,#155,#163,.T.);
#163 = CIRCLE('',#164,3.);
#164 = AXIS2_PLACEMENT_3D('',#165,#166,#167);
#165 = CARTESIAN_POINT('',(-73.,80.,111.));
#166 = DIRECTION('',(-0.,1.,0.));
#167 = DIRECTION('',(0.,0.,1.));
#168 = ORIENTED_EDGE('',*,*,#47,.F.);
#169 = CYLINDRICAL_SURFACE('',#170,3.);
#170 = AXIS2_PLACEMENT_3D('',#171,#172,#173);
#171 = CARTESIAN_POINT('',(-73.,62.,111.));
#172 = DIRECTION('',(-0.,1.,0.));
#173 = DIRECTION('',(-1.,-0.,0.));
#174 = ADVANCED_FACE('',(#175,#323,#357,#391,#425,#436,#447,#458),#469,
  .T.);
#175 = FACE_BOUND('',#176,.T.);
#176 = EDGE_LOOP('',(#177,#187,#196,#202,#203,#204,#205,#213,#222,#230,
    #239,#247,#255,#264,#273,#282,#291,#299,#308,#316));
#177 = ORIENTED_EDGE('',*,*,#178,.F.);
#178 = EDGE_CURVE('',#179,#181,#183,.T.);
#179 = VERTEX_POINT('',#180);
#180 = CARTESIAN_POINT('',(52.,80.,103.));
#181 = VERTEX_POINT('',#182);
#182 = CARTESIAN_POINT('',(52.,80.,111.));
#183 = LINE('',#184,#185);
#184 = CARTESIAN_POINT('',(52.,80.,100.));
#185 = VECTOR('',#186,1.);
#186 = DIRECTION('',(0.,0.,1.));
#187 = ORIENTED_EDGE('',*,*,#188,.F.);
#188 = EDGE_CURVE('',#189,#179,#191,.T.);
#189 = VERTEX_POINT('',#190);
#190 = CARTESIAN_POINT('',(49.,80.,100.));
#191 = CIRCLE('',#192,3.);
#192 = AXIS2_PLACEMENT_3D('',#193,#194,#195);
#193 = CARTESIAN_POINT('',(49.,80.,103.));
#194 = DIRECTION('',(0.,-1.,0.));
#195 = DIRECTION('',(0.,0.,1.));
#196 = ORIENTED_EDGE('',*,*,#197,.F.);
#197 = EDGE_CURVE('',#130,#189,#198,.T.);
#198 = LINE('',#199,#200);
#199 = CARTESIAN_POINT('',(-76.,80.,100.));
#200 = VECTOR('',#201,1.);
#201 = DIRECTION('',(1.,0.,-0.));
#202 = ORIENTED_EDGE('',*,*,#137,.F.);
#203 = ORIENTED_EDGE('',*,*,#39,.T.);
#204 = ORIENTED_EDGE('',*,*,#162,.T.);
#205 = ORIENTED_EDGE('',*,*,#206,.T.);
#206 = EDGE_CURVE('',#155,#207,#209,.T.);
#207 = VERTEX_POINT('',#208);
#208 = CARTESIAN_POINT('',(-60.,80.,114.));
#209 = LINE('',#210,#211);
#210 = CARTESIAN_POINT('',(-76.,80.,114.));
#211 = VECTOR('',#212,1.);
#212 = DIRECTION('',(1.,0.,-0.));
#213 = ORIENTED_EDGE('',*,*,#214,.T.);
#214 = EDGE_CURVE('',#207,#215,#217,.T.);
#215 = VERTEX_POINT('',#216);
#216 = CARTESIAN_POINT('',(-57.,80.,117.));
#217 = CIRCLE('',#218,3.);
#218 = AXIS2_PLACEMENT_3D('',#219,#220,#221);
#219 = CARTESIAN_POINT('',(-60.,80.,117.));
#220 = DIRECTION('',(0.,-1.,0.));
#221 = DIRECTION('',(0.,-0.,-1.));
#222 = ORIENTED_EDGE('',*,*,#223,.F.);
#223 = EDGE_CURVE('',#224,#215,#226,.T.);
#224 = VERTEX_POINT('',#225);
#225 = CARTESIAN_POINT('',(-57.,80.,127.94319822384));
#226 = LINE('',#227,#228);
#227 = CARTESIAN_POINT('',(-57.,80.,129.));
#228 = VECTOR('',#229,1.);
#229 = DIRECTION('',(0.,0.,-1.));
#230 = ORIENTED_EDGE('',*,*,#231,.T.);
#231 = EDGE_CURVE('',#224,#232,#234,.T.);
#232 = VERTEX_POINT('',#233);
#233 = CARTESIAN_POINT('',(-56.33764035093,80.,129.82347415829));
#234 = CIRCLE('',#235,3.);
#235 = AXIS2_PLACEMENT_3D('',#236,#237,#238);
#236 = CARTESIAN_POINT('',(-54.,80.,127.94319822384));
#237 = DIRECTION('',(0.,1.,0.));
#238 = DIRECTION('',(0.,-0.,1.));
#239 = ORIENTED_EDGE('',*,*,#240,.F.);
#240 = EDGE_CURVE('',#241,#232,#243,.T.);
#241 = VERTEX_POINT('',#242);
#242 = CARTESIAN_POINT('',(-20.,80.,175.));
#243 = LINE('',#244,#245);
#244 = CARTESIAN_POINT('',(-20.,80.,175.));
#245 = VECTOR('',#246,1.);
#246 = DIRECTION('',(-0.626758644817,0.,-0.779213450312));
#247 = ORIENTED_EDGE('',*,*,#248,.F.);
#248 = EDGE_CURVE('',#249,#241,#251,.T.);
#249 = VERTEX_POINT('',#250);
#250 = CARTESIAN_POINT('',(-9.110506717192,80.,187.25067994315));
#251 = LINE('',#252,#253);
#252 = CARTESIAN_POINT('',(-4.,80.,193.));
#253 = VECTOR('',#254,1.);
#254 = DIRECTION('',(-0.66436383883,0.,-0.747409318684));
#255 = ORIENTED_EDGE('',*,*,#256,.T.);
#256 = EDGE_CURVE('',#249,#257,#259,.T.);
#257 = VERTEX_POINT('',#258);
#258 = CARTESIAN_POINT('',(-8.528464933255,80.,190.25545344317));
#259 = CIRCLE('',#260,3.);
#260 = AXIS2_PLACEMENT_3D('',#261,#262,#263);
#261 = CARTESIAN_POINT('',(-11.35273467324,80.,189.24377145964));
#262 = DIRECTION('',(-0.,-1.,0.));
#263 = DIRECTION('',(0.,-0.,1.));
#264 = ORIENTED_EDGE('',*,*,#265,.T.);
#265 = EDGE_CURVE('',#257,#266,#268,.T.);
#266 = VERTEX_POINT('',#267);
#267 = CARTESIAN_POINT('',(10.3,80.,217.));
#268 = CIRCLE('',#269,20.);
#269 = AXIS2_PLACEMENT_3D('',#270,#271,#272);
#270 = CARTESIAN_POINT('',(10.3,80.,197.));
#271 = DIRECTION('',(0.,1.,0.));
#272 = DIRECTION('',(0.,-0.,1.));
#273 = ORIENTED_EDGE('',*,*,#274,.T.);
#274 = EDGE_CURVE('',#266,#275,#277,.T.);
#275 = VERTEX_POINT('',#276);
#276 = CARTESIAN_POINT('',(5.268781911058,80.,177.64317059688));
#277 = CIRCLE('',#278,20.);
#278 = AXIS2_PLACEMENT_3D('',#279,#280,#281);
#279 = CARTESIAN_POINT('',(10.3,80.,197.));
#280 = DIRECTION('',(0.,1.,0.));
#281 = DIRECTION('',(0.,-0.,1.));
#282 = ORIENTED_EDGE('',*,*,#283,.F.);
#283 = EDGE_CURVE('',#284,#275,#286,.T.);
#284 = VERTEX_POINT('',#285);
#285 = CARTESIAN_POINT('',(1.786904729034,80.,175.98961031789));
#286 = CIRCLE('',#287,3.);
#287 = AXIS2_PLACEMENT_3D('',#288,#289,#290);
#288 = CARTESIAN_POINT('',(4.514099197716,80.,174.73964618641));
#289 = DIRECTION('',(0.,1.,0.));
#290 = DIRECTION('',(0.,-0.,1.));
#291 = ORIENTED_EDGE('',*,*,#292,.F.);
#292 = EDGE_CURVE('',#293,#284,#295,.T.);
#293 = VERTEX_POINT('',#294);
#294 = CARTESIAN_POINT('',(-24.67709977307,80.,118.24996413148));
#295 = LINE('',#296,#297);
#296 = CARTESIAN_POINT('',(-28.,80.,111.));
#297 = VECTOR('',#298,1.);
#298 = DIRECTION('',(0.416654710493,0.,0.909064822894));
#299 = ORIENTED_EDGE('',*,*,#300,.F.);
#300 = EDGE_CURVE('',#301,#293,#303,.T.);
#301 = VERTEX_POINT('',#302);
#302 = CARTESIAN_POINT('',(-21.94990530438,80.,114.));
#303 = CIRCLE('',#304,3.);
#304 = AXIS2_PLACEMENT_3D('',#305,#306,#307);
#305 = CARTESIAN_POINT('',(-21.94990530438,80.,117.));
#306 = DIRECTION('',(-0.,1.,0.));
#307 = DIRECTION('',(0.,0.,1.));
#308 = ORIENTED_EDGE('',*,*,#309,.T.);
#309 = EDGE_CURVE('',#301,#310,#312,.T.);
#310 = VERTEX_POINT('',#311);
#311 = CARTESIAN_POINT('',(49.,80.,114.));
#312 = LINE('',#313,#314);
#313 = CARTESIAN_POINT('',(-76.,80.,114.));
#314 = VECTOR('',#315,1.);
#315 = DIRECTION('',(1.,0.,-0.));
#316 = ORIENTED_EDGE('',*,*,#317,.T.);
#317 = EDGE_CURVE('',#310,#181,#318,.T.);
#318 = CIRCLE('',#319,3.);
#319 = AXIS2_PLACEMENT_3D('',#320,#321,#322);
#320 = CARTESIAN_POINT('',(49.,80.,111.));
#321 = DIRECTION('',(-0.,1.,0.));
#322 = DIRECTION('',(0.,0.,1.));
#323 = FACE_BOUND('',#324,.T.);
#324 = EDGE_LOOP('',(#325,#335,#343,#351));
#325 = ORIENTED_EDGE('',*,*,#326,.T.);
#326 = EDGE_CURVE('',#327,#329,#331,.T.);
#327 = VERTEX_POINT('',#328);
#328 = CARTESIAN_POINT('',(-54.95,80.,106.6));
#329 = VERTEX_POINT('',#330);
#330 = CARTESIAN_POINT('',(-49.05,80.,106.6));
#331 = LINE('',#332,#333);
#332 = CARTESIAN_POINT('',(-29.46738874107,80.,106.6));
#333 = VECTOR('',#334,1.);
#334 = DIRECTION('',(1.,0.,0.));
#335 = ORIENTED_EDGE('',*,*,#336,.T.);
#336 = EDGE_CURVE('',#329,#337,#339,.T.);
#337 = VERTEX_POINT('',#338);
#338 = CARTESIAN_POINT('',(-49.05,80.,109.4));
#339 = LINE('',#340,#341);
#340 = CARTESIAN_POINT('',(-49.05,80.,122.62955545758));
#341 = VECTOR('',#342,1.);
#342 = DIRECTION('',(0.,-0.,1.));
#343 = ORIENTED_EDGE('',*,*,#344,.F.);
#344 = EDGE_CURVE('',#345,#337,#347,.T.);
#345 = VERTEX_POINT('',#346);
#346 = CARTESIAN_POINT('',(-54.95,80.,109.4));
#347 = LINE('',#348,#349);
#348 = CARTESIAN_POINT('',(-29.46738874107,80.,109.4));
#349 = VECTOR('',#350,1.);
#350 = DIRECTION('',(1.,0.,0.));
#351 = ORIENTED_EDGE('',*,*,#352,.F.);
#352 = EDGE_CURVE('',#327,#345,#353,.T.);
#353 = LINE('',#354,#355);
#354 = CARTESIAN_POINT('',(-54.95,80.,122.62955545758));
#355 = VECTOR('',#356,1.);
#356 = DIRECTION('',(0.,-0.,1.));
#357 = FACE_BOUND('',#358,.T.);
#358 = EDGE_LOOP('',(#359,#369,#377,#385));
#359 = ORIENTED_EDGE('',*,*,#360,.T.);
#360 = EDGE_CURVE('',#361,#363,#365,.T.);
#361 = VERTEX_POINT('',#362);
#362 = CARTESIAN_POINT('',(-2.95,80.,106.6));
#363 = VERTEX_POINT('',#364);
#364 = CARTESIAN_POINT('',(2.95,80.,106.6));
#365 = LINE('',#366,#367);
#366 = CARTESIAN_POINT('',(-3.46738874107,80.,106.6));
#367 = VECTOR('',#368,1.);
#368 = DIRECTION('',(1.,0.,0.));
#369 = ORIENTED_EDGE('',*,*,#370,.T.);
#370 = EDGE_CURVE('',#363,#371,#373,.T.);
#371 = VERTEX_POINT('',#372);
#372 = CARTESIAN_POINT('',(2.95,80.,109.4));
#373 = LINE('',#374,#375);
#374 = CARTESIAN_POINT('',(2.95,80.,122.62955545758));
#375 = VECTOR('',#376,1.);
#376 = DIRECTION('',(0.,-0.,1.));
#377 = ORIENTED_EDGE('',*,*,#378,.F.);
#378 = EDGE_CURVE('',#379,#371,#381,.T.);
#379 = VERTEX_POINT('',#380);
#380 = CARTESIAN_POINT('',(-2.95,80.,109.4));
#381 = LINE('',#382,#383);
#382 = CARTESIAN_POINT('',(-3.46738874107,80.,109.4));
#383 = VECTOR('',#384,1.);
#384 = DIRECTION('',(1.,0.,0.));
#385 = ORIENTED_EDGE('',*,*,#386,.F.);
#386 = EDGE_CURVE('',#361,#379,#387,.T.);
#387 = LINE('',#388,#389);
#388 = CARTESIAN_POINT('',(-2.95,80.,122.62955545758));
#389 = VECTOR('',#390,1.);
#390 = DIRECTION('',(0.,-0.,1.));
#391 = FACE_BOUND('',#392,.T.);
#392 = EDGE_LOOP('',(#393,#403,#411,#419));
#393 = ORIENTED_EDGE('',*,*,#394,.T.);
#394 = EDGE_CURVE('',#395,#397,#399,.T.);
#395 = VERTEX_POINT('',#396);
#396 = CARTESIAN_POINT('',(31.05,80.,106.6));
#397 = VERTEX_POINT('',#398);
#398 = CARTESIAN_POINT('',(36.95,80.,106.6));
#399 = LINE('',#400,#401);
#400 = CARTESIAN_POINT('',(13.53261125893,80.,106.6));
#401 = VECTOR('',#402,1.);
#402 = DIRECTION('',(1.,0.,0.));
#403 = ORIENTED_EDGE('',*,*,#404,.T.);
#404 = EDGE_CURVE('',#397,#405,#407,.T.);
#405 = VERTEX_POINT('',#406);
#406 = CARTESIAN_POINT('',(36.95,80.,109.4));
#407 = LINE('',#408,#409);
#408 = CARTESIAN_POINT('',(36.95,80.,122.62955545758));
#409 = VECTOR('',#410,1.);
#410 = DIRECTION('',(0.,-0.,1.));
#411 = ORIENTED_EDGE('',*,*,#412,.F.);
#412 = EDGE_CURVE('',#413,#405,#415,.T.);
#413 = VERTEX_POINT('',#414);
#414 = CARTESIAN_POINT('',(31.05,80.,109.4));
#415 = LINE('',#416,#417);
#416 = CARTESIAN_POINT('',(13.53261125893,80.,109.4));
#417 = VECTOR('',#418,1.);
#418 = DIRECTION('',(1.,0.,0.));
#419 = ORIENTED_EDGE('',*,*,#420,.F.);
#420 = EDGE_CURVE('',#395,#413,#421,.T.);
#421 = LINE('',#422,#423);
#422 = CARTESIAN_POINT('',(31.05,80.,122.62955545758));
#423 = VECTOR('',#424,1.);
#424 = DIRECTION('',(0.,-0.,1.));
#425 = FACE_BOUND('',#426,.T.);
#426 = EDGE_LOOP('',(#427));
#427 = ORIENTED_EDGE('',*,*,#428,.F.);
#428 = EDGE_CURVE('',#429,#429,#431,.T.);
#429 = VERTEX_POINT('',#430);
#430 = CARTESIAN_POINT('',(-3.989419162443,80.,190.5));
#431 = CIRCLE('',#432,1.75);
#432 = AXIS2_PLACEMENT_3D('',#433,#434,#435);
#433 = CARTESIAN_POINT('',(-3.989419162443,80.,188.75));
#434 = DIRECTION('',(0.,1.,0.));
#435 = DIRECTION('',(0.,-0.,1.));
#436 = FACE_BOUND('',#437,.T.);
#437 = EDGE_LOOP('',(#438));
#438 = ORIENTED_EDGE('',*,*,#439,.T.);
#439 = EDGE_CURVE('',#440,#440,#442,.T.);
#440 = VERTEX_POINT('',#441);
#441 = CARTESIAN_POINT('',(10.3,80.,185.85));
#442 = CIRCLE('',#443,11.15);
#443 = AXIS2_PLACEMENT_3D('',#444,#445,#446);
#444 = CARTESIAN_POINT('',(10.3,80.,197.));
#445 = DIRECTION('',(0.,-1.,0.));
#446 = DIRECTION('',(0.,-0.,-1.));
#447 = FACE_BOUND('',#448,.T.);
#448 = EDGE_LOOP('',(#449));
#449 = ORIENTED_EDGE('',*,*,#450,.F.);
#450 = EDGE_CURVE('',#451,#451,#453,.T.);
#451 = VERTEX_POINT('',#452);
#452 = CARTESIAN_POINT('',(10.3,80.,215.25));
#453 = CIRCLE('',#454,1.75);
#454 = AXIS2_PLACEMENT_3D('',#455,#456,#457);
#455 = CARTESIAN_POINT('',(10.3,80.,213.5));
#456 = DIRECTION('',(0.,1.,0.));
#457 = DIRECTION('',(0.,-0.,1.));
#458 = FACE_BOUND('',#459,.T.);
#459 = EDGE_LOOP('',(#460));
#460 = ORIENTED_EDGE('',*,*,#461,.F.);
#461 = EDGE_CURVE('',#462,#462,#464,.T.);
#462 = VERTEX_POINT('',#463);
#463 = CARTESIAN_POINT('',(24.589419162443,80.,190.5));
#464 = CIRCLE('',#465,1.75);
#465 = AXIS2_PLACEMENT_3D('',#466,#467,#468);
#466 = CARTESIAN_POINT('',(24.589419162443,80.,188.75));
#467 = DIRECTION('',(0.,1.,0.));
#468 = DIRECTION('',(0.,-0.,1.));
#469 = PLANE('',#470);
#470 = AXIS2_PLACEMENT_3D('',#471,#472,#473);
#471 = CARTESIAN_POINT('',(-9.884777482141,80.,138.65911091516));
#472 = DIRECTION('',(0.,1.,0.));
#473 = DIRECTION('',(0.,-0.,1.));
#474 = ADVANCED_FACE('',(#475,#486,#520),#531,.F.);
#475 = FACE_BOUND('',#476,.F.);
#476 = EDGE_LOOP('',(#477,#478,#479,#480));
#477 = ORIENTED_EDGE('',*,*,#197,.F.);
#478 = ORIENTED_EDGE('',*,*,#129,.F.);
#479 = ORIENTED_EDGE('',*,*,#61,.T.);
#480 = ORIENTED_EDGE('',*,*,#481,.T.);
#481 = EDGE_CURVE('',#64,#189,#482,.T.);
#482 = LINE('',#483,#484);
#483 = CARTESIAN_POINT('',(49.,62.,100.));
#484 = VECTOR('',#485,1.);
#485 = DIRECTION('',(-0.,1.,0.));
#486 = FACE_BOUND('',#487,.F.);
#487 = EDGE_LOOP('',(#488,#498,#506,#514));
#488 = ORIENTED_EDGE('',*,*,#489,.F.);
#489 = EDGE_CURVE('',#490,#492,#494,.T.);
#490 = VERTEX_POINT('',#491);
#491 = CARTESIAN_POINT('',(-56.,67.,100.));
#492 = VERTEX_POINT('',#493);
#493 = CARTESIAN_POINT('',(32.,67.,100.));
#494 = LINE('',#495,#496);
#495 = CARTESIAN_POINT('',(-56.,67.,100.));
#496 = VECTOR('',#497,1.);
#497 = DIRECTION('',(1.,0.,-0.));
#498 = ORIENTED_EDGE('',*,*,#499,.T.);
#499 = EDGE_CURVE('',#490,#500,#502,.T.);
#500 = VERTEX_POINT('',#501);
#501 = CARTESIAN_POINT('',(-56.,75.,100.));
#502 = LINE('',#503,#504);
#503 = CARTESIAN_POINT('',(-56.,67.,100.));
#504 = VECTOR('',#505,1.);
#505 = DIRECTION('',(-0.,1.,0.));
#506 = ORIENTED_EDGE('',*,*,#507,.T.);
#507 = EDGE_CURVE('',#500,#508,#510,.T.);
#508 = VERTEX_POINT('',#509);
#509 = CARTESIAN_POINT('',(32.,75.,100.));
#510 = LINE('',#511,#512);
#511 = CARTESIAN_POINT('',(-56.,75.,100.));
#512 = VECTOR('',#513,1.);
#513 = DIRECTION('',(1.,0.,-0.));
#514 = ORIENTED_EDGE('',*,*,#515,.F.);
#515 = EDGE_CURVE('',#492,#508,#516,.T.);
#516 = LINE('',#517,#518);
#517 = CARTESIAN_POINT('',(32.,67.,100.));
#518 = VECTOR('',#519,1.);
#519 = DIRECTION('',(-0.,1.,0.));
#520 = FACE_BOUND('',#521,.F.);
#521 = EDGE_LOOP('',(#522));
#522 = ORIENTED_EDGE('',*,*,#523,.F.);
#523 = EDGE_CURVE('',#524,#524,#526,.T.);
#524 = VERTEX_POINT('',#525);
#525 = CARTESIAN_POINT('',(35.75,71.,100.));
#526 = CIRCLE('',#527,1.75);
#527 = AXIS2_PLACEMENT_3D('',#528,#529,#530);
#528 = CARTESIAN_POINT('',(34.,71.,100.));
#529 = DIRECTION('',(0.,0.,1.));
#530 = DIRECTION('',(1.,0.,-0.));
#531 = PLANE('',#532);
#532 = AXIS2_PLACEMENT_3D('',#533,#534,#535);
#533 = CARTESIAN_POINT('',(-76.,62.,100.));
#534 = DIRECTION('',(0.,0.,1.));
#535 = DIRECTION('',(1.,0.,-0.));
#536 = ADVANCED_FACE('',(#537),#548,.T.);
#537 = FACE_BOUND('',#538,.F.);
#538 = EDGE_LOOP('',(#539,#540,#546,#547));
#539 = ORIENTED_EDGE('',*,*,#113,.T.);
#540 = ORIENTED_EDGE('',*,*,#541,.T.);
#541 = EDGE_CURVE('',#106,#179,#542,.T.);
#542 = LINE('',#543,#544);
#543 = CARTESIAN_POINT('',(52.,62.,103.));
#544 = VECTOR('',#545,1.);
#545 = DIRECTION('',(-0.,1.,0.));
#546 = ORIENTED_EDGE('',*,*,#188,.F.);
#547 = ORIENTED_EDGE('',*,*,#481,.F.);
#548 = CYLINDRICAL_SURFACE('',#549,3.);
#549 = AXIS2_PLACEMENT_3D('',#550,#551,#552);
#550 = CARTESIAN_POINT('',(49.,62.,103.));
#551 = DIRECTION('',(-0.,1.,0.));
#552 = DIRECTION('',(-0.,0.,-1.));
#553 = ADVANCED_FACE('',(#554),#565,.T.);
#554 = FACE_BOUND('',#555,.T.);
#555 = EDGE_LOOP('',(#556,#557,#558,#559));
#556 = ORIENTED_EDGE('',*,*,#105,.F.);
#557 = ORIENTED_EDGE('',*,*,#541,.T.);
#558 = ORIENTED_EDGE('',*,*,#178,.T.);
#559 = ORIENTED_EDGE('',*,*,#560,.F.);
#560 = EDGE_CURVE('',#97,#181,#561,.T.);
#561 = LINE('',#562,#563);
#562 = CARTESIAN_POINT('',(52.,62.,111.));
#563 = VECTOR('',#564,1.);
#564 = DIRECTION('',(-0.,1.,0.));
#565 = PLANE('',#566);
#566 = AXIS2_PLACEMENT_3D('',#567,#568,#569);
#567 = CARTESIAN_POINT('',(52.,62.,100.));
#568 = DIRECTION('',(1.,0.,-0.));
#569 = DIRECTION('',(0.,0.,1.));
#570 = ADVANCED_FACE('',(#571),#582,.T.);
#571 = FACE_BOUND('',#572,.T.);
#572 = EDGE_LOOP('',(#573,#574,#575,#576));
#573 = ORIENTED_EDGE('',*,*,#96,.T.);
#574 = ORIENTED_EDGE('',*,*,#560,.T.);
#575 = ORIENTED_EDGE('',*,*,#317,.F.);
#576 = ORIENTED_EDGE('',*,*,#577,.F.);
#577 = EDGE_CURVE('',#89,#310,#578,.T.);
#578 = LINE('',#579,#580);
#579 = CARTESIAN_POINT('',(49.,62.,114.));
#580 = VECTOR('',#581,1.);
#581 = DIRECTION('',(-0.,1.,0.));
#582 = CYLINDRICAL_SURFACE('',#583,3.);
#583 = AXIS2_PLACEMENT_3D('',#584,#585,#586);
#584 = CARTESIAN_POINT('',(49.,62.,111.));
#585 = DIRECTION('',(-0.,1.,0.));
#586 = DIRECTION('',(0.,0.,1.));
#587 = ADVANCED_FACE('',(#588,#633,#644),#655,.T.);
#588 = FACE_BOUND('',#589,.T.);
#589 = EDGE_LOOP('',(#590,#591,#592,#593,#594,#595,#603,#611,#619,#627)
  );
#590 = ORIENTED_EDGE('',*,*,#206,.F.);
#591 = ORIENTED_EDGE('',*,*,#154,.F.);
#592 = ORIENTED_EDGE('',*,*,#88,.T.);
#593 = ORIENTED_EDGE('',*,*,#577,.T.);
#594 = ORIENTED_EDGE('',*,*,#309,.F.);
#595 = ORIENTED_EDGE('',*,*,#596,.F.);
#596 = EDGE_CURVE('',#597,#301,#599,.T.);
#597 = VERTEX_POINT('',#598);
#598 = CARTESIAN_POINT('',(-21.94990530438,66.,114.));
#599 = LINE('',#600,#601);
#600 = CARTESIAN_POINT('',(-21.94990530438,66.,114.));
#601 = VECTOR('',#602,1.);
#602 = DIRECTION('',(-0.,1.,0.));
#603 = ORIENTED_EDGE('',*,*,#604,.F.);
#604 = EDGE_CURVE('',#605,#597,#607,.T.);
#605 = VERTEX_POINT('',#606);
#606 = CARTESIAN_POINT('',(-26.625,66.,114.));
#607 = LINE('',#608,#609);
#608 = CARTESIAN_POINT('',(-50.84806273622,66.,114.));
#609 = VECTOR('',#610,1.);
#610 = DIRECTION('',(1.,0.,0.));
#611 = ORIENTED_EDGE('',*,*,#612,.F.);
#612 = EDGE_CURVE('',#613,#605,#615,.T.);
#613 = VERTEX_POINT('',#614);
#614 = CARTESIAN_POINT('',(-57.,66.,114.));
#615 = LINE('',#616,#617);
#616 = CARTESIAN_POINT('',(-50.84806273622,66.,114.));
#617 = VECTOR('',#618,1.);
#618 = DIRECTION('',(1.,0.,0.));
#619 = ORIENTED_EDGE('',*,*,#620,.T.);
#620 = EDGE_CURVE('',#613,#621,#623,.T.);
#621 = VERTEX_POINT('',#622);
#622 = CARTESIAN_POINT('',(-60.,66.,114.));
#623 = LINE('',#624,#625);
#624 = CARTESIAN_POINT('',(-50.84806273622,66.,114.));
#625 = VECTOR('',#626,1.);
#626 = DIRECTION('',(-1.,-0.,-0.));
#627 = ORIENTED_EDGE('',*,*,#628,.F.);
#628 = EDGE_CURVE('',#207,#621,#629,.T.);
#629 = LINE('',#630,#631);
#630 = CARTESIAN_POINT('',(-60.,80.,114.));
#631 = VECTOR('',#632,1.);
#632 = DIRECTION('',(0.,-1.,0.));
#633 = FACE_BOUND('',#634,.T.);
#634 = EDGE_LOOP('',(#635));
#635 = ORIENTED_EDGE('',*,*,#636,.F.);
#636 = EDGE_CURVE('',#637,#637,#639,.T.);
#637 = VERTEX_POINT('',#638);
#638 = CARTESIAN_POINT('',(1.75,71.,114.));
#639 = CIRCLE('',#640,1.75);
#640 = AXIS2_PLACEMENT_3D('',#641,#642,#643);
#641 = CARTESIAN_POINT('',(0.,71.,114.));
#642 = DIRECTION('',(0.,0.,1.));
#643 = DIRECTION('',(1.,0.,-0.));
#644 = FACE_BOUND('',#645,.T.);
#645 = EDGE_LOOP('',(#646));
#646 = ORIENTED_EDGE('',*,*,#647,.F.);
#647 = EDGE_CURVE('',#648,#648,#650,.T.);
#648 = VERTEX_POINT('',#649);
#649 = CARTESIAN_POINT('',(35.75,71.,114.));
#650 = CIRCLE('',#651,1.75);
#651 = AXIS2_PLACEMENT_3D('',#652,#653,#654);
#652 = CARTESIAN_POINT('',(34.,71.,114.));
#653 = DIRECTION('',(0.,0.,1.));
#654 = DIRECTION('',(1.,0.,-0.));
#655 = PLANE('',#656);
#656 = AXIS2_PLACEMENT_3D('',#657,#658,#659);
#657 = CARTESIAN_POINT('',(-76.,62.,114.));
#658 = DIRECTION('',(0.,0.,1.));
#659 = DIRECTION('',(1.,0.,-0.));
#660 = ADVANCED_FACE('',(#661),#680,.F.);
#661 = FACE_BOUND('',#662,.F.);
#662 = EDGE_LOOP('',(#663,#672,#678,#679));
#663 = ORIENTED_EDGE('',*,*,#664,.T.);
#664 = EDGE_CURVE('',#597,#665,#667,.T.);
#665 = VERTEX_POINT('',#666);
#666 = CARTESIAN_POINT('',(-24.67709977307,66.,118.24996413148));
#667 = CIRCLE('',#668,3.);
#668 = AXIS2_PLACEMENT_3D('',#669,#670,#671);
#669 = CARTESIAN_POINT('',(-21.94990530438,66.,117.));
#670 = DIRECTION('',(-0.,1.,0.));
#671 = DIRECTION('',(0.,0.,1.));
#672 = ORIENTED_EDGE('',*,*,#673,.T.);
#673 = EDGE_CURVE('',#665,#293,#674,.T.);
#674 = LINE('',#675,#676);
#675 = CARTESIAN_POINT('',(-24.67709977307,66.,118.24996413148));
#676 = VECTOR('',#677,1.);
#677 = DIRECTION('',(-0.,1.,0.));
#678 = ORIENTED_EDGE('',*,*,#300,.F.);
#679 = ORIENTED_EDGE('',*,*,#596,.F.);
#680 = CYLINDRICAL_SURFACE('',#681,3.);
#681 = AXIS2_PLACEMENT_3D('',#682,#683,#684);
#682 = CARTESIAN_POINT('',(-21.94990530438,66.,117.));
#683 = DIRECTION('',(-0.,1.,0.));
#684 = DIRECTION('',(-0.,0.,-1.));
#685 = ADVANCED_FACE('',(#686),#704,.T.);
#686 = FACE_BOUND('',#687,.T.);
#687 = EDGE_LOOP('',(#688,#696,#697,#698));
#688 = ORIENTED_EDGE('',*,*,#689,.F.);
#689 = EDGE_CURVE('',#665,#690,#692,.T.);
#690 = VERTEX_POINT('',#691);
#691 = CARTESIAN_POINT('',(1.786904729034,66.,175.98961031789));
#692 = LINE('',#693,#694);
#693 = CARTESIAN_POINT('',(-28.,66.,111.));
#694 = VECTOR('',#695,1.);
#695 = DIRECTION('',(0.416654710493,0.,0.909064822894));
#696 = ORIENTED_EDGE('',*,*,#673,.T.);
#697 = ORIENTED_EDGE('',*,*,#292,.T.);
#698 = ORIENTED_EDGE('',*,*,#699,.F.);
#699 = EDGE_CURVE('',#690,#284,#700,.T.);
#700 = LINE('',#701,#702);
#701 = CARTESIAN_POINT('',(1.786904729034,66.,175.98961031789));
#702 = VECTOR('',#703,1.);
#703 = DIRECTION('',(0.,1.,0.));
#704 = PLANE('',#705);
#705 = AXIS2_PLACEMENT_3D('',#706,#707,#708);
#706 = CARTESIAN_POINT('',(-28.,66.,111.));
#707 = DIRECTION('',(0.909064822894,0.,-0.416654710493));
#708 = DIRECTION('',(0.416654710493,0.,0.909064822894));
#709 = ADVANCED_FACE('',(#710),#729,.F.);
#710 = FACE_BOUND('',#711,.F.);
#711 = EDGE_LOOP('',(#712,#721,#727,#728));
#712 = ORIENTED_EDGE('',*,*,#713,.T.);
#713 = EDGE_CURVE('',#690,#714,#716,.T.);
#714 = VERTEX_POINT('',#715);
#715 = CARTESIAN_POINT('',(5.268781911058,66.,177.64317059688));
#716 = CIRCLE('',#717,3.);
#717 = AXIS2_PLACEMENT_3D('',#718,#719,#720);
#718 = CARTESIAN_POINT('',(4.514099197716,66.,174.73964618641));
#719 = DIRECTION('',(0.,1.,0.));
#720 = DIRECTION('',(0.,-0.,1.));
#721 = ORIENTED_EDGE('',*,*,#722,.T.);
#722 = EDGE_CURVE('',#714,#275,#723,.T.);
#723 = LINE('',#724,#725);
#724 = CARTESIAN_POINT('',(5.268781911058,66.,177.64317059688));
#725 = VECTOR('',#726,1.);
#726 = DIRECTION('',(0.,1.,0.));
#727 = ORIENTED_EDGE('',*,*,#283,.F.);
#728 = ORIENTED_EDGE('',*,*,#699,.F.);
#729 = CYLINDRICAL_SURFACE('',#730,3.);
#730 = AXIS2_PLACEMENT_3D('',#731,#732,#733);
#731 = CARTESIAN_POINT('',(4.514099197716,66.,174.73964618641));
#732 = DIRECTION('',(0.,1.,0.));
#733 = DIRECTION('',(-0.909064822894,0.,0.416654710493));
#734 = ADVANCED_FACE('',(#735,#848),#884,.T.);
#735 = FACE_BOUND('',#736,.T.);
#736 = EDGE_LOOP('',(#737,#746,#747,#748,#756,#765,#773,#782,#790,#797,
    #798,#807,#815,#822,#823,#824,#832,#841));
#737 = ORIENTED_EDGE('',*,*,#738,.T.);
#738 = EDGE_CURVE('',#739,#714,#741,.T.);
#739 = VERTEX_POINT('',#740);
#740 = CARTESIAN_POINT('',(2.900458554263,66.,178.41918230021));
#741 = CIRCLE('',#742,20.);
#742 = AXIS2_PLACEMENT_3D('',#743,#744,#745);
#743 = CARTESIAN_POINT('',(10.3,66.,197.));
#744 = DIRECTION('',(-0.,-1.,0.));
#745 = DIRECTION('',(0.,-0.,1.));
#746 = ORIENTED_EDGE('',*,*,#722,.T.);
#747 = ORIENTED_EDGE('',*,*,#274,.F.);
#748 = ORIENTED_EDGE('',*,*,#749,.F.);
#749 = EDGE_CURVE('',#750,#266,#752,.T.);
#750 = VERTEX_POINT('',#751);
#751 = CARTESIAN_POINT('',(10.3,73.4,217.));
#752 = LINE('',#753,#754);
#753 = CARTESIAN_POINT('',(10.3,63.,217.));
#754 = VECTOR('',#755,1.);
#755 = DIRECTION('',(0.,1.,0.));
#756 = ORIENTED_EDGE('',*,*,#757,.T.);
#757 = EDGE_CURVE('',#750,#758,#760,.T.);
#758 = VERTEX_POINT('',#759);
#759 = CARTESIAN_POINT('',(13.25,73.4,216.78124111374));
#760 = CIRCLE('',#761,20.);
#761 = AXIS2_PLACEMENT_3D('',#762,#763,#764);
#762 = CARTESIAN_POINT('',(10.3,73.4,197.));
#763 = DIRECTION('',(0.,1.,0.));
#764 = DIRECTION('',(0.,-0.,1.));
#765 = ORIENTED_EDGE('',*,*,#766,.F.);
#766 = EDGE_CURVE('',#767,#758,#769,.T.);
#767 = VERTEX_POINT('',#768);
#768 = CARTESIAN_POINT('',(13.25,70.6,216.78124111374));
#769 = LINE('',#770,#771);
#770 = CARTESIAN_POINT('',(13.25,63.,216.78124111374));
#771 = VECTOR('',#772,1.);
#772 = DIRECTION('',(0.,1.,0.));
#773 = ORIENTED_EDGE('',*,*,#774,.F.);
#774 = EDGE_CURVE('',#775,#767,#777,.T.);
#775 = VERTEX_POINT('',#776);
#776 = CARTESIAN_POINT('',(10.3,70.6,217.));
#777 = CIRCLE('',#778,20.);
#778 = AXIS2_PLACEMENT_3D('',#779,#780,#781);
#779 = CARTESIAN_POINT('',(10.3,70.6,197.));
#780 = DIRECTION('',(0.,1.,0.));
#781 = DIRECTION('',(0.,-0.,1.));
#782 = ORIENTED_EDGE('',*,*,#783,.F.);
#783 = EDGE_CURVE('',#784,#775,#786,.T.);
#784 = VERTEX_POINT('',#785);
#785 = CARTESIAN_POINT('',(10.3,63.,217.));
#786 = LINE('',#787,#788);
#787 = CARTESIAN_POINT('',(10.3,63.,217.));
#788 = VECTOR('',#789,1.);
#789 = DIRECTION('',(0.,1.,0.));
#790 = ORIENTED_EDGE('',*,*,#791,.T.);
#791 = EDGE_CURVE('',#784,#784,#792,.T.);
#792 = CIRCLE('',#793,20.);
#793 = AXIS2_PLACEMENT_3D('',#794,#795,#796);
#794 = CARTESIAN_POINT('',(10.3,63.,197.));
#795 = DIRECTION('',(0.,1.,0.));
#796 = DIRECTION('',(0.,-0.,1.));
#797 = ORIENTED_EDGE('',*,*,#783,.T.);
#798 = ORIENTED_EDGE('',*,*,#799,.F.);
#799 = EDGE_CURVE('',#800,#775,#802,.T.);
#800 = VERTEX_POINT('',#801);
#801 = CARTESIAN_POINT('',(7.35,70.6,216.78124111374));
#802 = CIRCLE('',#803,20.);
#803 = AXIS2_PLACEMENT_3D('',#804,#805,#806);
#804 = CARTESIAN_POINT('',(10.3,70.6,197.));
#805 = DIRECTION('',(0.,1.,0.));
#806 = DIRECTION('',(0.,-0.,1.));
#807 = ORIENTED_EDGE('',*,*,#808,.T.);
#808 = EDGE_CURVE('',#800,#809,#811,.T.);
#809 = VERTEX_POINT('',#810);
#810 = CARTESIAN_POINT('',(7.35,73.4,216.78124111374));
#811 = LINE('',#812,#813);
#812 = CARTESIAN_POINT('',(7.35,63.,216.78124111374));
#813 = VECTOR('',#814,1.);
#814 = DIRECTION('',(0.,1.,0.));
#815 = ORIENTED_EDGE('',*,*,#816,.T.);
#816 = EDGE_CURVE('',#809,#750,#817,.T.);
#817 = CIRCLE('',#818,20.);
#818 = AXIS2_PLACEMENT_3D('',#819,#820,#821);
#819 = CARTESIAN_POINT('',(10.3,73.4,197.));
#820 = DIRECTION('',(0.,1.,0.));
#821 = DIRECTION('',(0.,-0.,1.));
#822 = ORIENTED_EDGE('',*,*,#749,.T.);
#823 = ORIENTED_EDGE('',*,*,#265,.F.);
#824 = ORIENTED_EDGE('',*,*,#825,.F.);
#825 = EDGE_CURVE('',#826,#257,#828,.T.);
#826 = VERTEX_POINT('',#827);
#827 = CARTESIAN_POINT('',(-8.528464933255,66.,190.25545344317));
#828 = LINE('',#829,#830);
#829 = CARTESIAN_POINT('',(-8.528464933255,66.,190.25545344317));
#830 = VECTOR('',#831,1.);
#831 = DIRECTION('',(0.,1.,0.));
#832 = ORIENTED_EDGE('',*,*,#833,.F.);
#833 = EDGE_CURVE('',#834,#826,#836,.T.);
#834 = VERTEX_POINT('',#835);
#835 = CARTESIAN_POINT('',(-7.871196274122,66.,188.64490419161));
#836 = CIRCLE('',#837,20.);
#837 = AXIS2_PLACEMENT_3D('',#838,#839,#840);
#838 = CARTESIAN_POINT('',(10.3,66.,197.));
#839 = DIRECTION('',(0.,1.,0.));
#840 = DIRECTION('',(0.,-0.,1.));
#841 = ORIENTED_EDGE('',*,*,#842,.F.);
#842 = EDGE_CURVE('',#739,#834,#843,.T.);
#843 = CIRCLE('',#844,20.);
#844 = AXIS2_PLACEMENT_3D('',#845,#846,#847);
#845 = CARTESIAN_POINT('',(10.3,66.,197.));
#846 = DIRECTION('',(0.,1.,0.));
#847 = DIRECTION('',(0.,-0.,1.));
#848 = FACE_BOUND('',#849,.T.);
#849 = EDGE_LOOP('',(#850,#861,#869,#878));
#850 = ORIENTED_EDGE('',*,*,#851,.F.);
#851 = EDGE_CURVE('',#852,#854,#856,.T.);
#852 = VERTEX_POINT('',#853);
#853 = CARTESIAN_POINT('',(28.906057322886,70.6,189.66415438429));
#854 = VERTEX_POINT('',#855);
#855 = CARTESIAN_POINT('',(25.956057322886,70.6,184.55460450196));
#856 = CIRCLE('',#857,20.);
#857 = AXIS2_PLACEMENT_3D('',#858,#859,#860);
#858 = CARTESIAN_POINT('',(10.3,70.6,197.));
#859 = DIRECTION('',(0.,1.,0.));
#860 = DIRECTION('',(0.,-0.,1.));
#861 = ORIENTED_EDGE('',*,*,#862,.T.);
#862 = EDGE_CURVE('',#852,#863,#865,.T.);
#863 = VERTEX_POINT('',#864);
#864 = CARTESIAN_POINT('',(28.906057322886,73.4,189.66415438429));
#865 = LINE('',#866,#867);
#866 = CARTESIAN_POINT('',(28.906057322886,63.,189.66415438429));
#867 = VECTOR('',#868,1.);
#868 = DIRECTION('',(0.,1.,0.));
#869 = ORIENTED_EDGE('',*,*,#870,.T.);
#870 = EDGE_CURVE('',#863,#871,#873,.T.);
#871 = VERTEX_POINT('',#872);
#872 = CARTESIAN_POINT('',(25.956057322886,73.4,184.55460450196));
#873 = CIRCLE('',#874,20.);
#874 = AXIS2_PLACEMENT_3D('',#875,#876,#877);
#875 = CARTESIAN_POINT('',(10.3,73.4,197.));
#876 = DIRECTION('',(0.,1.,0.));
#877 = DIRECTION('',(0.,-0.,1.));
#878 = ORIENTED_EDGE('',*,*,#879,.F.);
#879 = EDGE_CURVE('',#854,#871,#880,.T.);
#880 = LINE('',#881,#882);
#881 = CARTESIAN_POINT('',(25.956057322886,63.,184.55460450196));
#882 = VECTOR('',#883,1.);
#883 = DIRECTION('',(0.,1.,0.));
#884 = CYLINDRICAL_SURFACE('',#885,20.);
#885 = AXIS2_PLACEMENT_3D('',#886,#887,#888);
#886 = CARTESIAN_POINT('',(10.3,63.,197.));
#887 = DIRECTION('',(0.,1.,0.));
#888 = DIRECTION('',(0.,-0.,1.));
#889 = ADVANCED_FACE('',(#890),#909,.F.);
#890 = FACE_BOUND('',#891,.F.);
#891 = EDGE_LOOP('',(#892,#893,#901,#908));
#892 = ORIENTED_EDGE('',*,*,#214,.T.);
#893 = ORIENTED_EDGE('',*,*,#894,.T.);
#894 = EDGE_CURVE('',#215,#895,#897,.T.);
#895 = VERTEX_POINT('',#896);
#896 = CARTESIAN_POINT('',(-57.,66.,117.));
#897 = LINE('',#898,#899);
#898 = CARTESIAN_POINT('',(-57.,80.,117.));
#899 = VECTOR('',#900,1.);
#900 = DIRECTION('',(0.,-1.,0.));
#901 = ORIENTED_EDGE('',*,*,#902,.F.);
#902 = EDGE_CURVE('',#621,#895,#903,.T.);
#903 = CIRCLE('',#904,3.);
#904 = AXIS2_PLACEMENT_3D('',#905,#906,#907);
#905 = CARTESIAN_POINT('',(-60.,66.,117.));
#906 = DIRECTION('',(0.,-1.,0.));
#907 = DIRECTION('',(0.,-0.,-1.));
#908 = ORIENTED_EDGE('',*,*,#628,.F.);
#909 = CYLINDRICAL_SURFACE('',#910,3.);
#910 = AXIS2_PLACEMENT_3D('',#911,#912,#913);
#911 = CARTESIAN_POINT('',(-60.,80.,117.));
#912 = DIRECTION('',(0.,-1.,0.));
#913 = DIRECTION('',(-0.,-0.,-1.));
#914 = ADVANCED_FACE('',(#915),#933,.T.);
#915 = FACE_BOUND('',#916,.T.);
#916 = EDGE_LOOP('',(#917,#925,#931,#932));
#917 = ORIENTED_EDGE('',*,*,#918,.F.);
#918 = EDGE_CURVE('',#919,#895,#921,.T.);
#919 = VERTEX_POINT('',#920);
#920 = CARTESIAN_POINT('',(-57.,66.,127.94319822384));
#921 = LINE('',#922,#923);
#922 = CARTESIAN_POINT('',(-57.,66.,129.));
#923 = VECTOR('',#924,1.);
#924 = DIRECTION('',(0.,0.,-1.));
#925 = ORIENTED_EDGE('',*,*,#926,.T.);
#926 = EDGE_CURVE('',#919,#224,#927,.T.);
#927 = LINE('',#928,#929);
#928 = CARTESIAN_POINT('',(-57.,66.,127.94319822384));
#929 = VECTOR('',#930,1.);
#930 = DIRECTION('',(0.,1.,0.));
#931 = ORIENTED_EDGE('',*,*,#223,.T.);
#932 = ORIENTED_EDGE('',*,*,#894,.T.);
#933 = PLANE('',#934);
#934 = AXIS2_PLACEMENT_3D('',#935,#936,#937);
#935 = CARTESIAN_POINT('',(-57.,66.,129.));
#936 = DIRECTION('',(-1.,0.,0.));
#937 = DIRECTION('',(0.,0.,-1.));
#938 = ADVANCED_FACE('',(#939),#992,.F.);
#939 = FACE_BOUND('',#940,.T.);
#940 = EDGE_LOOP('',(#941,#951,#958,#959,#960,#968,#977,#985));
#941 = ORIENTED_EDGE('',*,*,#942,.F.);
#942 = EDGE_CURVE('',#943,#945,#947,.T.);
#943 = VERTEX_POINT('',#944);
#944 = CARTESIAN_POINT('',(-9.110506717192,66.,187.25067994315));
#945 = VERTEX_POINT('',#946);
#946 = CARTESIAN_POINT('',(-9.110506717192,70.6,187.25067994315));
#947 = LINE('',#948,#949);
#948 = CARTESIAN_POINT('',(-9.110506717192,66.,187.25067994315));
#949 = VECTOR('',#950,1.);
#950 = DIRECTION('',(0.,1.,0.));
#951 = ORIENTED_EDGE('',*,*,#952,.T.);
#952 = EDGE_CURVE('',#943,#826,#953,.T.);
#953 = CIRCLE('',#954,3.);
#954 = AXIS2_PLACEMENT_3D('',#955,#956,#957);
#955 = CARTESIAN_POINT('',(-11.35273467324,66.,189.24377145964));
#956 = DIRECTION('',(-0.,-1.,0.));
#957 = DIRECTION('',(0.,-0.,1.));
#958 = ORIENTED_EDGE('',*,*,#825,.T.);
#959 = ORIENTED_EDGE('',*,*,#256,.F.);
#960 = ORIENTED_EDGE('',*,*,#961,.F.);
#961 = EDGE_CURVE('',#962,#249,#964,.T.);
#962 = VERTEX_POINT('',#963);
#963 = CARTESIAN_POINT('',(-9.110506717192,73.4,187.25067994315));
#964 = LINE('',#965,#966);
#965 = CARTESIAN_POINT('',(-9.110506717192,66.,187.25067994315));
#966 = VECTOR('',#967,1.);
#967 = DIRECTION('',(0.,1.,0.));
#968 = ORIENTED_EDGE('',*,*,#969,.F.);
#969 = EDGE_CURVE('',#970,#962,#972,.T.);
#970 = VERTEX_POINT('',#971);
#971 = CARTESIAN_POINT('',(-8.37683716753,73.4,189.62328962193));
#972 = CIRCLE('',#973,3.);
#973 = AXIS2_PLACEMENT_3D('',#974,#975,#976);
#974 = CARTESIAN_POINT('',(-11.35273467324,73.4,189.24377145964));
#975 = DIRECTION('',(0.,1.,0.));
#976 = DIRECTION('',(0.747409318684,0.,-0.66436383883));
#977 = ORIENTED_EDGE('',*,*,#978,.F.);
#978 = EDGE_CURVE('',#979,#970,#981,.T.);
#979 = VERTEX_POINT('',#980);
#980 = CARTESIAN_POINT('',(-8.37683716753,70.6,189.62328962193));
#981 = LINE('',#982,#983);
#982 = CARTESIAN_POINT('',(-8.376837167532,66.,189.62328962193));
#983 = VECTOR('',#984,1.);
#984 = DIRECTION('',(0.,1.,0.));
#985 = ORIENTED_EDGE('',*,*,#986,.T.);
#986 = EDGE_CURVE('',#979,#945,#987,.T.);
#987 = CIRCLE('',#988,3.);
#988 = AXIS2_PLACEMENT_3D('',#989,#990,#991);
#989 = CARTESIAN_POINT('',(-11.35273467324,70.6,189.24377145964));
#990 = DIRECTION('',(0.,1.,0.));
#991 = DIRECTION('',(0.747409318684,0.,-0.66436383883));
#992 = CYLINDRICAL_SURFACE('',#993,3.);
#993 = AXIS2_PLACEMENT_3D('',#994,#995,#996);
#994 = CARTESIAN_POINT('',(-11.35273467324,66.,189.24377145964));
#995 = DIRECTION('',(0.,1.,0.));
#996 = DIRECTION('',(0.747409318684,0.,-0.66436383883));
#997 = ADVANCED_FACE('',(#998),#1017,.T.);
#998 = FACE_BOUND('',#999,.T.);
#999 = EDGE_LOOP('',(#1000,#1009,#1015,#1016));
#1000 = ORIENTED_EDGE('',*,*,#1001,.T.);
#1001 = EDGE_CURVE('',#919,#1002,#1004,.T.);
#1002 = VERTEX_POINT('',#1003);
#1003 = CARTESIAN_POINT('',(-56.33764035093,66.,129.82347415829));
#1004 = CIRCLE('',#1005,3.);
#1005 = AXIS2_PLACEMENT_3D('',#1006,#1007,#1008);
#1006 = CARTESIAN_POINT('',(-54.,66.,127.94319822384));
#1007 = DIRECTION('',(0.,1.,0.));
#1008 = DIRECTION('',(0.,-0.,1.));
#1009 = ORIENTED_EDGE('',*,*,#1010,.T.);
#1010 = EDGE_CURVE('',#1002,#232,#1011,.T.);
#1011 = LINE('',#1012,#1013);
#1012 = CARTESIAN_POINT('',(-56.33764035093,66.,129.82347415829));
#1013 = VECTOR('',#1014,1.);
#1014 = DIRECTION('',(0.,1.,0.));
#1015 = ORIENTED_EDGE('',*,*,#231,.F.);
#1016 = ORIENTED_EDGE('',*,*,#926,.F.);
#1017 = CYLINDRICAL_SURFACE('',#1018,3.);
#1018 = AXIS2_PLACEMENT_3D('',#1019,#1020,#1021);
#1019 = CARTESIAN_POINT('',(-54.,66.,127.94319822384));
#1020 = DIRECTION('',(0.,1.,0.));
#1021 = DIRECTION('',(-1.,0.,0.));
#1022 = ADVANCED_FACE('',(#1023),#1064,.T.);
#1023 = FACE_BOUND('',#1024,.T.);
#1024 = EDGE_LOOP('',(#1025,#1033,#1034,#1042,#1050,#1056,#1057,#1058));
#1025 = ORIENTED_EDGE('',*,*,#1026,.F.);
#1026 = EDGE_CURVE('',#943,#1027,#1029,.T.);
#1027 = VERTEX_POINT('',#1028);
#1028 = CARTESIAN_POINT('',(-20.,66.,175.));
#1029 = LINE('',#1030,#1031);
#1030 = CARTESIAN_POINT('',(-4.,66.,193.));
#1031 = VECTOR('',#1032,1.);
#1032 = DIRECTION('',(-0.66436383883,0.,-0.747409318684));
#1033 = ORIENTED_EDGE('',*,*,#942,.T.);
#1034 = ORIENTED_EDGE('',*,*,#1035,.T.);
#1035 = EDGE_CURVE('',#945,#1036,#1038,.T.);
#1036 = VERTEX_POINT('',#1037);
#1037 = CARTESIAN_POINT('',(-11.08131384929,70.6,185.03352191954));
#1038 = LINE('',#1039,#1040);
#1039 = CARTESIAN_POINT('',(-4.25819631625,70.6,192.70952914421));
#1040 = VECTOR('',#1041,1.);
#1041 = DIRECTION('',(-0.66436383883,-1.576306777699E-16,-0.747409318684
    ));
#1042 = ORIENTED_EDGE('',*,*,#1043,.F.);
#1043 = EDGE_CURVE('',#1044,#1036,#1046,.T.);
#1044 = VERTEX_POINT('',#1045);
#1045 = CARTESIAN_POINT('',(-11.08131384929,73.4,185.03352191954));
#1046 = LINE('',#1047,#1048);
#1047 = CARTESIAN_POINT('',(-11.08131384929,68.3,185.03352191954));
#1048 = VECTOR('',#1049,1.);
#1049 = DIRECTION('',(3.885905779778E-17,-1.,4.37164400225E-17));
#1050 = ORIENTED_EDGE('',*,*,#1051,.F.);
#1051 = EDGE_CURVE('',#962,#1044,#1052,.T.);
#1052 = LINE('',#1053,#1054);
#1053 = CARTESIAN_POINT('',(-4.25819631625,73.4,192.70952914421));
#1054 = VECTOR('',#1055,1.);
#1055 = DIRECTION('',(-0.66436383883,-1.576306777699E-16,-0.747409318684
    ));
#1056 = ORIENTED_EDGE('',*,*,#961,.T.);
#1057 = ORIENTED_EDGE('',*,*,#248,.T.);
#1058 = ORIENTED_EDGE('',*,*,#1059,.F.);
#1059 = EDGE_CURVE('',#1027,#241,#1060,.T.);
#1060 = LINE('',#1061,#1062);
#1061 = CARTESIAN_POINT('',(-20.,66.,175.));
#1062 = VECTOR('',#1063,1.);
#1063 = DIRECTION('',(0.,1.,0.));
#1064 = PLANE('',#1065);
#1065 = AXIS2_PLACEMENT_3D('',#1066,#1067,#1068);
#1066 = CARTESIAN_POINT('',(-4.,66.,193.));
#1067 = DIRECTION('',(-0.747409318684,0.,0.66436383883));
#1068 = DIRECTION('',(-0.66436383883,0.,-0.747409318684));
#1069 = ADVANCED_FACE('',(#1070),#1081,.T.);
#1070 = FACE_BOUND('',#1071,.T.);
#1071 = EDGE_LOOP('',(#1072,#1078,#1079,#1080));
#1072 = ORIENTED_EDGE('',*,*,#1073,.F.);
#1073 = EDGE_CURVE('',#1027,#1002,#1074,.T.);
#1074 = LINE('',#1075,#1076);
#1075 = CARTESIAN_POINT('',(-20.,66.,175.));
#1076 = VECTOR('',#1077,1.);
#1077 = DIRECTION('',(-0.626758644817,0.,-0.779213450312));
#1078 = ORIENTED_EDGE('',*,*,#1059,.T.);
#1079 = ORIENTED_EDGE('',*,*,#240,.T.);
#1080 = ORIENTED_EDGE('',*,*,#1010,.F.);
#1081 = PLANE('',#1082);
#1082 = AXIS2_PLACEMENT_3D('',#1083,#1084,#1085);
#1083 = CARTESIAN_POINT('',(-20.,66.,175.));
#1084 = DIRECTION('',(-0.779213450312,0.,0.626758644817));
#1085 = DIRECTION('',(-0.626758644817,0.,-0.779213450312));
#1086 = ADVANCED_FACE('',(#1087,#1112),#1123,.T.);
#1087 = FACE_BOUND('',#1088,.T.);
#1088 = EDGE_LOOP('',(#1089,#1097,#1105,#1111));
#1089 = ORIENTED_EDGE('',*,*,#1090,.F.);
#1090 = EDGE_CURVE('',#1091,#327,#1093,.T.);
#1091 = VERTEX_POINT('',#1092);
#1092 = CARTESIAN_POINT('',(-54.95,67.5,106.6));
#1093 = LINE('',#1094,#1095);
#1094 = CARTESIAN_POINT('',(-54.95,67.5,106.6));
#1095 = VECTOR('',#1096,1.);
#1096 = DIRECTION('',(2.22044604925E-16,1.,0.));
#1097 = ORIENTED_EDGE('',*,*,#1098,.F.);
#1098 = EDGE_CURVE('',#1099,#1091,#1101,.T.);
#1099 = VERTEX_POINT('',#1100);
#1100 = CARTESIAN_POINT('',(-49.05,67.5,106.6));
#1101 = LINE('',#1102,#1103);
#1102 = CARTESIAN_POINT('',(-49.05,67.5,106.6));
#1103 = VECTOR('',#1104,1.);
#1104 = DIRECTION('',(-1.,2.22044604925E-16,0.));
#1105 = ORIENTED_EDGE('',*,*,#1106,.T.);
#1106 = EDGE_CURVE('',#1099,#329,#1107,.T.);
#1107 = LINE('',#1108,#1109);
#1108 = CARTESIAN_POINT('',(-49.05,67.5,106.6));
#1109 = VECTOR('',#1110,1.);
#1110 = DIRECTION('',(2.22044604925E-16,1.,0.));
#1111 = ORIENTED_EDGE('',*,*,#326,.F.);
#1112 = FACE_BOUND('',#1113,.T.);
#1113 = EDGE_LOOP('',(#1114));
#1114 = ORIENTED_EDGE('',*,*,#1115,.F.);
#1115 = EDGE_CURVE('',#1116,#1116,#1118,.T.);
#1116 = VERTEX_POINT('',#1117);
#1117 = CARTESIAN_POINT('',(-50.25,71.,106.6));
#1118 = CIRCLE('',#1119,1.75);
#1119 = AXIS2_PLACEMENT_3D('',#1120,#1121,#1122);
#1120 = CARTESIAN_POINT('',(-52.,71.,106.6));
#1121 = DIRECTION('',(0.,0.,1.));
#1122 = DIRECTION('',(1.,0.,-0.));
#1123 = PLANE('',#1124);
#1124 = AXIS2_PLACEMENT_3D('',#1125,#1126,#1127);
#1125 = CARTESIAN_POINT('',(-49.05,67.5,106.6));
#1126 = DIRECTION('',(0.,0.,1.));
#1127 = DIRECTION('',(2.22044604925E-16,1.,0.));
#1128 = ADVANCED_FACE('',(#1129),#1147,.F.);
#1129 = FACE_BOUND('',#1130,.F.);
#1130 = EDGE_LOOP('',(#1131,#1132,#1140,#1146));
#1131 = ORIENTED_EDGE('',*,*,#1090,.F.);
#1132 = ORIENTED_EDGE('',*,*,#1133,.T.);
#1133 = EDGE_CURVE('',#1091,#1134,#1136,.T.);
#1134 = VERTEX_POINT('',#1135);
#1135 = CARTESIAN_POINT('',(-54.95,67.5,109.4));
#1136 = LINE('',#1137,#1138);
#1137 = CARTESIAN_POINT('',(-54.95,67.5,106.6));
#1138 = VECTOR('',#1139,1.);
#1139 = DIRECTION('',(0.,0.,1.));
#1140 = ORIENTED_EDGE('',*,*,#1141,.T.);
#1141 = EDGE_CURVE('',#1134,#345,#1142,.T.);
#1142 = LINE('',#1143,#1144);
#1143 = CARTESIAN_POINT('',(-54.95,67.5,109.4));
#1144 = VECTOR('',#1145,1.);
#1145 = DIRECTION('',(2.22044604925E-16,1.,0.));
#1146 = ORIENTED_EDGE('',*,*,#352,.F.);
#1147 = PLANE('',#1148);
#1148 = AXIS2_PLACEMENT_3D('',#1149,#1150,#1151);
#1149 = CARTESIAN_POINT('',(-54.95,67.5,106.6));
#1150 = DIRECTION('',(-1.,2.22044604925E-16,0.));
#1151 = DIRECTION('',(0.,0.,1.));
#1152 = ADVANCED_FACE('',(#1153),#1171,.T.);
#1153 = FACE_BOUND('',#1154,.T.);
#1154 = EDGE_LOOP('',(#1155,#1156,#1164,#1170));
#1155 = ORIENTED_EDGE('',*,*,#1106,.F.);
#1156 = ORIENTED_EDGE('',*,*,#1157,.T.);
#1157 = EDGE_CURVE('',#1099,#1158,#1160,.T.);
#1158 = VERTEX_POINT('',#1159);
#1159 = CARTESIAN_POINT('',(-49.05,67.5,109.4));
#1160 = LINE('',#1161,#1162);
#1161 = CARTESIAN_POINT('',(-49.05,67.5,106.6));
#1162 = VECTOR('',#1163,1.);
#1163 = DIRECTION('',(0.,0.,1.));
#1164 = ORIENTED_EDGE('',*,*,#1165,.T.);
#1165 = EDGE_CURVE('',#1158,#337,#1166,.T.);
#1166 = LINE('',#1167,#1168);
#1167 = CARTESIAN_POINT('',(-49.05,67.5,109.4));
#1168 = VECTOR('',#1169,1.);
#1169 = DIRECTION('',(2.22044604925E-16,1.,0.));
#1170 = ORIENTED_EDGE('',*,*,#336,.F.);
#1171 = PLANE('',#1172);
#1172 = AXIS2_PLACEMENT_3D('',#1173,#1174,#1175);
#1173 = CARTESIAN_POINT('',(-49.05,67.5,106.6));
#1174 = DIRECTION('',(-1.,2.22044604925E-16,0.));
#1175 = DIRECTION('',(0.,0.,1.));
#1176 = ADVANCED_FACE('',(#1177,#1188),#1199,.F.);
#1177 = FACE_BOUND('',#1178,.F.);
#1178 = EDGE_LOOP('',(#1179,#1180,#1186,#1187));
#1179 = ORIENTED_EDGE('',*,*,#1141,.F.);
#1180 = ORIENTED_EDGE('',*,*,#1181,.F.);
#1181 = EDGE_CURVE('',#1158,#1134,#1182,.T.);
#1182 = LINE('',#1183,#1184);
#1183 = CARTESIAN_POINT('',(-49.05,67.5,109.4));
#1184 = VECTOR('',#1185,1.);
#1185 = DIRECTION('',(-1.,2.22044604925E-16,0.));
#1186 = ORIENTED_EDGE('',*,*,#1165,.T.);
#1187 = ORIENTED_EDGE('',*,*,#344,.F.);
#1188 = FACE_BOUND('',#1189,.F.);
#1189 = EDGE_LOOP('',(#1190));
#1190 = ORIENTED_EDGE('',*,*,#1191,.F.);
#1191 = EDGE_CURVE('',#1192,#1192,#1194,.T.);
#1192 = VERTEX_POINT('',#1193);
#1193 = CARTESIAN_POINT('',(-50.25,71.,109.4));
#1194 = CIRCLE('',#1195,1.75);
#1195 = AXIS2_PLACEMENT_3D('',#1196,#1197,#1198);
#1196 = CARTESIAN_POINT('',(-52.,71.,109.4));
#1197 = DIRECTION('',(0.,0.,1.));
#1198 = DIRECTION('',(1.,0.,-0.));
#1199 = PLANE('',#1200);
#1200 = AXIS2_PLACEMENT_3D('',#1201,#1202,#1203);
#1201 = CARTESIAN_POINT('',(-49.05,67.5,109.4));
#1202 = DIRECTION('',(0.,0.,1.));
#1203 = DIRECTION('',(2.22044604925E-16,1.,0.));
#1204 = ADVANCED_FACE('',(#1205,#1230),#1241,.T.);
#1205 = FACE_BOUND('',#1206,.T.);
#1206 = EDGE_LOOP('',(#1207,#1215,#1223,#1229));
#1207 = ORIENTED_EDGE('',*,*,#1208,.F.);
#1208 = EDGE_CURVE('',#1209,#361,#1211,.T.);
#1209 = VERTEX_POINT('',#1210);
#1210 = CARTESIAN_POINT('',(-2.95,67.5,106.6));
#1211 = LINE('',#1212,#1213);
#1212 = CARTESIAN_POINT('',(-2.95,67.5,106.6));
#1213 = VECTOR('',#1214,1.);
#1214 = DIRECTION('',(2.22044604925E-16,1.,0.));
#1215 = ORIENTED_EDGE('',*,*,#1216,.F.);
#1216 = EDGE_CURVE('',#1217,#1209,#1219,.T.);
#1217 = VERTEX_POINT('',#1218);
#1218 = CARTESIAN_POINT('',(2.95,67.5,106.6));
#1219 = LINE('',#1220,#1221);
#1220 = CARTESIAN_POINT('',(2.95,67.5,106.6));
#1221 = VECTOR('',#1222,1.);
#1222 = DIRECTION('',(-1.,2.22044604925E-16,0.));
#1223 = ORIENTED_EDGE('',*,*,#1224,.T.);
#1224 = EDGE_CURVE('',#1217,#363,#1225,.T.);
#1225 = LINE('',#1226,#1227);
#1226 = CARTESIAN_POINT('',(2.95,67.5,106.6));
#1227 = VECTOR('',#1228,1.);
#1228 = DIRECTION('',(2.22044604925E-16,1.,0.));
#1229 = ORIENTED_EDGE('',*,*,#360,.F.);
#1230 = FACE_BOUND('',#1231,.T.);
#1231 = EDGE_LOOP('',(#1232));
#1232 = ORIENTED_EDGE('',*,*,#1233,.F.);
#1233 = EDGE_CURVE('',#1234,#1234,#1236,.T.);
#1234 = VERTEX_POINT('',#1235);
#1235 = CARTESIAN_POINT('',(1.75,71.,106.6));
#1236 = CIRCLE('',#1237,1.75);
#1237 = AXIS2_PLACEMENT_3D('',#1238,#1239,#1240);
#1238 = CARTESIAN_POINT('',(0.,71.,106.6));
#1239 = DIRECTION('',(0.,0.,1.));
#1240 = DIRECTION('',(1.,0.,-0.));
#1241 = PLANE('',#1242);
#1242 = AXIS2_PLACEMENT_3D('',#1243,#1244,#1245);
#1243 = CARTESIAN_POINT('',(2.95,67.5,106.6));
#1244 = DIRECTION('',(0.,0.,1.));
#1245 = DIRECTION('',(2.22044604925E-16,1.,0.));
#1246 = ADVANCED_FACE('',(#1247),#1265,.F.);
#1247 = FACE_BOUND('',#1248,.F.);
#1248 = EDGE_LOOP('',(#1249,#1250,#1258,#1264));
#1249 = ORIENTED_EDGE('',*,*,#1208,.F.);
#1250 = ORIENTED_EDGE('',*,*,#1251,.T.);
#1251 = EDGE_CURVE('',#1209,#1252,#1254,.T.);
#1252 = VERTEX_POINT('',#1253);
#1253 = CARTESIAN_POINT('',(-2.95,67.5,109.4));
#1254 = LINE('',#1255,#1256);
#1255 = CARTESIAN_POINT('',(-2.95,67.5,106.6));
#1256 = VECTOR('',#1257,1.);
#1257 = DIRECTION('',(0.,0.,1.));
#1258 = ORIENTED_EDGE('',*,*,#1259,.T.);
#1259 = EDGE_CURVE('',#1252,#379,#1260,.T.);
#1260 = LINE('',#1261,#1262);
#1261 = CARTESIAN_POINT('',(-2.95,67.5,109.4));
#1262 = VECTOR('',#1263,1.);
#1263 = DIRECTION('',(2.22044604925E-16,1.,0.));
#1264 = ORIENTED_EDGE('',*,*,#386,.F.);
#1265 = PLANE('',#1266);
#1266 = AXIS2_PLACEMENT_3D('',#1267,#1268,#1269);
#1267 = CARTESIAN_POINT('',(-2.95,67.5,106.6));
#1268 = DIRECTION('',(-1.,2.22044604925E-16,0.));
#1269 = DIRECTION('',(0.,0.,1.));
#1270 = ADVANCED_FACE('',(#1271),#1289,.T.);
#1271 = FACE_BOUND('',#1272,.T.);
#1272 = EDGE_LOOP('',(#1273,#1274,#1282,#1288));
#1273 = ORIENTED_EDGE('',*,*,#1224,.F.);
#1274 = ORIENTED_EDGE('',*,*,#1275,.T.);
#1275 = EDGE_CURVE('',#1217,#1276,#1278,.T.);
#1276 = VERTEX_POINT('',#1277);
#1277 = CARTESIAN_POINT('',(2.95,67.5,109.4));
#1278 = LINE('',#1279,#1280);
#1279 = CARTESIAN_POINT('',(2.95,67.5,106.6));
#1280 = VECTOR('',#1281,1.);
#1281 = DIRECTION('',(0.,0.,1.));
#1282 = ORIENTED_EDGE('',*,*,#1283,.T.);
#1283 = EDGE_CURVE('',#1276,#371,#1284,.T.);
#1284 = LINE('',#1285,#1286);
#1285 = CARTESIAN_POINT('',(2.95,67.5,109.4));
#1286 = VECTOR('',#1287,1.);
#1287 = DIRECTION('',(2.22044604925E-16,1.,0.));
#1288 = ORIENTED_EDGE('',*,*,#370,.F.);
#1289 = PLANE('',#1290);
#1290 = AXIS2_PLACEMENT_3D('',#1291,#1292,#1293);
#1291 = CARTESIAN_POINT('',(2.95,67.5,106.6));
#1292 = DIRECTION('',(-1.,2.22044604925E-16,0.));
#1293 = DIRECTION('',(0.,0.,1.));
#1294 = ADVANCED_FACE('',(#1295,#1306),#1317,.F.);
#1295 = FACE_BOUND('',#1296,.F.);
#1296 = EDGE_LOOP('',(#1297,#1298,#1304,#1305));
#1297 = ORIENTED_EDGE('',*,*,#1259,.F.);
#1298 = ORIENTED_EDGE('',*,*,#1299,.F.);
#1299 = EDGE_CURVE('',#1276,#1252,#1300,.T.);
#1300 = LINE('',#1301,#1302);
#1301 = CARTESIAN_POINT('',(2.95,67.5,109.4));
#1302 = VECTOR('',#1303,1.);
#1303 = DIRECTION('',(-1.,2.22044604925E-16,0.));
#1304 = ORIENTED_EDGE('',*,*,#1283,.T.);
#1305 = ORIENTED_EDGE('',*,*,#378,.F.);
#1306 = FACE_BOUND('',#1307,.F.);
#1307 = EDGE_LOOP('',(#1308));
#1308 = ORIENTED_EDGE('',*,*,#1309,.F.);
#1309 = EDGE_CURVE('',#1310,#1310,#1312,.T.);
#1310 = VERTEX_POINT('',#1311);
#1311 = CARTESIAN_POINT('',(1.75,71.,109.4));
#1312 = CIRCLE('',#1313,1.75);
#1313 = AXIS2_PLACEMENT_3D('',#1314,#1315,#1316);
#1314 = CARTESIAN_POINT('',(0.,71.,109.4));
#1315 = DIRECTION('',(0.,0.,1.));
#1316 = DIRECTION('',(1.,0.,-0.));
#1317 = PLANE('',#1318);
#1318 = AXIS2_PLACEMENT_3D('',#1319,#1320,#1321);
#1319 = CARTESIAN_POINT('',(2.95,67.5,109.4));
#1320 = DIRECTION('',(0.,0.,1.));
#1321 = DIRECTION('',(2.22044604925E-16,1.,0.));
#1322 = ADVANCED_FACE('',(#1323,#1348),#1359,.T.);
#1323 = FACE_BOUND('',#1324,.T.);
#1324 = EDGE_LOOP('',(#1325,#1333,#1341,#1347));
#1325 = ORIENTED_EDGE('',*,*,#1326,.F.);
#1326 = EDGE_CURVE('',#1327,#395,#1329,.T.);
#1327 = VERTEX_POINT('',#1328);
#1328 = CARTESIAN_POINT('',(31.05,67.5,106.6));
#1329 = LINE('',#1330,#1331);
#1330 = CARTESIAN_POINT('',(31.05,67.5,106.6));
#1331 = VECTOR('',#1332,1.);
#1332 = DIRECTION('',(2.22044604925E-16,1.,0.));
#1333 = ORIENTED_EDGE('',*,*,#1334,.F.);
#1334 = EDGE_CURVE('',#1335,#1327,#1337,.T.);
#1335 = VERTEX_POINT('',#1336);
#1336 = CARTESIAN_POINT('',(36.95,67.5,106.6));
#1337 = LINE('',#1338,#1339);
#1338 = CARTESIAN_POINT('',(36.95,67.5,106.6));
#1339 = VECTOR('',#1340,1.);
#1340 = DIRECTION('',(-1.,2.22044604925E-16,0.));
#1341 = ORIENTED_EDGE('',*,*,#1342,.T.);
#1342 = EDGE_CURVE('',#1335,#397,#1343,.T.);
#1343 = LINE('',#1344,#1345);
#1344 = CARTESIAN_POINT('',(36.95,67.5,106.6));
#1345 = VECTOR('',#1346,1.);
#1346 = DIRECTION('',(2.22044604925E-16,1.,0.));
#1347 = ORIENTED_EDGE('',*,*,#394,.F.);
#1348 = FACE_BOUND('',#1349,.T.);
#1349 = EDGE_LOOP('',(#1350));
#1350 = ORIENTED_EDGE('',*,*,#1351,.F.);
#1351 = EDGE_CURVE('',#1352,#1352,#1354,.T.);
#1352 = VERTEX_POINT('',#1353);
#1353 = CARTESIAN_POINT('',(35.75,71.,106.6));
#1354 = CIRCLE('',#1355,1.75);
#1355 = AXIS2_PLACEMENT_3D('',#1356,#1357,#1358);
#1356 = CARTESIAN_POINT('',(34.,71.,106.6));
#1357 = DIRECTION('',(0.,0.,1.));
#1358 = DIRECTION('',(1.,0.,-0.));
#1359 = PLANE('',#1360);
#1360 = AXIS2_PLACEMENT_3D('',#1361,#1362,#1363);
#1361 = CARTESIAN_POINT('',(36.95,67.5,106.6));
#1362 = DIRECTION('',(0.,0.,1.));
#1363 = DIRECTION('',(2.22044604925E-16,1.,0.));
#1364 = ADVANCED_FACE('',(#1365),#1383,.F.);
#1365 = FACE_BOUND('',#1366,.F.);
#1366 = EDGE_LOOP('',(#1367,#1368,#1376,#1382));
#1367 = ORIENTED_EDGE('',*,*,#1326,.F.);
#1368 = ORIENTED_EDGE('',*,*,#1369,.T.);
#1369 = EDGE_CURVE('',#1327,#1370,#1372,.T.);
#1370 = VERTEX_POINT('',#1371);
#1371 = CARTESIAN_POINT('',(31.05,67.5,109.4));
#1372 = LINE('',#1373,#1374);
#1373 = CARTESIAN_POINT('',(31.05,67.5,106.6));
#1374 = VECTOR('',#1375,1.);
#1375 = DIRECTION('',(0.,0.,1.));
#1376 = ORIENTED_EDGE('',*,*,#1377,.T.);
#1377 = EDGE_CURVE('',#1370,#413,#1378,.T.);
#1378 = LINE('',#1379,#1380);
#1379 = CARTESIAN_POINT('',(31.05,67.5,109.4));
#1380 = VECTOR('',#1381,1.);
#1381 = DIRECTION('',(2.22044604925E-16,1.,0.));
#1382 = ORIENTED_EDGE('',*,*,#420,.F.);
#1383 = PLANE('',#1384);
#1384 = AXIS2_PLACEMENT_3D('',#1385,#1386,#1387);
#1385 = CARTESIAN_POINT('',(31.05,67.5,106.6));
#1386 = DIRECTION('',(-1.,2.22044604925E-16,0.));
#1387 = DIRECTION('',(0.,0.,1.));
#1388 = ADVANCED_FACE('',(#1389),#1407,.T.);
#1389 = FACE_BOUND('',#1390,.T.);
#1390 = EDGE_LOOP('',(#1391,#1392,#1400,#1406));
#1391 = ORIENTED_EDGE('',*,*,#1342,.F.);
#1392 = ORIENTED_EDGE('',*,*,#1393,.T.);
#1393 = EDGE_CURVE('',#1335,#1394,#1396,.T.);
#1394 = VERTEX_POINT('',#1395);
#1395 = CARTESIAN_POINT('',(36.95,67.5,109.4));
#1396 = LINE('',#1397,#1398);
#1397 = CARTESIAN_POINT('',(36.95,67.5,106.6));
#1398 = VECTOR('',#1399,1.);
#1399 = DIRECTION('',(0.,0.,1.));
#1400 = ORIENTED_EDGE('',*,*,#1401,.T.);
#1401 = EDGE_CURVE('',#1394,#405,#1402,.T.);
#1402 = LINE('',#1403,#1404);
#1403 = CARTESIAN_POINT('',(36.95,67.5,109.4));
#1404 = VECTOR('',#1405,1.);
#1405 = DIRECTION('',(2.22044604925E-16,1.,0.));
#1406 = ORIENTED_EDGE('',*,*,#404,.F.);
#1407 = PLANE('',#1408);
#1408 = AXIS2_PLACEMENT_3D('',#1409,#1410,#1411);
#1409 = CARTESIAN_POINT('',(36.95,67.5,106.6));
#1410 = DIRECTION('',(-1.,2.22044604925E-16,0.));
#1411 = DIRECTION('',(0.,0.,1.));
#1412 = ADVANCED_FACE('',(#1413,#1424),#1435,.F.);
#1413 = FACE_BOUND('',#1414,.F.);
#1414 = EDGE_LOOP('',(#1415,#1416,#1422,#1423));
#1415 = ORIENTED_EDGE('',*,*,#1377,.F.);
#1416 = ORIENTED_EDGE('',*,*,#1417,.F.);
#1417 = EDGE_CURVE('',#1394,#1370,#1418,.T.);
#1418 = LINE('',#1419,#1420);
#1419 = CARTESIAN_POINT('',(36.95,67.5,109.4));
#1420 = VECTOR('',#1421,1.);
#1421 = DIRECTION('',(-1.,2.22044604925E-16,0.));
#1422 = ORIENTED_EDGE('',*,*,#1401,.T.);
#1423 = ORIENTED_EDGE('',*,*,#412,.F.);
#1424 = FACE_BOUND('',#1425,.F.);
#1425 = EDGE_LOOP('',(#1426));
#1426 = ORIENTED_EDGE('',*,*,#1427,.F.);
#1427 = EDGE_CURVE('',#1428,#1428,#1430,.T.);
#1428 = VERTEX_POINT('',#1429);
#1429 = CARTESIAN_POINT('',(35.75,71.,109.4));
#1430 = CIRCLE('',#1431,1.75);
#1431 = AXIS2_PLACEMENT_3D('',#1432,#1433,#1434);
#1432 = CARTESIAN_POINT('',(34.,71.,109.4));
#1433 = DIRECTION('',(0.,0.,1.));
#1434 = DIRECTION('',(1.,0.,-0.));
#1435 = PLANE('',#1436);
#1436 = AXIS2_PLACEMENT_3D('',#1437,#1438,#1439);
#1437 = CARTESIAN_POINT('',(36.95,67.5,109.4));
#1438 = DIRECTION('',(0.,0.,1.));
#1439 = DIRECTION('',(2.22044604925E-16,1.,0.));
#1440 = ADVANCED_FACE('',(#1441),#1460,.F.);
#1441 = FACE_BOUND('',#1442,.F.);
#1442 = EDGE_LOOP('',(#1443,#1451,#1452,#1453));
#1443 = ORIENTED_EDGE('',*,*,#1444,.T.);
#1444 = EDGE_CURVE('',#1445,#429,#1447,.T.);
#1445 = VERTEX_POINT('',#1446);
#1446 = CARTESIAN_POINT('',(-3.989419162443,73.4,190.5));
#1447 = LINE('',#1448,#1449);
#1448 = CARTESIAN_POINT('',(-3.989419162443,59.,190.5));
#1449 = VECTOR('',#1450,1.);
#1450 = DIRECTION('',(0.,1.,0.));
#1451 = ORIENTED_EDGE('',*,*,#428,.F.);
#1452 = ORIENTED_EDGE('',*,*,#1444,.F.);
#1453 = ORIENTED_EDGE('',*,*,#1454,.T.);
#1454 = EDGE_CURVE('',#1445,#1445,#1455,.T.);
#1455 = CIRCLE('',#1456,1.75);
#1456 = AXIS2_PLACEMENT_3D('',#1457,#1458,#1459);
#1457 = CARTESIAN_POINT('',(-3.989419162443,73.4,188.75));
#1458 = DIRECTION('',(0.,1.,0.));
#1459 = DIRECTION('',(0.,-0.,1.));
#1460 = CYLINDRICAL_SURFACE('',#1461,1.75);
#1461 = AXIS2_PLACEMENT_3D('',#1462,#1463,#1464);
#1462 = CARTESIAN_POINT('',(-3.989419162443,59.,188.75));
#1463 = DIRECTION('',(0.,1.,0.));
#1464 = DIRECTION('',(0.,-0.,1.));
#1465 = ADVANCED_FACE('',(#1466),#1485,.F.);
#1466 = FACE_BOUND('',#1467,.F.);
#1467 = EDGE_LOOP('',(#1468,#1476,#1483,#1484));
#1468 = ORIENTED_EDGE('',*,*,#1469,.T.);
#1469 = EDGE_CURVE('',#440,#1470,#1472,.T.);
#1470 = VERTEX_POINT('',#1471);
#1471 = CARTESIAN_POINT('',(10.3,72.7,185.85));
#1472 = LINE('',#1473,#1474);
#1473 = CARTESIAN_POINT('',(10.3,80.1,185.85));
#1474 = VECTOR('',#1475,1.);
#1475 = DIRECTION('',(0.,-1.,0.));
#1476 = ORIENTED_EDGE('',*,*,#1477,.F.);
#1477 = EDGE_CURVE('',#1470,#1470,#1478,.T.);
#1478 = CIRCLE('',#1479,11.15);
#1479 = AXIS2_PLACEMENT_3D('',#1480,#1481,#1482);
#1480 = CARTESIAN_POINT('',(10.3,72.7,197.));
#1481 = DIRECTION('',(0.,-1.,0.));
#1482 = DIRECTION('',(0.,-0.,-1.));
#1483 = ORIENTED_EDGE('',*,*,#1469,.F.);
#1484 = ORIENTED_EDGE('',*,*,#439,.T.);
#1485 = CYLINDRICAL_SURFACE('',#1486,11.15);
#1486 = AXIS2_PLACEMENT_3D('',#1487,#1488,#1489);
#1487 = CARTESIAN_POINT('',(10.3,80.1,197.));
#1488 = DIRECTION('',(0.,-1.,0.));
#1489 = DIRECTION('',(0.,-0.,-1.));
#1490 = ADVANCED_FACE('',(#1491),#1510,.F.);
#1491 = FACE_BOUND('',#1492,.F.);
#1492 = EDGE_LOOP('',(#1493,#1501,#1502,#1503));
#1493 = ORIENTED_EDGE('',*,*,#1494,.T.);
#1494 = EDGE_CURVE('',#1495,#451,#1497,.T.);
#1495 = VERTEX_POINT('',#1496);
#1496 = CARTESIAN_POINT('',(10.3,73.4,215.25));
#1497 = LINE('',#1498,#1499);
#1498 = CARTESIAN_POINT('',(10.3,59.,215.25));
#1499 = VECTOR('',#1500,1.);
#1500 = DIRECTION('',(0.,1.,0.));
#1501 = ORIENTED_EDGE('',*,*,#450,.F.);
#1502 = ORIENTED_EDGE('',*,*,#1494,.F.);
#1503 = ORIENTED_EDGE('',*,*,#1504,.T.);
#1504 = EDGE_CURVE('',#1495,#1495,#1505,.T.);
#1505 = CIRCLE('',#1506,1.75);
#1506 = AXIS2_PLACEMENT_3D('',#1507,#1508,#1509);
#1507 = CARTESIAN_POINT('',(10.3,73.4,213.5));
#1508 = DIRECTION('',(0.,1.,0.));
#1509 = DIRECTION('',(0.,-0.,1.));
#1510 = CYLINDRICAL_SURFACE('',#1511,1.75);
#1511 = AXIS2_PLACEMENT_3D('',#1512,#1513,#1514);
#1512 = CARTESIAN_POINT('',(10.3,59.,213.5));
#1513 = DIRECTION('',(0.,1.,0.));
#1514 = DIRECTION('',(0.,-0.,1.));
#1515 = ADVANCED_FACE('',(#1516),#1535,.F.);
#1516 = FACE_BOUND('',#1517,.F.);
#1517 = EDGE_LOOP('',(#1518,#1526,#1527,#1528));
#1518 = ORIENTED_EDGE('',*,*,#1519,.T.);
#1519 = EDGE_CURVE('',#1520,#462,#1522,.T.);
#1520 = VERTEX_POINT('',#1521);
#1521 = CARTESIAN_POINT('',(24.589419162443,73.4,190.5));
#1522 = LINE('',#1523,#1524);
#1523 = CARTESIAN_POINT('',(24.589419162443,59.,190.5));
#1524 = VECTOR('',#1525,1.);
#1525 = DIRECTION('',(0.,1.,0.));
#1526 = ORIENTED_EDGE('',*,*,#461,.F.);
#1527 = ORIENTED_EDGE('',*,*,#1519,.F.);
#1528 = ORIENTED_EDGE('',*,*,#1529,.T.);
#1529 = EDGE_CURVE('',#1520,#1520,#1530,.T.);
#1530 = CIRCLE('',#1531,1.75);
#1531 = AXIS2_PLACEMENT_3D('',#1532,#1533,#1534);
#1532 = CARTESIAN_POINT('',(24.589419162443,73.4,188.75));
#1533 = DIRECTION('',(0.,1.,0.));
#1534 = DIRECTION('',(0.,-0.,1.));
#1535 = CYLINDRICAL_SURFACE('',#1536,1.75);
#1536 = AXIS2_PLACEMENT_3D('',#1537,#1538,#1539);
#1537 = CARTESIAN_POINT('',(24.589419162443,59.,188.75));
#1538 = DIRECTION('',(0.,1.,0.));
#1539 = DIRECTION('',(0.,-0.,1.));
#1540 = ADVANCED_FACE('',(#1541),#1566,.F.);
#1541 = FACE_BOUND('',#1542,.F.);
#1542 = EDGE_LOOP('',(#1543,#1553,#1559,#1560));
#1543 = ORIENTED_EDGE('',*,*,#1544,.F.);
#1544 = EDGE_CURVE('',#1545,#1547,#1549,.T.);
#1545 = VERTEX_POINT('',#1546);
#1546 = CARTESIAN_POINT('',(-56.,67.,98.));
#1547 = VERTEX_POINT('',#1548);
#1548 = CARTESIAN_POINT('',(32.,67.,98.));
#1549 = LINE('',#1550,#1551);
#1550 = CARTESIAN_POINT('',(-56.,67.,98.));
#1551 = VECTOR('',#1552,1.);
#1552 = DIRECTION('',(1.,0.,-0.));
#1553 = ORIENTED_EDGE('',*,*,#1554,.T.);
#1554 = EDGE_CURVE('',#1545,#490,#1555,.T.);
#1555 = LINE('',#1556,#1557);
#1556 = CARTESIAN_POINT('',(-56.,67.,98.));
#1557 = VECTOR('',#1558,1.);
#1558 = DIRECTION('',(0.,0.,1.));
#1559 = ORIENTED_EDGE('',*,*,#489,.T.);
#1560 = ORIENTED_EDGE('',*,*,#1561,.F.);
#1561 = EDGE_CURVE('',#1547,#492,#1562,.T.);
#1562 = LINE('',#1563,#1564);
#1563 = CARTESIAN_POINT('',(32.,67.,98.));
#1564 = VECTOR('',#1565,1.);
#1565 = DIRECTION('',(0.,0.,1.));
#1566 = PLANE('',#1567);
#1567 = AXIS2_PLACEMENT_3D('',#1568,#1569,#1570);
#1568 = CARTESIAN_POINT('',(-56.,67.,98.));
#1569 = DIRECTION('',(-0.,1.,0.));
#1570 = DIRECTION('',(0.,0.,1.));
#1571 = ADVANCED_FACE('',(#1572),#1590,.F.);
#1572 = FACE_BOUND('',#1573,.F.);
#1573 = EDGE_LOOP('',(#1574,#1575,#1583,#1589));
#1574 = ORIENTED_EDGE('',*,*,#1554,.F.);
#1575 = ORIENTED_EDGE('',*,*,#1576,.T.);
#1576 = EDGE_CURVE('',#1545,#1577,#1579,.T.);
#1577 = VERTEX_POINT('',#1578);
#1578 = CARTESIAN_POINT('',(-56.,75.,98.));
#1579 = LINE('',#1580,#1581);
#1580 = CARTESIAN_POINT('',(-56.,67.,98.));
#1581 = VECTOR('',#1582,1.);
#1582 = DIRECTION('',(-0.,1.,0.));
#1583 = ORIENTED_EDGE('',*,*,#1584,.T.);
#1584 = EDGE_CURVE('',#1577,#500,#1585,.T.);
#1585 = LINE('',#1586,#1587);
#1586 = CARTESIAN_POINT('',(-56.,75.,98.));
#1587 = VECTOR('',#1588,1.);
#1588 = DIRECTION('',(0.,0.,1.));
#1589 = ORIENTED_EDGE('',*,*,#499,.F.);
#1590 = PLANE('',#1591);
#1591 = AXIS2_PLACEMENT_3D('',#1592,#1593,#1594);
#1592 = CARTESIAN_POINT('',(-56.,67.,98.));
#1593 = DIRECTION('',(1.,0.,-0.));
#1594 = DIRECTION('',(0.,0.,1.));
#1595 = ADVANCED_FACE('',(#1596),#1614,.T.);
#1596 = FACE_BOUND('',#1597,.T.);
#1597 = EDGE_LOOP('',(#1598,#1599,#1607,#1613));
#1598 = ORIENTED_EDGE('',*,*,#1561,.F.);
#1599 = ORIENTED_EDGE('',*,*,#1600,.T.);
#1600 = EDGE_CURVE('',#1547,#1601,#1603,.T.);
#1601 = VERTEX_POINT('',#1602);
#1602 = CARTESIAN_POINT('',(32.,75.,98.));
#1603 = LINE('',#1604,#1605);
#1604 = CARTESIAN_POINT('',(32.,67.,98.));
#1605 = VECTOR('',#1606,1.);
#1606 = DIRECTION('',(-0.,1.,0.));
#1607 = ORIENTED_EDGE('',*,*,#1608,.T.);
#1608 = EDGE_CURVE('',#1601,#508,#1609,.T.);
#1609 = LINE('',#1610,#1611);
#1610 = CARTESIAN_POINT('',(32.,75.,98.));
#1611 = VECTOR('',#1612,1.);
#1612 = DIRECTION('',(0.,0.,1.));
#1613 = ORIENTED_EDGE('',*,*,#515,.F.);
#1614 = PLANE('',#1615);
#1615 = AXIS2_PLACEMENT_3D('',#1616,#1617,#1618);
#1616 = CARTESIAN_POINT('',(32.,67.,98.));
#1617 = DIRECTION('',(1.,0.,-0.));
#1618 = DIRECTION('',(0.,0.,1.));
#1619 = ADVANCED_FACE('',(#1620),#1631,.T.);
#1620 = FACE_BOUND('',#1621,.T.);
#1621 = EDGE_LOOP('',(#1622,#1628,#1629,#1630));
#1622 = ORIENTED_EDGE('',*,*,#1623,.F.);
#1623 = EDGE_CURVE('',#1577,#1601,#1624,.T.);
#1624 = LINE('',#1625,#1626);
#1625 = CARTESIAN_POINT('',(-56.,75.,98.));
#1626 = VECTOR('',#1627,1.);
#1627 = DIRECTION('',(1.,0.,-0.));
#1628 = ORIENTED_EDGE('',*,*,#1584,.T.);
#1629 = ORIENTED_EDGE('',*,*,#507,.T.);
#1630 = ORIENTED_EDGE('',*,*,#1608,.F.);
#1631 = PLANE('',#1632);
#1632 = AXIS2_PLACEMENT_3D('',#1633,#1634,#1635);
#1633 = CARTESIAN_POINT('',(-56.,75.,98.));
#1634 = DIRECTION('',(-0.,1.,0.));
#1635 = DIRECTION('',(0.,0.,1.));
#1636 = ADVANCED_FACE('',(#1637),#1648,.F.);
#1637 = FACE_BOUND('',#1638,.F.);
#1638 = EDGE_LOOP('',(#1639,#1640,#1646,#1647));
#1639 = ORIENTED_EDGE('',*,*,#523,.T.);
#1640 = ORIENTED_EDGE('',*,*,#1641,.T.);
#1641 = EDGE_CURVE('',#524,#1352,#1642,.T.);
#1642 = LINE('',#1643,#1644);
#1643 = CARTESIAN_POINT('',(35.75,71.,97.));
#1644 = VECTOR('',#1645,1.);
#1645 = DIRECTION('',(0.,0.,1.));
#1646 = ORIENTED_EDGE('',*,*,#1351,.F.);
#1647 = ORIENTED_EDGE('',*,*,#1641,.F.);
#1648 = CYLINDRICAL_SURFACE('',#1649,1.75);
#1649 = AXIS2_PLACEMENT_3D('',#1650,#1651,#1652);
#1650 = CARTESIAN_POINT('',(34.,71.,97.));
#1651 = DIRECTION('',(0.,0.,1.));
#1652 = DIRECTION('',(1.,0.,-0.));
#1653 = ADVANCED_FACE('',(#1654),#1671,.T.);
#1654 = FACE_BOUND('',#1655,.T.);
#1655 = EDGE_LOOP('',(#1656,#1657,#1658,#1659,#1660,#1661,#1662,#1663,
    #1664,#1665,#1666,#1667,#1668,#1669,#1670));
#1656 = ORIENTED_EDGE('',*,*,#1073,.T.);
#1657 = ORIENTED_EDGE('',*,*,#1001,.F.);
#1658 = ORIENTED_EDGE('',*,*,#918,.T.);
#1659 = ORIENTED_EDGE('',*,*,#902,.F.);
#1660 = ORIENTED_EDGE('',*,*,#620,.F.);
#1661 = ORIENTED_EDGE('',*,*,#612,.T.);
#1662 = ORIENTED_EDGE('',*,*,#604,.T.);
#1663 = ORIENTED_EDGE('',*,*,#664,.T.);
#1664 = ORIENTED_EDGE('',*,*,#689,.T.);
#1665 = ORIENTED_EDGE('',*,*,#713,.T.);
#1666 = ORIENTED_EDGE('',*,*,#738,.F.);
#1667 = ORIENTED_EDGE('',*,*,#842,.T.);
#1668 = ORIENTED_EDGE('',*,*,#833,.T.);
#1669 = ORIENTED_EDGE('',*,*,#952,.F.);
#1670 = ORIENTED_EDGE('',*,*,#1026,.T.);
#1671 = PLANE('',#1672);
#1672 = AXIS2_PLACEMENT_3D('',#1673,#1674,#1675);
#1673 = CARTESIAN_POINT('',(-25.69612547244,66.,147.93299480386));
#1674 = DIRECTION('',(-0.,-1.,-0.));
#1675 = DIRECTION('',(0.,0.,-1.));
#1676 = ADVANCED_FACE('',(#1677),#1688,.F.);
#1677 = FACE_BOUND('',#1678,.F.);
#1678 = EDGE_LOOP('',(#1679,#1680,#1686,#1687));
#1679 = ORIENTED_EDGE('',*,*,#1309,.T.);
#1680 = ORIENTED_EDGE('',*,*,#1681,.T.);
#1681 = EDGE_CURVE('',#1310,#637,#1682,.T.);
#1682 = LINE('',#1683,#1684);
#1683 = CARTESIAN_POINT('',(1.75,71.,97.));
#1684 = VECTOR('',#1685,1.);
#1685 = DIRECTION('',(0.,0.,1.));
#1686 = ORIENTED_EDGE('',*,*,#636,.F.);
#1687 = ORIENTED_EDGE('',*,*,#1681,.F.);
#1688 = CYLINDRICAL_SURFACE('',#1689,1.75);
#1689 = AXIS2_PLACEMENT_3D('',#1690,#1691,#1692);
#1690 = CARTESIAN_POINT('',(0.,71.,97.));
#1691 = DIRECTION('',(0.,0.,1.));
#1692 = DIRECTION('',(1.,0.,-0.));
#1693 = ADVANCED_FACE('',(#1694),#1705,.F.);
#1694 = FACE_BOUND('',#1695,.F.);
#1695 = EDGE_LOOP('',(#1696,#1697,#1703,#1704));
#1696 = ORIENTED_EDGE('',*,*,#1427,.T.);
#1697 = ORIENTED_EDGE('',*,*,#1698,.T.);
#1698 = EDGE_CURVE('',#1428,#648,#1699,.T.);
#1699 = LINE('',#1700,#1701);
#1700 = CARTESIAN_POINT('',(35.75,71.,97.));
#1701 = VECTOR('',#1702,1.);
#1702 = DIRECTION('',(0.,0.,1.));
#1703 = ORIENTED_EDGE('',*,*,#647,.F.);
#1704 = ORIENTED_EDGE('',*,*,#1698,.F.);
#1705 = CYLINDRICAL_SURFACE('',#1706,1.75);
#1706 = AXIS2_PLACEMENT_3D('',#1707,#1708,#1709);
#1707 = CARTESIAN_POINT('',(34.,71.,97.));
#1708 = DIRECTION('',(0.,0.,1.));
#1709 = DIRECTION('',(1.,0.,-0.));
#1710 = ADVANCED_FACE('',(#1711,#1737),#1740,.F.);
#1711 = FACE_BOUND('',#1712,.F.);
#1712 = EDGE_LOOP('',(#1713,#1721,#1729,#1735,#1736));
#1713 = ORIENTED_EDGE('',*,*,#1714,.F.);
#1714 = EDGE_CURVE('',#1715,#758,#1717,.T.);
#1715 = VERTEX_POINT('',#1716);
#1716 = CARTESIAN_POINT('',(13.25,73.4,210.));
#1717 = LINE('',#1718,#1719);
#1718 = CARTESIAN_POINT('',(13.25,73.4,210.));
#1719 = VECTOR('',#1720,1.);
#1720 = DIRECTION('',(0.,0.,1.));
#1721 = ORIENTED_EDGE('',*,*,#1722,.F.);
#1722 = EDGE_CURVE('',#1723,#1715,#1725,.T.);
#1723 = VERTEX_POINT('',#1724);
#1724 = CARTESIAN_POINT('',(7.35,73.4,210.));
#1725 = LINE('',#1726,#1727);
#1726 = CARTESIAN_POINT('',(7.35,73.4,210.));
#1727 = VECTOR('',#1728,1.);
#1728 = DIRECTION('',(1.,0.,0.));
#1729 = ORIENTED_EDGE('',*,*,#1730,.T.);
#1730 = EDGE_CURVE('',#1723,#809,#1731,.T.);
#1731 = LINE('',#1732,#1733);
#1732 = CARTESIAN_POINT('',(7.35,73.4,210.));
#1733 = VECTOR('',#1734,1.);
#1734 = DIRECTION('',(0.,0.,1.));
#1735 = ORIENTED_EDGE('',*,*,#816,.T.);
#1736 = ORIENTED_EDGE('',*,*,#757,.T.);
#1737 = FACE_BOUND('',#1738,.F.);
#1738 = EDGE_LOOP('',(#1739));
#1739 = ORIENTED_EDGE('',*,*,#1504,.F.);
#1740 = PLANE('',#1741);
#1741 = AXIS2_PLACEMENT_3D('',#1742,#1743,#1744);
#1742 = CARTESIAN_POINT('',(7.35,73.4,210.));
#1743 = DIRECTION('',(0.,1.,0.));
#1744 = DIRECTION('',(0.,0.,1.));
#1745 = ADVANCED_FACE('',(#1746),#1764,.T.);
#1746 = FACE_BOUND('',#1747,.T.);
#1747 = EDGE_LOOP('',(#1748,#1756,#1762,#1763));
#1748 = ORIENTED_EDGE('',*,*,#1749,.F.);
#1749 = EDGE_CURVE('',#1750,#800,#1752,.T.);
#1750 = VERTEX_POINT('',#1751);
#1751 = CARTESIAN_POINT('',(7.35,70.6,210.));
#1752 = LINE('',#1753,#1754);
#1753 = CARTESIAN_POINT('',(7.35,70.6,210.));
#1754 = VECTOR('',#1755,1.);
#1755 = DIRECTION('',(0.,0.,1.));
#1756 = ORIENTED_EDGE('',*,*,#1757,.T.);
#1757 = EDGE_CURVE('',#1750,#1723,#1758,.T.);
#1758 = LINE('',#1759,#1760);
#1759 = CARTESIAN_POINT('',(7.35,70.6,210.));
#1760 = VECTOR('',#1761,1.);
#1761 = DIRECTION('',(0.,1.,0.));
#1762 = ORIENTED_EDGE('',*,*,#1730,.T.);
#1763 = ORIENTED_EDGE('',*,*,#808,.F.);
#1764 = PLANE('',#1765);
#1765 = AXIS2_PLACEMENT_3D('',#1766,#1767,#1768);
#1766 = CARTESIAN_POINT('',(7.35,70.6,210.));
#1767 = DIRECTION('',(1.,0.,0.));
#1768 = DIRECTION('',(0.,1.,0.));
#1769 = ADVANCED_FACE('',(#1770,#1789),#1800,.T.);
#1770 = FACE_BOUND('',#1771,.T.);
#1771 = EDGE_LOOP('',(#1772,#1780,#1786,#1787,#1788));
#1772 = ORIENTED_EDGE('',*,*,#1773,.F.);
#1773 = EDGE_CURVE('',#1774,#767,#1776,.T.);
#1774 = VERTEX_POINT('',#1775);
#1775 = CARTESIAN_POINT('',(13.25,70.6,210.));
#1776 = LINE('',#1777,#1778);
#1777 = CARTESIAN_POINT('',(13.25,70.6,210.));
#1778 = VECTOR('',#1779,1.);
#1779 = DIRECTION('',(0.,0.,1.));
#1780 = ORIENTED_EDGE('',*,*,#1781,.F.);
#1781 = EDGE_CURVE('',#1750,#1774,#1782,.T.);
#1782 = LINE('',#1783,#1784);
#1783 = CARTESIAN_POINT('',(7.35,70.6,210.));
#1784 = VECTOR('',#1785,1.);
#1785 = DIRECTION('',(1.,0.,0.));
#1786 = ORIENTED_EDGE('',*,*,#1749,.T.);
#1787 = ORIENTED_EDGE('',*,*,#799,.T.);
#1788 = ORIENTED_EDGE('',*,*,#774,.T.);
#1789 = FACE_BOUND('',#1790,.T.);
#1790 = EDGE_LOOP('',(#1791));
#1791 = ORIENTED_EDGE('',*,*,#1792,.F.);
#1792 = EDGE_CURVE('',#1793,#1793,#1795,.T.);
#1793 = VERTEX_POINT('',#1794);
#1794 = CARTESIAN_POINT('',(10.3,70.6,215.25));
#1795 = CIRCLE('',#1796,1.75);
#1796 = AXIS2_PLACEMENT_3D('',#1797,#1798,#1799);
#1797 = CARTESIAN_POINT('',(10.3,70.6,213.5));
#1798 = DIRECTION('',(0.,1.,0.));
#1799 = DIRECTION('',(0.,-0.,1.));
#1800 = PLANE('',#1801);
#1801 = AXIS2_PLACEMENT_3D('',#1802,#1803,#1804);
#1802 = CARTESIAN_POINT('',(7.35,70.6,210.));
#1803 = DIRECTION('',(0.,1.,0.));
#1804 = DIRECTION('',(0.,0.,1.));
#1805 = ADVANCED_FACE('',(#1806,#1809,#1820,#1831,#1842),#1853,.F.);
#1806 = FACE_BOUND('',#1807,.F.);
#1807 = EDGE_LOOP('',(#1808));
#1808 = ORIENTED_EDGE('',*,*,#791,.T.);
#1809 = FACE_BOUND('',#1810,.F.);
#1810 = EDGE_LOOP('',(#1811));
#1811 = ORIENTED_EDGE('',*,*,#1812,.F.);
#1812 = EDGE_CURVE('',#1813,#1813,#1815,.T.);
#1813 = VERTEX_POINT('',#1814);
#1814 = CARTESIAN_POINT('',(-3.989419162443,63.,190.5));
#1815 = CIRCLE('',#1816,1.75);
#1816 = AXIS2_PLACEMENT_3D('',#1817,#1818,#1819);
#1817 = CARTESIAN_POINT('',(-3.989419162443,63.,188.75));
#1818 = DIRECTION('',(0.,1.,0.));
#1819 = DIRECTION('',(0.,-0.,1.));
#1820 = FACE_BOUND('',#1821,.F.);
#1821 = EDGE_LOOP('',(#1822));
#1822 = ORIENTED_EDGE('',*,*,#1823,.F.);
#1823 = EDGE_CURVE('',#1824,#1824,#1826,.T.);
#1824 = VERTEX_POINT('',#1825);
#1825 = CARTESIAN_POINT('',(10.3,63.,204.5));
#1826 = CIRCLE('',#1827,7.5);
#1827 = AXIS2_PLACEMENT_3D('',#1828,#1829,#1830);
#1828 = CARTESIAN_POINT('',(10.3,63.,197.));
#1829 = DIRECTION('',(0.,1.,0.));
#1830 = DIRECTION('',(0.,-0.,1.));
#1831 = FACE_BOUND('',#1832,.F.);
#1832 = EDGE_LOOP('',(#1833));
#1833 = ORIENTED_EDGE('',*,*,#1834,.F.);
#1834 = EDGE_CURVE('',#1835,#1835,#1837,.T.);
#1835 = VERTEX_POINT('',#1836);
#1836 = CARTESIAN_POINT('',(24.589419162443,63.,190.5));
#1837 = CIRCLE('',#1838,1.75);
#1838 = AXIS2_PLACEMENT_3D('',#1839,#1840,#1841);
#1839 = CARTESIAN_POINT('',(24.589419162443,63.,188.75));
#1840 = DIRECTION('',(0.,1.,0.));
#1841 = DIRECTION('',(0.,-0.,1.));
#1842 = FACE_BOUND('',#1843,.F.);
#1843 = EDGE_LOOP('',(#1844));
#1844 = ORIENTED_EDGE('',*,*,#1845,.F.);
#1845 = EDGE_CURVE('',#1846,#1846,#1848,.T.);
#1846 = VERTEX_POINT('',#1847);
#1847 = CARTESIAN_POINT('',(10.3,63.,215.25));
#1848 = CIRCLE('',#1849,1.75);
#1849 = AXIS2_PLACEMENT_3D('',#1850,#1851,#1852);
#1850 = CARTESIAN_POINT('',(10.3,63.,213.5));
#1851 = DIRECTION('',(0.,1.,0.));
#1852 = DIRECTION('',(0.,-0.,1.));
#1853 = PLANE('',#1854);
#1854 = AXIS2_PLACEMENT_3D('',#1855,#1856,#1857);
#1855 = CARTESIAN_POINT('',(10.3,63.,197.));
#1856 = DIRECTION('',(0.,1.,0.));
#1857 = DIRECTION('',(0.,-0.,1.));
#1858 = ADVANCED_FACE('',(#1859),#1870,.F.);
#1859 = FACE_BOUND('',#1860,.F.);
#1860 = EDGE_LOOP('',(#1861,#1862,#1868,#1869));
#1861 = ORIENTED_EDGE('',*,*,#1773,.F.);
#1862 = ORIENTED_EDGE('',*,*,#1863,.T.);
#1863 = EDGE_CURVE('',#1774,#1715,#1864,.T.);
#1864 = LINE('',#1865,#1866);
#1865 = CARTESIAN_POINT('',(13.25,70.6,210.));
#1866 = VECTOR('',#1867,1.);
#1867 = DIRECTION('',(0.,1.,0.));
#1868 = ORIENTED_EDGE('',*,*,#1714,.T.);
#1869 = ORIENTED_EDGE('',*,*,#766,.F.);
#1870 = PLANE('',#1871);
#1871 = AXIS2_PLACEMENT_3D('',#1872,#1873,#1874);
#1872 = CARTESIAN_POINT('',(13.25,70.6,210.));
#1873 = DIRECTION('',(1.,0.,0.));
#1874 = DIRECTION('',(0.,1.,0.));
#1875 = ADVANCED_FACE('',(#1876,#1901),#1912,.T.);
#1876 = FACE_BOUND('',#1877,.T.);
#1877 = EDGE_LOOP('',(#1878,#1886,#1894,#1900));
#1878 = ORIENTED_EDGE('',*,*,#1879,.F.);
#1879 = EDGE_CURVE('',#1880,#854,#1882,.T.);
#1880 = VERTEX_POINT('',#1881);
#1881 = CARTESIAN_POINT('',(20.083330249198,70.6,187.94522505883));
#1882 = LINE('',#1883,#1884);
#1883 = CARTESIAN_POINT('',(20.083330249198,70.6,187.94522505883));
#1884 = VECTOR('',#1885,1.);
#1885 = DIRECTION('',(0.866025403784,5.551115123126E-17,-0.5));
#1886 = ORIENTED_EDGE('',*,*,#1887,.F.);
#1887 = EDGE_CURVE('',#1888,#1880,#1890,.T.);
#1888 = VERTEX_POINT('',#1889);
#1889 = CARTESIAN_POINT('',(23.033330249198,70.6,193.05477494116));
#1890 = LINE('',#1891,#1892);
#1891 = CARTESIAN_POINT('',(23.033330249198,70.6,193.05477494116));
#1892 = VECTOR('',#1893,1.);
#1893 = DIRECTION('',(-0.5,2.22044604925E-16,-0.866025403784));
#1894 = ORIENTED_EDGE('',*,*,#1895,.T.);
#1895 = EDGE_CURVE('',#1888,#852,#1896,.T.);
#1896 = LINE('',#1897,#1898);
#1897 = CARTESIAN_POINT('',(23.033330249198,70.6,193.05477494116));
#1898 = VECTOR('',#1899,1.);
#1899 = DIRECTION('',(0.866025403784,5.551115123126E-17,-0.5));
#1900 = ORIENTED_EDGE('',*,*,#851,.T.);
#1901 = FACE_BOUND('',#1902,.T.);
#1902 = EDGE_LOOP('',(#1903));
#1903 = ORIENTED_EDGE('',*,*,#1904,.F.);
#1904 = EDGE_CURVE('',#1905,#1905,#1907,.T.);
#1905 = VERTEX_POINT('',#1906);
#1906 = CARTESIAN_POINT('',(24.589419162443,70.6,190.5));
#1907 = CIRCLE('',#1908,1.75);
#1908 = AXIS2_PLACEMENT_3D('',#1909,#1910,#1911);
#1909 = CARTESIAN_POINT('',(24.589419162443,70.6,188.75));
#1910 = DIRECTION('',(0.,1.,0.));
#1911 = DIRECTION('',(0.,-0.,1.));
#1912 = PLANE('',#1913);
#1913 = AXIS2_PLACEMENT_3D('',#1914,#1915,#1916);
#1914 = CARTESIAN_POINT('',(23.033330249198,70.6,193.05477494116));
#1915 = DIRECTION('',(6.294823530293E-17,1.,2.20051844254E-16));
#1916 = DIRECTION('',(0.866025403784,5.551115123126E-17,-0.5));
#1917 = ADVANCED_FACE('',(#1918),#1936,.F.);
#1918 = FACE_BOUND('',#1919,.F.);
#1919 = EDGE_LOOP('',(#1920,#1921,#1929,#1935));
#1920 = ORIENTED_EDGE('',*,*,#1879,.F.);
#1921 = ORIENTED_EDGE('',*,*,#1922,.T.);
#1922 = EDGE_CURVE('',#1880,#1923,#1925,.T.);
#1923 = VERTEX_POINT('',#1924);
#1924 = CARTESIAN_POINT('',(20.083330249198,73.4,187.94522505883));
#1925 = LINE('',#1926,#1927);
#1926 = CARTESIAN_POINT('',(20.083330249198,70.6,187.94522505883));
#1927 = VECTOR('',#1928,1.);
#1928 = DIRECTION('',(6.294823530293E-17,1.,2.20051844254E-16));
#1929 = ORIENTED_EDGE('',*,*,#1930,.T.);
#1930 = EDGE_CURVE('',#1923,#871,#1931,.T.);
#1931 = LINE('',#1932,#1933);
#1932 = CARTESIAN_POINT('',(20.083330249198,73.4,187.94522505883));
#1933 = VECTOR('',#1934,1.);
#1934 = DIRECTION('',(0.866025403784,5.551115123126E-17,-0.5));
#1935 = ORIENTED_EDGE('',*,*,#879,.F.);
#1936 = PLANE('',#1937);
#1937 = AXIS2_PLACEMENT_3D('',#1938,#1939,#1940);
#1938 = CARTESIAN_POINT('',(20.083330249198,70.6,187.94522505883));
#1939 = DIRECTION('',(-0.5,2.22044604925E-16,-0.866025403784));
#1940 = DIRECTION('',(6.294823530293E-17,1.,2.20051844254E-16));
#1941 = ADVANCED_FACE('',(#1942,#1960),#1963,.F.);
#1942 = FACE_BOUND('',#1943,.F.);
#1943 = EDGE_LOOP('',(#1944,#1945,#1953,#1959));
#1944 = ORIENTED_EDGE('',*,*,#1930,.F.);
#1945 = ORIENTED_EDGE('',*,*,#1946,.F.);
#1946 = EDGE_CURVE('',#1947,#1923,#1949,.T.);
#1947 = VERTEX_POINT('',#1948);
#1948 = CARTESIAN_POINT('',(23.033330249198,73.4,193.05477494116));
#1949 = LINE('',#1950,#1951);
#1950 = CARTESIAN_POINT('',(23.033330249198,73.4,193.05477494116));
#1951 = VECTOR('',#1952,1.);
#1952 = DIRECTION('',(-0.5,2.22044604925E-16,-0.866025403784));
#1953 = ORIENTED_EDGE('',*,*,#1954,.T.);
#1954 = EDGE_CURVE('',#1947,#863,#1955,.T.);
#1955 = LINE('',#1956,#1957);
#1956 = CARTESIAN_POINT('',(23.033330249198,73.4,193.05477494116));
#1957 = VECTOR('',#1958,1.);
#1958 = DIRECTION('',(0.866025403784,5.551115123126E-17,-0.5));
#1959 = ORIENTED_EDGE('',*,*,#870,.T.);
#1960 = FACE_BOUND('',#1961,.F.);
#1961 = EDGE_LOOP('',(#1962));
#1962 = ORIENTED_EDGE('',*,*,#1529,.F.);
#1963 = PLANE('',#1964);
#1964 = AXIS2_PLACEMENT_3D('',#1965,#1966,#1967);
#1965 = CARTESIAN_POINT('',(23.033330249198,73.4,193.05477494116));
#1966 = DIRECTION('',(6.294823530293E-17,1.,2.20051844254E-16));
#1967 = DIRECTION('',(0.866025403784,5.551115123126E-17,-0.5));
#1968 = ADVANCED_FACE('',(#1969),#1980,.T.);
#1969 = FACE_BOUND('',#1970,.T.);
#1970 = EDGE_LOOP('',(#1971,#1972,#1978,#1979));
#1971 = ORIENTED_EDGE('',*,*,#1895,.F.);
#1972 = ORIENTED_EDGE('',*,*,#1973,.T.);
#1973 = EDGE_CURVE('',#1888,#1947,#1974,.T.);
#1974 = LINE('',#1975,#1976);
#1975 = CARTESIAN_POINT('',(23.033330249198,70.6,193.05477494116));
#1976 = VECTOR('',#1977,1.);
#1977 = DIRECTION('',(6.294823530293E-17,1.,2.20051844254E-16));
#1978 = ORIENTED_EDGE('',*,*,#1954,.T.);
#1979 = ORIENTED_EDGE('',*,*,#862,.F.);
#1980 = PLANE('',#1981);
#1981 = AXIS2_PLACEMENT_3D('',#1982,#1983,#1984);
#1982 = CARTESIAN_POINT('',(23.033330249198,70.6,193.05477494116));
#1983 = DIRECTION('',(-0.5,2.22044604925E-16,-0.866025403784));
#1984 = DIRECTION('',(6.294823530293E-17,1.,2.20051844254E-16));
#1985 = ADVANCED_FACE('',(#1986,#2020),#2031,.T.);
#1986 = FACE_BOUND('',#1987,.T.);
#1987 = EDGE_LOOP('',(#1988,#1996,#2004,#2012,#2018,#2019));
#1988 = ORIENTED_EDGE('',*,*,#1989,.F.);
#1989 = EDGE_CURVE('',#1990,#979,#1992,.T.);
#1990 = VERTEX_POINT('',#1991);
#1991 = CARTESIAN_POINT('',(-2.433330249198,70.6,193.05477494116));
#1992 = LINE('',#1993,#1994);
#1993 = CARTESIAN_POINT('',(-2.433330249198,70.6,193.05477494116));
#1994 = VECTOR('',#1995,1.);
#1995 = DIRECTION('',(-0.866025403784,-5.551115123126E-17,-0.5));
#1996 = ORIENTED_EDGE('',*,*,#1997,.F.);
#1997 = EDGE_CURVE('',#1998,#1990,#2000,.T.);
#1998 = VERTEX_POINT('',#1999);
#1999 = CARTESIAN_POINT('',(0.516669750802,70.6,187.94522505883));
#2000 = LINE('',#2001,#2002);
#2001 = CARTESIAN_POINT('',(0.516669750802,70.6,187.94522505883));
#2002 = VECTOR('',#2003,1.);
#2003 = DIRECTION('',(-0.5,3.330669073875E-16,0.866025403784));
#2004 = ORIENTED_EDGE('',*,*,#2005,.T.);
#2005 = EDGE_CURVE('',#1998,#2006,#2008,.T.);
#2006 = VERTEX_POINT('',#2007);
#2007 = CARTESIAN_POINT('',(-9.442622392719,70.6,182.19522505883));
#2008 = LINE('',#2009,#2010);
#2009 = CARTESIAN_POINT('',(0.516669750802,70.6,187.94522505883));
#2010 = VECTOR('',#2011,1.);
#2011 = DIRECTION('',(-0.866025403784,-5.551115123126E-17,-0.5));
#2012 = ORIENTED_EDGE('',*,*,#2013,.T.);
#2013 = EDGE_CURVE('',#2006,#1036,#2014,.T.);
#2014 = LINE('',#2015,#2016);
#2015 = CARTESIAN_POINT('',(-9.442622392719,70.6,182.19522505883));
#2016 = VECTOR('',#2017,1.);
#2017 = DIRECTION('',(-0.5,3.330669073875E-16,0.866025403784));
#2018 = ORIENTED_EDGE('',*,*,#1035,.F.);
#2019 = ORIENTED_EDGE('',*,*,#986,.F.);
#2020 = FACE_BOUND('',#2021,.T.);
#2021 = EDGE_LOOP('',(#2022));
#2022 = ORIENTED_EDGE('',*,*,#2023,.F.);
#2023 = EDGE_CURVE('',#2024,#2024,#2026,.T.);
#2024 = VERTEX_POINT('',#2025);
#2025 = CARTESIAN_POINT('',(-3.989419162443,70.6,190.5));
#2026 = CIRCLE('',#2027,1.75);
#2027 = AXIS2_PLACEMENT_3D('',#2028,#2029,#2030);
#2028 = CARTESIAN_POINT('',(-3.989419162443,70.6,188.75));
#2029 = DIRECTION('',(0.,1.,0.));
#2030 = DIRECTION('',(0.,-0.,1.));
#2031 = PLANE('',#2032);
#2032 = AXIS2_PLACEMENT_3D('',#2033,#2034,#2035);
#2033 = CARTESIAN_POINT('',(0.516669750802,70.6,187.94522505883));
#2034 = DIRECTION('',(1.184593865342E-16,1.,-3.161999785732E-16));
#2035 = DIRECTION('',(-0.866025403784,-5.551115123126E-17,-0.5));
#2036 = ADVANCED_FACE('',(#2037),#2055,.F.);
#2037 = FACE_BOUND('',#2038,.F.);
#2038 = EDGE_LOOP('',(#2039,#2040,#2048,#2054));
#2039 = ORIENTED_EDGE('',*,*,#1989,.F.);
#2040 = ORIENTED_EDGE('',*,*,#2041,.T.);
#2041 = EDGE_CURVE('',#1990,#2042,#2044,.T.);
#2042 = VERTEX_POINT('',#2043);
#2043 = CARTESIAN_POINT('',(-2.433330249198,73.4,193.05477494116));
#2044 = LINE('',#2045,#2046);
#2045 = CARTESIAN_POINT('',(-2.433330249198,70.6,193.05477494116));
#2046 = VECTOR('',#2047,1.);
#2047 = DIRECTION('',(1.184593865342E-16,1.,-3.161999785732E-16));
#2048 = ORIENTED_EDGE('',*,*,#2049,.T.);
#2049 = EDGE_CURVE('',#2042,#970,#2050,.T.);
#2050 = LINE('',#2051,#2052);
#2051 = CARTESIAN_POINT('',(-2.433330249198,73.4,193.05477494116));
#2052 = VECTOR('',#2053,1.);
#2053 = DIRECTION('',(-0.866025403784,-5.551115123126E-17,-0.5));
#2054 = ORIENTED_EDGE('',*,*,#978,.F.);
#2055 = PLANE('',#2056);
#2056 = AXIS2_PLACEMENT_3D('',#2057,#2058,#2059);
#2057 = CARTESIAN_POINT('',(-2.433330249198,70.6,193.05477494116));
#2058 = DIRECTION('',(-0.5,3.330669073875E-16,0.866025403784));
#2059 = DIRECTION('',(1.184593865342E-16,1.,-3.161999785732E-16));
#2060 = ADVANCED_FACE('',(#2061,#2088),#2091,.F.);
#2061 = FACE_BOUND('',#2062,.F.);
#2062 = EDGE_LOOP('',(#2063,#2064,#2072,#2080,#2086,#2087));
#2063 = ORIENTED_EDGE('',*,*,#2049,.F.);
#2064 = ORIENTED_EDGE('',*,*,#2065,.F.);
#2065 = EDGE_CURVE('',#2066,#2042,#2068,.T.);
#2066 = VERTEX_POINT('',#2067);
#2067 = CARTESIAN_POINT('',(0.516669750802,73.4,187.94522505883));
#2068 = LINE('',#2069,#2070);
#2069 = CARTESIAN_POINT('',(0.516669750802,73.4,187.94522505883));
#2070 = VECTOR('',#2071,1.);
#2071 = DIRECTION('',(-0.5,3.330669073875E-16,0.866025403784));
#2072 = ORIENTED_EDGE('',*,*,#2073,.T.);
#2073 = EDGE_CURVE('',#2066,#2074,#2076,.T.);
#2074 = VERTEX_POINT('',#2075);
#2075 = CARTESIAN_POINT('',(-9.442622392719,73.4,182.19522505883));
#2076 = LINE('',#2077,#2078);
#2077 = CARTESIAN_POINT('',(0.516669750802,73.4,187.94522505883));
#2078 = VECTOR('',#2079,1.);
#2079 = DIRECTION('',(-0.866025403784,-5.551115123126E-17,-0.5));
#2080 = ORIENTED_EDGE('',*,*,#2081,.T.);
#2081 = EDGE_CURVE('',#2074,#1044,#2082,.T.);
#2082 = LINE('',#2083,#2084);
#2083 = CARTESIAN_POINT('',(-9.442622392719,73.4,182.19522505883));
#2084 = VECTOR('',#2085,1.);
#2085 = DIRECTION('',(-0.5,3.330669073875E-16,0.866025403784));
#2086 = ORIENTED_EDGE('',*,*,#1051,.F.);
#2087 = ORIENTED_EDGE('',*,*,#969,.F.);
#2088 = FACE_BOUND('',#2089,.F.);
#2089 = EDGE_LOOP('',(#2090));
#2090 = ORIENTED_EDGE('',*,*,#1454,.F.);
#2091 = PLANE('',#2092);
#2092 = AXIS2_PLACEMENT_3D('',#2093,#2094,#2095);
#2093 = CARTESIAN_POINT('',(0.516669750802,73.4,187.94522505883));
#2094 = DIRECTION('',(1.184593865342E-16,1.,-3.161999785732E-16));
#2095 = DIRECTION('',(-0.866025403784,-5.551115123126E-17,-0.5));
#2096 = ADVANCED_FACE('',(#2097),#2108,.F.);
#2097 = FACE_BOUND('',#2098,.F.);
#2098 = EDGE_LOOP('',(#2099,#2100,#2106,#2107));
#2099 = ORIENTED_EDGE('',*,*,#2081,.F.);
#2100 = ORIENTED_EDGE('',*,*,#2101,.F.);
#2101 = EDGE_CURVE('',#2006,#2074,#2102,.T.);
#2102 = LINE('',#2103,#2104);
#2103 = CARTESIAN_POINT('',(-9.442622392719,70.6,182.19522505883));
#2104 = VECTOR('',#2105,1.);
#2105 = DIRECTION('',(1.184593865342E-16,1.,-3.161999785732E-16));
#2106 = ORIENTED_EDGE('',*,*,#2013,.T.);
#2107 = ORIENTED_EDGE('',*,*,#1043,.F.);
#2108 = PLANE('',#2109);
#2109 = AXIS2_PLACEMENT_3D('',#2110,#2111,#2112);
#2110 = CARTESIAN_POINT('',(-9.442622392719,70.6,182.19522505883));
#2111 = DIRECTION('',(-0.866025403784,-5.551115123126E-17,-0.5));
#2112 = DIRECTION('',(1.184593865342E-16,1.,-3.161999785732E-16));
#2113 = ADVANCED_FACE('',(#2114),#2120,.T.);
#2114 = FACE_BOUND('',#2115,.T.);
#2115 = EDGE_LOOP('',(#2116,#2117,#2118,#2119));
#2116 = ORIENTED_EDGE('',*,*,#1157,.F.);
#2117 = ORIENTED_EDGE('',*,*,#1098,.T.);
#2118 = ORIENTED_EDGE('',*,*,#1133,.T.);
#2119 = ORIENTED_EDGE('',*,*,#1181,.F.);
#2120 = PLANE('',#2121);
#2121 = AXIS2_PLACEMENT_3D('',#2122,#2123,#2124);
#2122 = CARTESIAN_POINT('',(-49.05,67.5,106.6));
#2123 = DIRECTION('',(2.22044604925E-16,1.,0.));
#2124 = DIRECTION('',(0.,0.,1.));
#2125 = ADVANCED_FACE('',(#2126),#2145,.F.);
#2126 = FACE_BOUND('',#2127,.F.);
#2127 = EDGE_LOOP('',(#2128,#2137,#2143,#2144));
#2128 = ORIENTED_EDGE('',*,*,#2129,.T.);
#2129 = EDGE_CURVE('',#2130,#2130,#2132,.T.);
#2130 = VERTEX_POINT('',#2131);
#2131 = CARTESIAN_POINT('',(-50.25,71.,98.));
#2132 = CIRCLE('',#2133,1.75);
#2133 = AXIS2_PLACEMENT_3D('',#2134,#2135,#2136);
#2134 = CARTESIAN_POINT('',(-52.,71.,98.));
#2135 = DIRECTION('',(0.,0.,1.));
#2136 = DIRECTION('',(1.,0.,-0.));
#2137 = ORIENTED_EDGE('',*,*,#2138,.T.);
#2138 = EDGE_CURVE('',#2130,#1116,#2139,.T.);
#2139 = LINE('',#2140,#2141);
#2140 = CARTESIAN_POINT('',(-50.25,71.,97.));
#2141 = VECTOR('',#2142,1.);
#2142 = DIRECTION('',(0.,0.,1.));
#2143 = ORIENTED_EDGE('',*,*,#1115,.F.);
#2144 = ORIENTED_EDGE('',*,*,#2138,.F.);
#2145 = CYLINDRICAL_SURFACE('',#2146,1.75);
#2146 = AXIS2_PLACEMENT_3D('',#2147,#2148,#2149);
#2147 = CARTESIAN_POINT('',(-52.,71.,97.));
#2148 = DIRECTION('',(0.,0.,1.));
#2149 = DIRECTION('',(1.,0.,-0.));
#2150 = ADVANCED_FACE('',(#2151),#2170,.F.);
#2151 = FACE_BOUND('',#2152,.F.);
#2152 = EDGE_LOOP('',(#2153,#2154,#2162,#2169));
#2153 = ORIENTED_EDGE('',*,*,#1191,.T.);
#2154 = ORIENTED_EDGE('',*,*,#2155,.T.);
#2155 = EDGE_CURVE('',#1192,#2156,#2158,.T.);
#2156 = VERTEX_POINT('',#2157);
#2157 = CARTESIAN_POINT('',(-50.25,71.,114.));
#2158 = LINE('',#2159,#2160);
#2159 = CARTESIAN_POINT('',(-50.25,71.,97.));
#2160 = VECTOR('',#2161,1.);
#2161 = DIRECTION('',(0.,0.,1.));
#2162 = ORIENTED_EDGE('',*,*,#2163,.F.);
#2163 = EDGE_CURVE('',#2156,#2156,#2164,.T.);
#2164 = CIRCLE('',#2165,1.75);
#2165 = AXIS2_PLACEMENT_3D('',#2166,#2167,#2168);
#2166 = CARTESIAN_POINT('',(-52.,71.,114.));
#2167 = DIRECTION('',(0.,0.,1.));
#2168 = DIRECTION('',(1.,0.,-0.));
#2169 = ORIENTED_EDGE('',*,*,#2155,.F.);
#2170 = CYLINDRICAL_SURFACE('',#2171,1.75);
#2171 = AXIS2_PLACEMENT_3D('',#2172,#2173,#2174);
#2172 = CARTESIAN_POINT('',(-52.,71.,97.));
#2173 = DIRECTION('',(0.,0.,1.));
#2174 = DIRECTION('',(1.,0.,-0.));
#2175 = ADVANCED_FACE('',(#2176),#2182,.T.);
#2176 = FACE_BOUND('',#2177,.T.);
#2177 = EDGE_LOOP('',(#2178,#2179,#2180,#2181));
#2178 = ORIENTED_EDGE('',*,*,#1275,.F.);
#2179 = ORIENTED_EDGE('',*,*,#1216,.T.);
#2180 = ORIENTED_EDGE('',*,*,#1251,.T.);
#2181 = ORIENTED_EDGE('',*,*,#1299,.F.);
#2182 = PLANE('',#2183);
#2183 = AXIS2_PLACEMENT_3D('',#2184,#2185,#2186);
#2184 = CARTESIAN_POINT('',(2.95,67.5,106.6));
#2185 = DIRECTION('',(2.22044604925E-16,1.,0.));
#2186 = DIRECTION('',(0.,0.,1.));
#2187 = ADVANCED_FACE('',(#2188),#2207,.F.);
#2188 = FACE_BOUND('',#2189,.F.);
#2189 = EDGE_LOOP('',(#2190,#2199,#2205,#2206));
#2190 = ORIENTED_EDGE('',*,*,#2191,.T.);
#2191 = EDGE_CURVE('',#2192,#2192,#2194,.T.);
#2192 = VERTEX_POINT('',#2193);
#2193 = CARTESIAN_POINT('',(1.75,71.,98.));
#2194 = CIRCLE('',#2195,1.75);
#2195 = AXIS2_PLACEMENT_3D('',#2196,#2197,#2198);
#2196 = CARTESIAN_POINT('',(0.,71.,98.));
#2197 = DIRECTION('',(0.,0.,1.));
#2198 = DIRECTION('',(1.,0.,-0.));
#2199 = ORIENTED_EDGE('',*,*,#2200,.T.);
#2200 = EDGE_CURVE('',#2192,#1234,#2201,.T.);
#2201 = LINE('',#2202,#2203);
#2202 = CARTESIAN_POINT('',(1.75,71.,97.));
#2203 = VECTOR('',#2204,1.);
#2204 = DIRECTION('',(0.,0.,1.));
#2205 = ORIENTED_EDGE('',*,*,#1233,.F.);
#2206 = ORIENTED_EDGE('',*,*,#2200,.F.);
#2207 = CYLINDRICAL_SURFACE('',#2208,1.75);
#2208 = AXIS2_PLACEMENT_3D('',#2209,#2210,#2211);
#2209 = CARTESIAN_POINT('',(0.,71.,97.));
#2210 = DIRECTION('',(0.,0.,1.));
#2211 = DIRECTION('',(1.,0.,-0.));
#2212 = ADVANCED_FACE('',(#2213),#2219,.T.);
#2213 = FACE_BOUND('',#2214,.T.);
#2214 = EDGE_LOOP('',(#2215,#2216,#2217,#2218));
#2215 = ORIENTED_EDGE('',*,*,#1393,.F.);
#2216 = ORIENTED_EDGE('',*,*,#1334,.T.);
#2217 = ORIENTED_EDGE('',*,*,#1369,.T.);
#2218 = ORIENTED_EDGE('',*,*,#1417,.F.);
#2219 = PLANE('',#2220);
#2220 = AXIS2_PLACEMENT_3D('',#2221,#2222,#2223);
#2221 = CARTESIAN_POINT('',(36.95,67.5,106.6));
#2222 = DIRECTION('',(2.22044604925E-16,1.,0.));
#2223 = DIRECTION('',(0.,0.,1.));
#2224 = ADVANCED_FACE('',(#2225,#2228),#2239,.F.);
#2225 = FACE_BOUND('',#2226,.F.);
#2226 = EDGE_LOOP('',(#2227));
#2227 = ORIENTED_EDGE('',*,*,#1477,.T.);
#2228 = FACE_BOUND('',#2229,.F.);
#2229 = EDGE_LOOP('',(#2230));
#2230 = ORIENTED_EDGE('',*,*,#2231,.T.);
#2231 = EDGE_CURVE('',#2232,#2232,#2234,.T.);
#2232 = VERTEX_POINT('',#2233);
#2233 = CARTESIAN_POINT('',(10.3,72.7,204.5));
#2234 = CIRCLE('',#2235,7.5);
#2235 = AXIS2_PLACEMENT_3D('',#2236,#2237,#2238);
#2236 = CARTESIAN_POINT('',(10.3,72.7,197.));
#2237 = DIRECTION('',(0.,1.,0.));
#2238 = DIRECTION('',(0.,-0.,1.));
#2239 = PLANE('',#2240);
#2240 = AXIS2_PLACEMENT_3D('',#2241,#2242,#2243);
#2241 = CARTESIAN_POINT('',(10.3,72.7,197.));
#2242 = DIRECTION('',(0.,-1.,0.));
#2243 = DIRECTION('',(0.,-0.,-1.));
#2244 = ADVANCED_FACE('',(#2245,#2251,#2254),#2257,.F.);
#2245 = FACE_BOUND('',#2246,.F.);
#2246 = EDGE_LOOP('',(#2247,#2248,#2249,#2250));
#2247 = ORIENTED_EDGE('',*,*,#1576,.F.);
#2248 = ORIENTED_EDGE('',*,*,#1544,.T.);
#2249 = ORIENTED_EDGE('',*,*,#1600,.T.);
#2250 = ORIENTED_EDGE('',*,*,#1623,.F.);
#2251 = FACE_BOUND('',#2252,.F.);
#2252 = EDGE_LOOP('',(#2253));
#2253 = ORIENTED_EDGE('',*,*,#2129,.F.);
#2254 = FACE_BOUND('',#2255,.F.);
#2255 = EDGE_LOOP('',(#2256));
#2256 = ORIENTED_EDGE('',*,*,#2191,.F.);
#2257 = PLANE('',#2258);
#2258 = AXIS2_PLACEMENT_3D('',#2259,#2260,#2261);
#2259 = CARTESIAN_POINT('',(-56.,67.,98.));
#2260 = DIRECTION('',(0.,0.,1.));
#2261 = DIRECTION('',(1.,0.,-0.));
#2262 = ADVANCED_FACE('',(#2263),#2269,.T.);
#2263 = FACE_BOUND('',#2264,.T.);
#2264 = EDGE_LOOP('',(#2265,#2266,#2267,#2268));
#2265 = ORIENTED_EDGE('',*,*,#1757,.F.);
#2266 = ORIENTED_EDGE('',*,*,#1781,.T.);
#2267 = ORIENTED_EDGE('',*,*,#1863,.T.);
#2268 = ORIENTED_EDGE('',*,*,#1722,.F.);
#2269 = PLANE('',#2270);
#2270 = AXIS2_PLACEMENT_3D('',#2271,#2272,#2273);
#2271 = CARTESIAN_POINT('',(7.35,70.6,210.));
#2272 = DIRECTION('',(0.,0.,1.));
#2273 = DIRECTION('',(0.,1.,0.));
#2274 = ADVANCED_FACE('',(#2275),#2286,.F.);
#2275 = FACE_BOUND('',#2276,.F.);
#2276 = EDGE_LOOP('',(#2277,#2278,#2284,#2285));
#2277 = ORIENTED_EDGE('',*,*,#1792,.F.);
#2278 = ORIENTED_EDGE('',*,*,#2279,.F.);
#2279 = EDGE_CURVE('',#1846,#1793,#2280,.T.);
#2280 = LINE('',#2281,#2282);
#2281 = CARTESIAN_POINT('',(10.3,59.,215.25));
#2282 = VECTOR('',#2283,1.);
#2283 = DIRECTION('',(0.,1.,0.));
#2284 = ORIENTED_EDGE('',*,*,#1845,.T.);
#2285 = ORIENTED_EDGE('',*,*,#2279,.T.);
#2286 = CYLINDRICAL_SURFACE('',#2287,1.75);
#2287 = AXIS2_PLACEMENT_3D('',#2288,#2289,#2290);
#2288 = CARTESIAN_POINT('',(10.3,59.,213.5));
#2289 = DIRECTION('',(0.,1.,0.));
#2290 = DIRECTION('',(0.,-0.,1.));
#2291 = ADVANCED_FACE('',(#2292),#2303,.F.);
#2292 = FACE_BOUND('',#2293,.F.);
#2293 = EDGE_LOOP('',(#2294,#2295,#2301,#2302));
#2294 = ORIENTED_EDGE('',*,*,#2023,.F.);
#2295 = ORIENTED_EDGE('',*,*,#2296,.F.);
#2296 = EDGE_CURVE('',#1813,#2024,#2297,.T.);
#2297 = LINE('',#2298,#2299);
#2298 = CARTESIAN_POINT('',(-3.989419162443,59.,190.5));
#2299 = VECTOR('',#2300,1.);
#2300 = DIRECTION('',(0.,1.,0.));
#2301 = ORIENTED_EDGE('',*,*,#1812,.T.);
#2302 = ORIENTED_EDGE('',*,*,#2296,.T.);
#2303 = CYLINDRICAL_SURFACE('',#2304,1.75);
#2304 = AXIS2_PLACEMENT_3D('',#2305,#2306,#2307);
#2305 = CARTESIAN_POINT('',(-3.989419162443,59.,188.75));
#2306 = DIRECTION('',(0.,1.,0.));
#2307 = DIRECTION('',(0.,-0.,1.));
#2308 = ADVANCED_FACE('',(#2309),#2320,.F.);
#2309 = FACE_BOUND('',#2310,.F.);
#2310 = EDGE_LOOP('',(#2311,#2312,#2318,#2319));
#2311 = ORIENTED_EDGE('',*,*,#2231,.F.);
#2312 = ORIENTED_EDGE('',*,*,#2313,.F.);
#2313 = EDGE_CURVE('',#1824,#2232,#2314,.T.);
#2314 = LINE('',#2315,#2316);
#2315 = CARTESIAN_POINT('',(10.3,56.,204.5));
#2316 = VECTOR('',#2317,1.);
#2317 = DIRECTION('',(0.,1.,0.));
#2318 = ORIENTED_EDGE('',*,*,#1823,.T.);
#2319 = ORIENTED_EDGE('',*,*,#2313,.T.);
#2320 = CYLINDRICAL_SURFACE('',#2321,7.5);
#2321 = AXIS2_PLACEMENT_3D('',#2322,#2323,#2324);
#2322 = CARTESIAN_POINT('',(10.3,56.,197.));
#2323 = DIRECTION('',(0.,1.,0.));
#2324 = DIRECTION('',(0.,-0.,1.));
#2325 = ADVANCED_FACE('',(#2326),#2337,.F.);
#2326 = FACE_BOUND('',#2327,.F.);
#2327 = EDGE_LOOP('',(#2328,#2329,#2335,#2336));
#2328 = ORIENTED_EDGE('',*,*,#1904,.F.);
#2329 = ORIENTED_EDGE('',*,*,#2330,.F.);
#2330 = EDGE_CURVE('',#1835,#1905,#2331,.T.);
#2331 = LINE('',#2332,#2333);
#2332 = CARTESIAN_POINT('',(24.589419162443,59.,190.5));
#2333 = VECTOR('',#2334,1.);
#2334 = DIRECTION('',(0.,1.,0.));
#2335 = ORIENTED_EDGE('',*,*,#1834,.T.);
#2336 = ORIENTED_EDGE('',*,*,#2330,.T.);
#2337 = CYLINDRICAL_SURFACE('',#2338,1.75);
#2338 = AXIS2_PLACEMENT_3D('',#2339,#2340,#2341);
#2339 = CARTESIAN_POINT('',(24.589419162443,59.,188.75));
#2340 = DIRECTION('',(0.,1.,0.));
#2341 = DIRECTION('',(0.,-0.,1.));
#2342 = ADVANCED_FACE('',(#2343),#2349,.T.);
#2343 = FACE_BOUND('',#2344,.T.);
#2344 = EDGE_LOOP('',(#2345,#2346,#2347,#2348));
#2345 = ORIENTED_EDGE('',*,*,#1973,.F.);
#2346 = ORIENTED_EDGE('',*,*,#1887,.T.);
#2347 = ORIENTED_EDGE('',*,*,#1922,.T.);
#2348 = ORIENTED_EDGE('',*,*,#1946,.F.);
#2349 = PLANE('',#2350);
#2350 = AXIS2_PLACEMENT_3D('',#2351,#2352,#2353);
#2351 = CARTESIAN_POINT('',(23.033330249198,70.6,193.05477494116));
#2352 = DIRECTION('',(0.866025403784,5.551115123126E-17,-0.5));
#2353 = DIRECTION('',(6.294823530293E-17,1.,2.20051844254E-16));
#2354 = ADVANCED_FACE('',(#2355),#2366,.T.);
#2355 = FACE_BOUND('',#2356,.T.);
#2356 = EDGE_LOOP('',(#2357,#2358,#2364,#2365));
#2357 = ORIENTED_EDGE('',*,*,#2005,.F.);
#2358 = ORIENTED_EDGE('',*,*,#2359,.T.);
#2359 = EDGE_CURVE('',#1998,#2066,#2360,.T.);
#2360 = LINE('',#2361,#2362);
#2361 = CARTESIAN_POINT('',(0.516669750802,70.6,187.94522505883));
#2362 = VECTOR('',#2363,1.);
#2363 = DIRECTION('',(1.184593865342E-16,1.,-3.161999785732E-16));
#2364 = ORIENTED_EDGE('',*,*,#2073,.T.);
#2365 = ORIENTED_EDGE('',*,*,#2101,.F.);
#2366 = PLANE('',#2367);
#2367 = AXIS2_PLACEMENT_3D('',#2368,#2369,#2370);
#2368 = CARTESIAN_POINT('',(0.516669750802,70.6,187.94522505883));
#2369 = DIRECTION('',(-0.5,3.330669073875E-16,0.866025403784));
#2370 = DIRECTION('',(1.184593865342E-16,1.,-3.161999785732E-16));
#2371 = ADVANCED_FACE('',(#2372),#2378,.T.);
#2372 = FACE_BOUND('',#2373,.T.);
#2373 = EDGE_LOOP('',(#2374,#2375,#2376,#2377));
#2374 = ORIENTED_EDGE('',*,*,#2359,.F.);
#2375 = ORIENTED_EDGE('',*,*,#1997,.T.);
#2376 = ORIENTED_EDGE('',*,*,#2041,.T.);
#2377 = ORIENTED_EDGE('',*,*,#2065,.F.);
#2378 = PLANE('',#2379);
#2379 = AXIS2_PLACEMENT_3D('',#2380,#2381,#2382);
#2380 = CARTESIAN_POINT('',(0.516669750802,70.6,187.94522505883));
#2381 = DIRECTION('',(-0.866025403784,-5.551115123126E-17,-0.5));
#2382 = DIRECTION('',(1.184593865342E-16,1.,-3.161999785732E-16));
#2383 = ADVANCED_FACE('',(#2384),#2387,.F.);
#2384 = FACE_BOUND('',#2385,.F.);
#2385 = EDGE_LOOP('',(#2386));
#2386 = ORIENTED_EDGE('',*,*,#2163,.T.);
#2387 = PLANE('',#2388);
#2388 = AXIS2_PLACEMENT_3D('',#2389,#2390,#2391);
#2389 = CARTESIAN_POINT('',(-52.,71.,114.));
#2390 = DIRECTION('',(0.,0.,1.));
#2391 = DIRECTION('',(1.,0.,-0.));
#2392 = ( GEOMETRIC_REPRESENTATION_CONTEXT(3) 
GLOBAL_UNCERTAINTY_ASSIGNED_CONTEXT((#2396)) 
GLOBAL_UNIT_ASSIGNED_CONTEXT((#2393,#2394,#2395)) REPRESENTATION_CONTEXT
('Context #1','3D Context with UNIT and UNCERTAINTY') );
#2393 = ( LENGTH_UNIT() NAMED_UNIT(*) SI_UNIT(.MILLI.,.METRE.) );
#2394 = ( NAMED_UNIT(*) PLANE_ANGLE_UNIT() SI_UNIT($,.RADIAN.) );
#2395 = ( NAMED_UNIT(*) SI_UNIT($,.STERADIAN.) SOLID_ANGLE_UNIT() );
#2396 = UNCERTAINTY_MEASURE_WITH_UNIT(LENGTH_MEASURE(1.E-07),#2393,
  'distance_accuracy_value','confusion accuracy');
#2397 = PRODUCT_RELATED_PRODUCT_CATEGORY('part',$,(#7));
ENDSEC;
END-ISO-10303-21;
