ISO-10303-21;
HEADER;
FILE_DESCRIPTION(('FreeCAD Model'),'2;1');
FILE_NAME('Open CASCADE Shape Model','2026-08-27T22:55:49',('Author'),(
    ''),'Open CASCADE STEP processor 7.8','FreeCAD','Unknown');
FILE_SCHEMA(('AUTOMOTIVE_DESIGN { 1 0 10303 214 1 1 1 1 }'));
ENDSEC;
DATA;
#1 = APPLICATION_PROTOCOL_DEFINITION('international standard',
  'automotive_design',2000,#2);
#2 = APPLICATION_CONTEXT(
  'core data for automotive mechanical design processes');
#3 = SHAPE_DEFINITION_REPRESENTATION(#4,#10);
#4 = PRODUCT_DEFINITION_SHAPE('','',#5);
#5 = PRODUCT_DEFINITION('design','',#6,#9);
#6 = PRODUCT_DEFINITION_FORMATION('','',#7);
#7 = PRODUCT('PAN_ROTATING_right_yoke_motor_mount',
  'PAN_ROTATING_right_yoke_motor_mount','',(#8));
#8 = PRODUCT_CONTEXT('',#2,'mechanical');
#9 = PRODUCT_DEFINITION_CONTEXT('part definition',#2,'design');
#10 = ADVANCED_BREP_SHAPE_REPRESENTATION('',(#11,#15),#1394);
#11 = AXIS2_PLACEMENT_3D('',#12,#13,#14);
#12 = CARTESIAN_POINT('',(0.,0.,0.));
#13 = DIRECTION('',(0.,0.,1.));
#14 = DIRECTION('',(1.,0.,-0.));
#15 = MANIFOLD_SOLID_BREP('',#16);
#16 = CLOSED_SHELL('',(#17,#57,#88,#119,#419,#719,#736,#753,#770,#787,
    #804,#821,#867,#889,#906,#923,#940,#952,#974,#991,#1008,#1025,#1037,
    #1059,#1076,#1093,#1110,#1122,#1144,#1161,#1178,#1195,#1207,#1229,
    #1246,#1263,#1280,#1292,#1312,#1332,#1357,#1382));
#17 = ADVANCED_FACE('',(#18),#52,.T.);
#18 = FACE_BOUND('',#19,.T.);
#19 = EDGE_LOOP('',(#20,#30,#38,#46));
#20 = ORIENTED_EDGE('',*,*,#21,.T.);
#21 = EDGE_CURVE('',#22,#24,#26,.T.);
#22 = VERTEX_POINT('',#23);
#23 = CARTESIAN_POINT('',(-76.,-66.5,83.));
#24 = VERTEX_POINT('',#25);
#25 = CARTESIAN_POINT('',(-76.,-56.5,83.));
#26 = LINE('',#27,#28);
#27 = CARTESIAN_POINT('',(-76.,-66.5,83.));
#28 = VECTOR('',#29,1.);
#29 = DIRECTION('',(0.,1.,0.));
#30 = ORIENTED_EDGE('',*,*,#31,.T.);
#31 = EDGE_CURVE('',#24,#32,#34,.T.);
#32 = VERTEX_POINT('',#33);
#33 = CARTESIAN_POINT('',(52.,-56.5,83.));
#34 = LINE('',#35,#36);
#35 = CARTESIAN_POINT('',(-76.,-56.5,83.));
#36 = VECTOR('',#37,1.);
#37 = DIRECTION('',(1.,0.,0.));
#38 = ORIENTED_EDGE('',*,*,#39,.F.);
#39 = EDGE_CURVE('',#40,#32,#42,.T.);
#40 = VERTEX_POINT('',#41);
#41 = CARTESIAN_POINT('',(52.,-66.5,83.));
#42 = LINE('',#43,#44);
#43 = CARTESIAN_POINT('',(52.,-66.5,83.));
#44 = VECTOR('',#45,1.);
#45 = DIRECTION('',(0.,1.,0.));
#46 = ORIENTED_EDGE('',*,*,#47,.F.);
#47 = EDGE_CURVE('',#22,#40,#48,.T.);
#48 = LINE('',#49,#50);
#49 = CARTESIAN_POINT('',(-76.,-66.5,83.));
#50 = VECTOR('',#51,1.);
#51 = DIRECTION('',(1.,0.,0.));
#52 = PLANE('',#53);
#53 = AXIS2_PLACEMENT_3D('',#54,#55,#56);
#54 = CARTESIAN_POINT('',(-76.,-66.5,83.));
#55 = DIRECTION('',(0.,0.,-1.));
#56 = DIRECTION('',(1.,0.,0.));
#57 = ADVANCED_FACE('',(#58),#83,.T.);
#58 = FACE_BOUND('',#59,.T.);
#59 = EDGE_LOOP('',(#60,#70,#76,#77));
#60 = ORIENTED_EDGE('',*,*,#61,.T.);
#61 = EDGE_CURVE('',#62,#64,#66,.T.);
#62 = VERTEX_POINT('',#63);
#63 = CARTESIAN_POINT('',(-76.,-66.5,140.));
#64 = VERTEX_POINT('',#65);
#65 = CARTESIAN_POINT('',(-76.,-56.5,140.));
#66 = LINE('',#67,#68);
#67 = CARTESIAN_POINT('',(-76.,-66.5,140.));
#68 = VECTOR('',#69,1.);
#69 = DIRECTION('',(0.,1.,0.));
#70 = ORIENTED_EDGE('',*,*,#71,.T.);
#71 = EDGE_CURVE('',#64,#24,#72,.T.);
#72 = LINE('',#73,#74);
#73 = CARTESIAN_POINT('',(-76.,-56.5,140.));
#74 = VECTOR('',#75,1.);
#75 = DIRECTION('',(0.,0.,-1.));
#76 = ORIENTED_EDGE('',*,*,#21,.F.);
#77 = ORIENTED_EDGE('',*,*,#78,.F.);
#78 = EDGE_CURVE('',#62,#22,#79,.T.);
#79 = LINE('',#80,#81);
#80 = CARTESIAN_POINT('',(-76.,-66.5,140.));
#81 = VECTOR('',#82,1.);
#82 = DIRECTION('',(0.,0.,-1.));
#83 = PLANE('',#84);
#84 = AXIS2_PLACEMENT_3D('',#85,#86,#87);
#85 = CARTESIAN_POINT('',(-76.,-66.5,140.));
#86 = DIRECTION('',(-1.,0.,0.));
#87 = DIRECTION('',(0.,0.,-1.));
#88 = ADVANCED_FACE('',(#89),#114,.T.);
#89 = FACE_BOUND('',#90,.T.);
#90 = EDGE_LOOP('',(#91,#92,#100,#108));
#91 = ORIENTED_EDGE('',*,*,#39,.T.);
#92 = ORIENTED_EDGE('',*,*,#93,.T.);
#93 = EDGE_CURVE('',#32,#94,#96,.T.);
#94 = VERTEX_POINT('',#95);
#95 = CARTESIAN_POINT('',(52.,-56.5,97.));
#96 = LINE('',#97,#98);
#97 = CARTESIAN_POINT('',(52.,-56.5,83.));
#98 = VECTOR('',#99,1.);
#99 = DIRECTION('',(0.,0.,1.));
#100 = ORIENTED_EDGE('',*,*,#101,.F.);
#101 = EDGE_CURVE('',#102,#94,#104,.T.);
#102 = VERTEX_POINT('',#103);
#103 = CARTESIAN_POINT('',(52.,-66.5,97.));
#104 = LINE('',#105,#106);
#105 = CARTESIAN_POINT('',(52.,-66.5,97.));
#106 = VECTOR('',#107,1.);
#107 = DIRECTION('',(0.,1.,0.));
#108 = ORIENTED_EDGE('',*,*,#109,.F.);
#109 = EDGE_CURVE('',#40,#102,#110,.T.);
#110 = LINE('',#111,#112);
#111 = CARTESIAN_POINT('',(52.,-66.5,83.));
#112 = VECTOR('',#113,1.);
#113 = DIRECTION('',(0.,0.,1.));
#114 = PLANE('',#115);
#115 = AXIS2_PLACEMENT_3D('',#116,#117,#118);
#116 = CARTESIAN_POINT('',(52.,-66.5,83.));
#117 = DIRECTION('',(1.,0.,0.));
#118 = DIRECTION('',(0.,0.,1.));
#119 = ADVANCED_FACE('',(#120,#189,#234,#279,#324,#369),#414,.T.);
#120 = FACE_BOUND('',#121,.T.);
#121 = EDGE_LOOP('',(#122,#123,#124,#125,#133,#141,#150,#159,#167,#175,
    #183));
#122 = ORIENTED_EDGE('',*,*,#78,.T.);
#123 = ORIENTED_EDGE('',*,*,#47,.T.);
#124 = ORIENTED_EDGE('',*,*,#109,.T.);
#125 = ORIENTED_EDGE('',*,*,#126,.T.);
#126 = EDGE_CURVE('',#102,#127,#129,.T.);
#127 = VERTEX_POINT('',#128);
#128 = CARTESIAN_POINT('',(31.,-66.5,97.));
#129 = LINE('',#130,#131);
#130 = CARTESIAN_POINT('',(52.,-66.5,97.));
#131 = VECTOR('',#132,1.);
#132 = DIRECTION('',(-1.,0.,0.));
#133 = ORIENTED_EDGE('',*,*,#134,.T.);
#134 = EDGE_CURVE('',#127,#135,#137,.T.);
#135 = VERTEX_POINT('',#136);
#136 = CARTESIAN_POINT('',(28.757381006095,-66.5,175.49166478666));
#137 = LINE('',#138,#139);
#138 = CARTESIAN_POINT('',(31.,-66.5,97.));
#139 = VECTOR('',#140,1.);
#140 = DIRECTION('',(-2.855977389888E-02,0.,0.999592086461));
#141 = ORIENTED_EDGE('',*,*,#142,.T.);
#142 = EDGE_CURVE('',#135,#143,#145,.T.);
#143 = VERTEX_POINT('',#144);
#144 = CARTESIAN_POINT('',(10.3,-66.5,199.));
#145 = CIRCLE('',#146,19.);
#146 = AXIS2_PLACEMENT_3D('',#147,#148,#149);
#147 = CARTESIAN_POINT('',(10.3,-66.5,180.));
#148 = DIRECTION('',(0.,1.,0.));
#149 = DIRECTION('',(0.,-0.,1.));
#150 = ORIENTED_EDGE('',*,*,#151,.T.);
#151 = EDGE_CURVE('',#143,#152,#154,.T.);
#152 = VERTEX_POINT('',#153);
#153 = CARTESIAN_POINT('',(28.469862060789,-66.5,185.55482787239));
#154 = CIRCLE('',#155,19.);
#155 = AXIS2_PLACEMENT_3D('',#156,#157,#158);
#156 = CARTESIAN_POINT('',(10.3,-66.5,180.));
#157 = DIRECTION('',(0.,1.,0.));
#158 = DIRECTION('',(0.,-0.,1.));
#159 = ORIENTED_EDGE('',*,*,#160,.T.);
#160 = EDGE_CURVE('',#152,#161,#163,.T.);
#161 = VERTEX_POINT('',#162);
#162 = CARTESIAN_POINT('',(28.,-66.5,202.));
#163 = LINE('',#164,#165);
#164 = CARTESIAN_POINT('',(31.,-66.5,97.));
#165 = VECTOR('',#166,1.);
#166 = DIRECTION('',(-2.855977389888E-02,0.,0.999592086461));
#167 = ORIENTED_EDGE('',*,*,#168,.T.);
#168 = EDGE_CURVE('',#161,#169,#171,.T.);
#169 = VERTEX_POINT('',#170);
#170 = CARTESIAN_POINT('',(-28.,-66.5,202.));
#171 = LINE('',#172,#173);
#172 = CARTESIAN_POINT('',(28.,-66.5,202.));
#173 = VECTOR('',#174,1.);
#174 = DIRECTION('',(-1.,0.,0.));
#175 = ORIENTED_EDGE('',*,*,#176,.T.);
#176 = EDGE_CURVE('',#169,#177,#179,.T.);
#177 = VERTEX_POINT('',#178);
#178 = CARTESIAN_POINT('',(-31.,-66.5,140.));
#179 = LINE('',#180,#181);
#180 = CARTESIAN_POINT('',(-28.,-66.5,202.));
#181 = VECTOR('',#182,1.);
#182 = DIRECTION('',(-4.833055142332E-02,0.,-0.998831396082));
#183 = ORIENTED_EDGE('',*,*,#184,.T.);
#184 = EDGE_CURVE('',#177,#62,#185,.T.);
#185 = LINE('',#186,#187);
#186 = CARTESIAN_POINT('',(-31.,-66.5,140.));
#187 = VECTOR('',#188,1.);
#188 = DIRECTION('',(-1.,0.,0.));
#189 = FACE_BOUND('',#190,.T.);
#190 = EDGE_LOOP('',(#191,#202,#210,#219,#228));
#191 = ORIENTED_EDGE('',*,*,#192,.T.);
#192 = EDGE_CURVE('',#193,#195,#197,.T.);
#193 = VERTEX_POINT('',#194);
#194 = CARTESIAN_POINT('',(-49.45,-66.5,116.5));
#195 = VERTEX_POINT('',#196);
#196 = CARTESIAN_POINT('',(-52.95,-66.5,116.5));
#197 = CIRCLE('',#198,1.75);
#198 = AXIS2_PLACEMENT_3D('',#199,#200,#201);
#199 = CARTESIAN_POINT('',(-51.2,-66.5,116.5));
#200 = DIRECTION('',(0.,1.,0.));
#201 = DIRECTION('',(0.,-0.,1.));
#202 = ORIENTED_EDGE('',*,*,#203,.T.);
#203 = EDGE_CURVE('',#195,#204,#206,.T.);
#204 = VERTEX_POINT('',#205);
#205 = CARTESIAN_POINT('',(-52.95,-66.5,130.5));
#206 = LINE('',#207,#208);
#207 = CARTESIAN_POINT('',(-52.95,-66.5,124.02011463998));
#208 = VECTOR('',#209,1.);
#209 = DIRECTION('',(0.,-0.,1.));
#210 = ORIENTED_EDGE('',*,*,#211,.T.);
#211 = EDGE_CURVE('',#204,#212,#214,.T.);
#212 = VERTEX_POINT('',#213);
#213 = CARTESIAN_POINT('',(-51.2,-66.5,132.25));
#214 = CIRCLE('',#215,1.75);
#215 = AXIS2_PLACEMENT_3D('',#216,#217,#218);
#216 = CARTESIAN_POINT('',(-51.2,-66.5,130.5));
#217 = DIRECTION('',(0.,1.,0.));
#218 = DIRECTION('',(0.,-0.,1.));
#219 = ORIENTED_EDGE('',*,*,#220,.T.);
#220 = EDGE_CURVE('',#212,#221,#223,.T.);
#221 = VERTEX_POINT('',#222);
#222 = CARTESIAN_POINT('',(-49.45,-66.5,130.5));
#223 = CIRCLE('',#224,1.75);
#224 = AXIS2_PLACEMENT_3D('',#225,#226,#227);
#225 = CARTESIAN_POINT('',(-51.2,-66.5,130.5));
#226 = DIRECTION('',(0.,1.,0.));
#227 = DIRECTION('',(0.,-0.,1.));
#228 = ORIENTED_EDGE('',*,*,#229,.F.);
#229 = EDGE_CURVE('',#193,#221,#230,.T.);
#230 = LINE('',#231,#232);
#231 = CARTESIAN_POINT('',(-49.45,-66.5,124.02011463998));
#232 = VECTOR('',#233,1.);
#233 = DIRECTION('',(0.,-0.,1.));
#234 = FACE_BOUND('',#235,.T.);
#235 = EDGE_LOOP('',(#236,#247,#255,#264,#273));
#236 = ORIENTED_EDGE('',*,*,#237,.T.);
#237 = EDGE_CURVE('',#238,#240,#242,.T.);
#238 = VERTEX_POINT('',#239);
#239 = CARTESIAN_POINT('',(-49.45,-66.5,85.5));
#240 = VERTEX_POINT('',#241);
#241 = CARTESIAN_POINT('',(-52.95,-66.5,85.5));
#242 = CIRCLE('',#243,1.75);
#243 = AXIS2_PLACEMENT_3D('',#244,#245,#246);
#244 = CARTESIAN_POINT('',(-51.2,-66.5,85.5));
#245 = DIRECTION('',(0.,1.,0.));
#246 = DIRECTION('',(0.,-0.,1.));
#247 = ORIENTED_EDGE('',*,*,#248,.T.);
#248 = EDGE_CURVE('',#240,#249,#251,.T.);
#249 = VERTEX_POINT('',#250);
#250 = CARTESIAN_POINT('',(-52.95,-66.5,99.5));
#251 = LINE('',#252,#253);
#252 = CARTESIAN_POINT('',(-52.95,-66.5,108.52011463998));
#253 = VECTOR('',#254,1.);
#254 = DIRECTION('',(0.,-0.,1.));
#255 = ORIENTED_EDGE('',*,*,#256,.T.);
#256 = EDGE_CURVE('',#249,#257,#259,.T.);
#257 = VERTEX_POINT('',#258);
#258 = CARTESIAN_POINT('',(-51.2,-66.5,101.25));
#259 = CIRCLE('',#260,1.75);
#260 = AXIS2_PLACEMENT_3D('',#261,#262,#263);
#261 = CARTESIAN_POINT('',(-51.2,-66.5,99.5));
#262 = DIRECTION('',(0.,1.,0.));
#263 = DIRECTION('',(0.,-0.,1.));
#264 = ORIENTED_EDGE('',*,*,#265,.T.);
#265 = EDGE_CURVE('',#257,#266,#268,.T.);
#266 = VERTEX_POINT('',#267);
#267 = CARTESIAN_POINT('',(-49.45,-66.5,99.5));
#268 = CIRCLE('',#269,1.75);
#269 = AXIS2_PLACEMENT_3D('',#270,#271,#272);
#270 = CARTESIAN_POINT('',(-51.2,-66.5,99.5));
#271 = DIRECTION('',(0.,1.,0.));
#272 = DIRECTION('',(0.,-0.,1.));
#273 = ORIENTED_EDGE('',*,*,#274,.F.);
#274 = EDGE_CURVE('',#238,#266,#275,.T.);
#275 = LINE('',#276,#277);
#276 = CARTESIAN_POINT('',(-49.45,-66.5,108.52011463998));
#277 = VECTOR('',#278,1.);
#278 = DIRECTION('',(0.,-0.,1.));
#279 = FACE_BOUND('',#280,.T.);
#280 = EDGE_LOOP('',(#281,#292,#300,#309,#318));
#281 = ORIENTED_EDGE('',*,*,#282,.T.);
#282 = EDGE_CURVE('',#283,#285,#287,.T.);
#283 = VERTEX_POINT('',#284);
#284 = CARTESIAN_POINT('',(-18.45,-66.5,116.5));
#285 = VERTEX_POINT('',#286);
#286 = CARTESIAN_POINT('',(-21.95,-66.5,116.5));
#287 = CIRCLE('',#288,1.75);
#288 = AXIS2_PLACEMENT_3D('',#289,#290,#291);
#289 = CARTESIAN_POINT('',(-20.2,-66.5,116.5));
#290 = DIRECTION('',(0.,1.,0.));
#291 = DIRECTION('',(0.,-0.,1.));
#292 = ORIENTED_EDGE('',*,*,#293,.T.);
#293 = EDGE_CURVE('',#285,#294,#296,.T.);
#294 = VERTEX_POINT('',#295);
#295 = CARTESIAN_POINT('',(-21.95,-66.5,130.5));
#296 = LINE('',#297,#298);
#297 = CARTESIAN_POINT('',(-21.95,-66.5,124.02011463998));
#298 = VECTOR('',#299,1.);
#299 = DIRECTION('',(0.,-0.,1.));
#300 = ORIENTED_EDGE('',*,*,#301,.T.);
#301 = EDGE_CURVE('',#294,#302,#304,.T.);
#302 = VERTEX_POINT('',#303);
#303 = CARTESIAN_POINT('',(-20.2,-66.5,132.25));
#304 = CIRCLE('',#305,1.75);
#305 = AXIS2_PLACEMENT_3D('',#306,#307,#308);
#306 = CARTESIAN_POINT('',(-20.2,-66.5,130.5));
#307 = DIRECTION('',(0.,1.,0.));
#308 = DIRECTION('',(0.,-0.,1.));
#309 = ORIENTED_EDGE('',*,*,#310,.T.);
#310 = EDGE_CURVE('',#302,#311,#313,.T.);
#311 = VERTEX_POINT('',#312);
#312 = CARTESIAN_POINT('',(-18.45,-66.5,130.5));
#313 = CIRCLE('',#314,1.75);
#314 = AXIS2_PLACEMENT_3D('',#315,#316,#317);
#315 = CARTESIAN_POINT('',(-20.2,-66.5,130.5));
#316 = DIRECTION('',(0.,1.,0.));
#317 = DIRECTION('',(0.,-0.,1.));
#318 = ORIENTED_EDGE('',*,*,#319,.F.);
#319 = EDGE_CURVE('',#283,#311,#320,.T.);
#320 = LINE('',#321,#322);
#321 = CARTESIAN_POINT('',(-18.45,-66.5,124.02011463998));
#322 = VECTOR('',#323,1.);
#323 = DIRECTION('',(0.,-0.,1.));
#324 = FACE_BOUND('',#325,.T.);
#325 = EDGE_LOOP('',(#326,#337,#345,#354,#363));
#326 = ORIENTED_EDGE('',*,*,#327,.T.);
#327 = EDGE_CURVE('',#328,#330,#332,.T.);
#328 = VERTEX_POINT('',#329);
#329 = CARTESIAN_POINT('',(-24.4,-66.5,101.));
#330 = VERTEX_POINT('',#331);
#331 = CARTESIAN_POINT('',(-47.,-66.5,101.));
#332 = CIRCLE('',#333,11.3);
#333 = AXIS2_PLACEMENT_3D('',#334,#335,#336);
#334 = CARTESIAN_POINT('',(-35.7,-66.5,101.));
#335 = DIRECTION('',(0.,1.,0.));
#336 = DIRECTION('',(0.,-0.,1.));
#337 = ORIENTED_EDGE('',*,*,#338,.T.);
#338 = EDGE_CURVE('',#330,#339,#341,.T.);
#339 = VERTEX_POINT('',#340);
#340 = CARTESIAN_POINT('',(-47.,-66.5,115.));
#341 = LINE('',#342,#343);
#342 = CARTESIAN_POINT('',(-47.,-66.5,116.27011463998));
#343 = VECTOR('',#344,1.);
#344 = DIRECTION('',(0.,-0.,1.));
#345 = ORIENTED_EDGE('',*,*,#346,.T.);
#346 = EDGE_CURVE('',#339,#347,#349,.T.);
#347 = VERTEX_POINT('',#348);
#348 = CARTESIAN_POINT('',(-35.7,-66.5,126.3));
#349 = CIRCLE('',#350,11.3);
#350 = AXIS2_PLACEMENT_3D('',#351,#352,#353);
#351 = CARTESIAN_POINT('',(-35.7,-66.5,115.));
#352 = DIRECTION('',(0.,1.,0.));
#353 = DIRECTION('',(0.,-0.,1.));
#354 = ORIENTED_EDGE('',*,*,#355,.T.);
#355 = EDGE_CURVE('',#347,#356,#358,.T.);
#356 = VERTEX_POINT('',#357);
#357 = CARTESIAN_POINT('',(-24.4,-66.5,115.));
#358 = CIRCLE('',#359,11.3);
#359 = AXIS2_PLACEMENT_3D('',#360,#361,#362);
#360 = CARTESIAN_POINT('',(-35.7,-66.5,115.));
#361 = DIRECTION('',(0.,1.,0.));
#362 = DIRECTION('',(0.,-0.,1.));
#363 = ORIENTED_EDGE('',*,*,#364,.F.);
#364 = EDGE_CURVE('',#328,#356,#365,.T.);
#365 = LINE('',#366,#367);
#366 = CARTESIAN_POINT('',(-24.4,-66.5,116.27011463998));
#367 = VECTOR('',#368,1.);
#368 = DIRECTION('',(0.,-0.,1.));
#369 = FACE_BOUND('',#370,.T.);
#370 = EDGE_LOOP('',(#371,#382,#390,#399,#408));
#371 = ORIENTED_EDGE('',*,*,#372,.T.);
#372 = EDGE_CURVE('',#373,#375,#377,.T.);
#373 = VERTEX_POINT('',#374);
#374 = CARTESIAN_POINT('',(-18.45,-66.5,85.5));
#375 = VERTEX_POINT('',#376);
#376 = CARTESIAN_POINT('',(-21.95,-66.5,85.5));
#377 = CIRCLE('',#378,1.75);
#378 = AXIS2_PLACEMENT_3D('',#379,#380,#381);
#379 = CARTESIAN_POINT('',(-20.2,-66.5,85.5));
#380 = DIRECTION('',(0.,1.,0.));
#381 = DIRECTION('',(0.,-0.,1.));
#382 = ORIENTED_EDGE('',*,*,#383,.T.);
#383 = EDGE_CURVE('',#375,#384,#386,.T.);
#384 = VERTEX_POINT('',#385);
#385 = CARTESIAN_POINT('',(-21.95,-66.5,99.5));
#386 = LINE('',#387,#388);
#387 = CARTESIAN_POINT('',(-21.95,-66.5,108.52011463998));
#388 = VECTOR('',#389,1.);
#389 = DIRECTION('',(0.,-0.,1.));
#390 = ORIENTED_EDGE('',*,*,#391,.T.);
#391 = EDGE_CURVE('',#384,#392,#394,.T.);
#392 = VERTEX_POINT('',#393);
#393 = CARTESIAN_POINT('',(-20.2,-66.5,101.25));
#394 = CIRCLE('',#395,1.75);
#395 = AXIS2_PLACEMENT_3D('',#396,#397,#398);
#396 = CARTESIAN_POINT('',(-20.2,-66.5,99.5));
#397 = DIRECTION('',(0.,1.,0.));
#398 = DIRECTION('',(0.,-0.,1.));
#399 = ORIENTED_EDGE('',*,*,#400,.T.);
#400 = EDGE_CURVE('',#392,#401,#403,.T.);
#401 = VERTEX_POINT('',#402);
#402 = CARTESIAN_POINT('',(-18.45,-66.5,99.5));
#403 = CIRCLE('',#404,1.75);
#404 = AXIS2_PLACEMENT_3D('',#405,#406,#407);
#405 = CARTESIAN_POINT('',(-20.2,-66.5,99.5));
#406 = DIRECTION('',(0.,1.,0.));
#407 = DIRECTION('',(0.,-0.,1.));
#408 = ORIENTED_EDGE('',*,*,#409,.F.);
#409 = EDGE_CURVE('',#373,#401,#410,.T.);
#410 = LINE('',#411,#412);
#411 = CARTESIAN_POINT('',(-18.45,-66.5,108.52011463998));
#412 = VECTOR('',#413,1.);
#413 = DIRECTION('',(0.,-0.,1.));
#414 = PLANE('',#415);
#415 = AXIS2_PLACEMENT_3D('',#416,#417,#418);
#416 = CARTESIAN_POINT('',(-11.08011752503,-66.5,131.54022927997));
#417 = DIRECTION('',(-0.,-1.,-0.));
#418 = DIRECTION('',(0.,0.,-1.));
#419 = ADVANCED_FACE('',(#420,#489,#534,#579,#624,#669),#714,.F.);
#420 = FACE_BOUND('',#421,.F.);
#421 = EDGE_LOOP('',(#422,#423,#424,#425,#433,#441,#450,#459,#467,#475,
    #483));
#422 = ORIENTED_EDGE('',*,*,#71,.T.);
#423 = ORIENTED_EDGE('',*,*,#31,.T.);
#424 = ORIENTED_EDGE('',*,*,#93,.T.);
#425 = ORIENTED_EDGE('',*,*,#426,.T.);
#426 = EDGE_CURVE('',#94,#427,#429,.T.);
#427 = VERTEX_POINT('',#428);
#428 = CARTESIAN_POINT('',(31.,-56.5,97.));
#429 = LINE('',#430,#431);
#430 = CARTESIAN_POINT('',(52.,-56.5,97.));
#431 = VECTOR('',#432,1.);
#432 = DIRECTION('',(-1.,0.,0.));
#433 = ORIENTED_EDGE('',*,*,#434,.T.);
#434 = EDGE_CURVE('',#427,#435,#437,.T.);
#435 = VERTEX_POINT('',#436);
#436 = CARTESIAN_POINT('',(28.757381006095,-56.5,175.49166478666));
#437 = LINE('',#438,#439);
#438 = CARTESIAN_POINT('',(31.,-56.5,97.));
#439 = VECTOR('',#440,1.);
#440 = DIRECTION('',(-2.855977389888E-02,0.,0.999592086461));
#441 = ORIENTED_EDGE('',*,*,#442,.T.);
#442 = EDGE_CURVE('',#435,#443,#445,.T.);
#443 = VERTEX_POINT('',#444);
#444 = CARTESIAN_POINT('',(10.3,-56.5,199.));
#445 = CIRCLE('',#446,19.);
#446 = AXIS2_PLACEMENT_3D('',#447,#448,#449);
#447 = CARTESIAN_POINT('',(10.3,-56.5,180.));
#448 = DIRECTION('',(0.,1.,0.));
#449 = DIRECTION('',(0.,-0.,1.));
#450 = ORIENTED_EDGE('',*,*,#451,.T.);
#451 = EDGE_CURVE('',#443,#452,#454,.T.);
#452 = VERTEX_POINT('',#453);
#453 = CARTESIAN_POINT('',(28.469862060789,-56.5,185.55482787239));
#454 = CIRCLE('',#455,19.);
#455 = AXIS2_PLACEMENT_3D('',#456,#457,#458);
#456 = CARTESIAN_POINT('',(10.3,-56.5,180.));
#457 = DIRECTION('',(0.,1.,0.));
#458 = DIRECTION('',(0.,-0.,1.));
#459 = ORIENTED_EDGE('',*,*,#460,.T.);
#460 = EDGE_CURVE('',#452,#461,#463,.T.);
#461 = VERTEX_POINT('',#462);
#462 = CARTESIAN_POINT('',(28.,-56.5,202.));
#463 = LINE('',#464,#465);
#464 = CARTESIAN_POINT('',(31.,-56.5,97.));
#465 = VECTOR('',#466,1.);
#466 = DIRECTION('',(-2.855977389888E-02,0.,0.999592086461));
#467 = ORIENTED_EDGE('',*,*,#468,.T.);
#468 = EDGE_CURVE('',#461,#469,#471,.T.);
#469 = VERTEX_POINT('',#470);
#470 = CARTESIAN_POINT('',(-28.,-56.5,202.));
#471 = LINE('',#472,#473);
#472 = CARTESIAN_POINT('',(28.,-56.5,202.));
#473 = VECTOR('',#474,1.);
#474 = DIRECTION('',(-1.,0.,0.));
#475 = ORIENTED_EDGE('',*,*,#476,.T.);
#476 = EDGE_CURVE('',#469,#477,#479,.T.);
#477 = VERTEX_POINT('',#478);
#478 = CARTESIAN_POINT('',(-31.,-56.5,140.));
#479 = LINE('',#480,#481);
#480 = CARTESIAN_POINT('',(-28.,-56.5,202.));
#481 = VECTOR('',#482,1.);
#482 = DIRECTION('',(-4.833055142332E-02,0.,-0.998831396082));
#483 = ORIENTED_EDGE('',*,*,#484,.T.);
#484 = EDGE_CURVE('',#477,#64,#485,.T.);
#485 = LINE('',#486,#487);
#486 = CARTESIAN_POINT('',(-31.,-56.5,140.));
#487 = VECTOR('',#488,1.);
#488 = DIRECTION('',(-1.,0.,0.));
#489 = FACE_BOUND('',#490,.F.);
#490 = EDGE_LOOP('',(#491,#502,#510,#519,#528));
#491 = ORIENTED_EDGE('',*,*,#492,.T.);
#492 = EDGE_CURVE('',#493,#495,#497,.T.);
#493 = VERTEX_POINT('',#494);
#494 = CARTESIAN_POINT('',(-49.45,-56.5,116.5));
#495 = VERTEX_POINT('',#496);
#496 = CARTESIAN_POINT('',(-52.95,-56.5,116.5));
#497 = CIRCLE('',#498,1.75);
#498 = AXIS2_PLACEMENT_3D('',#499,#500,#501);
#499 = CARTESIAN_POINT('',(-51.2,-56.5,116.5));
#500 = DIRECTION('',(0.,1.,0.));
#501 = DIRECTION('',(0.,-0.,1.));
#502 = ORIENTED_EDGE('',*,*,#503,.T.);
#503 = EDGE_CURVE('',#495,#504,#506,.T.);
#504 = VERTEX_POINT('',#505);
#505 = CARTESIAN_POINT('',(-52.95,-56.5,130.5));
#506 = LINE('',#507,#508);
#507 = CARTESIAN_POINT('',(-52.95,-56.5,124.02011463998));
#508 = VECTOR('',#509,1.);
#509 = DIRECTION('',(0.,-0.,1.));
#510 = ORIENTED_EDGE('',*,*,#511,.T.);
#511 = EDGE_CURVE('',#504,#512,#514,.T.);
#512 = VERTEX_POINT('',#513);
#513 = CARTESIAN_POINT('',(-51.2,-56.5,132.25));
#514 = CIRCLE('',#515,1.75);
#515 = AXIS2_PLACEMENT_3D('',#516,#517,#518);
#516 = CARTESIAN_POINT('',(-51.2,-56.5,130.5));
#517 = DIRECTION('',(0.,1.,0.));
#518 = DIRECTION('',(0.,-0.,1.));
#519 = ORIENTED_EDGE('',*,*,#520,.T.);
#520 = EDGE_CURVE('',#512,#521,#523,.T.);
#521 = VERTEX_POINT('',#522);
#522 = CARTESIAN_POINT('',(-49.45,-56.5,130.5));
#523 = CIRCLE('',#524,1.75);
#524 = AXIS2_PLACEMENT_3D('',#525,#526,#527);
#525 = CARTESIAN_POINT('',(-51.2,-56.5,130.5));
#526 = DIRECTION('',(0.,1.,0.));
#527 = DIRECTION('',(0.,-0.,1.));
#528 = ORIENTED_EDGE('',*,*,#529,.F.);
#529 = EDGE_CURVE('',#493,#521,#530,.T.);
#530 = LINE('',#531,#532);
#531 = CARTESIAN_POINT('',(-49.45,-56.5,124.02011463998));
#532 = VECTOR('',#533,1.);
#533 = DIRECTION('',(0.,-0.,1.));
#534 = FACE_BOUND('',#535,.F.);
#535 = EDGE_LOOP('',(#536,#547,#555,#564,#573));
#536 = ORIENTED_EDGE('',*,*,#537,.T.);
#537 = EDGE_CURVE('',#538,#540,#542,.T.);
#538 = VERTEX_POINT('',#539);
#539 = CARTESIAN_POINT('',(-49.45,-56.5,85.5));
#540 = VERTEX_POINT('',#541);
#541 = CARTESIAN_POINT('',(-52.95,-56.5,85.5));
#542 = CIRCLE('',#543,1.75);
#543 = AXIS2_PLACEMENT_3D('',#544,#545,#546);
#544 = CARTESIAN_POINT('',(-51.2,-56.5,85.5));
#545 = DIRECTION('',(0.,1.,0.));
#546 = DIRECTION('',(0.,-0.,1.));
#547 = ORIENTED_EDGE('',*,*,#548,.T.);
#548 = EDGE_CURVE('',#540,#549,#551,.T.);
#549 = VERTEX_POINT('',#550);
#550 = CARTESIAN_POINT('',(-52.95,-56.5,99.5));
#551 = LINE('',#552,#553);
#552 = CARTESIAN_POINT('',(-52.95,-56.5,108.52011463998));
#553 = VECTOR('',#554,1.);
#554 = DIRECTION('',(0.,-0.,1.));
#555 = ORIENTED_EDGE('',*,*,#556,.T.);
#556 = EDGE_CURVE('',#549,#557,#559,.T.);
#557 = VERTEX_POINT('',#558);
#558 = CARTESIAN_POINT('',(-51.2,-56.5,101.25));
#559 = CIRCLE('',#560,1.75);
#560 = AXIS2_PLACEMENT_3D('',#561,#562,#563);
#561 = CARTESIAN_POINT('',(-51.2,-56.5,99.5));
#562 = DIRECTION('',(0.,1.,0.));
#563 = DIRECTION('',(0.,-0.,1.));
#564 = ORIENTED_EDGE('',*,*,#565,.T.);
#565 = EDGE_CURVE('',#557,#566,#568,.T.);
#566 = VERTEX_POINT('',#567);
#567 = CARTESIAN_POINT('',(-49.45,-56.5,99.5));
#568 = CIRCLE('',#569,1.75);
#569 = AXIS2_PLACEMENT_3D('',#570,#571,#572);
#570 = CARTESIAN_POINT('',(-51.2,-56.5,99.5));
#571 = DIRECTION('',(0.,1.,0.));
#572 = DIRECTION('',(0.,-0.,1.));
#573 = ORIENTED_EDGE('',*,*,#574,.F.);
#574 = EDGE_CURVE('',#538,#566,#575,.T.);
#575 = LINE('',#576,#577);
#576 = CARTESIAN_POINT('',(-49.45,-56.5,108.52011463998));
#577 = VECTOR('',#578,1.);
#578 = DIRECTION('',(0.,-0.,1.));
#579 = FACE_BOUND('',#580,.F.);
#580 = EDGE_LOOP('',(#581,#592,#600,#609,#618));
#581 = ORIENTED_EDGE('',*,*,#582,.T.);
#582 = EDGE_CURVE('',#583,#585,#587,.T.);
#583 = VERTEX_POINT('',#584);
#584 = CARTESIAN_POINT('',(-18.45,-56.5,116.5));
#585 = VERTEX_POINT('',#586);
#586 = CARTESIAN_POINT('',(-21.95,-56.5,116.5));
#587 = CIRCLE('',#588,1.75);
#588 = AXIS2_PLACEMENT_3D('',#589,#590,#591);
#589 = CARTESIAN_POINT('',(-20.2,-56.5,116.5));
#590 = DIRECTION('',(0.,1.,0.));
#591 = DIRECTION('',(0.,-0.,1.));
#592 = ORIENTED_EDGE('',*,*,#593,.T.);
#593 = EDGE_CURVE('',#585,#594,#596,.T.);
#594 = VERTEX_POINT('',#595);
#595 = CARTESIAN_POINT('',(-21.95,-56.5,130.5));
#596 = LINE('',#597,#598);
#597 = CARTESIAN_POINT('',(-21.95,-56.5,124.02011463998));
#598 = VECTOR('',#599,1.);
#599 = DIRECTION('',(0.,-0.,1.));
#600 = ORIENTED_EDGE('',*,*,#601,.T.);
#601 = EDGE_CURVE('',#594,#602,#604,.T.);
#602 = VERTEX_POINT('',#603);
#603 = CARTESIAN_POINT('',(-20.2,-56.5,132.25));
#604 = CIRCLE('',#605,1.75);
#605 = AXIS2_PLACEMENT_3D('',#606,#607,#608);
#606 = CARTESIAN_POINT('',(-20.2,-56.5,130.5));
#607 = DIRECTION('',(0.,1.,0.));
#608 = DIRECTION('',(0.,-0.,1.));
#609 = ORIENTED_EDGE('',*,*,#610,.T.);
#610 = EDGE_CURVE('',#602,#611,#613,.T.);
#611 = VERTEX_POINT('',#612);
#612 = CARTESIAN_POINT('',(-18.45,-56.5,130.5));
#613 = CIRCLE('',#614,1.75);
#614 = AXIS2_PLACEMENT_3D('',#615,#616,#617);
#615 = CARTESIAN_POINT('',(-20.2,-56.5,130.5));
#616 = DIRECTION('',(0.,1.,0.));
#617 = DIRECTION('',(0.,-0.,1.));
#618 = ORIENTED_EDGE('',*,*,#619,.F.);
#619 = EDGE_CURVE('',#583,#611,#620,.T.);
#620 = LINE('',#621,#622);
#621 = CARTESIAN_POINT('',(-18.45,-56.5,124.02011463998));
#622 = VECTOR('',#623,1.);
#623 = DIRECTION('',(0.,-0.,1.));
#624 = FACE_BOUND('',#625,.F.);
#625 = EDGE_LOOP('',(#626,#637,#645,#654,#663));
#626 = ORIENTED_EDGE('',*,*,#627,.T.);
#627 = EDGE_CURVE('',#628,#630,#632,.T.);
#628 = VERTEX_POINT('',#629);
#629 = CARTESIAN_POINT('',(-24.4,-56.5,101.));
#630 = VERTEX_POINT('',#631);
#631 = CARTESIAN_POINT('',(-47.,-56.5,101.));
#632 = CIRCLE('',#633,11.3);
#633 = AXIS2_PLACEMENT_3D('',#634,#635,#636);
#634 = CARTESIAN_POINT('',(-35.7,-56.5,101.));
#635 = DIRECTION('',(0.,1.,0.));
#636 = DIRECTION('',(0.,-0.,1.));
#637 = ORIENTED_EDGE('',*,*,#638,.T.);
#638 = EDGE_CURVE('',#630,#639,#641,.T.);
#639 = VERTEX_POINT('',#640);
#640 = CARTESIAN_POINT('',(-47.,-56.5,115.));
#641 = LINE('',#642,#643);
#642 = CARTESIAN_POINT('',(-47.,-56.5,116.27011463998));
#643 = VECTOR('',#644,1.);
#644 = DIRECTION('',(0.,-0.,1.));
#645 = ORIENTED_EDGE('',*,*,#646,.T.);
#646 = EDGE_CURVE('',#639,#647,#649,.T.);
#647 = VERTEX_POINT('',#648);
#648 = CARTESIAN_POINT('',(-35.7,-56.5,126.3));
#649 = CIRCLE('',#650,11.3);
#650 = AXIS2_PLACEMENT_3D('',#651,#652,#653);
#651 = CARTESIAN_POINT('',(-35.7,-56.5,115.));
#652 = DIRECTION('',(0.,1.,0.));
#653 = DIRECTION('',(0.,-0.,1.));
#654 = ORIENTED_EDGE('',*,*,#655,.T.);
#655 = EDGE_CURVE('',#647,#656,#658,.T.);
#656 = VERTEX_POINT('',#657);
#657 = CARTESIAN_POINT('',(-24.4,-56.5,115.));
#658 = CIRCLE('',#659,11.3);
#659 = AXIS2_PLACEMENT_3D('',#660,#661,#662);
#660 = CARTESIAN_POINT('',(-35.7,-56.5,115.));
#661 = DIRECTION('',(0.,1.,0.));
#662 = DIRECTION('',(0.,-0.,1.));
#663 = ORIENTED_EDGE('',*,*,#664,.F.);
#664 = EDGE_CURVE('',#628,#656,#665,.T.);
#665 = LINE('',#666,#667);
#666 = CARTESIAN_POINT('',(-24.4,-56.5,116.27011463998));
#667 = VECTOR('',#668,1.);
#668 = DIRECTION('',(0.,-0.,1.));
#669 = FACE_BOUND('',#670,.F.);
#670 = EDGE_LOOP('',(#671,#682,#690,#699,#708));
#671 = ORIENTED_EDGE('',*,*,#672,.T.);
#672 = EDGE_CURVE('',#673,#675,#677,.T.);
#673 = VERTEX_POINT('',#674);
#674 = CARTESIAN_POINT('',(-18.45,-56.5,85.5));
#675 = VERTEX_POINT('',#676);
#676 = CARTESIAN_POINT('',(-21.95,-56.5,85.5));
#677 = CIRCLE('',#678,1.75);
#678 = AXIS2_PLACEMENT_3D('',#679,#680,#681);
#679 = CARTESIAN_POINT('',(-20.2,-56.5,85.5));
#680 = DIRECTION('',(0.,1.,0.));
#681 = DIRECTION('',(0.,-0.,1.));
#682 = ORIENTED_EDGE('',*,*,#683,.T.);
#683 = EDGE_CURVE('',#675,#684,#686,.T.);
#684 = VERTEX_POINT('',#685);
#685 = CARTESIAN_POINT('',(-21.95,-56.5,99.5));
#686 = LINE('',#687,#688);
#687 = CARTESIAN_POINT('',(-21.95,-56.5,108.52011463998));
#688 = VECTOR('',#689,1.);
#689 = DIRECTION('',(0.,-0.,1.));
#690 = ORIENTED_EDGE('',*,*,#691,.T.);
#691 = EDGE_CURVE('',#684,#692,#694,.T.);
#692 = VERTEX_POINT('',#693);
#693 = CARTESIAN_POINT('',(-20.2,-56.5,101.25));
#694 = CIRCLE('',#695,1.75);
#695 = AXIS2_PLACEMENT_3D('',#696,#697,#698);
#696 = CARTESIAN_POINT('',(-20.2,-56.5,99.5));
#697 = DIRECTION('',(0.,1.,0.));
#698 = DIRECTION('',(0.,-0.,1.));
#699 = ORIENTED_EDGE('',*,*,#700,.T.);
#700 = EDGE_CURVE('',#692,#701,#703,.T.);
#701 = VERTEX_POINT('',#702);
#702 = CARTESIAN_POINT('',(-18.45,-56.5,99.5));
#703 = CIRCLE('',#704,1.75);
#704 = AXIS2_PLACEMENT_3D('',#705,#706,#707);
#705 = CARTESIAN_POINT('',(-20.2,-56.5,99.5));
#706 = DIRECTION('',(0.,1.,0.));
#707 = DIRECTION('',(0.,-0.,1.));
#708 = ORIENTED_EDGE('',*,*,#709,.F.);
#709 = EDGE_CURVE('',#673,#701,#710,.T.);
#710 = LINE('',#711,#712);
#711 = CARTESIAN_POINT('',(-18.45,-56.5,108.52011463998));
#712 = VECTOR('',#713,1.);
#713 = DIRECTION('',(0.,-0.,1.));
#714 = PLANE('',#715);
#715 = AXIS2_PLACEMENT_3D('',#716,#717,#718);
#716 = CARTESIAN_POINT('',(-11.08011752503,-56.5,131.54022927997));
#717 = DIRECTION('',(-0.,-1.,-0.));
#718 = DIRECTION('',(0.,0.,-1.));
#719 = ADVANCED_FACE('',(#720),#731,.T.);
#720 = FACE_BOUND('',#721,.T.);
#721 = EDGE_LOOP('',(#722,#728,#729,#730));
#722 = ORIENTED_EDGE('',*,*,#723,.T.);
#723 = EDGE_CURVE('',#177,#477,#724,.T.);
#724 = LINE('',#725,#726);
#725 = CARTESIAN_POINT('',(-31.,-66.5,140.));
#726 = VECTOR('',#727,1.);
#727 = DIRECTION('',(0.,1.,0.));
#728 = ORIENTED_EDGE('',*,*,#484,.T.);
#729 = ORIENTED_EDGE('',*,*,#61,.F.);
#730 = ORIENTED_EDGE('',*,*,#184,.F.);
#731 = PLANE('',#732);
#732 = AXIS2_PLACEMENT_3D('',#733,#734,#735);
#733 = CARTESIAN_POINT('',(-31.,-66.5,140.));
#734 = DIRECTION('',(0.,-0.,1.));
#735 = DIRECTION('',(-1.,0.,0.));
#736 = ADVANCED_FACE('',(#737),#748,.T.);
#737 = FACE_BOUND('',#738,.T.);
#738 = EDGE_LOOP('',(#739,#740,#741,#747));
#739 = ORIENTED_EDGE('',*,*,#101,.T.);
#740 = ORIENTED_EDGE('',*,*,#426,.T.);
#741 = ORIENTED_EDGE('',*,*,#742,.F.);
#742 = EDGE_CURVE('',#127,#427,#743,.T.);
#743 = LINE('',#744,#745);
#744 = CARTESIAN_POINT('',(31.,-66.5,97.));
#745 = VECTOR('',#746,1.);
#746 = DIRECTION('',(0.,1.,0.));
#747 = ORIENTED_EDGE('',*,*,#126,.F.);
#748 = PLANE('',#749);
#749 = AXIS2_PLACEMENT_3D('',#750,#751,#752);
#750 = CARTESIAN_POINT('',(52.,-66.5,97.));
#751 = DIRECTION('',(0.,-0.,1.));
#752 = DIRECTION('',(-1.,0.,0.));
#753 = ADVANCED_FACE('',(#754),#765,.T.);
#754 = FACE_BOUND('',#755,.T.);
#755 = EDGE_LOOP('',(#756,#762,#763,#764));
#756 = ORIENTED_EDGE('',*,*,#757,.T.);
#757 = EDGE_CURVE('',#169,#469,#758,.T.);
#758 = LINE('',#759,#760);
#759 = CARTESIAN_POINT('',(-28.,-66.5,202.));
#760 = VECTOR('',#761,1.);
#761 = DIRECTION('',(0.,1.,0.));
#762 = ORIENTED_EDGE('',*,*,#476,.T.);
#763 = ORIENTED_EDGE('',*,*,#723,.F.);
#764 = ORIENTED_EDGE('',*,*,#176,.F.);
#765 = PLANE('',#766);
#766 = AXIS2_PLACEMENT_3D('',#767,#768,#769);
#767 = CARTESIAN_POINT('',(-28.,-66.5,202.));
#768 = DIRECTION('',(-0.998831396082,0.,4.833055142332E-02));
#769 = DIRECTION('',(-4.833055142332E-02,0.,-0.998831396082));
#770 = ADVANCED_FACE('',(#771),#782,.T.);
#771 = FACE_BOUND('',#772,.T.);
#772 = EDGE_LOOP('',(#773,#779,#780,#781));
#773 = ORIENTED_EDGE('',*,*,#774,.T.);
#774 = EDGE_CURVE('',#161,#461,#775,.T.);
#775 = LINE('',#776,#777);
#776 = CARTESIAN_POINT('',(28.,-66.5,202.));
#777 = VECTOR('',#778,1.);
#778 = DIRECTION('',(0.,1.,0.));
#779 = ORIENTED_EDGE('',*,*,#468,.T.);
#780 = ORIENTED_EDGE('',*,*,#757,.F.);
#781 = ORIENTED_EDGE('',*,*,#168,.F.);
#782 = PLANE('',#783);
#783 = AXIS2_PLACEMENT_3D('',#784,#785,#786);
#784 = CARTESIAN_POINT('',(28.,-66.5,202.));
#785 = DIRECTION('',(0.,-0.,1.));
#786 = DIRECTION('',(-1.,0.,0.));
#787 = ADVANCED_FACE('',(#788),#799,.T.);
#788 = FACE_BOUND('',#789,.T.);
#789 = EDGE_LOOP('',(#790,#791,#797,#798));
#790 = ORIENTED_EDGE('',*,*,#160,.F.);
#791 = ORIENTED_EDGE('',*,*,#792,.T.);
#792 = EDGE_CURVE('',#152,#452,#793,.T.);
#793 = LINE('',#794,#795);
#794 = CARTESIAN_POINT('',(28.469862060789,-69.5,185.55482787239));
#795 = VECTOR('',#796,1.);
#796 = DIRECTION('',(0.,1.,0.));
#797 = ORIENTED_EDGE('',*,*,#460,.T.);
#798 = ORIENTED_EDGE('',*,*,#774,.F.);
#799 = PLANE('',#800);
#800 = AXIS2_PLACEMENT_3D('',#801,#802,#803);
#801 = CARTESIAN_POINT('',(31.,-66.5,97.));
#802 = DIRECTION('',(0.999592086461,-0.,2.855977389888E-02));
#803 = DIRECTION('',(-2.855977389888E-02,0.,0.999592086461));
#804 = ADVANCED_FACE('',(#805),#816,.T.);
#805 = FACE_BOUND('',#806,.T.);
#806 = EDGE_LOOP('',(#807,#808,#809,#810));
#807 = ORIENTED_EDGE('',*,*,#134,.F.);
#808 = ORIENTED_EDGE('',*,*,#742,.T.);
#809 = ORIENTED_EDGE('',*,*,#434,.T.);
#810 = ORIENTED_EDGE('',*,*,#811,.F.);
#811 = EDGE_CURVE('',#135,#435,#812,.T.);
#812 = LINE('',#813,#814);
#813 = CARTESIAN_POINT('',(28.757381006095,-69.5,175.49166478666));
#814 = VECTOR('',#815,1.);
#815 = DIRECTION('',(0.,1.,0.));
#816 = PLANE('',#817);
#817 = AXIS2_PLACEMENT_3D('',#818,#819,#820);
#818 = CARTESIAN_POINT('',(31.,-66.5,97.));
#819 = DIRECTION('',(0.999592086461,-0.,2.855977389888E-02));
#820 = DIRECTION('',(-2.855977389888E-02,0.,0.999592086461));
#821 = ADVANCED_FACE('',(#822),#862,.T.);
#822 = FACE_BOUND('',#823,.T.);
#823 = EDGE_LOOP('',(#824,#832,#839,#840,#841,#842,#843,#851,#858,#859,
    #860,#861));
#824 = ORIENTED_EDGE('',*,*,#825,.T.);
#825 = EDGE_CURVE('',#443,#826,#828,.T.);
#826 = VERTEX_POINT('',#827);
#827 = CARTESIAN_POINT('',(10.3,-53.5,199.));
#828 = LINE('',#829,#830);
#829 = CARTESIAN_POINT('',(10.3,-69.5,199.));
#830 = VECTOR('',#831,1.);
#831 = DIRECTION('',(0.,1.,0.));
#832 = ORIENTED_EDGE('',*,*,#833,.F.);
#833 = EDGE_CURVE('',#826,#826,#834,.T.);
#834 = CIRCLE('',#835,19.);
#835 = AXIS2_PLACEMENT_3D('',#836,#837,#838);
#836 = CARTESIAN_POINT('',(10.3,-53.5,180.));
#837 = DIRECTION('',(0.,1.,0.));
#838 = DIRECTION('',(0.,-0.,1.));
#839 = ORIENTED_EDGE('',*,*,#825,.F.);
#840 = ORIENTED_EDGE('',*,*,#451,.T.);
#841 = ORIENTED_EDGE('',*,*,#792,.F.);
#842 = ORIENTED_EDGE('',*,*,#151,.F.);
#843 = ORIENTED_EDGE('',*,*,#844,.F.);
#844 = EDGE_CURVE('',#845,#143,#847,.T.);
#845 = VERTEX_POINT('',#846);
#846 = CARTESIAN_POINT('',(10.3,-69.5,199.));
#847 = LINE('',#848,#849);
#848 = CARTESIAN_POINT('',(10.3,-69.5,199.));
#849 = VECTOR('',#850,1.);
#850 = DIRECTION('',(0.,1.,0.));
#851 = ORIENTED_EDGE('',*,*,#852,.T.);
#852 = EDGE_CURVE('',#845,#845,#853,.T.);
#853 = CIRCLE('',#854,19.);
#854 = AXIS2_PLACEMENT_3D('',#855,#856,#857);
#855 = CARTESIAN_POINT('',(10.3,-69.5,180.));
#856 = DIRECTION('',(0.,1.,0.));
#857 = DIRECTION('',(0.,-0.,1.));
#858 = ORIENTED_EDGE('',*,*,#844,.T.);
#859 = ORIENTED_EDGE('',*,*,#142,.F.);
#860 = ORIENTED_EDGE('',*,*,#811,.T.);
#861 = ORIENTED_EDGE('',*,*,#442,.T.);
#862 = CYLINDRICAL_SURFACE('',#863,19.);
#863 = AXIS2_PLACEMENT_3D('',#864,#865,#866);
#864 = CARTESIAN_POINT('',(10.3,-69.5,180.));
#865 = DIRECTION('',(0.,1.,0.));
#866 = DIRECTION('',(0.,-0.,1.));
#867 = ADVANCED_FACE('',(#868),#884,.F.);
#868 = FACE_BOUND('',#869,.F.);
#869 = EDGE_LOOP('',(#870,#871,#877,#878));
#870 = ORIENTED_EDGE('',*,*,#492,.F.);
#871 = ORIENTED_EDGE('',*,*,#872,.F.);
#872 = EDGE_CURVE('',#193,#493,#873,.T.);
#873 = LINE('',#874,#875);
#874 = CARTESIAN_POINT('',(-49.45,-67.5,116.5));
#875 = VECTOR('',#876,1.);
#876 = DIRECTION('',(-0.,1.,0.));
#877 = ORIENTED_EDGE('',*,*,#192,.T.);
#878 = ORIENTED_EDGE('',*,*,#879,.T.);
#879 = EDGE_CURVE('',#195,#495,#880,.T.);
#880 = LINE('',#881,#882);
#881 = CARTESIAN_POINT('',(-52.95,-67.5,116.5));
#882 = VECTOR('',#883,1.);
#883 = DIRECTION('',(-0.,1.,0.));
#884 = CYLINDRICAL_SURFACE('',#885,1.75);
#885 = AXIS2_PLACEMENT_3D('',#886,#887,#888);
#886 = CARTESIAN_POINT('',(-51.2,-67.5,116.5));
#887 = DIRECTION('',(0.,1.,0.));
#888 = DIRECTION('',(0.,-0.,1.));
#889 = ADVANCED_FACE('',(#890),#901,.F.);
#890 = FACE_BOUND('',#891,.F.);
#891 = EDGE_LOOP('',(#892,#893,#894,#895));
#892 = ORIENTED_EDGE('',*,*,#229,.F.);
#893 = ORIENTED_EDGE('',*,*,#872,.T.);
#894 = ORIENTED_EDGE('',*,*,#529,.T.);
#895 = ORIENTED_EDGE('',*,*,#896,.F.);
#896 = EDGE_CURVE('',#221,#521,#897,.T.);
#897 = LINE('',#898,#899);
#898 = CARTESIAN_POINT('',(-49.45,-67.5,130.5));
#899 = VECTOR('',#900,1.);
#900 = DIRECTION('',(-0.,1.,0.));
#901 = PLANE('',#902);
#902 = AXIS2_PLACEMENT_3D('',#903,#904,#905);
#903 = CARTESIAN_POINT('',(-49.45,-67.5,116.5));
#904 = DIRECTION('',(1.,0.,-0.));
#905 = DIRECTION('',(0.,0.,1.));
#906 = ADVANCED_FACE('',(#907),#918,.T.);
#907 = FACE_BOUND('',#908,.T.);
#908 = EDGE_LOOP('',(#909,#910,#911,#912));
#909 = ORIENTED_EDGE('',*,*,#203,.F.);
#910 = ORIENTED_EDGE('',*,*,#879,.T.);
#911 = ORIENTED_EDGE('',*,*,#503,.T.);
#912 = ORIENTED_EDGE('',*,*,#913,.F.);
#913 = EDGE_CURVE('',#204,#504,#914,.T.);
#914 = LINE('',#915,#916);
#915 = CARTESIAN_POINT('',(-52.95,-67.5,130.5));
#916 = VECTOR('',#917,1.);
#917 = DIRECTION('',(-0.,1.,0.));
#918 = PLANE('',#919);
#919 = AXIS2_PLACEMENT_3D('',#920,#921,#922);
#920 = CARTESIAN_POINT('',(-52.95,-67.5,116.5));
#921 = DIRECTION('',(1.,0.,-0.));
#922 = DIRECTION('',(0.,0.,1.));
#923 = ADVANCED_FACE('',(#924),#935,.F.);
#924 = FACE_BOUND('',#925,.F.);
#925 = EDGE_LOOP('',(#926,#927,#933,#934));
#926 = ORIENTED_EDGE('',*,*,#520,.F.);
#927 = ORIENTED_EDGE('',*,*,#928,.F.);
#928 = EDGE_CURVE('',#212,#512,#929,.T.);
#929 = LINE('',#930,#931);
#930 = CARTESIAN_POINT('',(-51.2,-67.5,132.25));
#931 = VECTOR('',#932,1.);
#932 = DIRECTION('',(0.,1.,0.));
#933 = ORIENTED_EDGE('',*,*,#220,.T.);
#934 = ORIENTED_EDGE('',*,*,#896,.T.);
#935 = CYLINDRICAL_SURFACE('',#936,1.75);
#936 = AXIS2_PLACEMENT_3D('',#937,#938,#939);
#937 = CARTESIAN_POINT('',(-51.2,-67.5,130.5));
#938 = DIRECTION('',(0.,1.,0.));
#939 = DIRECTION('',(0.,-0.,1.));
#940 = ADVANCED_FACE('',(#941),#947,.F.);
#941 = FACE_BOUND('',#942,.F.);
#942 = EDGE_LOOP('',(#943,#944,#945,#946));
#943 = ORIENTED_EDGE('',*,*,#211,.T.);
#944 = ORIENTED_EDGE('',*,*,#928,.T.);
#945 = ORIENTED_EDGE('',*,*,#511,.F.);
#946 = ORIENTED_EDGE('',*,*,#913,.F.);
#947 = CYLINDRICAL_SURFACE('',#948,1.75);
#948 = AXIS2_PLACEMENT_3D('',#949,#950,#951);
#949 = CARTESIAN_POINT('',(-51.2,-67.5,130.5));
#950 = DIRECTION('',(0.,1.,0.));
#951 = DIRECTION('',(0.,-0.,1.));
#952 = ADVANCED_FACE('',(#953),#969,.F.);
#953 = FACE_BOUND('',#954,.F.);
#954 = EDGE_LOOP('',(#955,#956,#962,#963));
#955 = ORIENTED_EDGE('',*,*,#537,.F.);
#956 = ORIENTED_EDGE('',*,*,#957,.F.);
#957 = EDGE_CURVE('',#238,#538,#958,.T.);
#958 = LINE('',#959,#960);
#959 = CARTESIAN_POINT('',(-49.45,-67.5,85.5));
#960 = VECTOR('',#961,1.);
#961 = DIRECTION('',(-0.,1.,0.));
#962 = ORIENTED_EDGE('',*,*,#237,.T.);
#963 = ORIENTED_EDGE('',*,*,#964,.T.);
#964 = EDGE_CURVE('',#240,#540,#965,.T.);
#965 = LINE('',#966,#967);
#966 = CARTESIAN_POINT('',(-52.95,-67.5,85.5));
#967 = VECTOR('',#968,1.);
#968 = DIRECTION('',(-0.,1.,0.));
#969 = CYLINDRICAL_SURFACE('',#970,1.75);
#970 = AXIS2_PLACEMENT_3D('',#971,#972,#973);
#971 = CARTESIAN_POINT('',(-51.2,-67.5,85.5));
#972 = DIRECTION('',(0.,1.,0.));
#973 = DIRECTION('',(0.,-0.,1.));
#974 = ADVANCED_FACE('',(#975),#986,.F.);
#975 = FACE_BOUND('',#976,.F.);
#976 = EDGE_LOOP('',(#977,#978,#979,#980));
#977 = ORIENTED_EDGE('',*,*,#274,.F.);
#978 = ORIENTED_EDGE('',*,*,#957,.T.);
#979 = ORIENTED_EDGE('',*,*,#574,.T.);
#980 = ORIENTED_EDGE('',*,*,#981,.F.);
#981 = EDGE_CURVE('',#266,#566,#982,.T.);
#982 = LINE('',#983,#984);
#983 = CARTESIAN_POINT('',(-49.45,-67.5,99.5));
#984 = VECTOR('',#985,1.);
#985 = DIRECTION('',(-0.,1.,0.));
#986 = PLANE('',#987);
#987 = AXIS2_PLACEMENT_3D('',#988,#989,#990);
#988 = CARTESIAN_POINT('',(-49.45,-67.5,85.5));
#989 = DIRECTION('',(1.,0.,-0.));
#990 = DIRECTION('',(0.,0.,1.));
#991 = ADVANCED_FACE('',(#992),#1003,.T.);
#992 = FACE_BOUND('',#993,.T.);
#993 = EDGE_LOOP('',(#994,#995,#996,#997));
#994 = ORIENTED_EDGE('',*,*,#248,.F.);
#995 = ORIENTED_EDGE('',*,*,#964,.T.);
#996 = ORIENTED_EDGE('',*,*,#548,.T.);
#997 = ORIENTED_EDGE('',*,*,#998,.F.);
#998 = EDGE_CURVE('',#249,#549,#999,.T.);
#999 = LINE('',#1000,#1001);
#1000 = CARTESIAN_POINT('',(-52.95,-67.5,99.5));
#1001 = VECTOR('',#1002,1.);
#1002 = DIRECTION('',(-0.,1.,0.));
#1003 = PLANE('',#1004);
#1004 = AXIS2_PLACEMENT_3D('',#1005,#1006,#1007);
#1005 = CARTESIAN_POINT('',(-52.95,-67.5,85.5));
#1006 = DIRECTION('',(1.,0.,-0.));
#1007 = DIRECTION('',(0.,0.,1.));
#1008 = ADVANCED_FACE('',(#1009),#1020,.F.);
#1009 = FACE_BOUND('',#1010,.F.);
#1010 = EDGE_LOOP('',(#1011,#1012,#1018,#1019));
#1011 = ORIENTED_EDGE('',*,*,#565,.F.);
#1012 = ORIENTED_EDGE('',*,*,#1013,.F.);
#1013 = EDGE_CURVE('',#257,#557,#1014,.T.);
#1014 = LINE('',#1015,#1016);
#1015 = CARTESIAN_POINT('',(-51.2,-67.5,101.25));
#1016 = VECTOR('',#1017,1.);
#1017 = DIRECTION('',(0.,1.,0.));
#1018 = ORIENTED_EDGE('',*,*,#265,.T.);
#1019 = ORIENTED_EDGE('',*,*,#981,.T.);
#1020 = CYLINDRICAL_SURFACE('',#1021,1.75);
#1021 = AXIS2_PLACEMENT_3D('',#1022,#1023,#1024);
#1022 = CARTESIAN_POINT('',(-51.2,-67.5,99.5));
#1023 = DIRECTION('',(0.,1.,0.));
#1024 = DIRECTION('',(0.,-0.,1.));
#1025 = ADVANCED_FACE('',(#1026),#1032,.F.);
#1026 = FACE_BOUND('',#1027,.F.);
#1027 = EDGE_LOOP('',(#1028,#1029,#1030,#1031));
#1028 = ORIENTED_EDGE('',*,*,#256,.T.);
#1029 = ORIENTED_EDGE('',*,*,#1013,.T.);
#1030 = ORIENTED_EDGE('',*,*,#556,.F.);
#1031 = ORIENTED_EDGE('',*,*,#998,.F.);
#1032 = CYLINDRICAL_SURFACE('',#1033,1.75);
#1033 = AXIS2_PLACEMENT_3D('',#1034,#1035,#1036);
#1034 = CARTESIAN_POINT('',(-51.2,-67.5,99.5));
#1035 = DIRECTION('',(0.,1.,0.));
#1036 = DIRECTION('',(0.,-0.,1.));
#1037 = ADVANCED_FACE('',(#1038),#1054,.F.);
#1038 = FACE_BOUND('',#1039,.F.);
#1039 = EDGE_LOOP('',(#1040,#1041,#1047,#1048));
#1040 = ORIENTED_EDGE('',*,*,#582,.F.);
#1041 = ORIENTED_EDGE('',*,*,#1042,.F.);
#1042 = EDGE_CURVE('',#283,#583,#1043,.T.);
#1043 = LINE('',#1044,#1045);
#1044 = CARTESIAN_POINT('',(-18.45,-67.5,116.5));
#1045 = VECTOR('',#1046,1.);
#1046 = DIRECTION('',(-0.,1.,0.));
#1047 = ORIENTED_EDGE('',*,*,#282,.T.);
#1048 = ORIENTED_EDGE('',*,*,#1049,.T.);
#1049 = EDGE_CURVE('',#285,#585,#1050,.T.);
#1050 = LINE('',#1051,#1052);
#1051 = CARTESIAN_POINT('',(-21.95,-67.5,116.5));
#1052 = VECTOR('',#1053,1.);
#1053 = DIRECTION('',(-0.,1.,0.));
#1054 = CYLINDRICAL_SURFACE('',#1055,1.75);
#1055 = AXIS2_PLACEMENT_3D('',#1056,#1057,#1058);
#1056 = CARTESIAN_POINT('',(-20.2,-67.5,116.5));
#1057 = DIRECTION('',(0.,1.,0.));
#1058 = DIRECTION('',(0.,-0.,1.));
#1059 = ADVANCED_FACE('',(#1060),#1071,.F.);
#1060 = FACE_BOUND('',#1061,.F.);
#1061 = EDGE_LOOP('',(#1062,#1063,#1064,#1065));
#1062 = ORIENTED_EDGE('',*,*,#319,.F.);
#1063 = ORIENTED_EDGE('',*,*,#1042,.T.);
#1064 = ORIENTED_EDGE('',*,*,#619,.T.);
#1065 = ORIENTED_EDGE('',*,*,#1066,.F.);
#1066 = EDGE_CURVE('',#311,#611,#1067,.T.);
#1067 = LINE('',#1068,#1069);
#1068 = CARTESIAN_POINT('',(-18.45,-67.5,130.5));
#1069 = VECTOR('',#1070,1.);
#1070 = DIRECTION('',(-0.,1.,0.));
#1071 = PLANE('',#1072);
#1072 = AXIS2_PLACEMENT_3D('',#1073,#1074,#1075);
#1073 = CARTESIAN_POINT('',(-18.45,-67.5,116.5));
#1074 = DIRECTION('',(1.,0.,-0.));
#1075 = DIRECTION('',(0.,0.,1.));
#1076 = ADVANCED_FACE('',(#1077),#1088,.F.);
#1077 = FACE_BOUND('',#1078,.F.);
#1078 = EDGE_LOOP('',(#1079,#1080,#1086,#1087));
#1079 = ORIENTED_EDGE('',*,*,#610,.F.);
#1080 = ORIENTED_EDGE('',*,*,#1081,.F.);
#1081 = EDGE_CURVE('',#302,#602,#1082,.T.);
#1082 = LINE('',#1083,#1084);
#1083 = CARTESIAN_POINT('',(-20.2,-67.5,132.25));
#1084 = VECTOR('',#1085,1.);
#1085 = DIRECTION('',(0.,1.,0.));
#1086 = ORIENTED_EDGE('',*,*,#310,.T.);
#1087 = ORIENTED_EDGE('',*,*,#1066,.T.);
#1088 = CYLINDRICAL_SURFACE('',#1089,1.75);
#1089 = AXIS2_PLACEMENT_3D('',#1090,#1091,#1092);
#1090 = CARTESIAN_POINT('',(-20.2,-67.5,130.5));
#1091 = DIRECTION('',(0.,1.,0.));
#1092 = DIRECTION('',(0.,-0.,1.));
#1093 = ADVANCED_FACE('',(#1094),#1105,.F.);
#1094 = FACE_BOUND('',#1095,.F.);
#1095 = EDGE_LOOP('',(#1096,#1097,#1098,#1099));
#1096 = ORIENTED_EDGE('',*,*,#301,.T.);
#1097 = ORIENTED_EDGE('',*,*,#1081,.T.);
#1098 = ORIENTED_EDGE('',*,*,#601,.F.);
#1099 = ORIENTED_EDGE('',*,*,#1100,.F.);
#1100 = EDGE_CURVE('',#294,#594,#1101,.T.);
#1101 = LINE('',#1102,#1103);
#1102 = CARTESIAN_POINT('',(-21.95,-67.5,130.5));
#1103 = VECTOR('',#1104,1.);
#1104 = DIRECTION('',(-0.,1.,0.));
#1105 = CYLINDRICAL_SURFACE('',#1106,1.75);
#1106 = AXIS2_PLACEMENT_3D('',#1107,#1108,#1109);
#1107 = CARTESIAN_POINT('',(-20.2,-67.5,130.5));
#1108 = DIRECTION('',(0.,1.,0.));
#1109 = DIRECTION('',(0.,-0.,1.));
#1110 = ADVANCED_FACE('',(#1111),#1117,.T.);
#1111 = FACE_BOUND('',#1112,.T.);
#1112 = EDGE_LOOP('',(#1113,#1114,#1115,#1116));
#1113 = ORIENTED_EDGE('',*,*,#293,.F.);
#1114 = ORIENTED_EDGE('',*,*,#1049,.T.);
#1115 = ORIENTED_EDGE('',*,*,#593,.T.);
#1116 = ORIENTED_EDGE('',*,*,#1100,.F.);
#1117 = PLANE('',#1118);
#1118 = AXIS2_PLACEMENT_3D('',#1119,#1120,#1121);
#1119 = CARTESIAN_POINT('',(-21.95,-67.5,116.5));
#1120 = DIRECTION('',(1.,0.,-0.));
#1121 = DIRECTION('',(0.,0.,1.));
#1122 = ADVANCED_FACE('',(#1123),#1139,.F.);
#1123 = FACE_BOUND('',#1124,.F.);
#1124 = EDGE_LOOP('',(#1125,#1126,#1132,#1133));
#1125 = ORIENTED_EDGE('',*,*,#627,.F.);
#1126 = ORIENTED_EDGE('',*,*,#1127,.F.);
#1127 = EDGE_CURVE('',#328,#628,#1128,.T.);
#1128 = LINE('',#1129,#1130);
#1129 = CARTESIAN_POINT('',(-24.4,-67.5,101.));
#1130 = VECTOR('',#1131,1.);
#1131 = DIRECTION('',(-0.,1.,0.));
#1132 = ORIENTED_EDGE('',*,*,#327,.T.);
#1133 = ORIENTED_EDGE('',*,*,#1134,.T.);
#1134 = EDGE_CURVE('',#330,#630,#1135,.T.);
#1135 = LINE('',#1136,#1137);
#1136 = CARTESIAN_POINT('',(-47.,-67.5,101.));
#1137 = VECTOR('',#1138,1.);
#1138 = DIRECTION('',(-0.,1.,0.));
#1139 = CYLINDRICAL_SURFACE('',#1140,11.3);
#1140 = AXIS2_PLACEMENT_3D('',#1141,#1142,#1143);
#1141 = CARTESIAN_POINT('',(-35.7,-67.5,101.));
#1142 = DIRECTION('',(0.,1.,0.));
#1143 = DIRECTION('',(0.,-0.,1.));
#1144 = ADVANCED_FACE('',(#1145),#1156,.F.);
#1145 = FACE_BOUND('',#1146,.F.);
#1146 = EDGE_LOOP('',(#1147,#1148,#1149,#1150));
#1147 = ORIENTED_EDGE('',*,*,#364,.F.);
#1148 = ORIENTED_EDGE('',*,*,#1127,.T.);
#1149 = ORIENTED_EDGE('',*,*,#664,.T.);
#1150 = ORIENTED_EDGE('',*,*,#1151,.F.);
#1151 = EDGE_CURVE('',#356,#656,#1152,.T.);
#1152 = LINE('',#1153,#1154);
#1153 = CARTESIAN_POINT('',(-24.4,-67.5,115.));
#1154 = VECTOR('',#1155,1.);
#1155 = DIRECTION('',(-0.,1.,0.));
#1156 = PLANE('',#1157);
#1157 = AXIS2_PLACEMENT_3D('',#1158,#1159,#1160);
#1158 = CARTESIAN_POINT('',(-24.4,-67.5,101.));
#1159 = DIRECTION('',(1.,0.,-0.));
#1160 = DIRECTION('',(0.,0.,1.));
#1161 = ADVANCED_FACE('',(#1162),#1173,.T.);
#1162 = FACE_BOUND('',#1163,.T.);
#1163 = EDGE_LOOP('',(#1164,#1165,#1166,#1167));
#1164 = ORIENTED_EDGE('',*,*,#338,.F.);
#1165 = ORIENTED_EDGE('',*,*,#1134,.T.);
#1166 = ORIENTED_EDGE('',*,*,#638,.T.);
#1167 = ORIENTED_EDGE('',*,*,#1168,.F.);
#1168 = EDGE_CURVE('',#339,#639,#1169,.T.);
#1169 = LINE('',#1170,#1171);
#1170 = CARTESIAN_POINT('',(-47.,-67.5,115.));
#1171 = VECTOR('',#1172,1.);
#1172 = DIRECTION('',(-0.,1.,0.));
#1173 = PLANE('',#1174);
#1174 = AXIS2_PLACEMENT_3D('',#1175,#1176,#1177);
#1175 = CARTESIAN_POINT('',(-47.,-67.5,101.));
#1176 = DIRECTION('',(1.,0.,-0.));
#1177 = DIRECTION('',(0.,0.,1.));
#1178 = ADVANCED_FACE('',(#1179),#1190,.F.);
#1179 = FACE_BOUND('',#1180,.F.);
#1180 = EDGE_LOOP('',(#1181,#1182,#1188,#1189));
#1181 = ORIENTED_EDGE('',*,*,#655,.F.);
#1182 = ORIENTED_EDGE('',*,*,#1183,.F.);
#1183 = EDGE_CURVE('',#347,#647,#1184,.T.);
#1184 = LINE('',#1185,#1186);
#1185 = CARTESIAN_POINT('',(-35.7,-67.5,126.3));
#1186 = VECTOR('',#1187,1.);
#1187 = DIRECTION('',(0.,1.,0.));
#1188 = ORIENTED_EDGE('',*,*,#355,.T.);
#1189 = ORIENTED_EDGE('',*,*,#1151,.T.);
#1190 = CYLINDRICAL_SURFACE('',#1191,11.3);
#1191 = AXIS2_PLACEMENT_3D('',#1192,#1193,#1194);
#1192 = CARTESIAN_POINT('',(-35.7,-67.5,115.));
#1193 = DIRECTION('',(0.,1.,0.));
#1194 = DIRECTION('',(0.,-0.,1.));
#1195 = ADVANCED_FACE('',(#1196),#1202,.F.);
#1196 = FACE_BOUND('',#1197,.F.);
#1197 = EDGE_LOOP('',(#1198,#1199,#1200,#1201));
#1198 = ORIENTED_EDGE('',*,*,#346,.T.);
#1199 = ORIENTED_EDGE('',*,*,#1183,.T.);
#1200 = ORIENTED_EDGE('',*,*,#646,.F.);
#1201 = ORIENTED_EDGE('',*,*,#1168,.F.);
#1202 = CYLINDRICAL_SURFACE('',#1203,11.3);
#1203 = AXIS2_PLACEMENT_3D('',#1204,#1205,#1206);
#1204 = CARTESIAN_POINT('',(-35.7,-67.5,115.));
#1205 = DIRECTION('',(0.,1.,0.));
#1206 = DIRECTION('',(0.,-0.,1.));
#1207 = ADVANCED_FACE('',(#1208),#1224,.F.);
#1208 = FACE_BOUND('',#1209,.F.);
#1209 = EDGE_LOOP('',(#1210,#1211,#1217,#1218));
#1210 = ORIENTED_EDGE('',*,*,#672,.F.);
#1211 = ORIENTED_EDGE('',*,*,#1212,.F.);
#1212 = EDGE_CURVE('',#373,#673,#1213,.T.);
#1213 = LINE('',#1214,#1215);
#1214 = CARTESIAN_POINT('',(-18.45,-67.5,85.5));
#1215 = VECTOR('',#1216,1.);
#1216 = DIRECTION('',(-0.,1.,0.));
#1217 = ORIENTED_EDGE('',*,*,#372,.T.);
#1218 = ORIENTED_EDGE('',*,*,#1219,.T.);
#1219 = EDGE_CURVE('',#375,#675,#1220,.T.);
#1220 = LINE('',#1221,#1222);
#1221 = CARTESIAN_POINT('',(-21.95,-67.5,85.5));
#1222 = VECTOR('',#1223,1.);
#1223 = DIRECTION('',(-0.,1.,0.));
#1224 = CYLINDRICAL_SURFACE('',#1225,1.75);
#1225 = AXIS2_PLACEMENT_3D('',#1226,#1227,#1228);
#1226 = CARTESIAN_POINT('',(-20.2,-67.5,85.5));
#1227 = DIRECTION('',(0.,1.,0.));
#1228 = DIRECTION('',(0.,-0.,1.));
#1229 = ADVANCED_FACE('',(#1230),#1241,.F.);
#1230 = FACE_BOUND('',#1231,.F.);
#1231 = EDGE_LOOP('',(#1232,#1233,#1234,#1235));
#1232 = ORIENTED_EDGE('',*,*,#409,.F.);
#1233 = ORIENTED_EDGE('',*,*,#1212,.T.);
#1234 = ORIENTED_EDGE('',*,*,#709,.T.);
#1235 = ORIENTED_EDGE('',*,*,#1236,.F.);
#1236 = EDGE_CURVE('',#401,#701,#1237,.T.);
#1237 = LINE('',#1238,#1239);
#1238 = CARTESIAN_POINT('',(-18.45,-67.5,99.5));
#1239 = VECTOR('',#1240,1.);
#1240 = DIRECTION('',(-0.,1.,0.));
#1241 = PLANE('',#1242);
#1242 = AXIS2_PLACEMENT_3D('',#1243,#1244,#1245);
#1243 = CARTESIAN_POINT('',(-18.45,-67.5,85.5));
#1244 = DIRECTION('',(1.,0.,-0.));
#1245 = DIRECTION('',(0.,0.,1.));
#1246 = ADVANCED_FACE('',(#1247),#1258,.T.);
#1247 = FACE_BOUND('',#1248,.T.);
#1248 = EDGE_LOOP('',(#1249,#1250,#1251,#1252));
#1249 = ORIENTED_EDGE('',*,*,#383,.F.);
#1250 = ORIENTED_EDGE('',*,*,#1219,.T.);
#1251 = ORIENTED_EDGE('',*,*,#683,.T.);
#1252 = ORIENTED_EDGE('',*,*,#1253,.F.);
#1253 = EDGE_CURVE('',#384,#684,#1254,.T.);
#1254 = LINE('',#1255,#1256);
#1255 = CARTESIAN_POINT('',(-21.95,-67.5,99.5));
#1256 = VECTOR('',#1257,1.);
#1257 = DIRECTION('',(-0.,1.,0.));
#1258 = PLANE('',#1259);
#1259 = AXIS2_PLACEMENT_3D('',#1260,#1261,#1262);
#1260 = CARTESIAN_POINT('',(-21.95,-67.5,85.5));
#1261 = DIRECTION('',(1.,0.,-0.));
#1262 = DIRECTION('',(0.,0.,1.));
#1263 = ADVANCED_FACE('',(#1264),#1275,.F.);
#1264 = FACE_BOUND('',#1265,.F.);
#1265 = EDGE_LOOP('',(#1266,#1267,#1273,#1274));
#1266 = ORIENTED_EDGE('',*,*,#700,.F.);
#1267 = ORIENTED_EDGE('',*,*,#1268,.F.);
#1268 = EDGE_CURVE('',#392,#692,#1269,.T.);
#1269 = LINE('',#1270,#1271);
#1270 = CARTESIAN_POINT('',(-20.2,-67.5,101.25));
#1271 = VECTOR('',#1272,1.);
#1272 = DIRECTION('',(0.,1.,0.));
#1273 = ORIENTED_EDGE('',*,*,#400,.T.);
#1274 = ORIENTED_EDGE('',*,*,#1236,.T.);
#1275 = CYLINDRICAL_SURFACE('',#1276,1.75);
#1276 = AXIS2_PLACEMENT_3D('',#1277,#1278,#1279);
#1277 = CARTESIAN_POINT('',(-20.2,-67.5,99.5));
#1278 = DIRECTION('',(0.,1.,0.));
#1279 = DIRECTION('',(0.,-0.,1.));
#1280 = ADVANCED_FACE('',(#1281),#1287,.F.);
#1281 = FACE_BOUND('',#1282,.F.);
#1282 = EDGE_LOOP('',(#1283,#1284,#1285,#1286));
#1283 = ORIENTED_EDGE('',*,*,#391,.T.);
#1284 = ORIENTED_EDGE('',*,*,#1268,.T.);
#1285 = ORIENTED_EDGE('',*,*,#691,.F.);
#1286 = ORIENTED_EDGE('',*,*,#1253,.F.);
#1287 = CYLINDRICAL_SURFACE('',#1288,1.75);
#1288 = AXIS2_PLACEMENT_3D('',#1289,#1290,#1291);
#1289 = CARTESIAN_POINT('',(-20.2,-67.5,99.5));
#1290 = DIRECTION('',(0.,1.,0.));
#1291 = DIRECTION('',(0.,-0.,1.));
#1292 = ADVANCED_FACE('',(#1293,#1296),#1307,.F.);
#1293 = FACE_BOUND('',#1294,.F.);
#1294 = EDGE_LOOP('',(#1295));
#1295 = ORIENTED_EDGE('',*,*,#852,.T.);
#1296 = FACE_BOUND('',#1297,.F.);
#1297 = EDGE_LOOP('',(#1298));
#1298 = ORIENTED_EDGE('',*,*,#1299,.F.);
#1299 = EDGE_CURVE('',#1300,#1300,#1302,.T.);
#1300 = VERTEX_POINT('',#1301);
#1301 = CARTESIAN_POINT('',(10.3,-69.5,191.06));
#1302 = CIRCLE('',#1303,11.06);
#1303 = AXIS2_PLACEMENT_3D('',#1304,#1305,#1306);
#1304 = CARTESIAN_POINT('',(10.3,-69.5,180.));
#1305 = DIRECTION('',(0.,1.,0.));
#1306 = DIRECTION('',(0.,-0.,1.));
#1307 = PLANE('',#1308);
#1308 = AXIS2_PLACEMENT_3D('',#1309,#1310,#1311);
#1309 = CARTESIAN_POINT('',(10.3,-69.5,180.));
#1310 = DIRECTION('',(0.,1.,0.));
#1311 = DIRECTION('',(0.,-0.,1.));
#1312 = ADVANCED_FACE('',(#1313,#1316),#1327,.T.);
#1313 = FACE_BOUND('',#1314,.T.);
#1314 = EDGE_LOOP('',(#1315));
#1315 = ORIENTED_EDGE('',*,*,#833,.T.);
#1316 = FACE_BOUND('',#1317,.T.);
#1317 = EDGE_LOOP('',(#1318));
#1318 = ORIENTED_EDGE('',*,*,#1319,.F.);
#1319 = EDGE_CURVE('',#1320,#1320,#1322,.T.);
#1320 = VERTEX_POINT('',#1321);
#1321 = CARTESIAN_POINT('',(10.3,-53.5,184.25));
#1322 = CIRCLE('',#1323,4.25);
#1323 = AXIS2_PLACEMENT_3D('',#1324,#1325,#1326);
#1324 = CARTESIAN_POINT('',(10.3,-53.5,180.));
#1325 = DIRECTION('',(0.,1.,0.));
#1326 = DIRECTION('',(0.,-0.,1.));
#1327 = PLANE('',#1328);
#1328 = AXIS2_PLACEMENT_3D('',#1329,#1330,#1331);
#1329 = CARTESIAN_POINT('',(10.3,-53.5,180.));
#1330 = DIRECTION('',(0.,1.,0.));
#1331 = DIRECTION('',(0.,-0.,1.));
#1332 = ADVANCED_FACE('',(#1333),#1352,.F.);
#1333 = FACE_BOUND('',#1334,.F.);
#1334 = EDGE_LOOP('',(#1335,#1343,#1350,#1351));
#1335 = ORIENTED_EDGE('',*,*,#1336,.T.);
#1336 = EDGE_CURVE('',#1300,#1337,#1339,.T.);
#1337 = VERTEX_POINT('',#1338);
#1338 = CARTESIAN_POINT('',(10.3,-61.5,191.06));
#1339 = LINE('',#1340,#1341);
#1340 = CARTESIAN_POINT('',(10.3,-70.5,191.06));
#1341 = VECTOR('',#1342,1.);
#1342 = DIRECTION('',(0.,1.,0.));
#1343 = ORIENTED_EDGE('',*,*,#1344,.F.);
#1344 = EDGE_CURVE('',#1337,#1337,#1345,.T.);
#1345 = CIRCLE('',#1346,11.06);
#1346 = AXIS2_PLACEMENT_3D('',#1347,#1348,#1349);
#1347 = CARTESIAN_POINT('',(10.3,-61.5,180.));
#1348 = DIRECTION('',(0.,1.,0.));
#1349 = DIRECTION('',(0.,-0.,1.));
#1350 = ORIENTED_EDGE('',*,*,#1336,.F.);
#1351 = ORIENTED_EDGE('',*,*,#1299,.T.);
#1352 = CYLINDRICAL_SURFACE('',#1353,11.06);
#1353 = AXIS2_PLACEMENT_3D('',#1354,#1355,#1356);
#1354 = CARTESIAN_POINT('',(10.3,-70.5,180.));
#1355 = DIRECTION('',(0.,1.,0.));
#1356 = DIRECTION('',(0.,-0.,1.));
#1357 = ADVANCED_FACE('',(#1358),#1377,.F.);
#1358 = FACE_BOUND('',#1359,.F.);
#1359 = EDGE_LOOP('',(#1360,#1361,#1369,#1376));
#1360 = ORIENTED_EDGE('',*,*,#1319,.F.);
#1361 = ORIENTED_EDGE('',*,*,#1362,.F.);
#1362 = EDGE_CURVE('',#1363,#1320,#1365,.T.);
#1363 = VERTEX_POINT('',#1364);
#1364 = CARTESIAN_POINT('',(10.3,-61.5,184.25));
#1365 = LINE('',#1366,#1367);
#1366 = CARTESIAN_POINT('',(10.3,-71.5,184.25));
#1367 = VECTOR('',#1368,1.);
#1368 = DIRECTION('',(0.,1.,0.));
#1369 = ORIENTED_EDGE('',*,*,#1370,.T.);
#1370 = EDGE_CURVE('',#1363,#1363,#1371,.T.);
#1371 = CIRCLE('',#1372,4.25);
#1372 = AXIS2_PLACEMENT_3D('',#1373,#1374,#1375);
#1373 = CARTESIAN_POINT('',(10.3,-61.5,180.));
#1374 = DIRECTION('',(0.,1.,0.));
#1375 = DIRECTION('',(0.,-0.,1.));
#1376 = ORIENTED_EDGE('',*,*,#1362,.T.);
#1377 = CYLINDRICAL_SURFACE('',#1378,4.25);
#1378 = AXIS2_PLACEMENT_3D('',#1379,#1380,#1381);
#1379 = CARTESIAN_POINT('',(10.3,-71.5,180.));
#1380 = DIRECTION('',(0.,1.,0.));
#1381 = DIRECTION('',(0.,-0.,1.));
#1382 = ADVANCED_FACE('',(#1383,#1386),#1389,.F.);
#1383 = FACE_BOUND('',#1384,.F.);
#1384 = EDGE_LOOP('',(#1385));
#1385 = ORIENTED_EDGE('',*,*,#1344,.T.);
#1386 = FACE_BOUND('',#1387,.F.);
#1387 = EDGE_LOOP('',(#1388));
#1388 = ORIENTED_EDGE('',*,*,#1370,.F.);
#1389 = PLANE('',#1390);
#1390 = AXIS2_PLACEMENT_3D('',#1391,#1392,#1393);
#1391 = CARTESIAN_POINT('',(10.3,-61.5,180.));
#1392 = DIRECTION('',(0.,1.,0.));
#1393 = DIRECTION('',(0.,-0.,1.));
#1394 = ( GEOMETRIC_REPRESENTATION_CONTEXT(3) 
GLOBAL_UNCERTAINTY_ASSIGNED_CONTEXT((#1398)) 
GLOBAL_UNIT_ASSIGNED_CONTEXT((#1395,#1396,#1397)) REPRESENTATION_CONTEXT
('Context #1','3D Context with UNIT and UNCERTAINTY') );
#1395 = ( LENGTH_UNIT() NAMED_UNIT(*) SI_UNIT(.MILLI.,.METRE.) );
#1396 = ( NAMED_UNIT(*) PLANE_ANGLE_UNIT() SI_UNIT($,.RADIAN.) );
#1397 = ( NAMED_UNIT(*) SI_UNIT($,.STERADIAN.) SOLID_ANGLE_UNIT() );
#1398 = UNCERTAINTY_MEASURE_WITH_UNIT(LENGTH_MEASURE(1.E-07),#1395,
  'distance_accuracy_value','confusion accuracy');
#1399 = PRODUCT_RELATED_PRODUCT_CATEGORY('part',$,(#7));
ENDSEC;
END-ISO-10303-21;
